G04 #@! TF.GenerationSoftware,KiCad,Pcbnew,6.0.5+dfsg-1~bpo11+1*
G04 #@! TF.ProjectId,maglock,6d61676c-6f63-46b2-9e6b-696361645f70,2.1*
G04 #@! TF.SameCoordinates,Original*
G04 #@! TF.FileFunction,Soldermask,Bot*
G04 #@! TF.FilePolarity,Negative*
%FSLAX46Y46*%
G04 Gerber Fmt 4.6, Leading zero omitted, Abs format (unit mm)*
%MOMM*%
%LPD*%
G01*
G04 APERTURE LIST*
%ADD10C,2.000000*%
%ADD11C,3.000000*%
%ADD12R,1.700000X1.700000*%
%ADD13O,1.700000X1.700000*%
%ADD14R,2.750000X4.050000*%
%ADD15C,1.540000*%
%ADD16R,2.400000X2.400000*%
%ADD17C,2.400000*%
%ADD18C,1.440000*%
%ADD19C,0.800000*%
%ADD20C,7.000000*%
%ADD21C,0.650000*%
%ADD22O,1.000000X2.100000*%
%ADD23O,1.000000X1.600000*%
%ADD24R,4.050000X2.750000*%
%ADD25R,1.600000X1.600000*%
%ADD26C,1.600000*%
%ADD27R,1.500000X1.500000*%
%ADD28C,1.500000*%
%ADD29C,5.500000*%
%ADD30C,1.700000*%
G04 APERTURE END LIST*
D10*
X137550000Y-93550000D03*
X137550000Y-88550000D03*
D11*
X176870000Y-62800000D03*
X191070000Y-56800000D03*
X191070000Y-68800000D03*
X178870000Y-68800000D03*
X178870000Y-56800000D03*
D12*
X161388000Y-128527000D03*
D13*
X161388000Y-131067000D03*
X161388000Y-133607000D03*
X161388000Y-136147000D03*
D14*
X144912500Y-76200000D03*
D15*
X144262500Y-74900000D03*
X145562500Y-74900000D03*
G36*
G01*
X146382500Y-74150000D02*
X146382500Y-78250000D01*
G75*
G02*
X146312500Y-78320000I-70000J0D01*
G01*
X143512500Y-78320000D01*
G75*
G02*
X143442500Y-78250000I0J70000D01*
G01*
X143442500Y-74150000D01*
G75*
G02*
X143512500Y-74080000I70000J0D01*
G01*
X146312500Y-74080000D01*
G75*
G02*
X146382500Y-74150000I0J-70000D01*
G01*
G37*
X144262500Y-77500000D03*
X145562500Y-77500000D03*
D16*
X198420000Y-69130000D03*
D17*
X198420000Y-65630000D03*
X198420000Y-62130000D03*
D18*
X134200000Y-55160000D03*
X136740000Y-55160000D03*
X139280000Y-55160000D03*
D16*
X198400000Y-131500000D03*
D17*
X198400000Y-128000000D03*
D16*
X198420000Y-81130000D03*
D17*
X198420000Y-77630000D03*
X198420000Y-74130000D03*
D10*
X155800000Y-93500000D03*
X155800000Y-88500000D03*
D18*
X134262500Y-70600000D03*
X136802500Y-70600000D03*
X139342500Y-70600000D03*
D11*
X176870000Y-78800000D03*
X191070000Y-72800000D03*
X191070000Y-84800000D03*
X178870000Y-84800000D03*
X178870000Y-72800000D03*
D12*
X164400000Y-64300000D03*
D13*
X164400000Y-61760000D03*
X164400000Y-59220000D03*
D16*
X198420000Y-93130000D03*
D17*
X198420000Y-89630000D03*
X198420000Y-86130000D03*
D19*
X197143845Y-102856155D03*
X199000000Y-103625000D03*
X201625000Y-101000000D03*
X200856155Y-102856155D03*
X200856155Y-99143845D03*
X196375000Y-101000000D03*
X199000000Y-98375000D03*
D20*
X199000000Y-101000000D03*
D19*
X197143845Y-99143845D03*
D12*
X164400000Y-79755000D03*
D13*
X164400000Y-77215000D03*
X164400000Y-74675000D03*
D16*
X198400000Y-123000000D03*
D17*
X198400000Y-119500000D03*
D21*
X174410000Y-143700000D03*
X180190000Y-143700000D03*
D22*
X181620000Y-143170000D03*
X172980000Y-143170000D03*
D23*
X181620000Y-147350000D03*
X172980000Y-147350000D03*
D19*
X106375000Y-56000000D03*
X111625000Y-56000000D03*
X110856155Y-57856155D03*
X109000000Y-58625000D03*
X109000000Y-53375000D03*
X107143845Y-57856155D03*
X110856155Y-54143845D03*
D20*
X109000000Y-56000000D03*
D19*
X107143845Y-54143845D03*
D24*
X112670000Y-96200000D03*
D15*
X111370000Y-96850000D03*
X113970000Y-96850000D03*
X113970000Y-95550000D03*
G36*
G01*
X114720000Y-97670000D02*
X110620000Y-97670000D01*
G75*
G02*
X110550000Y-97600000I0J70000D01*
G01*
X110550000Y-94800000D01*
G75*
G02*
X110620000Y-94730000I70000J0D01*
G01*
X114720000Y-94730000D01*
G75*
G02*
X114790000Y-94800000I0J-70000D01*
G01*
X114790000Y-97600000D01*
G75*
G02*
X114720000Y-97670000I-70000J0D01*
G01*
G37*
X111370000Y-95550000D03*
D12*
X164400000Y-95105000D03*
D13*
X164400000Y-92565000D03*
X164400000Y-90025000D03*
D12*
X138528000Y-127257000D03*
D13*
X141068000Y-127257000D03*
X143608000Y-127257000D03*
X146148000Y-127257000D03*
X148688000Y-127257000D03*
X151228000Y-127257000D03*
D16*
X109400000Y-62100000D03*
D17*
X109400000Y-65600000D03*
X109400000Y-69100000D03*
X109400000Y-72600000D03*
D25*
X151747139Y-120087000D03*
D26*
X156747139Y-120087000D03*
D24*
X156100000Y-102220000D03*
D15*
X157400000Y-101570000D03*
G36*
G01*
X154050000Y-100750000D02*
X158150000Y-100750000D01*
G75*
G02*
X158220000Y-100820000I0J-70000D01*
G01*
X158220000Y-103620000D01*
G75*
G02*
X158150000Y-103690000I-70000J0D01*
G01*
X154050000Y-103690000D01*
G75*
G02*
X153980000Y-103620000I0J70000D01*
G01*
X153980000Y-100820000D01*
G75*
G02*
X154050000Y-100750000I70000J0D01*
G01*
G37*
X157400000Y-102870000D03*
X154800000Y-101570000D03*
X154800000Y-102870000D03*
D19*
X122625000Y-117500000D03*
X121856155Y-115643845D03*
X120000000Y-120125000D03*
X118143845Y-115643845D03*
D20*
X120000000Y-117500000D03*
D19*
X120000000Y-114875000D03*
X121856155Y-119356155D03*
X117375000Y-117500000D03*
X118143845Y-119356155D03*
D27*
X111500000Y-135220000D03*
D28*
X114000000Y-135220000D03*
X116000000Y-135220000D03*
X118500000Y-135220000D03*
X111500000Y-137840000D03*
X114000000Y-137840000D03*
X116000000Y-137840000D03*
X118500000Y-137840000D03*
D11*
X108430000Y-140550000D03*
X121570000Y-134870000D03*
X121570000Y-140550000D03*
X108430000Y-134870000D03*
X176920000Y-94800000D03*
X191120000Y-88800000D03*
X191120000Y-100800000D03*
X178920000Y-100800000D03*
X178920000Y-88800000D03*
D16*
X198400000Y-140000000D03*
D17*
X198400000Y-136500000D03*
D12*
X180700000Y-113280000D03*
D13*
X180700000Y-110740000D03*
X180700000Y-108200000D03*
X180700000Y-105660000D03*
D14*
X144900000Y-60760000D03*
D15*
X144250000Y-62060000D03*
X145550000Y-62060000D03*
X144250000Y-59460000D03*
G36*
G01*
X146370000Y-58710000D02*
X146370000Y-62810000D01*
G75*
G02*
X146300000Y-62880000I-70000J0D01*
G01*
X143500000Y-62880000D01*
G75*
G02*
X143430000Y-62810000I0J70000D01*
G01*
X143430000Y-58710000D01*
G75*
G02*
X143500000Y-58640000I70000J0D01*
G01*
X146300000Y-58640000D01*
G75*
G02*
X146370000Y-58710000I0J-70000D01*
G01*
G37*
X145550000Y-59460000D03*
D24*
X137850000Y-102200000D03*
D15*
X139150000Y-101550000D03*
G36*
G01*
X135800000Y-100730000D02*
X139900000Y-100730000D01*
G75*
G02*
X139970000Y-100800000I0J-70000D01*
G01*
X139970000Y-103600000D01*
G75*
G02*
X139900000Y-103670000I-70000J0D01*
G01*
X135800000Y-103670000D01*
G75*
G02*
X135730000Y-103600000I0J70000D01*
G01*
X135730000Y-100800000D01*
G75*
G02*
X135800000Y-100730000I70000J0D01*
G01*
G37*
X139150000Y-102850000D03*
X136550000Y-102850000D03*
X136550000Y-101550000D03*
D10*
X155800000Y-62760000D03*
X155800000Y-57760000D03*
D19*
X199000000Y-58625000D03*
X197143845Y-57856155D03*
X197143845Y-54143845D03*
X200856155Y-54143845D03*
X199000000Y-53375000D03*
X196375000Y-56000000D03*
X201625000Y-56000000D03*
D20*
X199000000Y-56000000D03*
D19*
X200856155Y-57856155D03*
D10*
X155812500Y-78200000D03*
X155812500Y-73200000D03*
D16*
X198400000Y-114500000D03*
D17*
X198400000Y-111000000D03*
D10*
X110720000Y-107100000D03*
X115720000Y-107100000D03*
D12*
X114400000Y-122680000D03*
D13*
X114400000Y-120140000D03*
X114400000Y-117600000D03*
D29*
X167272800Y-105011600D03*
X127242400Y-147023200D03*
X127242400Y-105011600D03*
X167272800Y-147048600D03*
G36*
G01*
X169850000Y-110327000D02*
X169850000Y-111177000D01*
G75*
G02*
X169425000Y-111602000I-425000J0D01*
G01*
X168575000Y-111602000D01*
G75*
G02*
X168150000Y-111177000I0J425000D01*
G01*
X168150000Y-110327000D01*
G75*
G02*
X168575000Y-109902000I425000J0D01*
G01*
X169425000Y-109902000D01*
G75*
G02*
X169850000Y-110327000I0J-425000D01*
G01*
G37*
D30*
X166460000Y-110752000D03*
X169000000Y-113292000D03*
X166460000Y-113292000D03*
X169000000Y-115832000D03*
X166460000Y-115832000D03*
X169000000Y-118372000D03*
X166460000Y-118372000D03*
X169000000Y-120912000D03*
X166460000Y-120912000D03*
X169000000Y-123452000D03*
X166460000Y-123452000D03*
X169000000Y-125992000D03*
X166460000Y-125992000D03*
X169000000Y-128532000D03*
X166460000Y-128532000D03*
X169000000Y-131072000D03*
X166460000Y-131072000D03*
X169000000Y-133612000D03*
X166460000Y-133612000D03*
X169000000Y-136152000D03*
X166460000Y-136152000D03*
X169000000Y-138692000D03*
X166460000Y-138692000D03*
X169000000Y-141232000D03*
X166460000Y-141232000D03*
G36*
G01*
X126670000Y-140807000D02*
X126670000Y-141657000D01*
G75*
G02*
X126245000Y-142082000I-425000J0D01*
G01*
X125395000Y-142082000D01*
G75*
G02*
X124970000Y-141657000I0J425000D01*
G01*
X124970000Y-140807000D01*
G75*
G02*
X125395000Y-140382000I425000J0D01*
G01*
X126245000Y-140382000D01*
G75*
G02*
X126670000Y-140807000I0J-425000D01*
G01*
G37*
X125820000Y-138692000D03*
X125820000Y-136152000D03*
X125820000Y-133612000D03*
X125820000Y-131072000D03*
X125820000Y-128532000D03*
X125820000Y-125992000D03*
X125820000Y-123452000D03*
X125820000Y-120912000D03*
X125820000Y-118372000D03*
X125820000Y-115832000D03*
X125820000Y-113292000D03*
X125820000Y-110752000D03*
G36*
G01*
X161722000Y-148427000D02*
X161722000Y-149277000D01*
G75*
G02*
X161297000Y-149702000I-425000J0D01*
G01*
X160447000Y-149702000D01*
G75*
G02*
X160022000Y-149277000I0J425000D01*
G01*
X160022000Y-148427000D01*
G75*
G02*
X160447000Y-148002000I425000J0D01*
G01*
X161297000Y-148002000D01*
G75*
G02*
X161722000Y-148427000I0J-425000D01*
G01*
G37*
X160872000Y-146312000D03*
X160872000Y-143772000D03*
D19*
X199000000Y-148625000D03*
D20*
X199000000Y-146000000D03*
D19*
X199000000Y-143375000D03*
X197143845Y-147856155D03*
X201625000Y-146000000D03*
X197143845Y-144143845D03*
X200856155Y-144143845D03*
X200856155Y-147856155D03*
X196375000Y-146000000D03*
D12*
X146150000Y-95180000D03*
D13*
X146150000Y-92640000D03*
X146150000Y-90100000D03*
D12*
X185500000Y-106000000D03*
D13*
X188040000Y-106000000D03*
X190580000Y-106000000D03*
X193120000Y-106000000D03*
M02*
