G04 #@! TF.GenerationSoftware,KiCad,Pcbnew,6.0.5+dfsg-1~bpo11+1*
G04 #@! TF.ProjectId,maglock,6d61676c-6f63-46b2-9e6b-696361645f70,2.1*
G04 #@! TF.SameCoordinates,Original*
G04 #@! TF.FileFunction,Legend,Bot*
G04 #@! TF.FilePolarity,Positive*
%FSLAX46Y46*%
G04 Gerber Fmt 4.6, Leading zero omitted, Abs format (unit mm)*
%MOMM*%
%LPD*%
G01*
G04 APERTURE LIST*
%ADD10C,0.150000*%
%ADD11C,0.300000*%
%ADD12C,0.750000*%
%ADD13C,2.000000*%
%ADD14C,3.000000*%
%ADD15R,1.700000X1.700000*%
%ADD16O,1.700000X1.700000*%
%ADD17C,0.770000*%
%ADD18R,2.400000X2.400000*%
%ADD19C,2.400000*%
%ADD20C,1.440000*%
%ADD21C,0.800000*%
%ADD22C,7.000000*%
%ADD23C,0.650000*%
%ADD24O,1.000000X2.100000*%
%ADD25O,1.000000X1.600000*%
%ADD26R,1.600000X1.600000*%
%ADD27C,1.600000*%
%ADD28R,1.500000X1.500000*%
%ADD29C,1.500000*%
%ADD30C,5.500000*%
%ADD31C,1.700000*%
G04 APERTURE END LIST*
D10*
X106716000Y-78372000D02*
X130716000Y-78372000D01*
X130716000Y-78372000D02*
X130716000Y-84372000D01*
X130716000Y-84372000D02*
X106716000Y-84372000D01*
X106716000Y-84372000D02*
X106716000Y-78372000D01*
G36*
X106716000Y-78372000D02*
G01*
X130716000Y-78372000D01*
X130716000Y-84372000D01*
X106716000Y-84372000D01*
X106716000Y-78372000D01*
G37*
X106668000Y-85992000D02*
X124668000Y-85992000D01*
X124668000Y-85992000D02*
X124668000Y-91992000D01*
X124668000Y-91992000D02*
X106668000Y-91992000D01*
X106668000Y-91992000D02*
X106668000Y-85992000D01*
G36*
X106668000Y-85992000D02*
G01*
X124668000Y-85992000D01*
X124668000Y-91992000D01*
X106668000Y-91992000D01*
X106668000Y-85992000D01*
G37*
X201452380Y-64385714D02*
X201452380Y-63909523D01*
X200452380Y-63909523D01*
X200452380Y-64909523D02*
X200452380Y-65100000D01*
X200500000Y-65195238D01*
X200595238Y-65290476D01*
X200785714Y-65338095D01*
X201119047Y-65338095D01*
X201309523Y-65290476D01*
X201404761Y-65195238D01*
X201452380Y-65100000D01*
X201452380Y-64909523D01*
X201404761Y-64814285D01*
X201309523Y-64719047D01*
X201119047Y-64671428D01*
X200785714Y-64671428D01*
X200595238Y-64719047D01*
X200500000Y-64814285D01*
X200452380Y-64909523D01*
X201357142Y-66338095D02*
X201404761Y-66290476D01*
X201452380Y-66147619D01*
X201452380Y-66052380D01*
X201404761Y-65909523D01*
X201309523Y-65814285D01*
X201214285Y-65766666D01*
X201023809Y-65719047D01*
X200880952Y-65719047D01*
X200690476Y-65766666D01*
X200595238Y-65814285D01*
X200500000Y-65909523D01*
X200452380Y-66052380D01*
X200452380Y-66147619D01*
X200500000Y-66290476D01*
X200547619Y-66338095D01*
X201452380Y-66766666D02*
X200452380Y-66766666D01*
X201452380Y-67338095D02*
X200880952Y-66909523D01*
X200452380Y-67338095D02*
X201023809Y-66766666D01*
X201404761Y-119966666D02*
X201452380Y-120109523D01*
X201452380Y-120347619D01*
X201404761Y-120442857D01*
X201357142Y-120490476D01*
X201261904Y-120538095D01*
X201166666Y-120538095D01*
X201071428Y-120490476D01*
X201023809Y-120442857D01*
X200976190Y-120347619D01*
X200928571Y-120157142D01*
X200880952Y-120061904D01*
X200833333Y-120014285D01*
X200738095Y-119966666D01*
X200642857Y-119966666D01*
X200547619Y-120014285D01*
X200500000Y-120061904D01*
X200452380Y-120157142D01*
X200452380Y-120395238D01*
X200500000Y-120538095D01*
X200452380Y-120871428D02*
X201452380Y-121109523D01*
X200738095Y-121300000D01*
X201452380Y-121490476D01*
X200452380Y-121728571D01*
X200547619Y-122061904D02*
X200500000Y-122109523D01*
X200452380Y-122204761D01*
X200452380Y-122442857D01*
X200500000Y-122538095D01*
X200547619Y-122585714D01*
X200642857Y-122633333D01*
X200738095Y-122633333D01*
X200880952Y-122585714D01*
X201452380Y-122014285D01*
X201452380Y-122633333D01*
D11*
X113228809Y-62044142D02*
X111705000Y-62044142D01*
X112466904Y-62882238D02*
X112466904Y-61206047D01*
X113228809Y-65586142D02*
X111705000Y-65586142D01*
X112466904Y-66424238D02*
X112466904Y-64748047D01*
X113228809Y-69128142D02*
X111705000Y-69128142D01*
X113228809Y-72670142D02*
X111705000Y-72670142D01*
D10*
X196364404Y-110969614D02*
X195602500Y-110969614D01*
X195983452Y-111373423D02*
X195983452Y-110565804D01*
X196364404Y-114382814D02*
X195602500Y-114382814D01*
X196364404Y-119502614D02*
X195602500Y-119502614D01*
X195983452Y-119906423D02*
X195983452Y-119098804D01*
X196364404Y-122915814D02*
X195602500Y-122915814D01*
X196364404Y-128035614D02*
X195602500Y-128035614D01*
X195983452Y-128439423D02*
X195983452Y-127631804D01*
X196364404Y-131448814D02*
X195602500Y-131448814D01*
X196364404Y-136568614D02*
X195602500Y-136568614D01*
X195983452Y-136972423D02*
X195983452Y-136164804D01*
X196364404Y-139981814D02*
X195602500Y-139981814D01*
X201404761Y-136966666D02*
X201452380Y-137109523D01*
X201452380Y-137347619D01*
X201404761Y-137442857D01*
X201357142Y-137490476D01*
X201261904Y-137538095D01*
X201166666Y-137538095D01*
X201071428Y-137490476D01*
X201023809Y-137442857D01*
X200976190Y-137347619D01*
X200928571Y-137157142D01*
X200880952Y-137061904D01*
X200833333Y-137014285D01*
X200738095Y-136966666D01*
X200642857Y-136966666D01*
X200547619Y-137014285D01*
X200500000Y-137061904D01*
X200452380Y-137157142D01*
X200452380Y-137395238D01*
X200500000Y-137538095D01*
X200452380Y-137871428D02*
X201452380Y-138109523D01*
X200738095Y-138300000D01*
X201452380Y-138490476D01*
X200452380Y-138728571D01*
X200785714Y-139538095D02*
X201452380Y-139538095D01*
X200404761Y-139300000D02*
X201119047Y-139061904D01*
X201119047Y-139680952D01*
X201404761Y-111366666D02*
X201452380Y-111509523D01*
X201452380Y-111747619D01*
X201404761Y-111842857D01*
X201357142Y-111890476D01*
X201261904Y-111938095D01*
X201166666Y-111938095D01*
X201071428Y-111890476D01*
X201023809Y-111842857D01*
X200976190Y-111747619D01*
X200928571Y-111557142D01*
X200880952Y-111461904D01*
X200833333Y-111414285D01*
X200738095Y-111366666D01*
X200642857Y-111366666D01*
X200547619Y-111414285D01*
X200500000Y-111461904D01*
X200452380Y-111557142D01*
X200452380Y-111795238D01*
X200500000Y-111938095D01*
X200452380Y-112271428D02*
X201452380Y-112509523D01*
X200738095Y-112700000D01*
X201452380Y-112890476D01*
X200452380Y-113128571D01*
X201452380Y-114033333D02*
X201452380Y-113461904D01*
X201452380Y-113747619D02*
X200452380Y-113747619D01*
X200595238Y-113652380D01*
X200690476Y-113557142D01*
X200738095Y-113461904D01*
D12*
X136678285Y-82777142D02*
X136678285Y-79777142D01*
X135249714Y-82777142D02*
X135249714Y-79777142D01*
X134535428Y-79777142D01*
X134106857Y-79920000D01*
X133821142Y-80205714D01*
X133678285Y-80491428D01*
X133535428Y-81062857D01*
X133535428Y-81491428D01*
X133678285Y-82062857D01*
X133821142Y-82348571D01*
X134106857Y-82634285D01*
X134535428Y-82777142D01*
X135249714Y-82777142D01*
X132249714Y-82491428D02*
X132106857Y-82634285D01*
X132249714Y-82777142D01*
X132392571Y-82634285D01*
X132249714Y-82491428D01*
X132249714Y-82777142D01*
X132249714Y-80920000D02*
X132106857Y-81062857D01*
X132249714Y-81205714D01*
X132392571Y-81062857D01*
X132249714Y-80920000D01*
X132249714Y-81205714D01*
D10*
X118981000Y-133340595D02*
X119047666Y-133435833D01*
X119047666Y-133578690D01*
X118981000Y-133721547D01*
X118847666Y-133816785D01*
X118714333Y-133864404D01*
X118447666Y-133912023D01*
X118247666Y-133912023D01*
X117981000Y-133864404D01*
X117847666Y-133816785D01*
X117714333Y-133721547D01*
X117647666Y-133578690D01*
X117647666Y-133483452D01*
X117714333Y-133340595D01*
X117781000Y-133292976D01*
X118247666Y-133292976D01*
X118247666Y-133483452D01*
X117647666Y-132864404D02*
X119047666Y-132864404D01*
X117647666Y-132292976D01*
X119047666Y-132292976D01*
X115393666Y-133864404D02*
X116793666Y-133864404D01*
X116793666Y-133626309D01*
X116727000Y-133483452D01*
X116593666Y-133388214D01*
X116460333Y-133340595D01*
X116193666Y-133292976D01*
X115993666Y-133292976D01*
X115727000Y-133340595D01*
X115593666Y-133388214D01*
X115460333Y-133483452D01*
X115393666Y-133626309D01*
X115393666Y-133864404D01*
X115927000Y-132864404D02*
X115927000Y-132102500D01*
X115393666Y-132483452D02*
X116460333Y-132483452D01*
X113139666Y-133864404D02*
X114539666Y-133864404D01*
X114539666Y-133626309D01*
X114473000Y-133483452D01*
X114339666Y-133388214D01*
X114206333Y-133340595D01*
X113939666Y-133292976D01*
X113739666Y-133292976D01*
X113473000Y-133340595D01*
X113339666Y-133388214D01*
X113206333Y-133483452D01*
X113139666Y-133626309D01*
X113139666Y-133864404D01*
X113673000Y-132864404D02*
X113673000Y-132102500D01*
X112285666Y-134007261D02*
X110885666Y-133673928D01*
X112285666Y-133340595D01*
X110952333Y-132578690D02*
X110885666Y-132673928D01*
X110885666Y-132864404D01*
X110952333Y-132959642D01*
X111019000Y-133007261D01*
X111152333Y-133054880D01*
X111552333Y-133054880D01*
X111685666Y-133007261D01*
X111752333Y-132959642D01*
X111819000Y-132864404D01*
X111819000Y-132673928D01*
X111752333Y-132578690D01*
X196707261Y-61434559D02*
X196373928Y-62509559D01*
X196040595Y-61434559D01*
X195278690Y-62458369D02*
X195373928Y-62509559D01*
X195564404Y-62509559D01*
X195659642Y-62458369D01*
X195707261Y-62407178D01*
X195754880Y-62304797D01*
X195754880Y-61997654D01*
X195707261Y-61895273D01*
X195659642Y-61844083D01*
X195564404Y-61792892D01*
X195373928Y-61792892D01*
X195278690Y-61844083D01*
X194421547Y-62458369D02*
X194516785Y-62509559D01*
X194707261Y-62509559D01*
X194802500Y-62458369D01*
X194850119Y-62407178D01*
X194897738Y-62304797D01*
X194897738Y-61997654D01*
X194850119Y-61895273D01*
X194802500Y-61844083D01*
X194707261Y-61792892D01*
X194516785Y-61792892D01*
X194421547Y-61844083D01*
X196612023Y-65919869D02*
X196469166Y-65971059D01*
X196231071Y-65971059D01*
X196135833Y-65919869D01*
X196088214Y-65868678D01*
X196040595Y-65766297D01*
X196040595Y-65663916D01*
X196088214Y-65561535D01*
X196135833Y-65510345D01*
X196231071Y-65459154D01*
X196421547Y-65407964D01*
X196516785Y-65356773D01*
X196564404Y-65305583D01*
X196612023Y-65203202D01*
X196612023Y-65100821D01*
X196564404Y-64998440D01*
X196516785Y-64947250D01*
X196421547Y-64896059D01*
X196183452Y-64896059D01*
X196040595Y-64947250D01*
X195707261Y-64896059D02*
X195469166Y-65971059D01*
X195278690Y-65203202D01*
X195088214Y-65971059D01*
X194850119Y-64896059D01*
X196040595Y-68408750D02*
X196135833Y-68357559D01*
X196278690Y-68357559D01*
X196421547Y-68408750D01*
X196516785Y-68511130D01*
X196564404Y-68613511D01*
X196612023Y-68818273D01*
X196612023Y-68971845D01*
X196564404Y-69176607D01*
X196516785Y-69278988D01*
X196421547Y-69381369D01*
X196278690Y-69432559D01*
X196183452Y-69432559D01*
X196040595Y-69381369D01*
X195992976Y-69330178D01*
X195992976Y-68971845D01*
X196183452Y-68971845D01*
X195564404Y-69432559D02*
X195564404Y-68357559D01*
X194992976Y-69432559D01*
X194992976Y-68357559D01*
X194516785Y-69432559D02*
X194516785Y-68357559D01*
X194278690Y-68357559D01*
X194135833Y-68408750D01*
X194040595Y-68511130D01*
X193992976Y-68613511D01*
X193945357Y-68818273D01*
X193945357Y-68971845D01*
X193992976Y-69176607D01*
X194040595Y-69278988D01*
X194135833Y-69381369D01*
X194278690Y-69432559D01*
X194516785Y-69432559D01*
X196707261Y-73549809D02*
X196373928Y-74624809D01*
X196040595Y-73549809D01*
X195278690Y-74573619D02*
X195373928Y-74624809D01*
X195564404Y-74624809D01*
X195659642Y-74573619D01*
X195707261Y-74522428D01*
X195754880Y-74420047D01*
X195754880Y-74112904D01*
X195707261Y-74010523D01*
X195659642Y-73959333D01*
X195564404Y-73908142D01*
X195373928Y-73908142D01*
X195278690Y-73959333D01*
X194421547Y-74573619D02*
X194516785Y-74624809D01*
X194707261Y-74624809D01*
X194802500Y-74573619D01*
X194850119Y-74522428D01*
X194897738Y-74420047D01*
X194897738Y-74112904D01*
X194850119Y-74010523D01*
X194802500Y-73959333D01*
X194707261Y-73908142D01*
X194516785Y-73908142D01*
X194421547Y-73959333D01*
X196612023Y-78035119D02*
X196469166Y-78086309D01*
X196231071Y-78086309D01*
X196135833Y-78035119D01*
X196088214Y-77983928D01*
X196040595Y-77881547D01*
X196040595Y-77779166D01*
X196088214Y-77676785D01*
X196135833Y-77625595D01*
X196231071Y-77574404D01*
X196421547Y-77523214D01*
X196516785Y-77472023D01*
X196564404Y-77420833D01*
X196612023Y-77318452D01*
X196612023Y-77216071D01*
X196564404Y-77113690D01*
X196516785Y-77062500D01*
X196421547Y-77011309D01*
X196183452Y-77011309D01*
X196040595Y-77062500D01*
X195707261Y-77011309D02*
X195469166Y-78086309D01*
X195278690Y-77318452D01*
X195088214Y-78086309D01*
X194850119Y-77011309D01*
X196040595Y-80524000D02*
X196135833Y-80472809D01*
X196278690Y-80472809D01*
X196421547Y-80524000D01*
X196516785Y-80626380D01*
X196564404Y-80728761D01*
X196612023Y-80933523D01*
X196612023Y-81087095D01*
X196564404Y-81291857D01*
X196516785Y-81394238D01*
X196421547Y-81496619D01*
X196278690Y-81547809D01*
X196183452Y-81547809D01*
X196040595Y-81496619D01*
X195992976Y-81445428D01*
X195992976Y-81087095D01*
X196183452Y-81087095D01*
X195564404Y-81547809D02*
X195564404Y-80472809D01*
X194992976Y-81547809D01*
X194992976Y-80472809D01*
X194516785Y-81547809D02*
X194516785Y-80472809D01*
X194278690Y-80472809D01*
X194135833Y-80524000D01*
X194040595Y-80626380D01*
X193992976Y-80728761D01*
X193945357Y-80933523D01*
X193945357Y-81087095D01*
X193992976Y-81291857D01*
X194040595Y-81394238D01*
X194135833Y-81496619D01*
X194278690Y-81547809D01*
X194516785Y-81547809D01*
X196707261Y-85665059D02*
X196373928Y-86740059D01*
X196040595Y-85665059D01*
X195278690Y-86688869D02*
X195373928Y-86740059D01*
X195564404Y-86740059D01*
X195659642Y-86688869D01*
X195707261Y-86637678D01*
X195754880Y-86535297D01*
X195754880Y-86228154D01*
X195707261Y-86125773D01*
X195659642Y-86074583D01*
X195564404Y-86023392D01*
X195373928Y-86023392D01*
X195278690Y-86074583D01*
X194421547Y-86688869D02*
X194516785Y-86740059D01*
X194707261Y-86740059D01*
X194802500Y-86688869D01*
X194850119Y-86637678D01*
X194897738Y-86535297D01*
X194897738Y-86228154D01*
X194850119Y-86125773D01*
X194802500Y-86074583D01*
X194707261Y-86023392D01*
X194516785Y-86023392D01*
X194421547Y-86074583D01*
X196612023Y-90150369D02*
X196469166Y-90201559D01*
X196231071Y-90201559D01*
X196135833Y-90150369D01*
X196088214Y-90099178D01*
X196040595Y-89996797D01*
X196040595Y-89894416D01*
X196088214Y-89792035D01*
X196135833Y-89740845D01*
X196231071Y-89689654D01*
X196421547Y-89638464D01*
X196516785Y-89587273D01*
X196564404Y-89536083D01*
X196612023Y-89433702D01*
X196612023Y-89331321D01*
X196564404Y-89228940D01*
X196516785Y-89177750D01*
X196421547Y-89126559D01*
X196183452Y-89126559D01*
X196040595Y-89177750D01*
X195707261Y-89126559D02*
X195469166Y-90201559D01*
X195278690Y-89433702D01*
X195088214Y-90201559D01*
X194850119Y-89126559D01*
X196040595Y-92639250D02*
X196135833Y-92588059D01*
X196278690Y-92588059D01*
X196421547Y-92639250D01*
X196516785Y-92741630D01*
X196564404Y-92844011D01*
X196612023Y-93048773D01*
X196612023Y-93202345D01*
X196564404Y-93407107D01*
X196516785Y-93509488D01*
X196421547Y-93611869D01*
X196278690Y-93663059D01*
X196183452Y-93663059D01*
X196040595Y-93611869D01*
X195992976Y-93560678D01*
X195992976Y-93202345D01*
X196183452Y-93202345D01*
X195564404Y-93663059D02*
X195564404Y-92588059D01*
X194992976Y-93663059D01*
X194992976Y-92588059D01*
X194516785Y-93663059D02*
X194516785Y-92588059D01*
X194278690Y-92588059D01*
X194135833Y-92639250D01*
X194040595Y-92741630D01*
X193992976Y-92844011D01*
X193945357Y-93048773D01*
X193945357Y-93202345D01*
X193992976Y-93407107D01*
X194040595Y-93509488D01*
X194135833Y-93611869D01*
X194278690Y-93663059D01*
X194516785Y-93663059D01*
X201404761Y-128366666D02*
X201452380Y-128509523D01*
X201452380Y-128747619D01*
X201404761Y-128842857D01*
X201357142Y-128890476D01*
X201261904Y-128938095D01*
X201166666Y-128938095D01*
X201071428Y-128890476D01*
X201023809Y-128842857D01*
X200976190Y-128747619D01*
X200928571Y-128557142D01*
X200880952Y-128461904D01*
X200833333Y-128414285D01*
X200738095Y-128366666D01*
X200642857Y-128366666D01*
X200547619Y-128414285D01*
X200500000Y-128461904D01*
X200452380Y-128557142D01*
X200452380Y-128795238D01*
X200500000Y-128938095D01*
X200452380Y-129271428D02*
X201452380Y-129509523D01*
X200738095Y-129700000D01*
X201452380Y-129890476D01*
X200452380Y-130128571D01*
X200452380Y-130414285D02*
X200452380Y-131033333D01*
X200833333Y-130700000D01*
X200833333Y-130842857D01*
X200880952Y-130938095D01*
X200928571Y-130985714D01*
X201023809Y-131033333D01*
X201261904Y-131033333D01*
X201357142Y-130985714D01*
X201404761Y-130938095D01*
X201452380Y-130842857D01*
X201452380Y-130557142D01*
X201404761Y-130461904D01*
X201357142Y-130414285D01*
X200452380Y-75742857D02*
X200452380Y-75933333D01*
X200500000Y-76028571D01*
X200595238Y-76123809D01*
X200785714Y-76171428D01*
X201119047Y-76171428D01*
X201309523Y-76123809D01*
X201404761Y-76028571D01*
X201452380Y-75933333D01*
X201452380Y-75742857D01*
X201404761Y-75647619D01*
X201309523Y-75552380D01*
X201119047Y-75504761D01*
X200785714Y-75504761D01*
X200595238Y-75552380D01*
X200500000Y-75647619D01*
X200452380Y-75742857D01*
X200452380Y-76600000D02*
X201261904Y-76600000D01*
X201357142Y-76647619D01*
X201404761Y-76695238D01*
X201452380Y-76790476D01*
X201452380Y-76980952D01*
X201404761Y-77076190D01*
X201357142Y-77123809D01*
X201261904Y-77171428D01*
X200452380Y-77171428D01*
X200452380Y-77504761D02*
X200452380Y-78076190D01*
X201452380Y-77790476D02*
X200452380Y-77790476D01*
X200547619Y-79123809D02*
X200500000Y-79171428D01*
X200452380Y-79266666D01*
X200452380Y-79504761D01*
X200500000Y-79600000D01*
X200547619Y-79647619D01*
X200642857Y-79695238D01*
X200738095Y-79695238D01*
X200880952Y-79647619D01*
X201452380Y-79076190D01*
X201452380Y-79695238D01*
D12*
X135437071Y-90254285D02*
X135008500Y-90397142D01*
X134294214Y-90397142D01*
X134008500Y-90254285D01*
X133865642Y-90111428D01*
X133722785Y-89825714D01*
X133722785Y-89540000D01*
X133865642Y-89254285D01*
X134008500Y-89111428D01*
X134294214Y-88968571D01*
X134865642Y-88825714D01*
X135151357Y-88682857D01*
X135294214Y-88540000D01*
X135437071Y-88254285D01*
X135437071Y-87968571D01*
X135294214Y-87682857D01*
X135151357Y-87540000D01*
X134865642Y-87397142D01*
X134151357Y-87397142D01*
X133722785Y-87540000D01*
X130294214Y-87254285D02*
X132865642Y-91111428D01*
X129294214Y-90397142D02*
X129294214Y-87397142D01*
X127579928Y-90397142D01*
X127579928Y-87397142D01*
X126151357Y-90111428D02*
X126008500Y-90254285D01*
X126151357Y-90397142D01*
X126294214Y-90254285D01*
X126151357Y-90111428D01*
X126151357Y-90397142D01*
X126151357Y-88540000D02*
X126008500Y-88682857D01*
X126151357Y-88825714D01*
X126294214Y-88682857D01*
X126151357Y-88540000D01*
X126151357Y-88825714D01*
D10*
X107247619Y-72495238D02*
X106247619Y-72161904D01*
X107247619Y-71828571D01*
X106247619Y-71495238D02*
X106914285Y-71495238D01*
X107247619Y-71495238D02*
X107200000Y-71542857D01*
X107152380Y-71495238D01*
X107200000Y-71447619D01*
X107247619Y-71495238D01*
X107152380Y-71495238D01*
X106914285Y-71019047D02*
X106247619Y-71019047D01*
X106819047Y-71019047D02*
X106866666Y-70971428D01*
X106914285Y-70876190D01*
X106914285Y-70733333D01*
X106866666Y-70638095D01*
X106771428Y-70590476D01*
X106247619Y-70590476D01*
X106247619Y-68828571D02*
X106247619Y-69400000D01*
X106247619Y-69114285D02*
X107247619Y-69114285D01*
X107104761Y-69209523D01*
X107009523Y-69304761D01*
X106961904Y-69400000D01*
X107152380Y-68447619D02*
X107200000Y-68400000D01*
X107247619Y-68304761D01*
X107247619Y-68066666D01*
X107200000Y-67971428D01*
X107152380Y-67923809D01*
X107057142Y-67876190D01*
X106961904Y-67876190D01*
X106819047Y-67923809D01*
X106247619Y-68495238D01*
X106247619Y-67876190D01*
X106628571Y-67590476D02*
X106676190Y-67542857D01*
X106723809Y-67447619D01*
X106628571Y-67257142D01*
X106676190Y-67161904D01*
X106723809Y-67114285D01*
X107152380Y-66780952D02*
X107200000Y-66733333D01*
X107247619Y-66638095D01*
X107247619Y-66400000D01*
X107200000Y-66304761D01*
X107152380Y-66257142D01*
X107057142Y-66209523D01*
X106961904Y-66209523D01*
X106819047Y-66257142D01*
X106247619Y-66828571D01*
X106247619Y-66209523D01*
X106819047Y-65638095D02*
X106866666Y-65733333D01*
X106914285Y-65780952D01*
X107009523Y-65828571D01*
X107057142Y-65828571D01*
X107152380Y-65780952D01*
X107200000Y-65733333D01*
X107247619Y-65638095D01*
X107247619Y-65447619D01*
X107200000Y-65352380D01*
X107152380Y-65304761D01*
X107057142Y-65257142D01*
X107009523Y-65257142D01*
X106914285Y-65304761D01*
X106866666Y-65352380D01*
X106819047Y-65447619D01*
X106819047Y-65638095D01*
X106771428Y-65733333D01*
X106723809Y-65780952D01*
X106628571Y-65828571D01*
X106438095Y-65828571D01*
X106342857Y-65780952D01*
X106295238Y-65733333D01*
X106247619Y-65638095D01*
X106247619Y-65447619D01*
X106295238Y-65352380D01*
X106342857Y-65304761D01*
X106438095Y-65257142D01*
X106628571Y-65257142D01*
X106723809Y-65304761D01*
X106771428Y-65352380D01*
X106819047Y-65447619D01*
X107247619Y-64971428D02*
X106247619Y-64638095D01*
X107247619Y-64304761D01*
X106247619Y-63971428D02*
X107247619Y-63971428D01*
X107247619Y-63733333D01*
X107200000Y-63590476D01*
X107104761Y-63495238D01*
X107009523Y-63447619D01*
X106819047Y-63400000D01*
X106676190Y-63400000D01*
X106485714Y-63447619D01*
X106390476Y-63495238D01*
X106295238Y-63590476D01*
X106247619Y-63733333D01*
X106247619Y-63971428D01*
X106342857Y-62400000D02*
X106295238Y-62447619D01*
X106247619Y-62590476D01*
X106247619Y-62685714D01*
X106295238Y-62828571D01*
X106390476Y-62923809D01*
X106485714Y-62971428D01*
X106676190Y-63019047D01*
X106819047Y-63019047D01*
X107009523Y-62971428D01*
X107104761Y-62923809D01*
X107200000Y-62828571D01*
X107247619Y-62685714D01*
X107247619Y-62590476D01*
X107200000Y-62447619D01*
X107152380Y-62400000D01*
X200452380Y-87742857D02*
X200452380Y-87933333D01*
X200500000Y-88028571D01*
X200595238Y-88123809D01*
X200785714Y-88171428D01*
X201119047Y-88171428D01*
X201309523Y-88123809D01*
X201404761Y-88028571D01*
X201452380Y-87933333D01*
X201452380Y-87742857D01*
X201404761Y-87647619D01*
X201309523Y-87552380D01*
X201119047Y-87504761D01*
X200785714Y-87504761D01*
X200595238Y-87552380D01*
X200500000Y-87647619D01*
X200452380Y-87742857D01*
X200452380Y-88600000D02*
X201261904Y-88600000D01*
X201357142Y-88647619D01*
X201404761Y-88695238D01*
X201452380Y-88790476D01*
X201452380Y-88980952D01*
X201404761Y-89076190D01*
X201357142Y-89123809D01*
X201261904Y-89171428D01*
X200452380Y-89171428D01*
X200452380Y-89504761D02*
X200452380Y-90076190D01*
X201452380Y-89790476D02*
X200452380Y-89790476D01*
X200452380Y-91076190D02*
X200452380Y-91695238D01*
X200833333Y-91361904D01*
X200833333Y-91504761D01*
X200880952Y-91600000D01*
X200928571Y-91647619D01*
X201023809Y-91695238D01*
X201261904Y-91695238D01*
X201357142Y-91647619D01*
X201404761Y-91600000D01*
X201452380Y-91504761D01*
X201452380Y-91219047D01*
X201404761Y-91123809D01*
X201357142Y-91076190D01*
G36*
X144254988Y-110667539D02*
G01*
X143691796Y-110667539D01*
X143691796Y-110104346D01*
X144254988Y-110104346D01*
X144254988Y-110667539D01*
G37*
G36*
X135063680Y-120399513D02*
G01*
X134500487Y-120399513D01*
X134500487Y-119836320D01*
X135063680Y-119836320D01*
X135063680Y-120399513D01*
G37*
G36*
X131819689Y-122021508D02*
G01*
X131256496Y-122021508D01*
X131256496Y-121458315D01*
X131819689Y-121458315D01*
X131819689Y-122021508D01*
G37*
G36*
X148039645Y-108482351D02*
G01*
X146417649Y-108482351D01*
X146417649Y-106860355D01*
X148039645Y-106860355D01*
X148039645Y-108482351D01*
G37*
G36*
X135063680Y-112289535D02*
G01*
X134500487Y-112289535D01*
X134500487Y-111726342D01*
X135063680Y-111726342D01*
X135063680Y-112289535D01*
G37*
G36*
X131819689Y-111208204D02*
G01*
X131256496Y-111208204D01*
X131256496Y-110104346D01*
X131819689Y-110104346D01*
X131819689Y-111208204D01*
G37*
G36*
X136685676Y-106342218D02*
G01*
X136122483Y-106342218D01*
X136122483Y-105779025D01*
X136685676Y-105779025D01*
X136685676Y-106342218D01*
G37*
G36*
X133982350Y-108482351D02*
G01*
X132360354Y-108482351D01*
X132360354Y-106860355D01*
X133982350Y-106860355D01*
X133982350Y-108482351D01*
G37*
G36*
X145336319Y-109563681D02*
G01*
X145336319Y-109023016D01*
X145876984Y-109023016D01*
X148580310Y-109023016D01*
X148580310Y-106319690D01*
X145876984Y-106319690D01*
X145876984Y-109023016D01*
X145336319Y-109023016D01*
X145336319Y-105779025D01*
X149120975Y-105779025D01*
X149120975Y-109563681D01*
X145336319Y-109563681D01*
G37*
G36*
X131279024Y-109563681D02*
G01*
X131279024Y-109023016D01*
X131819689Y-109023016D01*
X134523015Y-109023016D01*
X134523015Y-106319690D01*
X131819689Y-106319690D01*
X131819689Y-109023016D01*
X131279024Y-109023016D01*
X131279024Y-105779025D01*
X135063680Y-105779025D01*
X135063680Y-109563681D01*
X131279024Y-109563681D01*
G37*
G36*
X140447804Y-110104346D02*
G01*
X140447804Y-109586209D01*
X139907139Y-109586209D01*
X139907139Y-108482351D01*
X140470332Y-108482351D01*
X140470332Y-109563681D01*
X140988470Y-109563681D01*
X140988470Y-107964213D01*
X140447804Y-107964213D01*
X140447804Y-107401020D01*
X141010997Y-107401020D01*
X141010997Y-107941686D01*
X141529135Y-107941686D01*
X141529135Y-107401020D01*
X142069800Y-107401020D01*
X142069800Y-106342218D01*
X141551662Y-106342218D01*
X141551662Y-106882883D01*
X139907139Y-106882883D01*
X139907139Y-105779025D01*
X141010997Y-105779025D01*
X141010997Y-106319690D01*
X141529135Y-106319690D01*
X141529135Y-105779025D01*
X142632993Y-105779025D01*
X142632993Y-106319690D01*
X143151130Y-106319690D01*
X143151130Y-105779025D01*
X144795654Y-105779025D01*
X144795654Y-106342218D01*
X144254988Y-106342218D01*
X144254988Y-107941686D01*
X144795654Y-107941686D01*
X144795654Y-109586209D01*
X144232461Y-109586209D01*
X144232461Y-107964213D01*
X143151130Y-107964213D01*
X143151130Y-107401020D01*
X143691796Y-107401020D01*
X143691796Y-106342218D01*
X143173658Y-106342218D01*
X143173658Y-106882883D01*
X142632993Y-106882883D01*
X142632993Y-107423548D01*
X142092328Y-107423548D01*
X142092328Y-107941686D01*
X142632993Y-107941686D01*
X142632993Y-108482351D01*
X143714323Y-108482351D01*
X143714323Y-109586209D01*
X143173658Y-109586209D01*
X143173658Y-111185677D01*
X144795654Y-111185677D01*
X144795654Y-111726342D01*
X145313791Y-111726342D01*
X145313791Y-111185677D01*
X145876984Y-111185677D01*
X145876984Y-111748870D01*
X145336319Y-111748870D01*
X145336319Y-112267007D01*
X147498980Y-112267007D01*
X147498980Y-112807672D01*
X148017117Y-112807672D01*
X148017117Y-112267007D01*
X148557782Y-112267007D01*
X148557782Y-111748870D01*
X147476452Y-111748870D01*
X147476452Y-111208204D01*
X146958314Y-111208204D01*
X146958314Y-111748870D01*
X146395121Y-111748870D01*
X146395121Y-111185677D01*
X147498980Y-111185677D01*
X148017117Y-111185677D01*
X148017117Y-110667539D01*
X147498980Y-110667539D01*
X147498980Y-111185677D01*
X146395121Y-111185677D01*
X146395121Y-110667539D01*
X144773126Y-110667539D01*
X144773126Y-110104346D01*
X148580310Y-110104346D01*
X148580310Y-111185677D01*
X149120975Y-111185677D01*
X149120975Y-112289535D01*
X148580310Y-112289535D01*
X148580310Y-112807672D01*
X149120975Y-112807672D01*
X149120975Y-114452196D01*
X148580310Y-114452196D01*
X148580310Y-115510998D01*
X149120975Y-115510998D01*
X149120975Y-116074191D01*
X148580310Y-116074191D01*
X148580310Y-116592329D01*
X149120975Y-116592329D01*
X149120975Y-119318182D01*
X148557782Y-119318182D01*
X148557782Y-116614856D01*
X147498980Y-116614856D01*
X147498980Y-117132994D01*
X148039645Y-117132994D01*
X148039645Y-117696187D01*
X147498980Y-117696187D01*
X147498980Y-119318182D01*
X146395121Y-119318182D01*
X146395121Y-118777517D01*
X145876984Y-118777517D01*
X145876984Y-119318182D01*
X144795654Y-119318182D01*
X144795654Y-123102839D01*
X144254988Y-123102839D01*
X144254988Y-123643504D01*
X140988470Y-123643504D01*
X140988470Y-123080311D01*
X142092328Y-123080311D01*
X143151130Y-123080311D01*
X143151130Y-122539646D01*
X143691796Y-122539646D01*
X143691796Y-122021508D01*
X142632993Y-122021508D01*
X142632993Y-122562173D01*
X142092328Y-122562173D01*
X142092328Y-123080311D01*
X140988470Y-123080311D01*
X140988470Y-122021508D01*
X140447804Y-122021508D01*
X140447804Y-121998981D01*
X141010997Y-121998981D01*
X142069800Y-121998981D01*
X142069800Y-120940178D01*
X141551662Y-120940178D01*
X141551662Y-121480843D01*
X141010997Y-121480843D01*
X141010997Y-121998981D01*
X140447804Y-121998981D01*
X140447804Y-121480843D01*
X139929667Y-121480843D01*
X139929667Y-122021508D01*
X139389002Y-122021508D01*
X139389002Y-122562173D01*
X138825809Y-122562173D01*
X138825809Y-121998981D01*
X139366474Y-121998981D01*
X139366474Y-120917650D01*
X140470332Y-120917650D01*
X144232461Y-120917650D01*
X144232461Y-120399513D01*
X143714323Y-120399513D01*
X143714323Y-120917650D01*
X140988470Y-120917650D01*
X140988470Y-120399513D01*
X140470332Y-120399513D01*
X140470332Y-120917650D01*
X139366474Y-120917650D01*
X139366474Y-120399513D01*
X138848337Y-120399513D01*
X138848337Y-121480843D01*
X137767006Y-121480843D01*
X137767006Y-121998981D01*
X138307671Y-121998981D01*
X138307671Y-122562173D01*
X137767006Y-122562173D01*
X137767006Y-123102839D01*
X137226341Y-123102839D01*
X137226341Y-123643504D01*
X136663148Y-123643504D01*
X136663148Y-122562173D01*
X136145011Y-122562173D01*
X136145011Y-123643504D01*
X135041153Y-123643504D01*
X135041153Y-123080311D01*
X135581818Y-123080311D01*
X135581818Y-122539646D01*
X136685676Y-122539646D01*
X137203813Y-122539646D01*
X137203813Y-121480843D01*
X136685676Y-121480843D01*
X136685676Y-122539646D01*
X135581818Y-122539646D01*
X135581818Y-122021508D01*
X135063680Y-122021508D01*
X135063680Y-122562173D01*
X134523015Y-122562173D01*
X134523015Y-123643504D01*
X133419157Y-123643504D01*
X133419157Y-122539646D01*
X133959822Y-122539646D01*
X133959822Y-122021508D01*
X132901019Y-122021508D01*
X132901019Y-123102839D01*
X132360354Y-123102839D01*
X132360354Y-123643504D01*
X131797161Y-123643504D01*
X131797161Y-123080311D01*
X132337827Y-123080311D01*
X132337827Y-121998981D01*
X134523015Y-121998981D01*
X135041153Y-121998981D01*
X135604345Y-121998981D01*
X136122483Y-121998981D01*
X136122483Y-121480843D01*
X135604345Y-121480843D01*
X135604345Y-121998981D01*
X135041153Y-121998981D01*
X135041153Y-121480843D01*
X134523015Y-121480843D01*
X134523015Y-121998981D01*
X132337827Y-121998981D01*
X132337827Y-121458315D01*
X132878492Y-121458315D01*
X136145011Y-121458315D01*
X136663148Y-121458315D01*
X136663148Y-120940178D01*
X136145011Y-120940178D01*
X136145011Y-121458315D01*
X132878492Y-121458315D01*
X132878492Y-120940178D01*
X131797161Y-120940178D01*
X131797161Y-120917650D01*
X132901019Y-120917650D01*
X133419157Y-120917650D01*
X133982350Y-120917650D01*
X135581818Y-120917650D01*
X135581818Y-119836320D01*
X136145011Y-119836320D01*
X137226341Y-119836320D01*
X137226341Y-120399513D01*
X136685676Y-120399513D01*
X136685676Y-120917650D01*
X138285144Y-120917650D01*
X138285144Y-120399513D01*
X137744478Y-120399513D01*
X137744478Y-120376985D01*
X138307671Y-120376985D01*
X138825809Y-120376985D01*
X138825809Y-119858847D01*
X138307671Y-119858847D01*
X138307671Y-120376985D01*
X137744478Y-120376985D01*
X137744478Y-119295655D01*
X138285144Y-119295655D01*
X138285144Y-118777517D01*
X137226341Y-118777517D01*
X137226341Y-119318182D01*
X136145011Y-119318182D01*
X136145011Y-119836320D01*
X135581818Y-119836320D01*
X135581818Y-119318182D01*
X133982350Y-119318182D01*
X133982350Y-120917650D01*
X133419157Y-120917650D01*
X133419157Y-119318182D01*
X132901019Y-119318182D01*
X132901019Y-120917650D01*
X131797161Y-120917650D01*
X131797161Y-119858847D01*
X131256496Y-119858847D01*
X131256496Y-119295655D01*
X131819689Y-119295655D01*
X131819689Y-119836320D01*
X132337827Y-119836320D01*
X132337827Y-119295655D01*
X132878492Y-119295655D01*
X132878492Y-118777517D01*
X131797161Y-118777517D01*
X131797161Y-118214324D01*
X132901019Y-118214324D01*
X133419157Y-118214324D01*
X133419157Y-117696187D01*
X132901019Y-117696187D01*
X132901019Y-118214324D01*
X131797161Y-118214324D01*
X131797161Y-117696187D01*
X131256496Y-117696187D01*
X131256496Y-117132994D01*
X131819689Y-117132994D01*
X131819689Y-117673659D01*
X132878492Y-117673659D01*
X133441685Y-117673659D01*
X133982350Y-117673659D01*
X133982350Y-118754989D01*
X135041153Y-118754989D01*
X135604345Y-118754989D01*
X136122483Y-118754989D01*
X136122483Y-118236852D01*
X135604345Y-118236852D01*
X135604345Y-118754989D01*
X135041153Y-118754989D01*
X135041153Y-118214324D01*
X135581818Y-118214324D01*
X137767006Y-118214324D01*
X138285144Y-118214324D01*
X138285144Y-117696187D01*
X137767006Y-117696187D01*
X137767006Y-118214324D01*
X135581818Y-118214324D01*
X135581818Y-117696187D01*
X134500487Y-117696187D01*
X134500487Y-117673659D01*
X135604345Y-117673659D01*
X136663148Y-117673659D01*
X137226341Y-117673659D01*
X137744478Y-117673659D01*
X137744478Y-117155522D01*
X137226341Y-117155522D01*
X137226341Y-117673659D01*
X136663148Y-117673659D01*
X136663148Y-117155522D01*
X135604345Y-117155522D01*
X135604345Y-117673659D01*
X134500487Y-117673659D01*
X134500487Y-117132994D01*
X135581818Y-117132994D01*
X136685676Y-117132994D01*
X137203813Y-117132994D01*
X137203813Y-116614856D01*
X136685676Y-116614856D01*
X136685676Y-117132994D01*
X135581818Y-117132994D01*
X135581818Y-116592329D01*
X136663148Y-116592329D01*
X136663148Y-116051663D01*
X137203813Y-116051663D01*
X137203813Y-114992861D01*
X136685676Y-114992861D01*
X136685676Y-115533526D01*
X136145011Y-115533526D01*
X136145011Y-116074191D01*
X135063680Y-116074191D01*
X135063680Y-116614856D01*
X134500487Y-116614856D01*
X134500487Y-115533526D01*
X133982350Y-115533526D01*
X133982350Y-117155522D01*
X133441685Y-117155522D01*
X133441685Y-117673659D01*
X132878492Y-117673659D01*
X132878492Y-116614856D01*
X131256496Y-116614856D01*
X131256496Y-116051663D01*
X131797161Y-116051663D01*
X132901019Y-116051663D01*
X133419157Y-116051663D01*
X133419157Y-115533526D01*
X132901019Y-115533526D01*
X132901019Y-116051663D01*
X131797161Y-116051663D01*
X131797161Y-115533526D01*
X131256496Y-115533526D01*
X131256496Y-114429668D01*
X131819689Y-114429668D01*
X131819689Y-115510998D01*
X132337827Y-115510998D01*
X133441685Y-115510998D01*
X133959822Y-115510998D01*
X135063680Y-115510998D01*
X136122483Y-115510998D01*
X136122483Y-114992861D01*
X135063680Y-114992861D01*
X135063680Y-115510998D01*
X133959822Y-115510998D01*
X133959822Y-114992861D01*
X133441685Y-114992861D01*
X133441685Y-115510998D01*
X132337827Y-115510998D01*
X132337827Y-114970333D01*
X133419157Y-114970333D01*
X133419157Y-114452196D01*
X132337827Y-114452196D01*
X132337827Y-114429668D01*
X133441685Y-114429668D01*
X134523015Y-114429668D01*
X134523015Y-114970333D01*
X135041153Y-114970333D01*
X135041153Y-113911530D01*
X133441685Y-113911530D01*
X133441685Y-114429668D01*
X132337827Y-114429668D01*
X132337827Y-113911530D01*
X131797161Y-113911530D01*
X131797161Y-113889003D01*
X132360354Y-113889003D01*
X133419157Y-113889003D01*
X135604345Y-113889003D01*
X136145011Y-113889003D01*
X136145011Y-114970333D01*
X136663148Y-114970333D01*
X136663148Y-114429668D01*
X137203813Y-114429668D01*
X137203813Y-113911530D01*
X136663148Y-113911530D01*
X136663148Y-113348338D01*
X137226341Y-113348338D01*
X137226341Y-113889003D01*
X137767006Y-113889003D01*
X137767006Y-114452196D01*
X137226341Y-114452196D01*
X137226341Y-114970333D01*
X137767006Y-114970333D01*
X137767006Y-117132994D01*
X138307671Y-117132994D01*
X138307671Y-117673659D01*
X139389002Y-117673659D01*
X139389002Y-118236852D01*
X138848337Y-118236852D01*
X138848337Y-118754989D01*
X139389002Y-118754989D01*
X139389002Y-119318182D01*
X138848337Y-119318182D01*
X138848337Y-119836320D01*
X141010997Y-119836320D01*
X141010997Y-120376985D01*
X141529135Y-120376985D01*
X141529135Y-118236852D01*
X141010997Y-118236852D01*
X141010997Y-119318182D01*
X140447804Y-119318182D01*
X140447804Y-118777517D01*
X139907139Y-118777517D01*
X139907139Y-118214324D01*
X140447804Y-118214324D01*
X140447804Y-117132994D01*
X141010997Y-117132994D01*
X141010997Y-117673659D01*
X141551662Y-117673659D01*
X141551662Y-118214324D01*
X142069800Y-118214324D01*
X142632993Y-118214324D01*
X143151130Y-118214324D01*
X143151130Y-117696187D01*
X142632993Y-117696187D01*
X142632993Y-118214324D01*
X142069800Y-118214324D01*
X142069800Y-117132994D01*
X143714323Y-117132994D01*
X143714323Y-118236852D01*
X143173658Y-118236852D01*
X143173658Y-118777517D01*
X142092328Y-118777517D01*
X142092328Y-120376985D01*
X143151130Y-120376985D01*
X143151130Y-119858847D01*
X142610465Y-119858847D01*
X142610465Y-119295655D01*
X143691796Y-119295655D01*
X144254988Y-119295655D01*
X144773126Y-119295655D01*
X144773126Y-118777517D01*
X144254988Y-118777517D01*
X144254988Y-119295655D01*
X143691796Y-119295655D01*
X143691796Y-118754989D01*
X144232461Y-118754989D01*
X144795654Y-118754989D01*
X145854456Y-118754989D01*
X145854456Y-118236852D01*
X145313791Y-118236852D01*
X145313791Y-117696187D01*
X144795654Y-117696187D01*
X144795654Y-118754989D01*
X144232461Y-118754989D01*
X144232461Y-117673659D01*
X144773126Y-117673659D01*
X144773126Y-117155522D01*
X144232461Y-117155522D01*
X144232461Y-116614856D01*
X143691796Y-116614856D01*
X143691796Y-116074191D01*
X143173658Y-116074191D01*
X143173658Y-116614856D01*
X142610465Y-116614856D01*
X142610465Y-115510998D01*
X143714323Y-115510998D01*
X143714323Y-116051663D01*
X144232461Y-116051663D01*
X144232461Y-114452196D01*
X143151130Y-114452196D01*
X143151130Y-113889003D01*
X143714323Y-113889003D01*
X144795654Y-113889003D01*
X144795654Y-116074191D01*
X144254988Y-116074191D01*
X144254988Y-116592329D01*
X144795654Y-116592329D01*
X144795654Y-117132994D01*
X145313791Y-117132994D01*
X145313791Y-116592329D01*
X146417649Y-116592329D01*
X146417649Y-117155522D01*
X145336319Y-117155522D01*
X145336319Y-117673659D01*
X145876984Y-117673659D01*
X145876984Y-118214324D01*
X146935787Y-118214324D01*
X146935787Y-117673659D01*
X147476452Y-117673659D01*
X147476452Y-117155522D01*
X146935787Y-117155522D01*
X146935787Y-116592329D01*
X147476452Y-116592329D01*
X147476452Y-116051663D01*
X148039645Y-116051663D01*
X148557782Y-116051663D01*
X148557782Y-115533526D01*
X148039645Y-115533526D01*
X148039645Y-116051663D01*
X147476452Y-116051663D01*
X147476452Y-115533526D01*
X146958314Y-115533526D01*
X146958314Y-116074191D01*
X145313791Y-116074191D01*
X145313791Y-115510998D01*
X146935787Y-115510998D01*
X147498980Y-115510998D01*
X148017117Y-115510998D01*
X148017117Y-114452196D01*
X147498980Y-114452196D01*
X147498980Y-115510998D01*
X146935787Y-115510998D01*
X146935787Y-114992861D01*
X145313791Y-114992861D01*
X145313791Y-114429668D01*
X145854456Y-114429668D01*
X146958314Y-114429668D01*
X147476452Y-114429668D01*
X147476452Y-113911530D01*
X146958314Y-113911530D01*
X146958314Y-114429668D01*
X145854456Y-114429668D01*
X145854456Y-113911530D01*
X145313791Y-113911530D01*
X145313791Y-113370865D01*
X143714323Y-113370865D01*
X143714323Y-113889003D01*
X143151130Y-113889003D01*
X143151130Y-113370865D01*
X142610465Y-113370865D01*
X142610465Y-113348338D01*
X143173658Y-113348338D01*
X143691796Y-113348338D01*
X145336319Y-113348338D01*
X146417649Y-113348338D01*
X146417649Y-113889003D01*
X146935787Y-113889003D01*
X148039645Y-113889003D01*
X148557782Y-113889003D01*
X148557782Y-112830200D01*
X148039645Y-112830200D01*
X148039645Y-113889003D01*
X146935787Y-113889003D01*
X146935787Y-113348338D01*
X147476452Y-113348338D01*
X147476452Y-112830200D01*
X145336319Y-112830200D01*
X145336319Y-113348338D01*
X143691796Y-113348338D01*
X143691796Y-112807672D01*
X144773126Y-112807672D01*
X144773126Y-111748870D01*
X144254988Y-111748870D01*
X144254988Y-112289535D01*
X143173658Y-112289535D01*
X143173658Y-113348338D01*
X142610465Y-113348338D01*
X142610465Y-112267007D01*
X143151130Y-112267007D01*
X143151130Y-111208204D01*
X142632993Y-111208204D01*
X142632993Y-111748870D01*
X141529135Y-111748870D01*
X141529135Y-111208204D01*
X141010997Y-111208204D01*
X141010997Y-111748870D01*
X140470332Y-111748870D01*
X140470332Y-112289535D01*
X138285144Y-112289535D01*
X138285144Y-111726342D01*
X139366474Y-111726342D01*
X139929667Y-111726342D01*
X140447804Y-111726342D01*
X140447804Y-111208204D01*
X139929667Y-111208204D01*
X139929667Y-111726342D01*
X139366474Y-111726342D01*
X139366474Y-111208204D01*
X137744478Y-111208204D01*
X137744478Y-111185677D01*
X140470332Y-111185677D01*
X140988470Y-111185677D01*
X141551662Y-111185677D01*
X142069800Y-111185677D01*
X142069800Y-110104346D01*
X142610465Y-110104346D01*
X142610465Y-109586209D01*
X142069800Y-109586209D01*
X142069800Y-109563681D01*
X142632993Y-109563681D01*
X143151130Y-109563681D01*
X143151130Y-109045544D01*
X142632993Y-109045544D01*
X142632993Y-109563681D01*
X142069800Y-109563681D01*
X142069800Y-107964213D01*
X141551662Y-107964213D01*
X141551662Y-111185677D01*
X140988470Y-111185677D01*
X140988470Y-110126874D01*
X140470332Y-110126874D01*
X140470332Y-111185677D01*
X137744478Y-111185677D01*
X137744478Y-110645012D01*
X138848337Y-110645012D01*
X139366474Y-110645012D01*
X139366474Y-110126874D01*
X138848337Y-110126874D01*
X138848337Y-110645012D01*
X137744478Y-110645012D01*
X137744478Y-110126874D01*
X136685676Y-110126874D01*
X136685676Y-111185677D01*
X137226341Y-111185677D01*
X137226341Y-111748870D01*
X136685676Y-111748870D01*
X136685676Y-112267007D01*
X137767006Y-112267007D01*
X137767006Y-112830200D01*
X136145011Y-112830200D01*
X136145011Y-113370865D01*
X135604345Y-113370865D01*
X135604345Y-113889003D01*
X133419157Y-113889003D01*
X133419157Y-113370865D01*
X132878492Y-113370865D01*
X132878492Y-113348338D01*
X133441685Y-113348338D01*
X133959822Y-113348338D01*
X133959822Y-112830200D01*
X133441685Y-112830200D01*
X133441685Y-113348338D01*
X132878492Y-113348338D01*
X132878492Y-112289535D01*
X132360354Y-112289535D01*
X132360354Y-113889003D01*
X131797161Y-113889003D01*
X131797161Y-113370865D01*
X131256496Y-113370865D01*
X131256496Y-112807672D01*
X131797161Y-112807672D01*
X131797161Y-111726342D01*
X132337827Y-111726342D01*
X132901019Y-111726342D01*
X133419157Y-111726342D01*
X133419157Y-111208204D01*
X132901019Y-111208204D01*
X132901019Y-111726342D01*
X132337827Y-111726342D01*
X132337827Y-110645012D01*
X133419157Y-110645012D01*
X133419157Y-110104346D01*
X134523015Y-110104346D01*
X134523015Y-110645012D01*
X135063680Y-110645012D01*
X135063680Y-111208204D01*
X134500487Y-111208204D01*
X134500487Y-110667539D01*
X133441685Y-110667539D01*
X133441685Y-111185677D01*
X133982350Y-111185677D01*
X133982350Y-112807672D01*
X135063680Y-112807672D01*
X135063680Y-113348338D01*
X135581818Y-113348338D01*
X135581818Y-112807672D01*
X136122483Y-112807672D01*
X136122483Y-111726342D01*
X136663148Y-111726342D01*
X136663148Y-111208204D01*
X136122483Y-111208204D01*
X136122483Y-110667539D01*
X135581818Y-110667539D01*
X135581818Y-110104346D01*
X136122483Y-110104346D01*
X136122483Y-109586209D01*
X135581818Y-109586209D01*
X135581818Y-109563681D01*
X136145011Y-109563681D01*
X136663148Y-109563681D01*
X136663148Y-109045544D01*
X136145011Y-109045544D01*
X136145011Y-109563681D01*
X135581818Y-109563681D01*
X135581818Y-109023016D01*
X136685676Y-109023016D01*
X137226341Y-109023016D01*
X137226341Y-109563681D01*
X137744478Y-109563681D01*
X138307671Y-109563681D01*
X138825809Y-109563681D01*
X138825809Y-109045544D01*
X138307671Y-109045544D01*
X138307671Y-109563681D01*
X137744478Y-109563681D01*
X137744478Y-109023016D01*
X138285144Y-109023016D01*
X138285144Y-108504879D01*
X137744478Y-108504879D01*
X137744478Y-107964213D01*
X137226341Y-107964213D01*
X137226341Y-108504879D01*
X136685676Y-108504879D01*
X136685676Y-109023016D01*
X135581818Y-109023016D01*
X135581818Y-108482351D01*
X136663148Y-108482351D01*
X136663148Y-107941686D01*
X137203813Y-107941686D01*
X137203813Y-107423548D01*
X136145011Y-107423548D01*
X136145011Y-107964213D01*
X135581818Y-107964213D01*
X135581818Y-106860355D01*
X137203813Y-106860355D01*
X138307671Y-106860355D01*
X138825809Y-106860355D01*
X138825809Y-106342218D01*
X138307671Y-106342218D01*
X138307671Y-106860355D01*
X137203813Y-106860355D01*
X137203813Y-105779025D01*
X138848337Y-105779025D01*
X138848337Y-106319690D01*
X139389002Y-106319690D01*
X139389002Y-106882883D01*
X138848337Y-106882883D01*
X138848337Y-107401020D01*
X139389002Y-107401020D01*
X139389002Y-107964213D01*
X138825809Y-107964213D01*
X138825809Y-107423548D01*
X138285144Y-107423548D01*
X138285144Y-106882883D01*
X137767006Y-106882883D01*
X137767006Y-107941686D01*
X138307671Y-107941686D01*
X138307671Y-108482351D01*
X139389002Y-108482351D01*
X139389002Y-110104346D01*
X140447804Y-110104346D01*
G37*
G36*
X141147458Y-115393941D02*
G01*
X141146818Y-115462921D01*
X141146859Y-115539158D01*
X141146875Y-115542268D01*
X141147247Y-115640891D01*
X141147446Y-115752197D01*
X141147472Y-115867385D01*
X141147321Y-115977650D01*
X141146992Y-116074191D01*
X141145712Y-116338892D01*
X140912213Y-116472737D01*
X140903267Y-116477865D01*
X140817672Y-116526998D01*
X140720889Y-116582641D01*
X140620355Y-116640514D01*
X140523506Y-116696336D01*
X140437777Y-116745828D01*
X140196840Y-116885074D01*
X140161812Y-116863778D01*
X140151268Y-116857493D01*
X140119553Y-116838954D01*
X140072637Y-116811760D01*
X140013192Y-116777442D01*
X139943888Y-116737531D01*
X139867395Y-116693556D01*
X139786385Y-116647051D01*
X139703529Y-116599544D01*
X139621496Y-116552568D01*
X139542958Y-116507653D01*
X139470586Y-116466330D01*
X139407051Y-116430130D01*
X139355022Y-116400584D01*
X139317172Y-116379223D01*
X139296170Y-116367577D01*
X139242761Y-116338892D01*
X139242666Y-116071375D01*
X139242540Y-116020987D01*
X139241973Y-115951072D01*
X139241016Y-115891308D01*
X139239740Y-115844788D01*
X139238217Y-115814607D01*
X139236517Y-115803859D01*
X139232534Y-115805588D01*
X139211779Y-115816628D01*
X139175936Y-115836510D01*
X139127820Y-115863654D01*
X139070246Y-115896475D01*
X139006031Y-115933393D01*
X138969676Y-115954305D01*
X138908505Y-115989156D01*
X138855367Y-116019006D01*
X138813118Y-116042268D01*
X138784619Y-116057361D01*
X138772728Y-116062698D01*
X138767279Y-116060440D01*
X138744521Y-116048589D01*
X138706894Y-116027968D01*
X138657213Y-116000144D01*
X138598293Y-115966685D01*
X138532949Y-115929159D01*
X138302039Y-115795849D01*
X138302039Y-115319513D01*
X139602821Y-115319513D01*
X139895875Y-115319513D01*
X139895651Y-115102683D01*
X139895143Y-115047839D01*
X139892928Y-114961923D01*
X139889269Y-114875918D01*
X139884505Y-114797362D01*
X139878980Y-114733792D01*
X139873406Y-114680795D01*
X139867028Y-114612214D01*
X139864119Y-114564942D01*
X139864843Y-114538367D01*
X139869361Y-114531876D01*
X139877836Y-114544857D01*
X139890429Y-114576698D01*
X139907303Y-114626785D01*
X139907702Y-114628016D01*
X139919696Y-114663466D01*
X139937107Y-114712979D01*
X139958633Y-114773031D01*
X139982970Y-114840094D01*
X140008815Y-114910641D01*
X140034867Y-114981146D01*
X140059821Y-115048081D01*
X140082376Y-115107921D01*
X140101227Y-115157138D01*
X140115073Y-115192206D01*
X140122610Y-115209597D01*
X140128147Y-115216960D01*
X140143221Y-115224599D01*
X140170559Y-115228383D01*
X140215263Y-115229402D01*
X140297316Y-115229402D01*
X140355327Y-115074524D01*
X140366351Y-115044702D01*
X140392863Y-114970848D01*
X140421944Y-114887574D01*
X140450768Y-114803025D01*
X140476508Y-114725344D01*
X140496002Y-114666940D01*
X140515211Y-114612563D01*
X140531569Y-114569531D01*
X140543786Y-114541229D01*
X140550571Y-114531043D01*
X140551457Y-114531163D01*
X140556557Y-114542679D01*
X140555063Y-114567650D01*
X140547819Y-114614457D01*
X140537388Y-114702623D01*
X140528504Y-114803318D01*
X140521602Y-114910442D01*
X140517120Y-115017896D01*
X140515496Y-115119579D01*
X140515388Y-115330777D01*
X140808440Y-115330777D01*
X140805528Y-114714080D01*
X140802616Y-114097384D01*
X140456152Y-114097384D01*
X140367558Y-114339557D01*
X140359837Y-114360707D01*
X140331539Y-114438890D01*
X140303958Y-114516043D01*
X140278871Y-114587143D01*
X140258052Y-114647164D01*
X140243279Y-114691083D01*
X140231915Y-114724313D01*
X140217282Y-114762344D01*
X140205577Y-114787278D01*
X140198619Y-114794890D01*
X140192805Y-114785923D01*
X140182430Y-114760308D01*
X140171087Y-114724960D01*
X140170185Y-114721849D01*
X140157612Y-114680479D01*
X140140484Y-114626572D01*
X140120229Y-114564376D01*
X140098276Y-114498141D01*
X140076054Y-114432115D01*
X140054993Y-114370547D01*
X140036520Y-114317686D01*
X140022065Y-114277780D01*
X140013058Y-114255078D01*
X140005880Y-114238260D01*
X139991256Y-114200456D01*
X139976631Y-114159335D01*
X139955677Y-114097384D01*
X139608647Y-114097384D01*
X139605734Y-114708448D01*
X139602821Y-115319513D01*
X138302039Y-115319513D01*
X138302039Y-114675389D01*
X138748741Y-114419601D01*
X138688716Y-114385418D01*
X138673736Y-114376862D01*
X138634365Y-114354282D01*
X138583209Y-114324866D01*
X138525223Y-114291468D01*
X138465365Y-114256937D01*
X138302039Y-114162639D01*
X138299036Y-113875248D01*
X138296033Y-113587856D01*
X138513050Y-113463565D01*
X138537264Y-113449700D01*
X138601859Y-113412753D01*
X138660868Y-113379053D01*
X138710802Y-113350589D01*
X138748173Y-113329352D01*
X138769490Y-113317331D01*
X138779877Y-113311503D01*
X138811901Y-113293367D01*
X138856654Y-113267900D01*
X138909701Y-113237629D01*
X138966607Y-113205078D01*
X138967505Y-113204564D01*
X139020127Y-113174434D01*
X139087832Y-113135677D01*
X139166239Y-113090800D01*
X139250968Y-113042310D01*
X139337638Y-112992715D01*
X139421868Y-112944521D01*
X139719435Y-112774275D01*
X139960503Y-112912232D01*
X140201571Y-113050190D01*
X140200751Y-113314718D01*
X140200737Y-113360730D01*
X140201257Y-113432119D01*
X140202377Y-113494222D01*
X140204003Y-113543729D01*
X140206046Y-113577329D01*
X140208413Y-113591713D01*
X140210767Y-113594001D01*
X140229346Y-113606839D01*
X140262945Y-113627708D01*
X140308123Y-113654658D01*
X140361438Y-113685739D01*
X140419451Y-113719002D01*
X140478719Y-113752498D01*
X140535801Y-113784275D01*
X140587258Y-113812385D01*
X140629646Y-113834877D01*
X140659526Y-113849803D01*
X140673455Y-113855211D01*
X140679206Y-113853326D01*
X140702805Y-113842082D01*
X140741270Y-113822065D01*
X140791674Y-113794844D01*
X140851087Y-113761985D01*
X140916582Y-113725058D01*
X140950103Y-113706016D01*
X141016159Y-113668856D01*
X141066435Y-113641390D01*
X141103502Y-113622437D01*
X141129931Y-113610818D01*
X141148292Y-113605351D01*
X141161155Y-113604856D01*
X141171091Y-113608151D01*
X141175770Y-113610648D01*
X141199790Y-113623961D01*
X141238825Y-113645913D01*
X141289642Y-113674677D01*
X141349006Y-113708421D01*
X141413680Y-113745318D01*
X141630509Y-113869238D01*
X141630509Y-114418406D01*
X141630487Y-114482269D01*
X141630277Y-114601942D01*
X141629808Y-114701579D01*
X141629035Y-114782868D01*
X141627913Y-114847503D01*
X141626396Y-114897174D01*
X141624439Y-114933573D01*
X141621997Y-114958391D01*
X141619024Y-114973320D01*
X141615475Y-114980052D01*
X141613634Y-114981479D01*
X141593883Y-114994387D01*
X141561520Y-115013792D01*
X141522549Y-115036074D01*
X141508415Y-115043989D01*
X141433341Y-115086471D01*
X141361993Y-115127539D01*
X141297032Y-115165603D01*
X141241116Y-115199075D01*
X141196908Y-115226366D01*
X141167067Y-115245886D01*
X141154253Y-115256047D01*
X141152620Y-115263296D01*
X141150445Y-115290854D01*
X141148881Y-115330777D01*
X141148696Y-115335494D01*
X141147458Y-115393941D01*
G37*
G36*
X139389002Y-123643504D02*
G01*
X138825809Y-123643504D01*
X138825809Y-123080311D01*
X139389002Y-123080311D01*
X139389002Y-123643504D01*
G37*
G36*
X145336319Y-123620976D02*
G01*
X145336319Y-123080311D01*
X145876984Y-123080311D01*
X148580310Y-123080311D01*
X148580310Y-120376985D01*
X145876984Y-120376985D01*
X145876984Y-123080311D01*
X145336319Y-123080311D01*
X145336319Y-119836320D01*
X149120975Y-119836320D01*
X149120975Y-123620976D01*
X145336319Y-123620976D01*
G37*
G36*
X148039645Y-122539646D02*
G01*
X146417649Y-122539646D01*
X146417649Y-120917650D01*
X148039645Y-120917650D01*
X148039645Y-122539646D01*
G37*
%LPC*%
D13*
X137550000Y-93550000D03*
X137550000Y-88550000D03*
D14*
X176870000Y-62800000D03*
X191070000Y-56800000D03*
X191070000Y-68800000D03*
X178870000Y-68800000D03*
X178870000Y-56800000D03*
D15*
X161388000Y-128527000D03*
D16*
X161388000Y-131067000D03*
X161388000Y-133607000D03*
X161388000Y-136147000D03*
D17*
X144262500Y-74900000D03*
X145562500Y-74900000D03*
X144262500Y-77500000D03*
X145562500Y-76200000D03*
X144262500Y-76200000D03*
X145562500Y-77500000D03*
D18*
X198420000Y-69130000D03*
D19*
X198420000Y-65630000D03*
X198420000Y-62130000D03*
D20*
X134200000Y-55160000D03*
X136740000Y-55160000D03*
X139280000Y-55160000D03*
D18*
X198400000Y-131500000D03*
D19*
X198400000Y-128000000D03*
D18*
X198420000Y-81130000D03*
D19*
X198420000Y-77630000D03*
X198420000Y-74130000D03*
D13*
X155800000Y-93500000D03*
X155800000Y-88500000D03*
D20*
X134262500Y-70600000D03*
X136802500Y-70600000D03*
X139342500Y-70600000D03*
D14*
X176870000Y-78800000D03*
X191070000Y-72800000D03*
X191070000Y-84800000D03*
X178870000Y-84800000D03*
X178870000Y-72800000D03*
D15*
X164400000Y-64300000D03*
D16*
X164400000Y-61760000D03*
X164400000Y-59220000D03*
D18*
X198420000Y-93130000D03*
D19*
X198420000Y-89630000D03*
X198420000Y-86130000D03*
D21*
X197143845Y-102856155D03*
X199000000Y-103625000D03*
X201625000Y-101000000D03*
X200856155Y-102856155D03*
X200856155Y-99143845D03*
X196375000Y-101000000D03*
X199000000Y-98375000D03*
D22*
X199000000Y-101000000D03*
D21*
X197143845Y-99143845D03*
D15*
X164400000Y-79755000D03*
D16*
X164400000Y-77215000D03*
X164400000Y-74675000D03*
D18*
X198400000Y-123000000D03*
D19*
X198400000Y-119500000D03*
D23*
X174410000Y-143700000D03*
X180190000Y-143700000D03*
D24*
X181620000Y-143170000D03*
X172980000Y-143170000D03*
D25*
X181620000Y-147350000D03*
X172980000Y-147350000D03*
D21*
X106375000Y-56000000D03*
X111625000Y-56000000D03*
X110856155Y-57856155D03*
X109000000Y-58625000D03*
X109000000Y-53375000D03*
X107143845Y-57856155D03*
X110856155Y-54143845D03*
D22*
X109000000Y-56000000D03*
D21*
X107143845Y-54143845D03*
D17*
X113970000Y-96850000D03*
X112670000Y-96850000D03*
X111370000Y-95550000D03*
X112670000Y-95550000D03*
X113970000Y-95550000D03*
X111370000Y-96850000D03*
D15*
X164400000Y-95105000D03*
D16*
X164400000Y-92565000D03*
X164400000Y-90025000D03*
D15*
X138528000Y-127257000D03*
D16*
X141068000Y-127257000D03*
X143608000Y-127257000D03*
X146148000Y-127257000D03*
X148688000Y-127257000D03*
X151228000Y-127257000D03*
D18*
X109400000Y-62100000D03*
D19*
X109400000Y-65600000D03*
X109400000Y-69100000D03*
X109400000Y-72600000D03*
D26*
X152168000Y-120087000D03*
D27*
X156168000Y-120087000D03*
D17*
X154800000Y-101570000D03*
X157400000Y-101570000D03*
X157400000Y-102870000D03*
X156100000Y-101570000D03*
X154800000Y-102870000D03*
X156100000Y-102870000D03*
D21*
X122625000Y-117500000D03*
X121856155Y-115643845D03*
X120000000Y-120125000D03*
X118143845Y-115643845D03*
D22*
X120000000Y-117500000D03*
D21*
X120000000Y-114875000D03*
X121856155Y-119356155D03*
X117375000Y-117500000D03*
X118143845Y-119356155D03*
D28*
X111500000Y-135220000D03*
D29*
X114000000Y-135220000D03*
X116000000Y-135220000D03*
X118500000Y-135220000D03*
X111500000Y-137840000D03*
X114000000Y-137840000D03*
X116000000Y-137840000D03*
X118500000Y-137840000D03*
D14*
X108430000Y-140550000D03*
X121570000Y-134870000D03*
X121570000Y-140550000D03*
X108430000Y-134870000D03*
X176920000Y-94800000D03*
X191120000Y-88800000D03*
X191120000Y-100800000D03*
X178920000Y-100800000D03*
X178920000Y-88800000D03*
D18*
X198400000Y-140000000D03*
D19*
X198400000Y-136500000D03*
D15*
X180700000Y-113280000D03*
D16*
X180700000Y-110740000D03*
X180700000Y-108200000D03*
X180700000Y-105660000D03*
D17*
X144250000Y-60760000D03*
X145550000Y-62060000D03*
X145550000Y-60760000D03*
X145550000Y-59460000D03*
X144250000Y-62060000D03*
X144250000Y-59460000D03*
X137850000Y-101550000D03*
X137850000Y-102850000D03*
X139150000Y-101550000D03*
X136550000Y-101550000D03*
X139150000Y-102850000D03*
X136550000Y-102850000D03*
D13*
X155800000Y-62760000D03*
X155800000Y-57760000D03*
D21*
X199000000Y-58625000D03*
X197143845Y-57856155D03*
X197143845Y-54143845D03*
X200856155Y-54143845D03*
X199000000Y-53375000D03*
X196375000Y-56000000D03*
X201625000Y-56000000D03*
D22*
X199000000Y-56000000D03*
D21*
X200856155Y-57856155D03*
D13*
X155812500Y-78200000D03*
X155812500Y-73200000D03*
D18*
X198400000Y-114500000D03*
D19*
X198400000Y-111000000D03*
D13*
X110720000Y-107100000D03*
X115720000Y-107100000D03*
D15*
X114400000Y-122680000D03*
D16*
X114400000Y-120140000D03*
X114400000Y-117600000D03*
D30*
X167272800Y-105011600D03*
X127242400Y-147023200D03*
X127242400Y-105011600D03*
X167272800Y-147048600D03*
G36*
G01*
X169850000Y-110327000D02*
X169850000Y-111177000D01*
G75*
G02*
X169425000Y-111602000I-425000J0D01*
G01*
X168575000Y-111602000D01*
G75*
G02*
X168150000Y-111177000I0J425000D01*
G01*
X168150000Y-110327000D01*
G75*
G02*
X168575000Y-109902000I425000J0D01*
G01*
X169425000Y-109902000D01*
G75*
G02*
X169850000Y-110327000I0J-425000D01*
G01*
G37*
D31*
X166460000Y-110752000D03*
X169000000Y-113292000D03*
X166460000Y-113292000D03*
X169000000Y-115832000D03*
X166460000Y-115832000D03*
X169000000Y-118372000D03*
X166460000Y-118372000D03*
X169000000Y-120912000D03*
X166460000Y-120912000D03*
X169000000Y-123452000D03*
X166460000Y-123452000D03*
X169000000Y-125992000D03*
X166460000Y-125992000D03*
X169000000Y-128532000D03*
X166460000Y-128532000D03*
X169000000Y-131072000D03*
X166460000Y-131072000D03*
X169000000Y-133612000D03*
X166460000Y-133612000D03*
X169000000Y-136152000D03*
X166460000Y-136152000D03*
X169000000Y-138692000D03*
X166460000Y-138692000D03*
X169000000Y-141232000D03*
X166460000Y-141232000D03*
G36*
G01*
X126670000Y-140807000D02*
X126670000Y-141657000D01*
G75*
G02*
X126245000Y-142082000I-425000J0D01*
G01*
X125395000Y-142082000D01*
G75*
G02*
X124970000Y-141657000I0J425000D01*
G01*
X124970000Y-140807000D01*
G75*
G02*
X125395000Y-140382000I425000J0D01*
G01*
X126245000Y-140382000D01*
G75*
G02*
X126670000Y-140807000I0J-425000D01*
G01*
G37*
X125820000Y-138692000D03*
X125820000Y-136152000D03*
X125820000Y-133612000D03*
X125820000Y-131072000D03*
X125820000Y-128532000D03*
X125820000Y-125992000D03*
X125820000Y-123452000D03*
X125820000Y-120912000D03*
X125820000Y-118372000D03*
X125820000Y-115832000D03*
X125820000Y-113292000D03*
X125820000Y-110752000D03*
G36*
G01*
X161722000Y-148427000D02*
X161722000Y-149277000D01*
G75*
G02*
X161297000Y-149702000I-425000J0D01*
G01*
X160447000Y-149702000D01*
G75*
G02*
X160022000Y-149277000I0J425000D01*
G01*
X160022000Y-148427000D01*
G75*
G02*
X160447000Y-148002000I425000J0D01*
G01*
X161297000Y-148002000D01*
G75*
G02*
X161722000Y-148427000I0J-425000D01*
G01*
G37*
X160872000Y-146312000D03*
X160872000Y-143772000D03*
D21*
X199000000Y-148625000D03*
D22*
X199000000Y-146000000D03*
D21*
X199000000Y-143375000D03*
X197143845Y-147856155D03*
X201625000Y-146000000D03*
X197143845Y-144143845D03*
X200856155Y-144143845D03*
X200856155Y-147856155D03*
X196375000Y-146000000D03*
D15*
X146150000Y-95180000D03*
D16*
X146150000Y-92640000D03*
X146150000Y-90100000D03*
D15*
X185500000Y-106000000D03*
D16*
X188040000Y-106000000D03*
X190580000Y-106000000D03*
X193120000Y-106000000D03*
M02*
