%FSLAX45Y45*%
G04 Gerber Fmt 4.5, Leading zero omitted, Abs format (unit mm)*
%MOMM*%
%LPD*%
G01*
G04 APERTURE LIST*
%TA.AperFunction,Profile*%
%ADD10C,0.100000*%
%TD*%
%ADD11C,0.200000*%
%ADD12C,0.040000*%
%ADD13C,0.050000*%
%ADD14C,0.060000*%
%ADD15C,0.080000*%
%ADD16C,0.090000*%
%ADD17C,0.092000*%
%ADD18C,0.100000*%
%ADD19C,0.120000*%
%ADD20C,0.130000*%
%ADD21C,0.230000*%
%ADD22C,0.320000*%
%ADD23C,0.350000*%
G04 APERTURE END LIST*
D10*
X10500000Y-14600000D02*
G75*
G03*
X10900000Y-15000000I400000J0D01*
G01*
X10500000Y-14600000D02*
X10500000Y-5600000D01*
X12750000Y-15000000D02*
X10900000Y-15000000D01*
X15700000Y-13200000D02*
G75*
G03*
X15600000Y-13100000I-100000J0D01*
G01*
X10900000Y-5200000D02*
G75*
G03*
X10500000Y-5600000I0J-400000D01*
G01*
X13100000Y-13100000D02*
X15600000Y-13100000D01*
X13100000Y-13100000D02*
G75*
G03*
X13000000Y-13200000I0J-100000D01*
G01*
X20300000Y-5600000D02*
G75*
G03*
X19900000Y-5200000I-400000J0D01*
G01*
X19900000Y-15000000D02*
G75*
G03*
X20300000Y-14600000I0J400000D01*
G01*
X12750000Y-15000000D02*
G75*
G03*
X13000000Y-14750000I0J250000D01*
G01*
X10900000Y-5200000D02*
X19900000Y-5200000D01*
X20300000Y-5600000D02*
X20300000Y-14600000D01*
X19900000Y-15000000D02*
X15950000Y-15000000D01*
X15700000Y-14750000D02*
G75*
G03*
X15950000Y-15000000I250000J0D01*
G01*
X13000000Y-14750000D02*
X13000000Y-13200000D01*
X15700000Y-13200000D02*
X15700000Y-14750000D01*
D11*
D12*
X10680000Y-6680000D02*
X10720000Y-6720000D01*
X10720000Y-6680000D02*
X10680000Y-6720000D01*
X10680000Y-6780000D02*
X10720000Y-6820000D01*
X10720000Y-6780000D02*
X10680000Y-6820000D01*
X10680000Y-6880000D02*
X10720000Y-6920000D01*
X10720000Y-6880000D02*
X10680000Y-6920000D01*
X10680000Y-6980000D02*
X10720000Y-7020000D01*
X10720000Y-6980000D02*
X10680000Y-7020000D01*
X10680000Y-7080000D02*
X10720000Y-7120000D01*
X10720000Y-7080000D02*
X10680000Y-7120000D01*
X10680000Y-7180000D02*
X10720000Y-7220000D01*
X10720000Y-7180000D02*
X10680000Y-7220000D01*
X10680000Y-7280000D02*
X10720000Y-7320000D01*
X10720000Y-7280000D02*
X10680000Y-7320000D01*
X10680500Y-11847500D02*
X10720500Y-11887500D01*
X10720500Y-11847500D02*
X10680500Y-11887500D01*
X10730000Y-13090000D02*
X10770000Y-13130000D01*
X10770000Y-13090000D02*
X10730000Y-13130000D01*
X10740500Y-9387500D02*
X10780500Y-9427500D01*
X10780500Y-9387500D02*
X10740500Y-9427500D01*
X10740500Y-9467500D02*
X10780500Y-9507500D01*
X10780500Y-9467500D02*
X10740500Y-9507500D01*
X10740500Y-9547500D02*
X10780500Y-9587500D01*
X10780500Y-9547500D02*
X10740500Y-9587500D01*
X10830500Y-9387500D02*
X10870500Y-9427500D01*
X10870500Y-9387500D02*
X10830500Y-9427500D01*
X10830500Y-9467500D02*
X10870500Y-9507500D01*
X10870500Y-9467500D02*
X10830500Y-9507500D01*
X10830500Y-9547500D02*
X10870500Y-9587500D01*
X10870500Y-9547500D02*
X10830500Y-9587500D01*
X11030000Y-13090000D02*
X11070000Y-13130000D01*
X11070000Y-13090000D02*
X11030000Y-13130000D01*
X11070500Y-11537500D02*
X11110500Y-11577500D01*
X11110500Y-11537500D02*
X11070500Y-11577500D01*
X11150500Y-11537500D02*
X11190500Y-11577500D01*
X11190500Y-11537500D02*
X11150500Y-11577500D01*
X11180000Y-6680000D02*
X11220000Y-6720000D01*
X11220000Y-6680000D02*
X11180000Y-6720000D01*
X11180000Y-6780000D02*
X11220000Y-6820000D01*
X11220000Y-6780000D02*
X11180000Y-6820000D01*
X11180000Y-6880000D02*
X11220000Y-6920000D01*
X11220000Y-6880000D02*
X11180000Y-6920000D01*
X11180000Y-6980000D02*
X11220000Y-7020000D01*
X11220000Y-6980000D02*
X11180000Y-7020000D01*
X11180000Y-7080000D02*
X11220000Y-7120000D01*
X11220000Y-7080000D02*
X11180000Y-7120000D01*
X11180000Y-7180000D02*
X11220000Y-7220000D01*
X11220000Y-7180000D02*
X11180000Y-7220000D01*
X11180000Y-7280000D02*
X11220000Y-7320000D01*
X11220000Y-7280000D02*
X11180000Y-7320000D01*
X11230000Y-13090000D02*
X11270000Y-13130000D01*
X11270000Y-13090000D02*
X11230000Y-13130000D01*
X11510000Y-13120000D02*
X11550000Y-13160000D01*
X11550000Y-13120000D02*
X11510000Y-13160000D01*
X11610000Y-9480000D02*
X11650000Y-9520000D01*
X11650000Y-9480000D02*
X11610000Y-9520000D01*
X11610500Y-9627500D02*
X11650500Y-9667500D01*
X11650500Y-9627500D02*
X11610500Y-9667500D01*
X11630000Y-6235000D02*
X11670000Y-6275000D01*
X11670000Y-6235000D02*
X11630000Y-6275000D01*
X11690000Y-9480000D02*
X11730000Y-9520000D01*
X11730000Y-9480000D02*
X11690000Y-9520000D01*
X11690500Y-9627500D02*
X11730500Y-9667500D01*
X11730500Y-9627500D02*
X11690500Y-9667500D01*
X11811250Y-5825000D02*
X11851250Y-5865000D01*
X11851250Y-5825000D02*
X11811250Y-5865000D01*
X11811250Y-6035000D02*
X11851250Y-6075000D01*
X11851250Y-6035000D02*
X11811250Y-6075000D01*
X11840000Y-9480000D02*
X11880000Y-9520000D01*
X11880000Y-9480000D02*
X11840000Y-9520000D01*
X11840500Y-9627500D02*
X11880500Y-9667500D01*
X11880500Y-9627500D02*
X11840500Y-9667500D01*
X11860000Y-13120000D02*
X11900000Y-13160000D01*
X11900000Y-13120000D02*
X11860000Y-13160000D01*
X11920000Y-9480000D02*
X11960000Y-9520000D01*
X11960000Y-9480000D02*
X11920000Y-9520000D01*
X11920500Y-9627500D02*
X11960500Y-9667500D01*
X11960500Y-9627500D02*
X11920500Y-9667500D01*
X12000000Y-5600000D02*
X12040000Y-5640000D01*
X12040000Y-5600000D02*
X12000000Y-5640000D01*
X12001875Y-5798125D02*
X12041875Y-5838125D01*
X12041875Y-5798125D02*
X12001875Y-5838125D01*
X12140000Y-13090000D02*
X12180000Y-13130000D01*
X12180000Y-13090000D02*
X12140000Y-13130000D01*
X12267750Y-9512500D02*
X12307750Y-9552500D01*
X12307750Y-9512500D02*
X12267750Y-9552500D01*
X12371250Y-7285000D02*
X12411250Y-7325000D01*
X12411250Y-7285000D02*
X12371250Y-7325000D01*
X12371250Y-7365000D02*
X12411250Y-7405000D01*
X12411250Y-7365000D02*
X12371250Y-7405000D01*
X12371250Y-7445000D02*
X12411250Y-7485000D01*
X12411250Y-7445000D02*
X12371250Y-7485000D01*
X12371250Y-7525000D02*
X12411250Y-7565000D01*
X12411250Y-7525000D02*
X12371250Y-7565000D01*
X12371250Y-7605000D02*
X12411250Y-7645000D01*
X12411250Y-7605000D02*
X12371250Y-7645000D01*
X12451250Y-7285000D02*
X12491250Y-7325000D01*
X12491250Y-7285000D02*
X12451250Y-7325000D01*
X12451250Y-7365000D02*
X12491250Y-7405000D01*
X12491250Y-7365000D02*
X12451250Y-7405000D01*
X12451250Y-7445000D02*
X12491250Y-7485000D01*
X12491250Y-7445000D02*
X12451250Y-7485000D01*
X12451250Y-7525000D02*
X12491250Y-7565000D01*
X12491250Y-7525000D02*
X12451250Y-7565000D01*
X12451250Y-7605000D02*
X12491250Y-7645000D01*
X12491250Y-7605000D02*
X12451250Y-7645000D01*
X12531250Y-7285000D02*
X12571250Y-7325000D01*
X12571250Y-7285000D02*
X12531250Y-7325000D01*
X12531250Y-7365000D02*
X12571250Y-7405000D01*
X12571250Y-7365000D02*
X12531250Y-7405000D01*
X12531250Y-7445000D02*
X12571250Y-7485000D01*
X12571250Y-7445000D02*
X12531250Y-7485000D01*
X12531250Y-7525000D02*
X12571250Y-7565000D01*
X12571250Y-7525000D02*
X12531250Y-7565000D01*
X12531250Y-7605000D02*
X12571250Y-7645000D01*
X12571250Y-7605000D02*
X12531250Y-7645000D01*
X12685000Y-9135000D02*
X12725000Y-9175000D01*
X12725000Y-9135000D02*
X12685000Y-9175000D01*
X12685000Y-9215000D02*
X12725000Y-9255000D01*
X12725000Y-9215000D02*
X12685000Y-9255000D01*
X12685000Y-9375000D02*
X12725000Y-9415000D01*
X12725000Y-9375000D02*
X12685000Y-9415000D01*
X12685000Y-9455000D02*
X12725000Y-9495000D01*
X12725000Y-9455000D02*
X12685000Y-9495000D01*
X12685000Y-9615000D02*
X12725000Y-9655000D01*
X12725000Y-9615000D02*
X12685000Y-9655000D01*
X12685000Y-9695000D02*
X12725000Y-9735000D01*
X12725000Y-9695000D02*
X12685000Y-9735000D01*
X12800000Y-14320000D02*
X12840000Y-14360000D01*
X12840000Y-14320000D02*
X12800000Y-14360000D01*
X12880000Y-14320000D02*
X12920000Y-14360000D01*
X12920000Y-14320000D02*
X12880000Y-14360000D01*
X12975000Y-9855000D02*
X13015000Y-9895000D01*
X13015000Y-9855000D02*
X12975000Y-9895000D01*
X13066800Y-12128700D02*
X13106800Y-12168700D01*
X13106800Y-12128700D02*
X13066800Y-12168700D01*
X13085000Y-10235000D02*
X13125000Y-10275000D01*
X13125000Y-10235000D02*
X13085000Y-10275000D01*
X13165000Y-10235000D02*
X13205000Y-10275000D01*
X13205000Y-10235000D02*
X13165000Y-10275000D01*
X13208750Y-6076000D02*
X13248750Y-6116000D01*
X13248750Y-6076000D02*
X13208750Y-6116000D01*
X13208750Y-6274750D02*
X13248750Y-6314750D01*
X13248750Y-6274750D02*
X13208750Y-6314750D01*
X13212000Y-7611500D02*
X13252000Y-7651500D01*
X13252000Y-7611500D02*
X13212000Y-7651500D01*
X13212000Y-7811500D02*
X13252000Y-7851500D01*
X13252000Y-7811500D02*
X13212000Y-7851500D01*
X13246800Y-12728700D02*
X13286800Y-12768700D01*
X13286800Y-12728700D02*
X13246800Y-12768700D01*
X13325000Y-10235000D02*
X13365000Y-10275000D01*
X13365000Y-10235000D02*
X13325000Y-10275000D01*
X13405000Y-10235000D02*
X13445000Y-10275000D01*
X13445000Y-10235000D02*
X13405000Y-10275000D01*
X13632000Y-5931500D02*
X13672000Y-5971500D01*
X13672000Y-5931500D02*
X13632000Y-5971500D01*
X13632000Y-7471500D02*
X13672000Y-7511500D01*
X13672000Y-7471500D02*
X13632000Y-7511500D01*
X13712000Y-5931500D02*
X13752000Y-5971500D01*
X13752000Y-5931500D02*
X13712000Y-5971500D01*
X13712000Y-7471500D02*
X13752000Y-7511500D01*
X13752000Y-7471500D02*
X13712000Y-7511500D01*
X13872000Y-5931500D02*
X13912000Y-5971500D01*
X13912000Y-5931500D02*
X13872000Y-5971500D01*
X13872000Y-7471500D02*
X13912000Y-7511500D01*
X13912000Y-7471500D02*
X13872000Y-7511500D01*
X13952000Y-5931500D02*
X13992000Y-5971500D01*
X13992000Y-5931500D02*
X13952000Y-5971500D01*
X13952000Y-7471500D02*
X13992000Y-7511500D01*
X13992000Y-7471500D02*
X13952000Y-7511500D01*
X14175000Y-10255000D02*
X14215000Y-10295000D01*
X14215000Y-10255000D02*
X14175000Y-10295000D01*
X14175000Y-10335000D02*
X14215000Y-10375000D01*
X14215000Y-10335000D02*
X14175000Y-10375000D01*
X14175000Y-10415000D02*
X14215000Y-10455000D01*
X14215000Y-10415000D02*
X14175000Y-10455000D01*
X14252000Y-5691500D02*
X14292000Y-5731500D01*
X14292000Y-5691500D02*
X14252000Y-5731500D01*
X14252000Y-6471500D02*
X14292000Y-6511500D01*
X14292000Y-6471500D02*
X14252000Y-6511500D01*
X14252000Y-6551500D02*
X14292000Y-6591500D01*
X14292000Y-6551500D02*
X14252000Y-6591500D01*
X14252000Y-7231500D02*
X14292000Y-7271500D01*
X14292000Y-7231500D02*
X14252000Y-7271500D01*
X14252000Y-8011500D02*
X14292000Y-8051500D01*
X14292000Y-8011500D02*
X14252000Y-8051500D01*
X14252000Y-8111500D02*
X14292000Y-8151500D01*
X14292000Y-8111500D02*
X14252000Y-8151500D01*
X14275000Y-10255000D02*
X14315000Y-10295000D01*
X14315000Y-10255000D02*
X14275000Y-10295000D01*
X14275000Y-10335000D02*
X14315000Y-10375000D01*
X14315000Y-10335000D02*
X14275000Y-10375000D01*
X14275000Y-10415000D02*
X14315000Y-10455000D01*
X14315000Y-10415000D02*
X14275000Y-10455000D01*
X14332000Y-5691500D02*
X14372000Y-5731500D01*
X14372000Y-5691500D02*
X14332000Y-5731500D01*
X14332000Y-6471500D02*
X14372000Y-6511500D01*
X14372000Y-6471500D02*
X14332000Y-6511500D01*
X14332000Y-6551500D02*
X14372000Y-6591500D01*
X14372000Y-6551500D02*
X14332000Y-6591500D01*
X14332000Y-7231500D02*
X14372000Y-7271500D01*
X14372000Y-7231500D02*
X14332000Y-7271500D01*
X14332000Y-8011500D02*
X14372000Y-8051500D01*
X14372000Y-8011500D02*
X14332000Y-8051500D01*
X14332000Y-8111500D02*
X14372000Y-8151500D01*
X14372000Y-8111500D02*
X14332000Y-8151500D01*
X14412000Y-6471500D02*
X14452000Y-6511500D01*
X14452000Y-6471500D02*
X14412000Y-6511500D01*
X14412000Y-6551500D02*
X14452000Y-6591500D01*
X14452000Y-6551500D02*
X14412000Y-6591500D01*
X14412000Y-8011500D02*
X14452000Y-8051500D01*
X14452000Y-8011500D02*
X14412000Y-8051500D01*
X14412000Y-8111500D02*
X14452000Y-8151500D01*
X14452000Y-8111500D02*
X14412000Y-8151500D01*
X14492000Y-5691500D02*
X14532000Y-5731500D01*
X14532000Y-5691500D02*
X14492000Y-5731500D01*
X14492000Y-7231500D02*
X14532000Y-7271500D01*
X14532000Y-7231500D02*
X14492000Y-7271500D01*
X14572000Y-5691500D02*
X14612000Y-5731500D01*
X14612000Y-5691500D02*
X14572000Y-5731500D01*
X14572000Y-7231500D02*
X14612000Y-7271500D01*
X14612000Y-7231500D02*
X14572000Y-7271500D01*
X14695000Y-8495000D02*
X14735000Y-8535000D01*
X14735000Y-8495000D02*
X14695000Y-8535000D01*
X14732000Y-5691500D02*
X14772000Y-5731500D01*
X14772000Y-5691500D02*
X14732000Y-5731500D01*
X14732000Y-7231500D02*
X14772000Y-7271500D01*
X14772000Y-7231500D02*
X14732000Y-7271500D01*
X14812000Y-5691500D02*
X14852000Y-5731500D01*
X14852000Y-5691500D02*
X14812000Y-5731500D01*
X14812000Y-7231500D02*
X14852000Y-7271500D01*
X14852000Y-7231500D02*
X14812000Y-7271500D01*
X14920000Y-11010000D02*
X14960000Y-11050000D01*
X14960000Y-11010000D02*
X14920000Y-11050000D01*
X15230000Y-9860000D02*
X15270000Y-9900000D01*
X15270000Y-9860000D02*
X15230000Y-9900000D01*
X15230000Y-9940000D02*
X15270000Y-9980000D01*
X15270000Y-9940000D02*
X15230000Y-9980000D01*
X15230000Y-10110000D02*
X15270000Y-10150000D01*
X15270000Y-10110000D02*
X15230000Y-10150000D01*
X15230000Y-10190000D02*
X15270000Y-10230000D01*
X15270000Y-10190000D02*
X15230000Y-10230000D01*
X15230000Y-10350000D02*
X15270000Y-10390000D01*
X15270000Y-10350000D02*
X15230000Y-10390000D01*
X15230000Y-10430000D02*
X15270000Y-10470000D01*
X15270000Y-10430000D02*
X15230000Y-10470000D01*
X15390000Y-10710000D02*
X15430000Y-10750000D01*
X15430000Y-10710000D02*
X15390000Y-10750000D01*
X15390000Y-10790000D02*
X15430000Y-10830000D01*
X15430000Y-10790000D02*
X15390000Y-10830000D01*
X15390000Y-10950000D02*
X15430000Y-10990000D01*
X15430000Y-10950000D02*
X15390000Y-10990000D01*
X15390000Y-11030000D02*
X15430000Y-11070000D01*
X15430000Y-11030000D02*
X15390000Y-11070000D01*
X15800000Y-11420000D02*
X15840000Y-11460000D01*
X15840000Y-11420000D02*
X15800000Y-11460000D01*
X15860000Y-11360000D02*
X15900000Y-11400000D01*
X15900000Y-11360000D02*
X15860000Y-11400000D01*
X15920000Y-11300000D02*
X15960000Y-11340000D01*
X15960000Y-11300000D02*
X15920000Y-11340000D01*
X16000000Y-10250000D02*
X16040000Y-10290000D01*
X16040000Y-10250000D02*
X16000000Y-10290000D01*
X16000000Y-10330000D02*
X16040000Y-10370000D01*
X16040000Y-10330000D02*
X16000000Y-10370000D01*
X16000000Y-10410000D02*
X16040000Y-10450000D01*
X16040000Y-10410000D02*
X16000000Y-10450000D01*
X16090000Y-10250000D02*
X16130000Y-10290000D01*
X16130000Y-10250000D02*
X16090000Y-10290000D01*
X16090000Y-10330000D02*
X16130000Y-10370000D01*
X16130000Y-10330000D02*
X16090000Y-10370000D01*
X16090000Y-10410000D02*
X16130000Y-10450000D01*
X16130000Y-10410000D02*
X16090000Y-10450000D01*
X16280000Y-10790000D02*
X16320000Y-10830000D01*
X16320000Y-10790000D02*
X16280000Y-10830000D01*
X16280000Y-11580000D02*
X16320000Y-11620000D01*
X16320000Y-11580000D02*
X16280000Y-11620000D01*
X16283500Y-11184000D02*
X16323500Y-11224000D01*
X16323500Y-11184000D02*
X16283500Y-11224000D01*
X16360000Y-10790000D02*
X16400000Y-10830000D01*
X16400000Y-10790000D02*
X16360000Y-10830000D01*
X16360000Y-11580000D02*
X16400000Y-11620000D01*
X16400000Y-11580000D02*
X16360000Y-11620000D01*
X16363500Y-11184000D02*
X16403500Y-11224000D01*
X16403500Y-11184000D02*
X16363500Y-11224000D01*
X16443500Y-11184000D02*
X16483500Y-11224000D01*
X16483500Y-11184000D02*
X16443500Y-11224000D01*
X16510000Y-8490000D02*
X16550000Y-8530000D01*
X16550000Y-8490000D02*
X16510000Y-8530000D01*
X16512000Y-5411500D02*
X16552000Y-5451500D01*
X16552000Y-5411500D02*
X16512000Y-5451500D01*
X16512000Y-6951500D02*
X16552000Y-6991500D01*
X16552000Y-6951500D02*
X16512000Y-6991500D01*
X16523500Y-11184000D02*
X16563500Y-11224000D01*
X16563500Y-11184000D02*
X16523500Y-11224000D01*
X17132000Y-6285000D02*
X17172000Y-6325000D01*
X17172000Y-6285000D02*
X17132000Y-6325000D01*
X17132000Y-7885000D02*
X17172000Y-7925000D01*
X17172000Y-7885000D02*
X17132000Y-7925000D01*
X17132000Y-9485000D02*
X17172000Y-9525000D01*
X17172000Y-9485000D02*
X17132000Y-9525000D01*
X17160000Y-10600000D02*
X17200000Y-10640000D01*
X17200000Y-10600000D02*
X17160000Y-10640000D01*
X17170000Y-11560000D02*
X17210000Y-11600000D01*
X17210000Y-11560000D02*
X17170000Y-11600000D01*
X17209500Y-12537500D02*
X17249500Y-12577500D01*
X17249500Y-12537500D02*
X17209500Y-12577500D01*
X17267500Y-13730500D02*
X17307500Y-13770500D01*
X17307500Y-13730500D02*
X17267500Y-13770500D01*
X17369500Y-14167500D02*
X17409500Y-14207500D01*
X17409500Y-14167500D02*
X17369500Y-14207500D01*
X17397000Y-6805000D02*
X17437000Y-6845000D01*
X17437000Y-6805000D02*
X17397000Y-6845000D01*
X17397000Y-6885000D02*
X17437000Y-6925000D01*
X17437000Y-6885000D02*
X17397000Y-6925000D01*
X17397000Y-8400000D02*
X17437000Y-8440000D01*
X17437000Y-8400000D02*
X17397000Y-8440000D01*
X17397000Y-8485000D02*
X17437000Y-8525000D01*
X17437000Y-8485000D02*
X17397000Y-8525000D01*
X17397000Y-10000000D02*
X17437000Y-10040000D01*
X17437000Y-10000000D02*
X17397000Y-10040000D01*
X17397000Y-10085000D02*
X17437000Y-10125000D01*
X17437000Y-10085000D02*
X17397000Y-10125000D01*
X17470000Y-11080000D02*
X17510000Y-11120000D01*
X17510000Y-11080000D02*
X17470000Y-11120000D01*
X17470000Y-11160000D02*
X17510000Y-11200000D01*
X17510000Y-11160000D02*
X17470000Y-11200000D01*
X17709500Y-13997500D02*
X17749500Y-14037500D01*
X17749500Y-13997500D02*
X17709500Y-14037500D01*
X17999500Y-12317500D02*
X18039500Y-12357500D01*
X18039500Y-12317500D02*
X17999500Y-12357500D01*
X18049500Y-14167500D02*
X18089500Y-14207500D01*
X18089500Y-14167500D02*
X18049500Y-14207500D01*
X18150500Y-13730500D02*
X18190500Y-13770500D01*
X18190500Y-13730500D02*
X18150500Y-13770500D01*
X18186500Y-13250500D02*
X18226500Y-13290500D01*
X18226500Y-13250500D02*
X18186500Y-13290500D01*
X18186500Y-13321750D02*
X18226500Y-13361750D01*
X18226500Y-13321750D02*
X18186500Y-13361750D01*
X18186500Y-13400500D02*
X18226500Y-13440500D01*
X18226500Y-13400500D02*
X18186500Y-13440500D01*
X18189500Y-13117500D02*
X18229500Y-13157500D01*
X18229500Y-13117500D02*
X18189500Y-13157500D01*
X18610000Y-14030000D02*
X18650000Y-14070000D01*
X18650000Y-14030000D02*
X18610000Y-14070000D01*
X18620000Y-11480000D02*
X18660000Y-11520000D01*
X18660000Y-11480000D02*
X18620000Y-11520000D01*
X18620000Y-12330000D02*
X18660000Y-12370000D01*
X18660000Y-12330000D02*
X18620000Y-12370000D01*
X18620000Y-13180000D02*
X18660000Y-13220000D01*
X18660000Y-13180000D02*
X18620000Y-13220000D01*
X18998750Y-13935000D02*
X19038750Y-13975000D01*
X19038750Y-13935000D02*
X18998750Y-13975000D01*
X19000000Y-11385000D02*
X19040000Y-11425000D01*
X19040000Y-11385000D02*
X19000000Y-11425000D01*
X19000000Y-12235000D02*
X19040000Y-12275000D01*
X19040000Y-12235000D02*
X19000000Y-12275000D01*
X19000000Y-13085000D02*
X19040000Y-13125000D01*
X19040000Y-13085000D02*
X19000000Y-13125000D01*
X19197500Y-13940000D02*
X19237500Y-13980000D01*
X19237500Y-13940000D02*
X19197500Y-13980000D01*
X19198750Y-11395000D02*
X19238750Y-11435000D01*
X19238750Y-11395000D02*
X19198750Y-11435000D01*
X19198750Y-12240000D02*
X19238750Y-12280000D01*
X19238750Y-12240000D02*
X19198750Y-12280000D01*
X19198750Y-13090000D02*
X19238750Y-13130000D01*
X19238750Y-13090000D02*
X19198750Y-13130000D01*
D13*
X10662500Y-5600000D02*
G75*
G03*
X10662500Y-5600000I-25000J0D01*
G01*
X10739385Y-5414385D02*
G75*
G03*
X10739385Y-5414385I-25000J0D01*
G01*
X10739385Y-5785615D02*
G75*
G03*
X10739385Y-5785615I-25000J0D01*
G01*
X10925000Y-5337500D02*
G75*
G03*
X10925000Y-5337500I-25000J0D01*
G01*
X10925000Y-5862500D02*
G75*
G03*
X10925000Y-5862500I-25000J0D01*
G01*
X11110616Y-5414385D02*
G75*
G03*
X11110616Y-5414385I-25000J0D01*
G01*
X11110616Y-5785615D02*
G75*
G03*
X11110616Y-5785615I-25000J0D01*
G01*
X11187500Y-5600000D02*
G75*
G03*
X11187500Y-5600000I-25000J0D01*
G01*
X11762500Y-11750000D02*
G75*
G03*
X11762500Y-11750000I-25000J0D01*
G01*
X11839384Y-11564384D02*
G75*
G03*
X11839384Y-11564384I-25000J0D01*
G01*
X11839384Y-11935615D02*
G75*
G03*
X11839384Y-11935615I-25000J0D01*
G01*
X12025000Y-11487500D02*
G75*
G03*
X12025000Y-11487500I-25000J0D01*
G01*
X12025000Y-12012500D02*
G75*
G03*
X12025000Y-12012500I-25000J0D01*
G01*
X12210615Y-11564384D02*
G75*
G03*
X12210615Y-11564384I-25000J0D01*
G01*
X12210615Y-11935615D02*
G75*
G03*
X12210615Y-11935615I-25000J0D01*
G01*
X12287500Y-11750000D02*
G75*
G03*
X12287500Y-11750000I-25000J0D01*
G01*
X19662500Y-5600000D02*
G75*
G03*
X19662500Y-5600000I-25000J0D01*
G01*
X19662500Y-10100000D02*
G75*
G03*
X19662500Y-10100000I-25000J0D01*
G01*
X19662500Y-14600000D02*
G75*
G03*
X19662500Y-14600000I-25000J0D01*
G01*
X19739385Y-5414385D02*
G75*
G03*
X19739385Y-5414385I-25000J0D01*
G01*
X19739385Y-5785615D02*
G75*
G03*
X19739385Y-5785615I-25000J0D01*
G01*
X19739385Y-9914385D02*
G75*
G03*
X19739385Y-9914385I-25000J0D01*
G01*
X19739385Y-10285616D02*
G75*
G03*
X19739385Y-10285616I-25000J0D01*
G01*
X19739385Y-14414384D02*
G75*
G03*
X19739385Y-14414384I-25000J0D01*
G01*
X19739385Y-14785615D02*
G75*
G03*
X19739385Y-14785615I-25000J0D01*
G01*
X19925000Y-5337500D02*
G75*
G03*
X19925000Y-5337500I-25000J0D01*
G01*
X19925000Y-5862500D02*
G75*
G03*
X19925000Y-5862500I-25000J0D01*
G01*
X19925000Y-9837500D02*
G75*
G03*
X19925000Y-9837500I-25000J0D01*
G01*
X19925000Y-10362500D02*
G75*
G03*
X19925000Y-10362500I-25000J0D01*
G01*
X19925000Y-14337500D02*
G75*
G03*
X19925000Y-14337500I-25000J0D01*
G01*
X19925000Y-14862500D02*
G75*
G03*
X19925000Y-14862500I-25000J0D01*
G01*
X20110616Y-5414385D02*
G75*
G03*
X20110616Y-5414385I-25000J0D01*
G01*
X20110616Y-5785615D02*
G75*
G03*
X20110616Y-5785615I-25000J0D01*
G01*
X20110616Y-9914385D02*
G75*
G03*
X20110616Y-9914385I-25000J0D01*
G01*
X20110616Y-10285616D02*
G75*
G03*
X20110616Y-10285616I-25000J0D01*
G01*
X20110616Y-14414384D02*
G75*
G03*
X20110616Y-14414384I-25000J0D01*
G01*
X20110616Y-14785615D02*
G75*
G03*
X20110616Y-14785615I-25000J0D01*
G01*
X20187500Y-5600000D02*
G75*
G03*
X20187500Y-5600000I-25000J0D01*
G01*
X20187500Y-10100000D02*
G75*
G03*
X20187500Y-10100000I-25000J0D01*
G01*
X20187500Y-14600000D02*
G75*
G03*
X20187500Y-14600000I-25000J0D01*
G01*
D14*
X17298000Y-14287000D02*
X17298000Y-14347000D01*
X17268000Y-14317000D02*
X17328000Y-14317000D01*
D11*
X17278000Y-14262000D02*
X17278000Y-14372000D01*
X17318000Y-14262000D02*
X17318000Y-14372000D01*
X17278000Y-14372000D02*
G75*
G03*
X17318000Y-14372000I20000J0D01*
G01*
X17318000Y-14262000D02*
G75*
G03*
X17278000Y-14262000I-20000J0D01*
G01*
D14*
X17298000Y-14705000D02*
X17298000Y-14765000D01*
X17268000Y-14735000D02*
X17328000Y-14735000D01*
D11*
X17278000Y-14705000D02*
X17278000Y-14765000D01*
X17318000Y-14705000D02*
X17318000Y-14765000D01*
X17278000Y-14765000D02*
G75*
G03*
X17318000Y-14765000I20000J0D01*
G01*
X17318000Y-14705000D02*
G75*
G03*
X17278000Y-14705000I-20000J0D01*
G01*
D14*
X18162000Y-14287000D02*
X18162000Y-14347000D01*
X18132000Y-14317000D02*
X18192000Y-14317000D01*
D11*
X18142000Y-14262000D02*
X18142000Y-14372000D01*
X18182000Y-14262000D02*
X18182000Y-14372000D01*
X18142000Y-14372000D02*
G75*
G03*
X18182000Y-14372000I20000J0D01*
G01*
X18182000Y-14262000D02*
G75*
G03*
X18142000Y-14262000I-20000J0D01*
G01*
D14*
X18162000Y-14705000D02*
X18162000Y-14765000D01*
X18132000Y-14735000D02*
X18192000Y-14735000D01*
D11*
X18142000Y-14705000D02*
X18142000Y-14765000D01*
X18182000Y-14705000D02*
X18182000Y-14765000D01*
X18142000Y-14765000D02*
G75*
G03*
X18182000Y-14765000I20000J0D01*
G01*
X18182000Y-14705000D02*
G75*
G03*
X18142000Y-14705000I-20000J0D01*
G01*
D15*
X13448284Y-5544285D02*
X13448284Y-5487716D01*
X13391715Y-5487716D01*
X13391715Y-5544285D01*
X13448284Y-5544285D01*
X13454534Y-7088284D02*
X13454534Y-7031715D01*
X13397965Y-7031715D01*
X13397965Y-7088284D01*
X13454534Y-7088284D01*
X13702284Y-5544285D02*
X13702284Y-5487716D01*
X13645715Y-5487716D01*
X13645715Y-5544285D01*
X13702284Y-5544285D01*
X13708534Y-7088284D02*
X13708534Y-7031715D01*
X13651965Y-7031715D01*
X13651965Y-7088284D01*
X13708534Y-7088284D01*
X13956284Y-5544285D02*
X13956284Y-5487716D01*
X13899715Y-5487716D01*
X13899715Y-5544285D01*
X13956284Y-5544285D01*
X13962534Y-7088284D02*
X13962534Y-7031715D01*
X13905965Y-7031715D01*
X13905965Y-7088284D01*
X13962534Y-7088284D01*
D16*
X15174714Y-12053700D02*
X15219714Y-12008700D01*
X15174714Y-11963700D01*
X15129714Y-12008700D01*
X15174714Y-12053700D01*
X15674714Y-12053700D02*
X15719714Y-12008700D01*
X15674714Y-11963700D01*
X15629714Y-12008700D01*
X15674714Y-12053700D01*
D17*
X11104000Y-13476000D02*
X11196000Y-13568000D01*
X11196000Y-13476000D02*
X11104000Y-13568000D01*
X11196000Y-13522000D02*
G75*
G03*
X11196000Y-13522000I-46000J0D01*
G01*
X11104000Y-13738000D02*
X11196000Y-13830000D01*
X11196000Y-13738000D02*
X11104000Y-13830000D01*
X11196000Y-13784000D02*
G75*
G03*
X11196000Y-13784000I-46000J0D01*
G01*
X11354000Y-13476000D02*
X11446000Y-13568000D01*
X11446000Y-13476000D02*
X11354000Y-13568000D01*
X11446000Y-13522000D02*
G75*
G03*
X11446000Y-13522000I-46000J0D01*
G01*
X11354000Y-13738000D02*
X11446000Y-13830000D01*
X11446000Y-13738000D02*
X11354000Y-13830000D01*
X11446000Y-13784000D02*
G75*
G03*
X11446000Y-13784000I-46000J0D01*
G01*
X11554000Y-13476000D02*
X11646000Y-13568000D01*
X11646000Y-13476000D02*
X11554000Y-13568000D01*
X11646000Y-13522000D02*
G75*
G03*
X11646000Y-13522000I-46000J0D01*
G01*
X11554000Y-13738000D02*
X11646000Y-13830000D01*
X11646000Y-13738000D02*
X11554000Y-13830000D01*
X11646000Y-13784000D02*
G75*
G03*
X11646000Y-13784000I-46000J0D01*
G01*
X11804000Y-13476000D02*
X11896000Y-13568000D01*
X11896000Y-13476000D02*
X11804000Y-13568000D01*
X11896000Y-13522000D02*
G75*
G03*
X11896000Y-13522000I-46000J0D01*
G01*
X11804000Y-13738000D02*
X11896000Y-13830000D01*
X11896000Y-13738000D02*
X11804000Y-13830000D01*
X11896000Y-13784000D02*
G75*
G03*
X11896000Y-13784000I-46000J0D01*
G01*
D18*
X11087000Y-9505000D02*
X11187000Y-9605000D01*
X11187000Y-9505000D02*
X11087000Y-9605000D01*
X11137000Y-9505000D02*
X11137000Y-9605000D01*
X11087000Y-9555000D02*
X11187000Y-9555000D01*
X11087000Y-9635000D02*
X11187000Y-9735000D01*
X11187000Y-9635000D02*
X11087000Y-9735000D01*
X11137000Y-9635000D02*
X11137000Y-9735000D01*
X11087000Y-9685000D02*
X11187000Y-9685000D01*
X11217000Y-9570000D02*
X11317000Y-9670000D01*
X11317000Y-9570000D02*
X11217000Y-9670000D01*
X11267000Y-9570000D02*
X11267000Y-9670000D01*
X11217000Y-9620000D02*
X11317000Y-9620000D01*
X11347000Y-9505000D02*
X11447000Y-9605000D01*
X11447000Y-9505000D02*
X11347000Y-9605000D01*
X11397000Y-9505000D02*
X11397000Y-9605000D01*
X11347000Y-9555000D02*
X11447000Y-9555000D01*
X11347000Y-9635000D02*
X11447000Y-9735000D01*
X11447000Y-9635000D02*
X11347000Y-9735000D01*
X11397000Y-9635000D02*
X11397000Y-9735000D01*
X11347000Y-9685000D02*
X11447000Y-9685000D01*
X11390000Y-11710000D02*
X11490000Y-11810000D01*
X11490000Y-11710000D02*
X11390000Y-11810000D01*
X11440000Y-11710000D02*
X11440000Y-11810000D01*
X11390000Y-11760000D02*
X11490000Y-11760000D01*
X11390000Y-11964000D02*
X11490000Y-12064000D01*
X11490000Y-11964000D02*
X11390000Y-12064000D01*
X11440000Y-11964000D02*
X11440000Y-12064000D01*
X11390000Y-12014000D02*
X11490000Y-12014000D01*
X11390000Y-12218000D02*
X11490000Y-12318000D01*
X11490000Y-12218000D02*
X11390000Y-12318000D01*
X11440000Y-12218000D02*
X11440000Y-12318000D01*
X11390000Y-12268000D02*
X11490000Y-12268000D01*
X12532000Y-11025200D02*
X12632000Y-11125200D01*
X12632000Y-11025200D02*
X12532000Y-11125200D01*
X12582000Y-11025200D02*
X12582000Y-11125200D01*
X12532000Y-11075200D02*
X12632000Y-11075200D01*
X12532000Y-11279200D02*
X12632000Y-11379200D01*
X12632000Y-11279200D02*
X12532000Y-11379200D01*
X12582000Y-11279200D02*
X12582000Y-11379200D01*
X12532000Y-11329200D02*
X12632000Y-11329200D01*
X12532000Y-11533200D02*
X12632000Y-11633200D01*
X12632000Y-11533200D02*
X12532000Y-11633200D01*
X12582000Y-11533200D02*
X12582000Y-11633200D01*
X12532000Y-11583200D02*
X12632000Y-11583200D01*
X12532000Y-11787200D02*
X12632000Y-11887200D01*
X12632000Y-11787200D02*
X12532000Y-11887200D01*
X12582000Y-11787200D02*
X12582000Y-11887200D01*
X12532000Y-11837200D02*
X12632000Y-11837200D01*
X12532000Y-12041200D02*
X12632000Y-12141200D01*
X12632000Y-12041200D02*
X12532000Y-12141200D01*
X12582000Y-12041200D02*
X12582000Y-12141200D01*
X12532000Y-12091200D02*
X12632000Y-12091200D01*
X12532000Y-12295200D02*
X12632000Y-12395200D01*
X12632000Y-12295200D02*
X12532000Y-12395200D01*
X12582000Y-12295200D02*
X12582000Y-12395200D01*
X12532000Y-12345200D02*
X12632000Y-12345200D01*
X12532000Y-12549200D02*
X12632000Y-12649200D01*
X12632000Y-12549200D02*
X12532000Y-12649200D01*
X12582000Y-12549200D02*
X12582000Y-12649200D01*
X12532000Y-12599200D02*
X12632000Y-12599200D01*
X12532000Y-12803200D02*
X12632000Y-12903200D01*
X12632000Y-12803200D02*
X12532000Y-12903200D01*
X12582000Y-12803200D02*
X12582000Y-12903200D01*
X12532000Y-12853200D02*
X12632000Y-12853200D01*
X12532000Y-13057200D02*
X12632000Y-13157200D01*
X12632000Y-13057200D02*
X12532000Y-13157200D01*
X12582000Y-13057200D02*
X12582000Y-13157200D01*
X12532000Y-13107200D02*
X12632000Y-13107200D01*
X12532000Y-13311200D02*
X12632000Y-13411200D01*
X12632000Y-13311200D02*
X12532000Y-13411200D01*
X12582000Y-13311200D02*
X12582000Y-13411200D01*
X12532000Y-13361200D02*
X12632000Y-13361200D01*
X12532000Y-13565200D02*
X12632000Y-13665200D01*
X12632000Y-13565200D02*
X12532000Y-13665200D01*
X12582000Y-13565200D02*
X12582000Y-13665200D01*
X12532000Y-13615200D02*
X12632000Y-13615200D01*
X12532000Y-13819200D02*
X12632000Y-13919200D01*
X12632000Y-13819200D02*
X12532000Y-13919200D01*
X12582000Y-13819200D02*
X12582000Y-13919200D01*
X12532000Y-13869200D02*
X12632000Y-13869200D01*
X12532000Y-14073200D02*
X12632000Y-14173200D01*
X12632000Y-14073200D02*
X12532000Y-14173200D01*
X12582000Y-14073200D02*
X12582000Y-14173200D01*
X12532000Y-14123200D02*
X12632000Y-14123200D01*
X13605000Y-10105000D02*
X13705000Y-10205000D01*
X13705000Y-10105000D02*
X13605000Y-10205000D01*
X13655000Y-10105000D02*
X13655000Y-10205000D01*
X13605000Y-10155000D02*
X13705000Y-10155000D01*
X13605000Y-10235000D02*
X13705000Y-10335000D01*
X13705000Y-10235000D02*
X13605000Y-10335000D01*
X13655000Y-10235000D02*
X13655000Y-10335000D01*
X13605000Y-10285000D02*
X13705000Y-10285000D01*
X13735000Y-10170000D02*
X13835000Y-10270000D01*
X13835000Y-10170000D02*
X13735000Y-10270000D01*
X13785000Y-10170000D02*
X13785000Y-10270000D01*
X13735000Y-10220000D02*
X13835000Y-10220000D01*
X13802800Y-12675700D02*
X13902800Y-12775700D01*
X13902800Y-12675700D02*
X13802800Y-12775700D01*
X13852800Y-12675700D02*
X13852800Y-12775700D01*
X13802800Y-12725700D02*
X13902800Y-12725700D01*
X13865000Y-10105000D02*
X13965000Y-10205000D01*
X13965000Y-10105000D02*
X13865000Y-10205000D01*
X13915000Y-10105000D02*
X13915000Y-10205000D01*
X13865000Y-10155000D02*
X13965000Y-10155000D01*
X13865000Y-10235000D02*
X13965000Y-10335000D01*
X13965000Y-10235000D02*
X13865000Y-10335000D01*
X13915000Y-10235000D02*
X13915000Y-10335000D01*
X13865000Y-10285000D02*
X13965000Y-10285000D01*
X14056800Y-12675700D02*
X14156800Y-12775700D01*
X14156800Y-12675700D02*
X14056800Y-12775700D01*
X14106800Y-12675700D02*
X14106800Y-12775700D01*
X14056800Y-12725700D02*
X14156800Y-12725700D01*
X14310800Y-12675700D02*
X14410800Y-12775700D01*
X14410800Y-12675700D02*
X14310800Y-12775700D01*
X14360800Y-12675700D02*
X14360800Y-12775700D01*
X14310800Y-12725700D02*
X14410800Y-12725700D01*
X14375000Y-5896000D02*
X14475000Y-5996000D01*
X14475000Y-5896000D02*
X14375000Y-5996000D01*
X14425000Y-5896000D02*
X14425000Y-5996000D01*
X14375000Y-5946000D02*
X14475000Y-5946000D01*
X14375000Y-6156000D02*
X14475000Y-6256000D01*
X14475000Y-6156000D02*
X14375000Y-6256000D01*
X14425000Y-6156000D02*
X14425000Y-6256000D01*
X14375000Y-6206000D02*
X14475000Y-6206000D01*
X14376250Y-7440000D02*
X14476250Y-7540000D01*
X14476250Y-7440000D02*
X14376250Y-7540000D01*
X14426250Y-7440000D02*
X14426250Y-7540000D01*
X14376250Y-7490000D02*
X14476250Y-7490000D01*
X14376250Y-7700000D02*
X14476250Y-7800000D01*
X14476250Y-7700000D02*
X14376250Y-7800000D01*
X14426250Y-7700000D02*
X14426250Y-7800000D01*
X14376250Y-7750000D02*
X14476250Y-7750000D01*
X14440000Y-6026000D02*
X14540000Y-6126000D01*
X14540000Y-6026000D02*
X14440000Y-6126000D01*
X14490000Y-6026000D02*
X14490000Y-6126000D01*
X14440000Y-6076000D02*
X14540000Y-6076000D01*
X14441250Y-7570000D02*
X14541250Y-7670000D01*
X14541250Y-7570000D02*
X14441250Y-7670000D01*
X14491250Y-7570000D02*
X14491250Y-7670000D01*
X14441250Y-7620000D02*
X14541250Y-7620000D01*
X14505000Y-5896000D02*
X14605000Y-5996000D01*
X14605000Y-5896000D02*
X14505000Y-5996000D01*
X14555000Y-5896000D02*
X14555000Y-5996000D01*
X14505000Y-5946000D02*
X14605000Y-5946000D01*
X14505000Y-6156000D02*
X14605000Y-6256000D01*
X14605000Y-6156000D02*
X14505000Y-6256000D01*
X14555000Y-6156000D02*
X14555000Y-6256000D01*
X14505000Y-6206000D02*
X14605000Y-6206000D01*
X14506250Y-7440000D02*
X14606250Y-7540000D01*
X14606250Y-7440000D02*
X14506250Y-7540000D01*
X14556250Y-7440000D02*
X14556250Y-7540000D01*
X14506250Y-7490000D02*
X14606250Y-7490000D01*
X14506250Y-7700000D02*
X14606250Y-7800000D01*
X14606250Y-7700000D02*
X14506250Y-7800000D01*
X14556250Y-7700000D02*
X14556250Y-7800000D01*
X14506250Y-7750000D02*
X14606250Y-7750000D01*
X14564800Y-12675700D02*
X14664800Y-12775700D01*
X14664800Y-12675700D02*
X14564800Y-12775700D01*
X14614800Y-12675700D02*
X14614800Y-12775700D01*
X14564800Y-12725700D02*
X14664800Y-12725700D01*
X14565000Y-8960000D02*
X14665000Y-9060000D01*
X14665000Y-8960000D02*
X14565000Y-9060000D01*
X14615000Y-8960000D02*
X14615000Y-9060000D01*
X14565000Y-9010000D02*
X14665000Y-9010000D01*
X14565000Y-9214000D02*
X14665000Y-9314000D01*
X14665000Y-9214000D02*
X14565000Y-9314000D01*
X14615000Y-9214000D02*
X14615000Y-9314000D01*
X14565000Y-9264000D02*
X14665000Y-9264000D01*
X14565000Y-9468000D02*
X14665000Y-9568000D01*
X14665000Y-9468000D02*
X14565000Y-9568000D01*
X14615000Y-9468000D02*
X14615000Y-9568000D01*
X14565000Y-9518000D02*
X14665000Y-9518000D01*
X14818800Y-12675700D02*
X14918800Y-12775700D01*
X14918800Y-12675700D02*
X14818800Y-12775700D01*
X14868800Y-12675700D02*
X14868800Y-12775700D01*
X14818800Y-12725700D02*
X14918800Y-12725700D01*
X15072800Y-12675700D02*
X15172800Y-12775700D01*
X15172800Y-12675700D02*
X15072800Y-12775700D01*
X15122800Y-12675700D02*
X15122800Y-12775700D01*
X15072800Y-12725700D02*
X15172800Y-12725700D01*
X15430000Y-10107000D02*
X15530000Y-10207000D01*
X15530000Y-10107000D02*
X15430000Y-10207000D01*
X15480000Y-10107000D02*
X15480000Y-10207000D01*
X15430000Y-10157000D02*
X15530000Y-10157000D01*
X15430000Y-10237000D02*
X15530000Y-10337000D01*
X15530000Y-10237000D02*
X15430000Y-10337000D01*
X15480000Y-10237000D02*
X15480000Y-10337000D01*
X15430000Y-10287000D02*
X15530000Y-10287000D01*
X15560000Y-10172000D02*
X15660000Y-10272000D01*
X15660000Y-10172000D02*
X15560000Y-10272000D01*
X15610000Y-10172000D02*
X15610000Y-10272000D01*
X15560000Y-10222000D02*
X15660000Y-10222000D01*
X15690000Y-10107000D02*
X15790000Y-10207000D01*
X15790000Y-10107000D02*
X15690000Y-10207000D01*
X15740000Y-10107000D02*
X15740000Y-10207000D01*
X15690000Y-10157000D02*
X15790000Y-10157000D01*
X15690000Y-10237000D02*
X15790000Y-10337000D01*
X15790000Y-10237000D02*
X15690000Y-10337000D01*
X15740000Y-10237000D02*
X15740000Y-10337000D01*
X15690000Y-10287000D02*
X15790000Y-10287000D01*
X16037200Y-14327200D02*
X16137200Y-14427200D01*
X16137200Y-14327200D02*
X16037200Y-14427200D01*
X16087200Y-14327200D02*
X16087200Y-14427200D01*
X16037200Y-14377200D02*
X16137200Y-14377200D01*
X16037200Y-14581200D02*
X16137200Y-14681200D01*
X16137200Y-14581200D02*
X16037200Y-14681200D01*
X16087200Y-14581200D02*
X16087200Y-14681200D01*
X16037200Y-14631200D02*
X16137200Y-14631200D01*
X16037200Y-14835200D02*
X16137200Y-14935200D01*
X16137200Y-14835200D02*
X16037200Y-14935200D01*
X16087200Y-14835200D02*
X16087200Y-14935200D01*
X16037200Y-14885200D02*
X16137200Y-14885200D01*
X16088800Y-12802700D02*
X16188800Y-12902700D01*
X16188800Y-12802700D02*
X16088800Y-12902700D01*
X16138800Y-12802700D02*
X16138800Y-12902700D01*
X16088800Y-12852700D02*
X16188800Y-12852700D01*
X16088800Y-13056700D02*
X16188800Y-13156700D01*
X16188800Y-13056700D02*
X16088800Y-13156700D01*
X16138800Y-13056700D02*
X16138800Y-13156700D01*
X16088800Y-13106700D02*
X16188800Y-13106700D01*
X16088800Y-13310700D02*
X16188800Y-13410700D01*
X16188800Y-13310700D02*
X16088800Y-13410700D01*
X16138800Y-13310700D02*
X16138800Y-13410700D01*
X16088800Y-13360700D02*
X16188800Y-13360700D01*
X16088800Y-13564700D02*
X16188800Y-13664700D01*
X16188800Y-13564700D02*
X16088800Y-13664700D01*
X16138800Y-13564700D02*
X16138800Y-13664700D01*
X16088800Y-13614700D02*
X16188800Y-13614700D01*
X16390000Y-5872000D02*
X16490000Y-5972000D01*
X16490000Y-5872000D02*
X16390000Y-5972000D01*
X16440000Y-5872000D02*
X16440000Y-5972000D01*
X16390000Y-5922000D02*
X16490000Y-5922000D01*
X16390000Y-6126000D02*
X16490000Y-6226000D01*
X16490000Y-6126000D02*
X16390000Y-6226000D01*
X16440000Y-6126000D02*
X16440000Y-6226000D01*
X16390000Y-6176000D02*
X16490000Y-6176000D01*
X16390000Y-6380000D02*
X16490000Y-6480000D01*
X16490000Y-6380000D02*
X16390000Y-6480000D01*
X16440000Y-6380000D02*
X16440000Y-6480000D01*
X16390000Y-6430000D02*
X16490000Y-6430000D01*
X16390000Y-7417500D02*
X16490000Y-7517500D01*
X16490000Y-7417500D02*
X16390000Y-7517500D01*
X16440000Y-7417500D02*
X16440000Y-7517500D01*
X16390000Y-7467500D02*
X16490000Y-7467500D01*
X16390000Y-7671500D02*
X16490000Y-7771500D01*
X16490000Y-7671500D02*
X16390000Y-7771500D01*
X16440000Y-7671500D02*
X16440000Y-7771500D01*
X16390000Y-7721500D02*
X16490000Y-7721500D01*
X16390000Y-7925500D02*
X16490000Y-8025500D01*
X16490000Y-7925500D02*
X16390000Y-8025500D01*
X16440000Y-7925500D02*
X16440000Y-8025500D01*
X16390000Y-7975500D02*
X16490000Y-7975500D01*
X16390000Y-8952500D02*
X16490000Y-9052500D01*
X16490000Y-8952500D02*
X16390000Y-9052500D01*
X16440000Y-8952500D02*
X16440000Y-9052500D01*
X16390000Y-9002500D02*
X16490000Y-9002500D01*
X16390000Y-9206500D02*
X16490000Y-9306500D01*
X16490000Y-9206500D02*
X16390000Y-9306500D01*
X16440000Y-9206500D02*
X16440000Y-9306500D01*
X16390000Y-9256500D02*
X16490000Y-9256500D01*
X16390000Y-9460500D02*
X16490000Y-9560500D01*
X16490000Y-9460500D02*
X16390000Y-9560500D01*
X16440000Y-9460500D02*
X16440000Y-9560500D01*
X16390000Y-9510500D02*
X16490000Y-9510500D01*
X16596000Y-11025200D02*
X16696000Y-11125200D01*
X16696000Y-11025200D02*
X16596000Y-11125200D01*
X16646000Y-11025200D02*
X16646000Y-11125200D01*
X16596000Y-11075200D02*
X16696000Y-11075200D01*
X16596000Y-11279200D02*
X16696000Y-11379200D01*
X16696000Y-11279200D02*
X16596000Y-11379200D01*
X16646000Y-11279200D02*
X16646000Y-11379200D01*
X16596000Y-11329200D02*
X16696000Y-11329200D01*
X16596000Y-11533200D02*
X16696000Y-11633200D01*
X16696000Y-11533200D02*
X16596000Y-11633200D01*
X16646000Y-11533200D02*
X16646000Y-11633200D01*
X16596000Y-11583200D02*
X16696000Y-11583200D01*
X16596000Y-11787200D02*
X16696000Y-11887200D01*
X16696000Y-11787200D02*
X16596000Y-11887200D01*
X16646000Y-11787200D02*
X16646000Y-11887200D01*
X16596000Y-11837200D02*
X16696000Y-11837200D01*
X16596000Y-12041200D02*
X16696000Y-12141200D01*
X16696000Y-12041200D02*
X16596000Y-12141200D01*
X16646000Y-12041200D02*
X16646000Y-12141200D01*
X16596000Y-12091200D02*
X16696000Y-12091200D01*
X16596000Y-12295200D02*
X16696000Y-12395200D01*
X16696000Y-12295200D02*
X16596000Y-12395200D01*
X16646000Y-12295200D02*
X16646000Y-12395200D01*
X16596000Y-12345200D02*
X16696000Y-12345200D01*
X16596000Y-12549200D02*
X16696000Y-12649200D01*
X16696000Y-12549200D02*
X16596000Y-12649200D01*
X16646000Y-12549200D02*
X16646000Y-12649200D01*
X16596000Y-12599200D02*
X16696000Y-12599200D01*
X16596000Y-12803200D02*
X16696000Y-12903200D01*
X16696000Y-12803200D02*
X16596000Y-12903200D01*
X16646000Y-12803200D02*
X16646000Y-12903200D01*
X16596000Y-12853200D02*
X16696000Y-12853200D01*
X16596000Y-13057200D02*
X16696000Y-13157200D01*
X16696000Y-13057200D02*
X16596000Y-13157200D01*
X16646000Y-13057200D02*
X16646000Y-13157200D01*
X16596000Y-13107200D02*
X16696000Y-13107200D01*
X16596000Y-13311200D02*
X16696000Y-13411200D01*
X16696000Y-13311200D02*
X16596000Y-13411200D01*
X16646000Y-13311200D02*
X16646000Y-13411200D01*
X16596000Y-13361200D02*
X16696000Y-13361200D01*
X16596000Y-13565200D02*
X16696000Y-13665200D01*
X16696000Y-13565200D02*
X16596000Y-13665200D01*
X16646000Y-13565200D02*
X16646000Y-13665200D01*
X16596000Y-13615200D02*
X16696000Y-13615200D01*
X16596000Y-13819200D02*
X16696000Y-13919200D01*
X16696000Y-13819200D02*
X16596000Y-13919200D01*
X16646000Y-13819200D02*
X16646000Y-13919200D01*
X16596000Y-13869200D02*
X16696000Y-13869200D01*
X16596000Y-14073200D02*
X16696000Y-14173200D01*
X16696000Y-14073200D02*
X16596000Y-14173200D01*
X16646000Y-14073200D02*
X16646000Y-14173200D01*
X16596000Y-14123200D02*
X16696000Y-14123200D01*
X16850000Y-11025200D02*
X16950000Y-11125200D01*
X16950000Y-11025200D02*
X16850000Y-11125200D01*
X16900000Y-11025200D02*
X16900000Y-11125200D01*
X16850000Y-11075200D02*
X16950000Y-11075200D01*
X16850000Y-11279200D02*
X16950000Y-11379200D01*
X16950000Y-11279200D02*
X16850000Y-11379200D01*
X16900000Y-11279200D02*
X16900000Y-11379200D01*
X16850000Y-11329200D02*
X16950000Y-11329200D01*
X16850000Y-11533200D02*
X16950000Y-11633200D01*
X16950000Y-11533200D02*
X16850000Y-11633200D01*
X16900000Y-11533200D02*
X16900000Y-11633200D01*
X16850000Y-11583200D02*
X16950000Y-11583200D01*
X16850000Y-11787200D02*
X16950000Y-11887200D01*
X16950000Y-11787200D02*
X16850000Y-11887200D01*
X16900000Y-11787200D02*
X16900000Y-11887200D01*
X16850000Y-11837200D02*
X16950000Y-11837200D01*
X16850000Y-12041200D02*
X16950000Y-12141200D01*
X16950000Y-12041200D02*
X16850000Y-12141200D01*
X16900000Y-12041200D02*
X16900000Y-12141200D01*
X16850000Y-12091200D02*
X16950000Y-12091200D01*
X16850000Y-12295200D02*
X16950000Y-12395200D01*
X16950000Y-12295200D02*
X16850000Y-12395200D01*
X16900000Y-12295200D02*
X16900000Y-12395200D01*
X16850000Y-12345200D02*
X16950000Y-12345200D01*
X16850000Y-12549200D02*
X16950000Y-12649200D01*
X16950000Y-12549200D02*
X16850000Y-12649200D01*
X16900000Y-12549200D02*
X16900000Y-12649200D01*
X16850000Y-12599200D02*
X16950000Y-12599200D01*
X16850000Y-12803200D02*
X16950000Y-12903200D01*
X16950000Y-12803200D02*
X16850000Y-12903200D01*
X16900000Y-12803200D02*
X16900000Y-12903200D01*
X16850000Y-12853200D02*
X16950000Y-12853200D01*
X16850000Y-13057200D02*
X16950000Y-13157200D01*
X16950000Y-13057200D02*
X16850000Y-13157200D01*
X16900000Y-13057200D02*
X16900000Y-13157200D01*
X16850000Y-13107200D02*
X16950000Y-13107200D01*
X16850000Y-13311200D02*
X16950000Y-13411200D01*
X16950000Y-13311200D02*
X16850000Y-13411200D01*
X16900000Y-13311200D02*
X16900000Y-13411200D01*
X16850000Y-13361200D02*
X16950000Y-13361200D01*
X16850000Y-13565200D02*
X16950000Y-13665200D01*
X16950000Y-13565200D02*
X16850000Y-13665200D01*
X16900000Y-13565200D02*
X16900000Y-13665200D01*
X16850000Y-13615200D02*
X16950000Y-13615200D01*
X16850000Y-13819200D02*
X16950000Y-13919200D01*
X16950000Y-13819200D02*
X16850000Y-13919200D01*
X16900000Y-13819200D02*
X16900000Y-13919200D01*
X16850000Y-13869200D02*
X16950000Y-13869200D01*
X16850000Y-14073200D02*
X16950000Y-14173200D01*
X16950000Y-14073200D02*
X16850000Y-14173200D01*
X16900000Y-14073200D02*
X16900000Y-14173200D01*
X16850000Y-14123200D02*
X16950000Y-14123200D01*
X18020000Y-10516000D02*
X18120000Y-10616000D01*
X18120000Y-10516000D02*
X18020000Y-10616000D01*
X18070000Y-10516000D02*
X18070000Y-10616000D01*
X18020000Y-10566000D02*
X18120000Y-10566000D01*
X18020000Y-10770000D02*
X18120000Y-10870000D01*
X18120000Y-10770000D02*
X18020000Y-10870000D01*
X18070000Y-10770000D02*
X18070000Y-10870000D01*
X18020000Y-10820000D02*
X18120000Y-10820000D01*
X18020000Y-11024000D02*
X18120000Y-11124000D01*
X18120000Y-11024000D02*
X18020000Y-11124000D01*
X18070000Y-11024000D02*
X18070000Y-11124000D01*
X18020000Y-11074000D02*
X18120000Y-11074000D01*
X18020000Y-11278000D02*
X18120000Y-11378000D01*
X18120000Y-11278000D02*
X18020000Y-11378000D01*
X18070000Y-11278000D02*
X18070000Y-11378000D01*
X18020000Y-11328000D02*
X18120000Y-11328000D01*
X18500000Y-10550000D02*
X18600000Y-10650000D01*
X18600000Y-10550000D02*
X18500000Y-10650000D01*
X18550000Y-10550000D02*
X18550000Y-10650000D01*
X18500000Y-10600000D02*
X18600000Y-10600000D01*
X18754000Y-10550000D02*
X18854000Y-10650000D01*
X18854000Y-10550000D02*
X18754000Y-10650000D01*
X18804000Y-10550000D02*
X18804000Y-10650000D01*
X18754000Y-10600000D02*
X18854000Y-10600000D01*
X19008000Y-10550000D02*
X19108000Y-10650000D01*
X19108000Y-10550000D02*
X19008000Y-10650000D01*
X19058000Y-10550000D02*
X19058000Y-10650000D01*
X19008000Y-10600000D02*
X19108000Y-10600000D01*
X19262000Y-10550000D02*
X19362000Y-10650000D01*
X19362000Y-10550000D02*
X19262000Y-10650000D01*
X19312000Y-10550000D02*
X19312000Y-10650000D01*
X19262000Y-10600000D02*
X19362000Y-10600000D01*
D19*
X10880000Y-6150000D02*
X11000000Y-6270000D01*
X11000000Y-6150000D02*
X10880000Y-6270000D01*
X10982427Y-6252427D02*
X10982427Y-6167573D01*
X10897573Y-6167573D01*
X10897573Y-6252427D01*
X10982427Y-6252427D01*
X10880000Y-6500000D02*
X11000000Y-6620000D01*
X11000000Y-6500000D02*
X10880000Y-6620000D01*
X10982427Y-6602427D02*
X10982427Y-6517573D01*
X10897573Y-6517573D01*
X10897573Y-6602427D01*
X10982427Y-6602427D01*
X10880000Y-6850000D02*
X11000000Y-6970000D01*
X11000000Y-6850000D02*
X10880000Y-6970000D01*
X10982427Y-6952427D02*
X10982427Y-6867573D01*
X10897573Y-6867573D01*
X10897573Y-6952427D01*
X10982427Y-6952427D01*
X10880000Y-7200000D02*
X11000000Y-7320000D01*
X11000000Y-7200000D02*
X10880000Y-7320000D01*
X10982427Y-7302427D02*
X10982427Y-7217573D01*
X10897573Y-7217573D01*
X10897573Y-7302427D01*
X10982427Y-7302427D01*
X19780000Y-11040000D02*
X19900000Y-11160000D01*
X19900000Y-11040000D02*
X19780000Y-11160000D01*
X19882427Y-11142427D02*
X19882427Y-11057573D01*
X19797573Y-11057573D01*
X19797573Y-11142427D01*
X19882427Y-11142427D01*
X19780000Y-11390000D02*
X19900000Y-11510000D01*
X19900000Y-11390000D02*
X19780000Y-11510000D01*
X19882427Y-11492427D02*
X19882427Y-11407573D01*
X19797573Y-11407573D01*
X19797573Y-11492427D01*
X19882427Y-11492427D01*
X19780000Y-11890000D02*
X19900000Y-12010000D01*
X19900000Y-11890000D02*
X19780000Y-12010000D01*
X19882427Y-11992427D02*
X19882427Y-11907573D01*
X19797573Y-11907573D01*
X19797573Y-11992427D01*
X19882427Y-11992427D01*
X19780000Y-12240000D02*
X19900000Y-12360000D01*
X19900000Y-12240000D02*
X19780000Y-12360000D01*
X19882427Y-12342427D02*
X19882427Y-12257573D01*
X19797573Y-12257573D01*
X19797573Y-12342427D01*
X19882427Y-12342427D01*
X19780000Y-12740000D02*
X19900000Y-12860000D01*
X19900000Y-12740000D02*
X19780000Y-12860000D01*
X19882427Y-12842427D02*
X19882427Y-12757573D01*
X19797573Y-12757573D01*
X19797573Y-12842427D01*
X19882427Y-12842427D01*
X19780000Y-13090000D02*
X19900000Y-13210000D01*
X19900000Y-13090000D02*
X19780000Y-13210000D01*
X19882427Y-13192427D02*
X19882427Y-13107573D01*
X19797573Y-13107573D01*
X19797573Y-13192427D01*
X19882427Y-13192427D01*
X19780000Y-13590000D02*
X19900000Y-13710000D01*
X19900000Y-13590000D02*
X19780000Y-13710000D01*
X19882427Y-13692427D02*
X19882427Y-13607573D01*
X19797573Y-13607573D01*
X19797573Y-13692427D01*
X19882427Y-13692427D01*
X19780000Y-13940000D02*
X19900000Y-14060000D01*
X19900000Y-13940000D02*
X19780000Y-14060000D01*
X19882427Y-14042427D02*
X19882427Y-13957573D01*
X19797573Y-13957573D01*
X19797573Y-14042427D01*
X19882427Y-14042427D01*
X19782000Y-6153000D02*
X19902000Y-6273000D01*
X19902000Y-6153000D02*
X19782000Y-6273000D01*
X19884427Y-6255427D02*
X19884427Y-6170573D01*
X19799573Y-6170573D01*
X19799573Y-6255427D01*
X19884427Y-6255427D01*
X19782000Y-6503000D02*
X19902000Y-6623000D01*
X19902000Y-6503000D02*
X19782000Y-6623000D01*
X19884427Y-6605427D02*
X19884427Y-6520573D01*
X19799573Y-6520573D01*
X19799573Y-6605427D01*
X19884427Y-6605427D01*
X19782000Y-6853000D02*
X19902000Y-6973000D01*
X19902000Y-6853000D02*
X19782000Y-6973000D01*
X19884427Y-6955427D02*
X19884427Y-6870573D01*
X19799573Y-6870573D01*
X19799573Y-6955427D01*
X19884427Y-6955427D01*
X19782000Y-7353000D02*
X19902000Y-7473000D01*
X19902000Y-7353000D02*
X19782000Y-7473000D01*
X19884427Y-7455427D02*
X19884427Y-7370573D01*
X19799573Y-7370573D01*
X19799573Y-7455427D01*
X19884427Y-7455427D01*
X19782000Y-7703000D02*
X19902000Y-7823000D01*
X19902000Y-7703000D02*
X19782000Y-7823000D01*
X19884427Y-7805427D02*
X19884427Y-7720573D01*
X19799573Y-7720573D01*
X19799573Y-7805427D01*
X19884427Y-7805427D01*
X19782000Y-8053000D02*
X19902000Y-8173000D01*
X19902000Y-8053000D02*
X19782000Y-8173000D01*
X19884427Y-8155427D02*
X19884427Y-8070573D01*
X19799573Y-8070573D01*
X19799573Y-8155427D01*
X19884427Y-8155427D01*
X19782000Y-8553000D02*
X19902000Y-8673000D01*
X19902000Y-8553000D02*
X19782000Y-8673000D01*
X19884427Y-8655427D02*
X19884427Y-8570573D01*
X19799573Y-8570573D01*
X19799573Y-8655427D01*
X19884427Y-8655427D01*
X19782000Y-8903000D02*
X19902000Y-9023000D01*
X19902000Y-8903000D02*
X19782000Y-9023000D01*
X19884427Y-9005427D02*
X19884427Y-8920573D01*
X19799573Y-8920573D01*
X19799573Y-9005427D01*
X19884427Y-9005427D01*
X19782000Y-9253000D02*
X19902000Y-9373000D01*
X19902000Y-9253000D02*
X19782000Y-9373000D01*
X19884427Y-9355427D02*
X19884427Y-9270573D01*
X19799573Y-9270573D01*
X19799573Y-9355427D01*
X19884427Y-9355427D01*
D20*
X11007000Y-10645000D02*
X11137000Y-10775000D01*
X11137000Y-10645000D02*
X11007000Y-10775000D01*
X11072000Y-10775000D02*
X11137000Y-10710000D01*
X11072000Y-10645000D01*
X11007000Y-10710000D01*
X11072000Y-10775000D01*
X11507000Y-10645000D02*
X11637000Y-10775000D01*
X11637000Y-10645000D02*
X11507000Y-10775000D01*
X11572000Y-10775000D02*
X11637000Y-10710000D01*
X11572000Y-10645000D01*
X11507000Y-10710000D01*
X11572000Y-10775000D01*
X13690000Y-8790000D02*
X13820000Y-8920000D01*
X13820000Y-8790000D02*
X13690000Y-8920000D01*
X13755000Y-8920000D02*
X13820000Y-8855000D01*
X13755000Y-8790000D01*
X13690000Y-8855000D01*
X13755000Y-8920000D01*
X13690000Y-9290000D02*
X13820000Y-9420000D01*
X13820000Y-9290000D02*
X13690000Y-9420000D01*
X13755000Y-9420000D02*
X13820000Y-9355000D01*
X13755000Y-9290000D01*
X13690000Y-9355000D01*
X13755000Y-9420000D01*
X15515000Y-5711000D02*
X15645000Y-5841000D01*
X15645000Y-5711000D02*
X15515000Y-5841000D01*
X15580000Y-5841000D02*
X15645000Y-5776000D01*
X15580000Y-5711000D01*
X15515000Y-5776000D01*
X15580000Y-5841000D01*
X15515000Y-6211000D02*
X15645000Y-6341000D01*
X15645000Y-6211000D02*
X15515000Y-6341000D01*
X15580000Y-6341000D02*
X15645000Y-6276000D01*
X15580000Y-6211000D01*
X15515000Y-6276000D01*
X15580000Y-6341000D01*
X15515000Y-8785000D02*
X15645000Y-8915000D01*
X15645000Y-8785000D02*
X15515000Y-8915000D01*
X15580000Y-8915000D02*
X15645000Y-8850000D01*
X15580000Y-8785000D01*
X15515000Y-8850000D01*
X15580000Y-8915000D01*
X15515000Y-9285000D02*
X15645000Y-9415000D01*
X15645000Y-9285000D02*
X15515000Y-9415000D01*
X15580000Y-9415000D02*
X15645000Y-9350000D01*
X15580000Y-9285000D01*
X15515000Y-9350000D01*
X15580000Y-9415000D01*
X15516250Y-7255000D02*
X15646250Y-7385000D01*
X15646250Y-7255000D02*
X15516250Y-7385000D01*
X15581250Y-7385000D02*
X15646250Y-7320000D01*
X15581250Y-7255000D01*
X15516250Y-7320000D01*
X15581250Y-7385000D01*
X15516250Y-7755000D02*
X15646250Y-7885000D01*
X15646250Y-7755000D02*
X15516250Y-7885000D01*
X15581250Y-7885000D02*
X15646250Y-7820000D01*
X15581250Y-7755000D01*
X15516250Y-7820000D01*
X15581250Y-7885000D01*
X17622000Y-6215000D02*
X17752000Y-6345000D01*
X17752000Y-6215000D02*
X17622000Y-6345000D01*
X17687000Y-6345000D02*
X17752000Y-6280000D01*
X17687000Y-6215000D01*
X17622000Y-6280000D01*
X17687000Y-6345000D01*
X17622000Y-7815000D02*
X17752000Y-7945000D01*
X17752000Y-7815000D02*
X17622000Y-7945000D01*
X17687000Y-7945000D02*
X17752000Y-7880000D01*
X17687000Y-7815000D01*
X17622000Y-7880000D01*
X17687000Y-7945000D01*
X17627000Y-9415000D02*
X17757000Y-9545000D01*
X17757000Y-9415000D02*
X17627000Y-9545000D01*
X17692000Y-9545000D02*
X17757000Y-9480000D01*
X17692000Y-9415000D01*
X17627000Y-9480000D01*
X17692000Y-9545000D01*
X17822000Y-5615000D02*
X17952000Y-5745000D01*
X17952000Y-5615000D02*
X17822000Y-5745000D01*
X17887000Y-5745000D02*
X17952000Y-5680000D01*
X17887000Y-5615000D01*
X17822000Y-5680000D01*
X17887000Y-5745000D01*
X17822000Y-6815000D02*
X17952000Y-6945000D01*
X17952000Y-6815000D02*
X17822000Y-6945000D01*
X17887000Y-6945000D02*
X17952000Y-6880000D01*
X17887000Y-6815000D01*
X17822000Y-6880000D01*
X17887000Y-6945000D01*
X17822000Y-7215000D02*
X17952000Y-7345000D01*
X17952000Y-7215000D02*
X17822000Y-7345000D01*
X17887000Y-7345000D02*
X17952000Y-7280000D01*
X17887000Y-7215000D01*
X17822000Y-7280000D01*
X17887000Y-7345000D01*
X17822000Y-8415000D02*
X17952000Y-8545000D01*
X17952000Y-8415000D02*
X17822000Y-8545000D01*
X17887000Y-8545000D02*
X17952000Y-8480000D01*
X17887000Y-8415000D01*
X17822000Y-8480000D01*
X17887000Y-8545000D01*
X17827000Y-8815000D02*
X17957000Y-8945000D01*
X17957000Y-8815000D02*
X17827000Y-8945000D01*
X17892000Y-8945000D02*
X17957000Y-8880000D01*
X17892000Y-8815000D01*
X17827000Y-8880000D01*
X17892000Y-8945000D01*
X17827000Y-10015000D02*
X17957000Y-10145000D01*
X17957000Y-10015000D02*
X17827000Y-10145000D01*
X17892000Y-10145000D02*
X17957000Y-10080000D01*
X17892000Y-10015000D01*
X17827000Y-10080000D01*
X17892000Y-10145000D01*
X19042000Y-5615000D02*
X19172000Y-5745000D01*
X19172000Y-5615000D02*
X19042000Y-5745000D01*
X19107000Y-5745000D02*
X19172000Y-5680000D01*
X19107000Y-5615000D01*
X19042000Y-5680000D01*
X19107000Y-5745000D01*
X19042000Y-6815000D02*
X19172000Y-6945000D01*
X19172000Y-6815000D02*
X19042000Y-6945000D01*
X19107000Y-6945000D02*
X19172000Y-6880000D01*
X19107000Y-6815000D01*
X19042000Y-6880000D01*
X19107000Y-6945000D01*
X19042000Y-7215000D02*
X19172000Y-7345000D01*
X19172000Y-7215000D02*
X19042000Y-7345000D01*
X19107000Y-7345000D02*
X19172000Y-7280000D01*
X19107000Y-7215000D01*
X19042000Y-7280000D01*
X19107000Y-7345000D01*
X19042000Y-8415000D02*
X19172000Y-8545000D01*
X19172000Y-8415000D02*
X19042000Y-8545000D01*
X19107000Y-8545000D02*
X19172000Y-8480000D01*
X19107000Y-8415000D01*
X19042000Y-8480000D01*
X19107000Y-8545000D01*
X19047000Y-8815000D02*
X19177000Y-8945000D01*
X19177000Y-8815000D02*
X19047000Y-8945000D01*
X19112000Y-8945000D02*
X19177000Y-8880000D01*
X19112000Y-8815000D01*
X19047000Y-8880000D01*
X19112000Y-8945000D01*
X19047000Y-10015000D02*
X19177000Y-10145000D01*
X19177000Y-10015000D02*
X19047000Y-10145000D01*
X19112000Y-10145000D02*
X19177000Y-10080000D01*
X19112000Y-10015000D01*
X19047000Y-10080000D01*
X19112000Y-10145000D01*
D21*
X10843000Y-13372000D02*
X10843000Y-13602000D01*
X10728000Y-13487000D02*
X10958000Y-13487000D01*
X10958000Y-13487000D02*
G75*
G03*
X10958000Y-13487000I-115000J0D01*
G01*
X10843000Y-13940000D02*
X10843000Y-14170000D01*
X10728000Y-14055000D02*
X10958000Y-14055000D01*
X10958000Y-14055000D02*
G75*
G03*
X10958000Y-14055000I-115000J0D01*
G01*
X12157000Y-13372000D02*
X12157000Y-13602000D01*
X12042000Y-13487000D02*
X12272000Y-13487000D01*
X12272000Y-13487000D02*
G75*
G03*
X12272000Y-13487000I-115000J0D01*
G01*
X12157000Y-13940000D02*
X12157000Y-14170000D01*
X12042000Y-14055000D02*
X12272000Y-14055000D01*
X12272000Y-14055000D02*
G75*
G03*
X12272000Y-14055000I-115000J0D01*
G01*
D22*
X12837378Y-10614298D02*
X12837378Y-10388022D01*
X12611102Y-10388022D01*
X12611102Y-10614298D01*
X12837378Y-10614298D01*
X12884240Y-10501160D02*
G75*
G03*
X12884240Y-10501160I-160000J0D01*
G01*
X12837378Y-14815458D02*
X12837378Y-14589182D01*
X12611102Y-14589182D01*
X12611102Y-14815458D01*
X12837378Y-14815458D01*
X12884240Y-14702320D02*
G75*
G03*
X12884240Y-14702320I-160000J0D01*
G01*
X16840418Y-10614298D02*
X16840418Y-10388022D01*
X16614142Y-10388022D01*
X16614142Y-10614298D01*
X16840418Y-10614298D01*
X16887280Y-10501160D02*
G75*
G03*
X16887280Y-10501160I-160000J0D01*
G01*
X16840418Y-14817998D02*
X16840418Y-14591722D01*
X16614142Y-14591722D01*
X16614142Y-14817998D01*
X16840418Y-14817998D01*
X16887280Y-14704860D02*
G75*
G03*
X16887280Y-14704860I-160000J0D01*
G01*
D23*
X10900000Y-5775000D02*
X11075000Y-5600000D01*
X10900000Y-5425000D01*
X10725000Y-5600000D01*
X10900000Y-5775000D01*
X11075000Y-5600000D02*
G75*
G03*
X11075000Y-5600000I-175000J0D01*
G01*
X12000000Y-11925000D02*
X12175000Y-11750000D01*
X12000000Y-11575000D01*
X11825000Y-11750000D01*
X12000000Y-11925000D01*
X12175000Y-11750000D02*
G75*
G03*
X12175000Y-11750000I-175000J0D01*
G01*
X19900000Y-5775000D02*
X20075000Y-5600000D01*
X19900000Y-5425000D01*
X19725000Y-5600000D01*
X19900000Y-5775000D01*
X20075000Y-5600000D02*
G75*
G03*
X20075000Y-5600000I-175000J0D01*
G01*
X19900000Y-10275000D02*
X20075000Y-10100000D01*
X19900000Y-9925000D01*
X19725000Y-10100000D01*
X19900000Y-10275000D01*
X20075000Y-10100000D02*
G75*
G03*
X20075000Y-10100000I-175000J0D01*
G01*
X19900000Y-14775000D02*
X20075000Y-14600000D01*
X19900000Y-14425000D01*
X19725000Y-14600000D01*
X19900000Y-14775000D01*
X20075000Y-14600000D02*
G75*
G03*
X20075000Y-14600000I-175000J0D01*
G01*
D11*
X10752619Y-15315476D02*
X10752619Y-15115476D01*
X10800238Y-15115476D01*
X10828810Y-15125000D01*
X10847857Y-15144048D01*
X10857381Y-15163095D01*
X10866905Y-15201190D01*
X10866905Y-15229762D01*
X10857381Y-15267857D01*
X10847857Y-15286905D01*
X10828810Y-15305952D01*
X10800238Y-15315476D01*
X10752619Y-15315476D01*
X10952619Y-15315476D02*
X10952619Y-15182143D01*
X10952619Y-15220238D02*
X10962143Y-15201190D01*
X10971667Y-15191667D01*
X10990714Y-15182143D01*
X11009762Y-15182143D01*
X11076429Y-15315476D02*
X11076429Y-15182143D01*
X11076429Y-15115476D02*
X11066905Y-15125000D01*
X11076429Y-15134524D01*
X11085952Y-15125000D01*
X11076429Y-15115476D01*
X11076429Y-15134524D01*
X11200238Y-15315476D02*
X11181190Y-15305952D01*
X11171667Y-15286905D01*
X11171667Y-15115476D01*
X11305000Y-15315476D02*
X11285952Y-15305952D01*
X11276428Y-15286905D01*
X11276428Y-15115476D01*
X11533571Y-15315476D02*
X11533571Y-15115476D01*
X11600238Y-15258333D01*
X11666905Y-15115476D01*
X11666905Y-15315476D01*
X11847857Y-15315476D02*
X11847857Y-15210714D01*
X11838333Y-15191667D01*
X11819286Y-15182143D01*
X11781190Y-15182143D01*
X11762143Y-15191667D01*
X11847857Y-15305952D02*
X11828809Y-15315476D01*
X11781190Y-15315476D01*
X11762143Y-15305952D01*
X11752619Y-15286905D01*
X11752619Y-15267857D01*
X11762143Y-15248809D01*
X11781190Y-15239286D01*
X11828809Y-15239286D01*
X11847857Y-15229762D01*
X11943095Y-15182143D02*
X11943095Y-15382143D01*
X11943095Y-15191667D02*
X11962143Y-15182143D01*
X12000238Y-15182143D01*
X12019286Y-15191667D01*
X12028809Y-15201190D01*
X12038333Y-15220238D01*
X12038333Y-15277381D01*
X12028809Y-15296428D01*
X12019286Y-15305952D01*
X12000238Y-15315476D01*
X11962143Y-15315476D01*
X11943095Y-15305952D01*
X12124048Y-15296428D02*
X12133571Y-15305952D01*
X12124048Y-15315476D01*
X12114524Y-15305952D01*
X12124048Y-15296428D01*
X12124048Y-15315476D01*
X12124048Y-15191667D02*
X12133571Y-15201190D01*
X12124048Y-15210714D01*
X12114524Y-15201190D01*
X12124048Y-15191667D01*
X12124048Y-15210714D01*
D12*
X10455000Y-15625000D02*
X10495000Y-15665000D01*
X10495000Y-15625000D02*
X10455000Y-15665000D01*
D11*
X10790714Y-15535476D02*
X10809762Y-15535476D01*
X10828810Y-15545000D01*
X10838333Y-15554524D01*
X10847857Y-15573571D01*
X10857381Y-15611667D01*
X10857381Y-15659286D01*
X10847857Y-15697381D01*
X10838333Y-15716428D01*
X10828810Y-15725952D01*
X10809762Y-15735476D01*
X10790714Y-15735476D01*
X10771667Y-15725952D01*
X10762143Y-15716428D01*
X10752619Y-15697381D01*
X10743095Y-15659286D01*
X10743095Y-15611667D01*
X10752619Y-15573571D01*
X10762143Y-15554524D01*
X10771667Y-15545000D01*
X10790714Y-15535476D01*
X10943095Y-15716428D02*
X10952619Y-15725952D01*
X10943095Y-15735476D01*
X10933571Y-15725952D01*
X10943095Y-15716428D01*
X10943095Y-15735476D01*
X11124048Y-15602143D02*
X11124048Y-15735476D01*
X11076429Y-15525952D02*
X11028810Y-15668809D01*
X11152619Y-15668809D01*
X11266905Y-15535476D02*
X11285952Y-15535476D01*
X11305000Y-15545000D01*
X11314524Y-15554524D01*
X11324048Y-15573571D01*
X11333571Y-15611667D01*
X11333571Y-15659286D01*
X11324048Y-15697381D01*
X11314524Y-15716428D01*
X11305000Y-15725952D01*
X11285952Y-15735476D01*
X11266905Y-15735476D01*
X11247857Y-15725952D01*
X11238333Y-15716428D01*
X11228809Y-15697381D01*
X11219286Y-15659286D01*
X11219286Y-15611667D01*
X11228809Y-15573571D01*
X11238333Y-15554524D01*
X11247857Y-15545000D01*
X11266905Y-15535476D01*
X11457381Y-15535476D02*
X11476428Y-15535476D01*
X11495476Y-15545000D01*
X11505000Y-15554524D01*
X11514524Y-15573571D01*
X11524048Y-15611667D01*
X11524048Y-15659286D01*
X11514524Y-15697381D01*
X11505000Y-15716428D01*
X11495476Y-15725952D01*
X11476428Y-15735476D01*
X11457381Y-15735476D01*
X11438333Y-15725952D01*
X11428809Y-15716428D01*
X11419286Y-15697381D01*
X11409762Y-15659286D01*
X11409762Y-15611667D01*
X11419286Y-15573571D01*
X11428809Y-15554524D01*
X11438333Y-15545000D01*
X11457381Y-15535476D01*
X11609762Y-15735476D02*
X11609762Y-15602143D01*
X11609762Y-15621190D02*
X11619286Y-15611667D01*
X11638333Y-15602143D01*
X11666905Y-15602143D01*
X11685952Y-15611667D01*
X11695476Y-15630714D01*
X11695476Y-15735476D01*
X11695476Y-15630714D02*
X11705000Y-15611667D01*
X11724048Y-15602143D01*
X11752619Y-15602143D01*
X11771667Y-15611667D01*
X11781190Y-15630714D01*
X11781190Y-15735476D01*
X11876428Y-15735476D02*
X11876428Y-15602143D01*
X11876428Y-15621190D02*
X11885952Y-15611667D01*
X11905000Y-15602143D01*
X11933571Y-15602143D01*
X11952619Y-15611667D01*
X11962143Y-15630714D01*
X11962143Y-15735476D01*
X11962143Y-15630714D02*
X11971667Y-15611667D01*
X11990714Y-15602143D01*
X12019286Y-15602143D01*
X12038333Y-15611667D01*
X12047857Y-15630714D01*
X12047857Y-15735476D01*
X12438333Y-15525952D02*
X12266905Y-15783095D01*
X12695476Y-15535476D02*
X12714524Y-15535476D01*
X12733571Y-15545000D01*
X12743095Y-15554524D01*
X12752619Y-15573571D01*
X12762143Y-15611667D01*
X12762143Y-15659286D01*
X12752619Y-15697381D01*
X12743095Y-15716428D01*
X12733571Y-15725952D01*
X12714524Y-15735476D01*
X12695476Y-15735476D01*
X12676428Y-15725952D01*
X12666905Y-15716428D01*
X12657381Y-15697381D01*
X12647857Y-15659286D01*
X12647857Y-15611667D01*
X12657381Y-15573571D01*
X12666905Y-15554524D01*
X12676428Y-15545000D01*
X12695476Y-15535476D01*
X12847857Y-15716428D02*
X12857381Y-15725952D01*
X12847857Y-15735476D01*
X12838333Y-15725952D01*
X12847857Y-15716428D01*
X12847857Y-15735476D01*
X12981190Y-15535476D02*
X13000238Y-15535476D01*
X13019286Y-15545000D01*
X13028809Y-15554524D01*
X13038333Y-15573571D01*
X13047857Y-15611667D01*
X13047857Y-15659286D01*
X13038333Y-15697381D01*
X13028809Y-15716428D01*
X13019286Y-15725952D01*
X13000238Y-15735476D01*
X12981190Y-15735476D01*
X12962143Y-15725952D01*
X12952619Y-15716428D01*
X12943095Y-15697381D01*
X12933571Y-15659286D01*
X12933571Y-15611667D01*
X12943095Y-15573571D01*
X12952619Y-15554524D01*
X12962143Y-15545000D01*
X12981190Y-15535476D01*
X13238333Y-15735476D02*
X13124048Y-15735476D01*
X13181190Y-15735476D02*
X13181190Y-15535476D01*
X13162143Y-15564048D01*
X13143095Y-15583095D01*
X13124048Y-15592619D01*
X13419286Y-15535476D02*
X13324048Y-15535476D01*
X13314524Y-15630714D01*
X13324048Y-15621190D01*
X13343095Y-15611667D01*
X13390714Y-15611667D01*
X13409762Y-15621190D01*
X13419286Y-15630714D01*
X13428809Y-15649762D01*
X13428809Y-15697381D01*
X13419286Y-15716428D01*
X13409762Y-15725952D01*
X13390714Y-15735476D01*
X13343095Y-15735476D01*
X13324048Y-15725952D01*
X13314524Y-15716428D01*
X13495476Y-15535476D02*
X13628809Y-15535476D01*
X13543095Y-15735476D01*
X13695476Y-15535476D02*
X13695476Y-15573571D01*
X13771667Y-15535476D02*
X13771667Y-15573571D01*
X14066905Y-15811667D02*
X14057381Y-15802143D01*
X14038333Y-15773571D01*
X14028809Y-15754524D01*
X14019286Y-15725952D01*
X14009762Y-15678333D01*
X14009762Y-15640238D01*
X14019286Y-15592619D01*
X14028809Y-15564048D01*
X14038333Y-15545000D01*
X14057381Y-15516428D01*
X14066905Y-15506905D01*
X14247857Y-15735476D02*
X14133571Y-15735476D01*
X14190714Y-15735476D02*
X14190714Y-15535476D01*
X14171667Y-15564048D01*
X14152619Y-15583095D01*
X14133571Y-15592619D01*
X14362143Y-15621190D02*
X14343095Y-15611667D01*
X14333571Y-15602143D01*
X14324048Y-15583095D01*
X14324048Y-15573571D01*
X14333571Y-15554524D01*
X14343095Y-15545000D01*
X14362143Y-15535476D01*
X14400238Y-15535476D01*
X14419286Y-15545000D01*
X14428809Y-15554524D01*
X14438333Y-15573571D01*
X14438333Y-15583095D01*
X14428809Y-15602143D01*
X14419286Y-15611667D01*
X14400238Y-15621190D01*
X14362143Y-15621190D01*
X14343095Y-15630714D01*
X14333571Y-15640238D01*
X14324048Y-15659286D01*
X14324048Y-15697381D01*
X14333571Y-15716428D01*
X14343095Y-15725952D01*
X14362143Y-15735476D01*
X14400238Y-15735476D01*
X14419286Y-15725952D01*
X14428809Y-15716428D01*
X14438333Y-15697381D01*
X14438333Y-15659286D01*
X14428809Y-15640238D01*
X14419286Y-15630714D01*
X14400238Y-15621190D01*
X14505000Y-15535476D02*
X14628809Y-15535476D01*
X14562143Y-15611667D01*
X14590714Y-15611667D01*
X14609762Y-15621190D01*
X14619286Y-15630714D01*
X14628809Y-15649762D01*
X14628809Y-15697381D01*
X14619286Y-15716428D01*
X14609762Y-15725952D01*
X14590714Y-15735476D01*
X14533571Y-15735476D01*
X14514524Y-15725952D01*
X14505000Y-15716428D01*
X14866905Y-15735476D02*
X14866905Y-15535476D01*
X14952619Y-15735476D02*
X14952619Y-15630714D01*
X14943095Y-15611667D01*
X14924048Y-15602143D01*
X14895476Y-15602143D01*
X14876428Y-15611667D01*
X14866905Y-15621190D01*
X15076428Y-15735476D02*
X15057381Y-15725952D01*
X15047857Y-15716428D01*
X15038333Y-15697381D01*
X15038333Y-15640238D01*
X15047857Y-15621190D01*
X15057381Y-15611667D01*
X15076428Y-15602143D01*
X15105000Y-15602143D01*
X15124048Y-15611667D01*
X15133571Y-15621190D01*
X15143095Y-15640238D01*
X15143095Y-15697381D01*
X15133571Y-15716428D01*
X15124048Y-15725952D01*
X15105000Y-15735476D01*
X15076428Y-15735476D01*
X15257381Y-15735476D02*
X15238333Y-15725952D01*
X15228809Y-15706905D01*
X15228809Y-15535476D01*
X15409762Y-15725952D02*
X15390714Y-15735476D01*
X15352619Y-15735476D01*
X15333571Y-15725952D01*
X15324048Y-15706905D01*
X15324048Y-15630714D01*
X15333571Y-15611667D01*
X15352619Y-15602143D01*
X15390714Y-15602143D01*
X15409762Y-15611667D01*
X15419286Y-15630714D01*
X15419286Y-15649762D01*
X15324048Y-15668809D01*
X15495476Y-15725952D02*
X15514524Y-15735476D01*
X15552619Y-15735476D01*
X15571667Y-15725952D01*
X15581190Y-15706905D01*
X15581190Y-15697381D01*
X15571667Y-15678333D01*
X15552619Y-15668809D01*
X15524048Y-15668809D01*
X15505000Y-15659286D01*
X15495476Y-15640238D01*
X15495476Y-15630714D01*
X15505000Y-15611667D01*
X15524048Y-15602143D01*
X15552619Y-15602143D01*
X15571667Y-15611667D01*
X15647857Y-15811667D02*
X15657381Y-15802143D01*
X15676428Y-15773571D01*
X15685952Y-15754524D01*
X15695476Y-15725952D01*
X15705000Y-15678333D01*
X15705000Y-15640238D01*
X15695476Y-15592619D01*
X15685952Y-15564048D01*
X15676428Y-15545000D01*
X15657381Y-15516428D01*
X15647857Y-15506905D01*
D13*
X10495000Y-15909000D02*
G75*
G03*
X10495000Y-15909000I-25000J0D01*
G01*
D11*
X10790714Y-15799476D02*
X10809762Y-15799476D01*
X10828810Y-15809000D01*
X10838333Y-15818524D01*
X10847857Y-15837571D01*
X10857381Y-15875667D01*
X10857381Y-15923286D01*
X10847857Y-15961381D01*
X10838333Y-15980428D01*
X10828810Y-15989952D01*
X10809762Y-15999476D01*
X10790714Y-15999476D01*
X10771667Y-15989952D01*
X10762143Y-15980428D01*
X10752619Y-15961381D01*
X10743095Y-15923286D01*
X10743095Y-15875667D01*
X10752619Y-15837571D01*
X10762143Y-15818524D01*
X10771667Y-15809000D01*
X10790714Y-15799476D01*
X10943095Y-15980428D02*
X10952619Y-15989952D01*
X10943095Y-15999476D01*
X10933571Y-15989952D01*
X10943095Y-15980428D01*
X10943095Y-15999476D01*
X11133571Y-15799476D02*
X11038333Y-15799476D01*
X11028810Y-15894714D01*
X11038333Y-15885190D01*
X11057381Y-15875667D01*
X11105000Y-15875667D01*
X11124048Y-15885190D01*
X11133571Y-15894714D01*
X11143095Y-15913762D01*
X11143095Y-15961381D01*
X11133571Y-15980428D01*
X11124048Y-15989952D01*
X11105000Y-15999476D01*
X11057381Y-15999476D01*
X11038333Y-15989952D01*
X11028810Y-15980428D01*
X11266905Y-15799476D02*
X11285952Y-15799476D01*
X11305000Y-15809000D01*
X11314524Y-15818524D01*
X11324048Y-15837571D01*
X11333571Y-15875667D01*
X11333571Y-15923286D01*
X11324048Y-15961381D01*
X11314524Y-15980428D01*
X11305000Y-15989952D01*
X11285952Y-15999476D01*
X11266905Y-15999476D01*
X11247857Y-15989952D01*
X11238333Y-15980428D01*
X11228809Y-15961381D01*
X11219286Y-15923286D01*
X11219286Y-15875667D01*
X11228809Y-15837571D01*
X11238333Y-15818524D01*
X11247857Y-15809000D01*
X11266905Y-15799476D01*
X11457381Y-15799476D02*
X11476428Y-15799476D01*
X11495476Y-15809000D01*
X11505000Y-15818524D01*
X11514524Y-15837571D01*
X11524048Y-15875667D01*
X11524048Y-15923286D01*
X11514524Y-15961381D01*
X11505000Y-15980428D01*
X11495476Y-15989952D01*
X11476428Y-15999476D01*
X11457381Y-15999476D01*
X11438333Y-15989952D01*
X11428809Y-15980428D01*
X11419286Y-15961381D01*
X11409762Y-15923286D01*
X11409762Y-15875667D01*
X11419286Y-15837571D01*
X11428809Y-15818524D01*
X11438333Y-15809000D01*
X11457381Y-15799476D01*
X11609762Y-15999476D02*
X11609762Y-15866143D01*
X11609762Y-15885190D02*
X11619286Y-15875667D01*
X11638333Y-15866143D01*
X11666905Y-15866143D01*
X11685952Y-15875667D01*
X11695476Y-15894714D01*
X11695476Y-15999476D01*
X11695476Y-15894714D02*
X11705000Y-15875667D01*
X11724048Y-15866143D01*
X11752619Y-15866143D01*
X11771667Y-15875667D01*
X11781190Y-15894714D01*
X11781190Y-15999476D01*
X11876428Y-15999476D02*
X11876428Y-15866143D01*
X11876428Y-15885190D02*
X11885952Y-15875667D01*
X11905000Y-15866143D01*
X11933571Y-15866143D01*
X11952619Y-15875667D01*
X11962143Y-15894714D01*
X11962143Y-15999476D01*
X11962143Y-15894714D02*
X11971667Y-15875667D01*
X11990714Y-15866143D01*
X12019286Y-15866143D01*
X12038333Y-15875667D01*
X12047857Y-15894714D01*
X12047857Y-15999476D01*
X12438333Y-15789952D02*
X12266905Y-16047095D01*
X12695476Y-15799476D02*
X12714524Y-15799476D01*
X12733571Y-15809000D01*
X12743095Y-15818524D01*
X12752619Y-15837571D01*
X12762143Y-15875667D01*
X12762143Y-15923286D01*
X12752619Y-15961381D01*
X12743095Y-15980428D01*
X12733571Y-15989952D01*
X12714524Y-15999476D01*
X12695476Y-15999476D01*
X12676428Y-15989952D01*
X12666905Y-15980428D01*
X12657381Y-15961381D01*
X12647857Y-15923286D01*
X12647857Y-15875667D01*
X12657381Y-15837571D01*
X12666905Y-15818524D01*
X12676428Y-15809000D01*
X12695476Y-15799476D01*
X12847857Y-15980428D02*
X12857381Y-15989952D01*
X12847857Y-15999476D01*
X12838333Y-15989952D01*
X12847857Y-15980428D01*
X12847857Y-15999476D01*
X12981190Y-15799476D02*
X13000238Y-15799476D01*
X13019286Y-15809000D01*
X13028809Y-15818524D01*
X13038333Y-15837571D01*
X13047857Y-15875667D01*
X13047857Y-15923286D01*
X13038333Y-15961381D01*
X13028809Y-15980428D01*
X13019286Y-15989952D01*
X13000238Y-15999476D01*
X12981190Y-15999476D01*
X12962143Y-15989952D01*
X12952619Y-15980428D01*
X12943095Y-15961381D01*
X12933571Y-15923286D01*
X12933571Y-15875667D01*
X12943095Y-15837571D01*
X12952619Y-15818524D01*
X12962143Y-15809000D01*
X12981190Y-15799476D01*
X13238333Y-15999476D02*
X13124048Y-15999476D01*
X13181190Y-15999476D02*
X13181190Y-15799476D01*
X13162143Y-15828048D01*
X13143095Y-15847095D01*
X13124048Y-15856619D01*
X13333571Y-15999476D02*
X13371667Y-15999476D01*
X13390714Y-15989952D01*
X13400238Y-15980428D01*
X13419286Y-15951857D01*
X13428809Y-15913762D01*
X13428809Y-15837571D01*
X13419286Y-15818524D01*
X13409762Y-15809000D01*
X13390714Y-15799476D01*
X13352619Y-15799476D01*
X13333571Y-15809000D01*
X13324048Y-15818524D01*
X13314524Y-15837571D01*
X13314524Y-15885190D01*
X13324048Y-15904238D01*
X13333571Y-15913762D01*
X13352619Y-15923286D01*
X13390714Y-15923286D01*
X13409762Y-15913762D01*
X13419286Y-15904238D01*
X13428809Y-15885190D01*
X13495476Y-15799476D02*
X13628809Y-15799476D01*
X13543095Y-15999476D01*
X13695476Y-15799476D02*
X13695476Y-15837571D01*
X13771667Y-15799476D02*
X13771667Y-15837571D01*
X14066905Y-16075667D02*
X14057381Y-16066143D01*
X14038333Y-16037571D01*
X14028809Y-16018524D01*
X14019286Y-15989952D01*
X14009762Y-15942333D01*
X14009762Y-15904238D01*
X14019286Y-15856619D01*
X14028809Y-15828048D01*
X14038333Y-15809000D01*
X14057381Y-15780428D01*
X14066905Y-15770905D01*
X14228809Y-15866143D02*
X14228809Y-15999476D01*
X14181190Y-15789952D02*
X14133571Y-15932809D01*
X14257381Y-15932809D01*
X14371667Y-15799476D02*
X14390714Y-15799476D01*
X14409762Y-15809000D01*
X14419286Y-15818524D01*
X14428809Y-15837571D01*
X14438333Y-15875667D01*
X14438333Y-15923286D01*
X14428809Y-15961381D01*
X14419286Y-15980428D01*
X14409762Y-15989952D01*
X14390714Y-15999476D01*
X14371667Y-15999476D01*
X14352619Y-15989952D01*
X14343095Y-15980428D01*
X14333571Y-15961381D01*
X14324048Y-15923286D01*
X14324048Y-15875667D01*
X14333571Y-15837571D01*
X14343095Y-15818524D01*
X14352619Y-15809000D01*
X14371667Y-15799476D01*
X14676428Y-15999476D02*
X14676428Y-15799476D01*
X14762143Y-15999476D02*
X14762143Y-15894714D01*
X14752619Y-15875667D01*
X14733571Y-15866143D01*
X14705000Y-15866143D01*
X14685952Y-15875667D01*
X14676428Y-15885190D01*
X14885952Y-15999476D02*
X14866905Y-15989952D01*
X14857381Y-15980428D01*
X14847857Y-15961381D01*
X14847857Y-15904238D01*
X14857381Y-15885190D01*
X14866905Y-15875667D01*
X14885952Y-15866143D01*
X14914524Y-15866143D01*
X14933571Y-15875667D01*
X14943095Y-15885190D01*
X14952619Y-15904238D01*
X14952619Y-15961381D01*
X14943095Y-15980428D01*
X14933571Y-15989952D01*
X14914524Y-15999476D01*
X14885952Y-15999476D01*
X15066905Y-15999476D02*
X15047857Y-15989952D01*
X15038333Y-15970905D01*
X15038333Y-15799476D01*
X15219286Y-15989952D02*
X15200238Y-15999476D01*
X15162143Y-15999476D01*
X15143095Y-15989952D01*
X15133571Y-15970905D01*
X15133571Y-15894714D01*
X15143095Y-15875667D01*
X15162143Y-15866143D01*
X15200238Y-15866143D01*
X15219286Y-15875667D01*
X15228809Y-15894714D01*
X15228809Y-15913762D01*
X15133571Y-15932809D01*
X15305000Y-15989952D02*
X15324048Y-15999476D01*
X15362143Y-15999476D01*
X15381190Y-15989952D01*
X15390714Y-15970905D01*
X15390714Y-15961381D01*
X15381190Y-15942333D01*
X15362143Y-15932809D01*
X15333571Y-15932809D01*
X15314524Y-15923286D01*
X15305000Y-15904238D01*
X15305000Y-15894714D01*
X15314524Y-15875667D01*
X15333571Y-15866143D01*
X15362143Y-15866143D01*
X15381190Y-15875667D01*
X15457381Y-16075667D02*
X15466905Y-16066143D01*
X15485952Y-16037571D01*
X15495476Y-16018524D01*
X15505000Y-15989952D01*
X15514524Y-15942333D01*
X15514524Y-15904238D01*
X15505000Y-15856619D01*
X15495476Y-15828048D01*
X15485952Y-15809000D01*
X15466905Y-15780428D01*
X15457381Y-15770905D01*
D14*
X10465000Y-16143000D02*
X10465000Y-16203000D01*
X10435000Y-16173000D02*
X10495000Y-16173000D01*
D11*
X10790714Y-16063476D02*
X10809762Y-16063476D01*
X10828810Y-16073000D01*
X10838333Y-16082524D01*
X10847857Y-16101571D01*
X10857381Y-16139667D01*
X10857381Y-16187286D01*
X10847857Y-16225381D01*
X10838333Y-16244428D01*
X10828810Y-16253952D01*
X10809762Y-16263476D01*
X10790714Y-16263476D01*
X10771667Y-16253952D01*
X10762143Y-16244428D01*
X10752619Y-16225381D01*
X10743095Y-16187286D01*
X10743095Y-16139667D01*
X10752619Y-16101571D01*
X10762143Y-16082524D01*
X10771667Y-16073000D01*
X10790714Y-16063476D01*
X10943095Y-16244428D02*
X10952619Y-16253952D01*
X10943095Y-16263476D01*
X10933571Y-16253952D01*
X10943095Y-16244428D01*
X10943095Y-16263476D01*
X11124048Y-16063476D02*
X11085952Y-16063476D01*
X11066905Y-16073000D01*
X11057381Y-16082524D01*
X11038333Y-16111095D01*
X11028810Y-16149190D01*
X11028810Y-16225381D01*
X11038333Y-16244428D01*
X11047857Y-16253952D01*
X11066905Y-16263476D01*
X11105000Y-16263476D01*
X11124048Y-16253952D01*
X11133571Y-16244428D01*
X11143095Y-16225381D01*
X11143095Y-16177762D01*
X11133571Y-16158714D01*
X11124048Y-16149190D01*
X11105000Y-16139667D01*
X11066905Y-16139667D01*
X11047857Y-16149190D01*
X11038333Y-16158714D01*
X11028810Y-16177762D01*
X11266905Y-16063476D02*
X11285952Y-16063476D01*
X11305000Y-16073000D01*
X11314524Y-16082524D01*
X11324048Y-16101571D01*
X11333571Y-16139667D01*
X11333571Y-16187286D01*
X11324048Y-16225381D01*
X11314524Y-16244428D01*
X11305000Y-16253952D01*
X11285952Y-16263476D01*
X11266905Y-16263476D01*
X11247857Y-16253952D01*
X11238333Y-16244428D01*
X11228809Y-16225381D01*
X11219286Y-16187286D01*
X11219286Y-16139667D01*
X11228809Y-16101571D01*
X11238333Y-16082524D01*
X11247857Y-16073000D01*
X11266905Y-16063476D01*
X11457381Y-16063476D02*
X11476428Y-16063476D01*
X11495476Y-16073000D01*
X11505000Y-16082524D01*
X11514524Y-16101571D01*
X11524048Y-16139667D01*
X11524048Y-16187286D01*
X11514524Y-16225381D01*
X11505000Y-16244428D01*
X11495476Y-16253952D01*
X11476428Y-16263476D01*
X11457381Y-16263476D01*
X11438333Y-16253952D01*
X11428809Y-16244428D01*
X11419286Y-16225381D01*
X11409762Y-16187286D01*
X11409762Y-16139667D01*
X11419286Y-16101571D01*
X11428809Y-16082524D01*
X11438333Y-16073000D01*
X11457381Y-16063476D01*
X11609762Y-16263476D02*
X11609762Y-16130143D01*
X11609762Y-16149190D02*
X11619286Y-16139667D01*
X11638333Y-16130143D01*
X11666905Y-16130143D01*
X11685952Y-16139667D01*
X11695476Y-16158714D01*
X11695476Y-16263476D01*
X11695476Y-16158714D02*
X11705000Y-16139667D01*
X11724048Y-16130143D01*
X11752619Y-16130143D01*
X11771667Y-16139667D01*
X11781190Y-16158714D01*
X11781190Y-16263476D01*
X11876428Y-16263476D02*
X11876428Y-16130143D01*
X11876428Y-16149190D02*
X11885952Y-16139667D01*
X11905000Y-16130143D01*
X11933571Y-16130143D01*
X11952619Y-16139667D01*
X11962143Y-16158714D01*
X11962143Y-16263476D01*
X11962143Y-16158714D02*
X11971667Y-16139667D01*
X11990714Y-16130143D01*
X12019286Y-16130143D01*
X12038333Y-16139667D01*
X12047857Y-16158714D01*
X12047857Y-16263476D01*
X12438333Y-16053952D02*
X12266905Y-16311095D01*
X12695476Y-16063476D02*
X12714524Y-16063476D01*
X12733571Y-16073000D01*
X12743095Y-16082524D01*
X12752619Y-16101571D01*
X12762143Y-16139667D01*
X12762143Y-16187286D01*
X12752619Y-16225381D01*
X12743095Y-16244428D01*
X12733571Y-16253952D01*
X12714524Y-16263476D01*
X12695476Y-16263476D01*
X12676428Y-16253952D01*
X12666905Y-16244428D01*
X12657381Y-16225381D01*
X12647857Y-16187286D01*
X12647857Y-16139667D01*
X12657381Y-16101571D01*
X12666905Y-16082524D01*
X12676428Y-16073000D01*
X12695476Y-16063476D01*
X12847857Y-16244428D02*
X12857381Y-16253952D01*
X12847857Y-16263476D01*
X12838333Y-16253952D01*
X12847857Y-16244428D01*
X12847857Y-16263476D01*
X12981190Y-16063476D02*
X13000238Y-16063476D01*
X13019286Y-16073000D01*
X13028809Y-16082524D01*
X13038333Y-16101571D01*
X13047857Y-16139667D01*
X13047857Y-16187286D01*
X13038333Y-16225381D01*
X13028809Y-16244428D01*
X13019286Y-16253952D01*
X13000238Y-16263476D01*
X12981190Y-16263476D01*
X12962143Y-16253952D01*
X12952619Y-16244428D01*
X12943095Y-16225381D01*
X12933571Y-16187286D01*
X12933571Y-16139667D01*
X12943095Y-16101571D01*
X12952619Y-16082524D01*
X12962143Y-16073000D01*
X12981190Y-16063476D01*
X13124048Y-16082524D02*
X13133571Y-16073000D01*
X13152619Y-16063476D01*
X13200238Y-16063476D01*
X13219286Y-16073000D01*
X13228809Y-16082524D01*
X13238333Y-16101571D01*
X13238333Y-16120619D01*
X13228809Y-16149190D01*
X13114524Y-16263476D01*
X13238333Y-16263476D01*
X13305000Y-16063476D02*
X13428809Y-16063476D01*
X13362143Y-16139667D01*
X13390714Y-16139667D01*
X13409762Y-16149190D01*
X13419286Y-16158714D01*
X13428809Y-16177762D01*
X13428809Y-16225381D01*
X13419286Y-16244428D01*
X13409762Y-16253952D01*
X13390714Y-16263476D01*
X13333571Y-16263476D01*
X13314524Y-16253952D01*
X13305000Y-16244428D01*
X13600238Y-16063476D02*
X13562143Y-16063476D01*
X13543095Y-16073000D01*
X13533571Y-16082524D01*
X13514524Y-16111095D01*
X13505000Y-16149190D01*
X13505000Y-16225381D01*
X13514524Y-16244428D01*
X13524048Y-16253952D01*
X13543095Y-16263476D01*
X13581190Y-16263476D01*
X13600238Y-16253952D01*
X13609762Y-16244428D01*
X13619286Y-16225381D01*
X13619286Y-16177762D01*
X13609762Y-16158714D01*
X13600238Y-16149190D01*
X13581190Y-16139667D01*
X13543095Y-16139667D01*
X13524048Y-16149190D01*
X13514524Y-16158714D01*
X13505000Y-16177762D01*
X13695476Y-16063476D02*
X13695476Y-16101571D01*
X13771667Y-16063476D02*
X13771667Y-16101571D01*
X14066905Y-16339667D02*
X14057381Y-16330143D01*
X14038333Y-16301571D01*
X14028809Y-16282524D01*
X14019286Y-16253952D01*
X14009762Y-16206333D01*
X14009762Y-16168238D01*
X14019286Y-16120619D01*
X14028809Y-16092048D01*
X14038333Y-16073000D01*
X14057381Y-16044428D01*
X14066905Y-16034905D01*
X14181190Y-16063476D02*
X14200238Y-16063476D01*
X14219286Y-16073000D01*
X14228809Y-16082524D01*
X14238333Y-16101571D01*
X14247857Y-16139667D01*
X14247857Y-16187286D01*
X14238333Y-16225381D01*
X14228809Y-16244428D01*
X14219286Y-16253952D01*
X14200238Y-16263476D01*
X14181190Y-16263476D01*
X14162143Y-16253952D01*
X14152619Y-16244428D01*
X14143095Y-16225381D01*
X14133571Y-16187286D01*
X14133571Y-16139667D01*
X14143095Y-16101571D01*
X14152619Y-16082524D01*
X14162143Y-16073000D01*
X14181190Y-16063476D01*
X14485952Y-16263476D02*
X14485952Y-16063476D01*
X14571667Y-16263476D02*
X14571667Y-16158714D01*
X14562143Y-16139667D01*
X14543095Y-16130143D01*
X14514524Y-16130143D01*
X14495476Y-16139667D01*
X14485952Y-16149190D01*
X14695476Y-16263476D02*
X14676428Y-16253952D01*
X14666905Y-16244428D01*
X14657381Y-16225381D01*
X14657381Y-16168238D01*
X14666905Y-16149190D01*
X14676428Y-16139667D01*
X14695476Y-16130143D01*
X14724048Y-16130143D01*
X14743095Y-16139667D01*
X14752619Y-16149190D01*
X14762143Y-16168238D01*
X14762143Y-16225381D01*
X14752619Y-16244428D01*
X14743095Y-16253952D01*
X14724048Y-16263476D01*
X14695476Y-16263476D01*
X14876428Y-16263476D02*
X14857381Y-16253952D01*
X14847857Y-16234905D01*
X14847857Y-16063476D01*
X15028809Y-16253952D02*
X15009762Y-16263476D01*
X14971667Y-16263476D01*
X14952619Y-16253952D01*
X14943095Y-16234905D01*
X14943095Y-16158714D01*
X14952619Y-16139667D01*
X14971667Y-16130143D01*
X15009762Y-16130143D01*
X15028809Y-16139667D01*
X15038333Y-16158714D01*
X15038333Y-16177762D01*
X14943095Y-16196809D01*
X15114524Y-16253952D02*
X15133571Y-16263476D01*
X15171667Y-16263476D01*
X15190714Y-16253952D01*
X15200238Y-16234905D01*
X15200238Y-16225381D01*
X15190714Y-16206333D01*
X15171667Y-16196809D01*
X15143095Y-16196809D01*
X15124048Y-16187286D01*
X15114524Y-16168238D01*
X15114524Y-16158714D01*
X15124048Y-16139667D01*
X15143095Y-16130143D01*
X15171667Y-16130143D01*
X15190714Y-16139667D01*
X15438333Y-16187286D02*
X15590714Y-16187286D01*
X15514524Y-16263476D02*
X15514524Y-16111095D01*
X15924048Y-16130143D02*
X15924048Y-16263476D01*
X15876428Y-16053952D02*
X15828809Y-16196809D01*
X15952619Y-16196809D01*
X16171667Y-16253952D02*
X16190714Y-16263476D01*
X16228809Y-16263476D01*
X16247857Y-16253952D01*
X16257381Y-16234905D01*
X16257381Y-16225381D01*
X16247857Y-16206333D01*
X16228809Y-16196809D01*
X16200238Y-16196809D01*
X16181190Y-16187286D01*
X16171667Y-16168238D01*
X16171667Y-16158714D01*
X16181190Y-16139667D01*
X16200238Y-16130143D01*
X16228809Y-16130143D01*
X16247857Y-16139667D01*
X16371667Y-16263476D02*
X16352619Y-16253952D01*
X16343095Y-16234905D01*
X16343095Y-16063476D01*
X16476428Y-16263476D02*
X16457381Y-16253952D01*
X16447857Y-16244428D01*
X16438333Y-16225381D01*
X16438333Y-16168238D01*
X16447857Y-16149190D01*
X16457381Y-16139667D01*
X16476428Y-16130143D01*
X16505000Y-16130143D01*
X16524048Y-16139667D01*
X16533571Y-16149190D01*
X16543095Y-16168238D01*
X16543095Y-16225381D01*
X16533571Y-16244428D01*
X16524048Y-16253952D01*
X16505000Y-16263476D01*
X16476428Y-16263476D01*
X16600238Y-16130143D02*
X16676428Y-16130143D01*
X16628809Y-16063476D02*
X16628809Y-16234905D01*
X16638333Y-16253952D01*
X16657381Y-16263476D01*
X16676428Y-16263476D01*
X16733571Y-16253952D02*
X16752619Y-16263476D01*
X16790714Y-16263476D01*
X16809762Y-16253952D01*
X16819286Y-16234905D01*
X16819286Y-16225381D01*
X16809762Y-16206333D01*
X16790714Y-16196809D01*
X16762143Y-16196809D01*
X16743095Y-16187286D01*
X16733571Y-16168238D01*
X16733571Y-16158714D01*
X16743095Y-16139667D01*
X16762143Y-16130143D01*
X16790714Y-16130143D01*
X16809762Y-16139667D01*
X16885952Y-16339667D02*
X16895476Y-16330143D01*
X16914524Y-16301571D01*
X16924048Y-16282524D01*
X16933571Y-16253952D01*
X16943095Y-16206333D01*
X16943095Y-16168238D01*
X16933571Y-16120619D01*
X16924048Y-16092048D01*
X16914524Y-16073000D01*
X16895476Y-16044428D01*
X16885952Y-16034905D01*
D15*
X10483285Y-16465284D02*
X10483285Y-16408715D01*
X10426716Y-16408715D01*
X10426716Y-16465284D01*
X10483285Y-16465284D01*
D11*
X10790714Y-16327476D02*
X10809762Y-16327476D01*
X10828810Y-16337000D01*
X10838333Y-16346524D01*
X10847857Y-16365571D01*
X10857381Y-16403667D01*
X10857381Y-16451286D01*
X10847857Y-16489381D01*
X10838333Y-16508428D01*
X10828810Y-16517952D01*
X10809762Y-16527476D01*
X10790714Y-16527476D01*
X10771667Y-16517952D01*
X10762143Y-16508428D01*
X10752619Y-16489381D01*
X10743095Y-16451286D01*
X10743095Y-16403667D01*
X10752619Y-16365571D01*
X10762143Y-16346524D01*
X10771667Y-16337000D01*
X10790714Y-16327476D01*
X10943095Y-16508428D02*
X10952619Y-16517952D01*
X10943095Y-16527476D01*
X10933571Y-16517952D01*
X10943095Y-16508428D01*
X10943095Y-16527476D01*
X11066905Y-16413190D02*
X11047857Y-16403667D01*
X11038333Y-16394143D01*
X11028810Y-16375095D01*
X11028810Y-16365571D01*
X11038333Y-16346524D01*
X11047857Y-16337000D01*
X11066905Y-16327476D01*
X11105000Y-16327476D01*
X11124048Y-16337000D01*
X11133571Y-16346524D01*
X11143095Y-16365571D01*
X11143095Y-16375095D01*
X11133571Y-16394143D01*
X11124048Y-16403667D01*
X11105000Y-16413190D01*
X11066905Y-16413190D01*
X11047857Y-16422714D01*
X11038333Y-16432238D01*
X11028810Y-16451286D01*
X11028810Y-16489381D01*
X11038333Y-16508428D01*
X11047857Y-16517952D01*
X11066905Y-16527476D01*
X11105000Y-16527476D01*
X11124048Y-16517952D01*
X11133571Y-16508428D01*
X11143095Y-16489381D01*
X11143095Y-16451286D01*
X11133571Y-16432238D01*
X11124048Y-16422714D01*
X11105000Y-16413190D01*
X11266905Y-16327476D02*
X11285952Y-16327476D01*
X11305000Y-16337000D01*
X11314524Y-16346524D01*
X11324048Y-16365571D01*
X11333571Y-16403667D01*
X11333571Y-16451286D01*
X11324048Y-16489381D01*
X11314524Y-16508428D01*
X11305000Y-16517952D01*
X11285952Y-16527476D01*
X11266905Y-16527476D01*
X11247857Y-16517952D01*
X11238333Y-16508428D01*
X11228809Y-16489381D01*
X11219286Y-16451286D01*
X11219286Y-16403667D01*
X11228809Y-16365571D01*
X11238333Y-16346524D01*
X11247857Y-16337000D01*
X11266905Y-16327476D01*
X11457381Y-16327476D02*
X11476428Y-16327476D01*
X11495476Y-16337000D01*
X11505000Y-16346524D01*
X11514524Y-16365571D01*
X11524048Y-16403667D01*
X11524048Y-16451286D01*
X11514524Y-16489381D01*
X11505000Y-16508428D01*
X11495476Y-16517952D01*
X11476428Y-16527476D01*
X11457381Y-16527476D01*
X11438333Y-16517952D01*
X11428809Y-16508428D01*
X11419286Y-16489381D01*
X11409762Y-16451286D01*
X11409762Y-16403667D01*
X11419286Y-16365571D01*
X11428809Y-16346524D01*
X11438333Y-16337000D01*
X11457381Y-16327476D01*
X11609762Y-16527476D02*
X11609762Y-16394143D01*
X11609762Y-16413190D02*
X11619286Y-16403667D01*
X11638333Y-16394143D01*
X11666905Y-16394143D01*
X11685952Y-16403667D01*
X11695476Y-16422714D01*
X11695476Y-16527476D01*
X11695476Y-16422714D02*
X11705000Y-16403667D01*
X11724048Y-16394143D01*
X11752619Y-16394143D01*
X11771667Y-16403667D01*
X11781190Y-16422714D01*
X11781190Y-16527476D01*
X11876428Y-16527476D02*
X11876428Y-16394143D01*
X11876428Y-16413190D02*
X11885952Y-16403667D01*
X11905000Y-16394143D01*
X11933571Y-16394143D01*
X11952619Y-16403667D01*
X11962143Y-16422714D01*
X11962143Y-16527476D01*
X11962143Y-16422714D02*
X11971667Y-16403667D01*
X11990714Y-16394143D01*
X12019286Y-16394143D01*
X12038333Y-16403667D01*
X12047857Y-16422714D01*
X12047857Y-16527476D01*
X12438333Y-16317952D02*
X12266905Y-16575095D01*
X12695476Y-16327476D02*
X12714524Y-16327476D01*
X12733571Y-16337000D01*
X12743095Y-16346524D01*
X12752619Y-16365571D01*
X12762143Y-16403667D01*
X12762143Y-16451286D01*
X12752619Y-16489381D01*
X12743095Y-16508428D01*
X12733571Y-16517952D01*
X12714524Y-16527476D01*
X12695476Y-16527476D01*
X12676428Y-16517952D01*
X12666905Y-16508428D01*
X12657381Y-16489381D01*
X12647857Y-16451286D01*
X12647857Y-16403667D01*
X12657381Y-16365571D01*
X12666905Y-16346524D01*
X12676428Y-16337000D01*
X12695476Y-16327476D01*
X12847857Y-16508428D02*
X12857381Y-16517952D01*
X12847857Y-16527476D01*
X12838333Y-16517952D01*
X12847857Y-16508428D01*
X12847857Y-16527476D01*
X12981190Y-16327476D02*
X13000238Y-16327476D01*
X13019286Y-16337000D01*
X13028809Y-16346524D01*
X13038333Y-16365571D01*
X13047857Y-16403667D01*
X13047857Y-16451286D01*
X13038333Y-16489381D01*
X13028809Y-16508428D01*
X13019286Y-16517952D01*
X13000238Y-16527476D01*
X12981190Y-16527476D01*
X12962143Y-16517952D01*
X12952619Y-16508428D01*
X12943095Y-16489381D01*
X12933571Y-16451286D01*
X12933571Y-16403667D01*
X12943095Y-16365571D01*
X12952619Y-16346524D01*
X12962143Y-16337000D01*
X12981190Y-16327476D01*
X13114524Y-16327476D02*
X13238333Y-16327476D01*
X13171667Y-16403667D01*
X13200238Y-16403667D01*
X13219286Y-16413190D01*
X13228809Y-16422714D01*
X13238333Y-16441762D01*
X13238333Y-16489381D01*
X13228809Y-16508428D01*
X13219286Y-16517952D01*
X13200238Y-16527476D01*
X13143095Y-16527476D01*
X13124048Y-16517952D01*
X13114524Y-16508428D01*
X13428809Y-16527476D02*
X13314524Y-16527476D01*
X13371667Y-16527476D02*
X13371667Y-16327476D01*
X13352619Y-16356048D01*
X13333571Y-16375095D01*
X13314524Y-16384619D01*
X13609762Y-16327476D02*
X13514524Y-16327476D01*
X13505000Y-16422714D01*
X13514524Y-16413190D01*
X13533571Y-16403667D01*
X13581190Y-16403667D01*
X13600238Y-16413190D01*
X13609762Y-16422714D01*
X13619286Y-16441762D01*
X13619286Y-16489381D01*
X13609762Y-16508428D01*
X13600238Y-16517952D01*
X13581190Y-16527476D01*
X13533571Y-16527476D01*
X13514524Y-16517952D01*
X13505000Y-16508428D01*
X13695476Y-16327476D02*
X13695476Y-16365571D01*
X13771667Y-16327476D02*
X13771667Y-16365571D01*
X14066905Y-16603667D02*
X14057381Y-16594143D01*
X14038333Y-16565571D01*
X14028809Y-16546524D01*
X14019286Y-16517952D01*
X14009762Y-16470333D01*
X14009762Y-16432238D01*
X14019286Y-16384619D01*
X14028809Y-16356048D01*
X14038333Y-16337000D01*
X14057381Y-16308428D01*
X14066905Y-16298905D01*
X14228809Y-16327476D02*
X14190714Y-16327476D01*
X14171667Y-16337000D01*
X14162143Y-16346524D01*
X14143095Y-16375095D01*
X14133571Y-16413190D01*
X14133571Y-16489381D01*
X14143095Y-16508428D01*
X14152619Y-16517952D01*
X14171667Y-16527476D01*
X14209762Y-16527476D01*
X14228809Y-16517952D01*
X14238333Y-16508428D01*
X14247857Y-16489381D01*
X14247857Y-16441762D01*
X14238333Y-16422714D01*
X14228809Y-16413190D01*
X14209762Y-16403667D01*
X14171667Y-16403667D01*
X14152619Y-16413190D01*
X14143095Y-16422714D01*
X14133571Y-16441762D01*
X14485952Y-16527476D02*
X14485952Y-16327476D01*
X14571667Y-16527476D02*
X14571667Y-16422714D01*
X14562143Y-16403667D01*
X14543095Y-16394143D01*
X14514524Y-16394143D01*
X14495476Y-16403667D01*
X14485952Y-16413190D01*
X14695476Y-16527476D02*
X14676428Y-16517952D01*
X14666905Y-16508428D01*
X14657381Y-16489381D01*
X14657381Y-16432238D01*
X14666905Y-16413190D01*
X14676428Y-16403667D01*
X14695476Y-16394143D01*
X14724048Y-16394143D01*
X14743095Y-16403667D01*
X14752619Y-16413190D01*
X14762143Y-16432238D01*
X14762143Y-16489381D01*
X14752619Y-16508428D01*
X14743095Y-16517952D01*
X14724048Y-16527476D01*
X14695476Y-16527476D01*
X14876428Y-16527476D02*
X14857381Y-16517952D01*
X14847857Y-16498905D01*
X14847857Y-16327476D01*
X15028809Y-16517952D02*
X15009762Y-16527476D01*
X14971667Y-16527476D01*
X14952619Y-16517952D01*
X14943095Y-16498905D01*
X14943095Y-16422714D01*
X14952619Y-16403667D01*
X14971667Y-16394143D01*
X15009762Y-16394143D01*
X15028809Y-16403667D01*
X15038333Y-16422714D01*
X15038333Y-16441762D01*
X14943095Y-16460809D01*
X15114524Y-16517952D02*
X15133571Y-16527476D01*
X15171667Y-16527476D01*
X15190714Y-16517952D01*
X15200238Y-16498905D01*
X15200238Y-16489381D01*
X15190714Y-16470333D01*
X15171667Y-16460809D01*
X15143095Y-16460809D01*
X15124048Y-16451286D01*
X15114524Y-16432238D01*
X15114524Y-16422714D01*
X15124048Y-16403667D01*
X15143095Y-16394143D01*
X15171667Y-16394143D01*
X15190714Y-16403667D01*
X15266905Y-16603667D02*
X15276428Y-16594143D01*
X15295476Y-16565571D01*
X15305000Y-16546524D01*
X15314524Y-16517952D01*
X15324048Y-16470333D01*
X15324048Y-16432238D01*
X15314524Y-16384619D01*
X15305000Y-16356048D01*
X15295476Y-16337000D01*
X15276428Y-16308428D01*
X15266905Y-16298905D01*
D16*
X10450000Y-16746000D02*
X10495000Y-16701000D01*
X10450000Y-16656000D01*
X10405000Y-16701000D01*
X10450000Y-16746000D01*
D11*
X10790714Y-16591476D02*
X10809762Y-16591476D01*
X10828810Y-16601000D01*
X10838333Y-16610524D01*
X10847857Y-16629571D01*
X10857381Y-16667667D01*
X10857381Y-16715286D01*
X10847857Y-16753381D01*
X10838333Y-16772428D01*
X10828810Y-16781952D01*
X10809762Y-16791476D01*
X10790714Y-16791476D01*
X10771667Y-16781952D01*
X10762143Y-16772428D01*
X10752619Y-16753381D01*
X10743095Y-16715286D01*
X10743095Y-16667667D01*
X10752619Y-16629571D01*
X10762143Y-16610524D01*
X10771667Y-16601000D01*
X10790714Y-16591476D01*
X10943095Y-16772428D02*
X10952619Y-16781952D01*
X10943095Y-16791476D01*
X10933571Y-16781952D01*
X10943095Y-16772428D01*
X10943095Y-16791476D01*
X11047857Y-16791476D02*
X11085952Y-16791476D01*
X11105000Y-16781952D01*
X11114524Y-16772428D01*
X11133571Y-16743857D01*
X11143095Y-16705762D01*
X11143095Y-16629571D01*
X11133571Y-16610524D01*
X11124048Y-16601000D01*
X11105000Y-16591476D01*
X11066905Y-16591476D01*
X11047857Y-16601000D01*
X11038333Y-16610524D01*
X11028810Y-16629571D01*
X11028810Y-16677190D01*
X11038333Y-16696238D01*
X11047857Y-16705762D01*
X11066905Y-16715286D01*
X11105000Y-16715286D01*
X11124048Y-16705762D01*
X11133571Y-16696238D01*
X11143095Y-16677190D01*
X11266905Y-16591476D02*
X11285952Y-16591476D01*
X11305000Y-16601000D01*
X11314524Y-16610524D01*
X11324048Y-16629571D01*
X11333571Y-16667667D01*
X11333571Y-16715286D01*
X11324048Y-16753381D01*
X11314524Y-16772428D01*
X11305000Y-16781952D01*
X11285952Y-16791476D01*
X11266905Y-16791476D01*
X11247857Y-16781952D01*
X11238333Y-16772428D01*
X11228809Y-16753381D01*
X11219286Y-16715286D01*
X11219286Y-16667667D01*
X11228809Y-16629571D01*
X11238333Y-16610524D01*
X11247857Y-16601000D01*
X11266905Y-16591476D01*
X11457381Y-16591476D02*
X11476428Y-16591476D01*
X11495476Y-16601000D01*
X11505000Y-16610524D01*
X11514524Y-16629571D01*
X11524048Y-16667667D01*
X11524048Y-16715286D01*
X11514524Y-16753381D01*
X11505000Y-16772428D01*
X11495476Y-16781952D01*
X11476428Y-16791476D01*
X11457381Y-16791476D01*
X11438333Y-16781952D01*
X11428809Y-16772428D01*
X11419286Y-16753381D01*
X11409762Y-16715286D01*
X11409762Y-16667667D01*
X11419286Y-16629571D01*
X11428809Y-16610524D01*
X11438333Y-16601000D01*
X11457381Y-16591476D01*
X11609762Y-16791476D02*
X11609762Y-16658143D01*
X11609762Y-16677190D02*
X11619286Y-16667667D01*
X11638333Y-16658143D01*
X11666905Y-16658143D01*
X11685952Y-16667667D01*
X11695476Y-16686714D01*
X11695476Y-16791476D01*
X11695476Y-16686714D02*
X11705000Y-16667667D01*
X11724048Y-16658143D01*
X11752619Y-16658143D01*
X11771667Y-16667667D01*
X11781190Y-16686714D01*
X11781190Y-16791476D01*
X11876428Y-16791476D02*
X11876428Y-16658143D01*
X11876428Y-16677190D02*
X11885952Y-16667667D01*
X11905000Y-16658143D01*
X11933571Y-16658143D01*
X11952619Y-16667667D01*
X11962143Y-16686714D01*
X11962143Y-16791476D01*
X11962143Y-16686714D02*
X11971667Y-16667667D01*
X11990714Y-16658143D01*
X12019286Y-16658143D01*
X12038333Y-16667667D01*
X12047857Y-16686714D01*
X12047857Y-16791476D01*
X12438333Y-16581952D02*
X12266905Y-16839095D01*
X12695476Y-16591476D02*
X12714524Y-16591476D01*
X12733571Y-16601000D01*
X12743095Y-16610524D01*
X12752619Y-16629571D01*
X12762143Y-16667667D01*
X12762143Y-16715286D01*
X12752619Y-16753381D01*
X12743095Y-16772428D01*
X12733571Y-16781952D01*
X12714524Y-16791476D01*
X12695476Y-16791476D01*
X12676428Y-16781952D01*
X12666905Y-16772428D01*
X12657381Y-16753381D01*
X12647857Y-16715286D01*
X12647857Y-16667667D01*
X12657381Y-16629571D01*
X12666905Y-16610524D01*
X12676428Y-16601000D01*
X12695476Y-16591476D01*
X12847857Y-16772428D02*
X12857381Y-16781952D01*
X12847857Y-16791476D01*
X12838333Y-16781952D01*
X12847857Y-16772428D01*
X12847857Y-16791476D01*
X12981190Y-16591476D02*
X13000238Y-16591476D01*
X13019286Y-16601000D01*
X13028809Y-16610524D01*
X13038333Y-16629571D01*
X13047857Y-16667667D01*
X13047857Y-16715286D01*
X13038333Y-16753381D01*
X13028809Y-16772428D01*
X13019286Y-16781952D01*
X13000238Y-16791476D01*
X12981190Y-16791476D01*
X12962143Y-16781952D01*
X12952619Y-16772428D01*
X12943095Y-16753381D01*
X12933571Y-16715286D01*
X12933571Y-16667667D01*
X12943095Y-16629571D01*
X12952619Y-16610524D01*
X12962143Y-16601000D01*
X12981190Y-16591476D01*
X13114524Y-16591476D02*
X13238333Y-16591476D01*
X13171667Y-16667667D01*
X13200238Y-16667667D01*
X13219286Y-16677190D01*
X13228809Y-16686714D01*
X13238333Y-16705762D01*
X13238333Y-16753381D01*
X13228809Y-16772428D01*
X13219286Y-16781952D01*
X13200238Y-16791476D01*
X13143095Y-16791476D01*
X13124048Y-16781952D01*
X13114524Y-16772428D01*
X13419286Y-16591476D02*
X13324048Y-16591476D01*
X13314524Y-16686714D01*
X13324048Y-16677190D01*
X13343095Y-16667667D01*
X13390714Y-16667667D01*
X13409762Y-16677190D01*
X13419286Y-16686714D01*
X13428809Y-16705762D01*
X13428809Y-16753381D01*
X13419286Y-16772428D01*
X13409762Y-16781952D01*
X13390714Y-16791476D01*
X13343095Y-16791476D01*
X13324048Y-16781952D01*
X13314524Y-16772428D01*
X13600238Y-16658143D02*
X13600238Y-16791476D01*
X13552619Y-16581952D02*
X13505000Y-16724809D01*
X13628809Y-16724809D01*
X13695476Y-16591476D02*
X13695476Y-16629571D01*
X13771667Y-16591476D02*
X13771667Y-16629571D01*
X14066905Y-16867667D02*
X14057381Y-16858143D01*
X14038333Y-16829571D01*
X14028809Y-16810524D01*
X14019286Y-16781952D01*
X14009762Y-16734333D01*
X14009762Y-16696238D01*
X14019286Y-16648619D01*
X14028809Y-16620048D01*
X14038333Y-16601000D01*
X14057381Y-16572428D01*
X14066905Y-16562905D01*
X14133571Y-16610524D02*
X14143095Y-16601000D01*
X14162143Y-16591476D01*
X14209762Y-16591476D01*
X14228809Y-16601000D01*
X14238333Y-16610524D01*
X14247857Y-16629571D01*
X14247857Y-16648619D01*
X14238333Y-16677190D01*
X14124048Y-16791476D01*
X14247857Y-16791476D01*
X14485952Y-16791476D02*
X14485952Y-16591476D01*
X14571667Y-16791476D02*
X14571667Y-16686714D01*
X14562143Y-16667667D01*
X14543095Y-16658143D01*
X14514524Y-16658143D01*
X14495476Y-16667667D01*
X14485952Y-16677190D01*
X14695476Y-16791476D02*
X14676428Y-16781952D01*
X14666905Y-16772428D01*
X14657381Y-16753381D01*
X14657381Y-16696238D01*
X14666905Y-16677190D01*
X14676428Y-16667667D01*
X14695476Y-16658143D01*
X14724048Y-16658143D01*
X14743095Y-16667667D01*
X14752619Y-16677190D01*
X14762143Y-16696238D01*
X14762143Y-16753381D01*
X14752619Y-16772428D01*
X14743095Y-16781952D01*
X14724048Y-16791476D01*
X14695476Y-16791476D01*
X14876428Y-16791476D02*
X14857381Y-16781952D01*
X14847857Y-16762905D01*
X14847857Y-16591476D01*
X15028809Y-16781952D02*
X15009762Y-16791476D01*
X14971667Y-16791476D01*
X14952619Y-16781952D01*
X14943095Y-16762905D01*
X14943095Y-16686714D01*
X14952619Y-16667667D01*
X14971667Y-16658143D01*
X15009762Y-16658143D01*
X15028809Y-16667667D01*
X15038333Y-16686714D01*
X15038333Y-16705762D01*
X14943095Y-16724809D01*
X15114524Y-16781952D02*
X15133571Y-16791476D01*
X15171667Y-16791476D01*
X15190714Y-16781952D01*
X15200238Y-16762905D01*
X15200238Y-16753381D01*
X15190714Y-16734333D01*
X15171667Y-16724809D01*
X15143095Y-16724809D01*
X15124048Y-16715286D01*
X15114524Y-16696238D01*
X15114524Y-16686714D01*
X15124048Y-16667667D01*
X15143095Y-16658143D01*
X15171667Y-16658143D01*
X15190714Y-16667667D01*
X15266905Y-16867667D02*
X15276428Y-16858143D01*
X15295476Y-16829571D01*
X15305000Y-16810524D01*
X15314524Y-16781952D01*
X15324048Y-16734333D01*
X15324048Y-16696238D01*
X15314524Y-16648619D01*
X15305000Y-16620048D01*
X15295476Y-16601000D01*
X15276428Y-16572428D01*
X15266905Y-16562905D01*
D17*
X10403000Y-16919000D02*
X10495000Y-17011000D01*
X10495000Y-16919000D02*
X10403000Y-17011000D01*
X10495000Y-16965000D02*
G75*
G03*
X10495000Y-16965000I-46000J0D01*
G01*
D11*
X10790714Y-16855476D02*
X10809762Y-16855476D01*
X10828810Y-16865000D01*
X10838333Y-16874524D01*
X10847857Y-16893571D01*
X10857381Y-16931667D01*
X10857381Y-16979286D01*
X10847857Y-17017381D01*
X10838333Y-17036429D01*
X10828810Y-17045952D01*
X10809762Y-17055476D01*
X10790714Y-17055476D01*
X10771667Y-17045952D01*
X10762143Y-17036429D01*
X10752619Y-17017381D01*
X10743095Y-16979286D01*
X10743095Y-16931667D01*
X10752619Y-16893571D01*
X10762143Y-16874524D01*
X10771667Y-16865000D01*
X10790714Y-16855476D01*
X10943095Y-17036429D02*
X10952619Y-17045952D01*
X10943095Y-17055476D01*
X10933571Y-17045952D01*
X10943095Y-17036429D01*
X10943095Y-17055476D01*
X11047857Y-17055476D02*
X11085952Y-17055476D01*
X11105000Y-17045952D01*
X11114524Y-17036429D01*
X11133571Y-17007857D01*
X11143095Y-16969762D01*
X11143095Y-16893571D01*
X11133571Y-16874524D01*
X11124048Y-16865000D01*
X11105000Y-16855476D01*
X11066905Y-16855476D01*
X11047857Y-16865000D01*
X11038333Y-16874524D01*
X11028810Y-16893571D01*
X11028810Y-16941190D01*
X11038333Y-16960238D01*
X11047857Y-16969762D01*
X11066905Y-16979286D01*
X11105000Y-16979286D01*
X11124048Y-16969762D01*
X11133571Y-16960238D01*
X11143095Y-16941190D01*
X11219286Y-16874524D02*
X11228809Y-16865000D01*
X11247857Y-16855476D01*
X11295476Y-16855476D01*
X11314524Y-16865000D01*
X11324048Y-16874524D01*
X11333571Y-16893571D01*
X11333571Y-16912619D01*
X11324048Y-16941190D01*
X11209762Y-17055476D01*
X11333571Y-17055476D01*
X11457381Y-16855476D02*
X11476428Y-16855476D01*
X11495476Y-16865000D01*
X11505000Y-16874524D01*
X11514524Y-16893571D01*
X11524048Y-16931667D01*
X11524048Y-16979286D01*
X11514524Y-17017381D01*
X11505000Y-17036429D01*
X11495476Y-17045952D01*
X11476428Y-17055476D01*
X11457381Y-17055476D01*
X11438333Y-17045952D01*
X11428809Y-17036429D01*
X11419286Y-17017381D01*
X11409762Y-16979286D01*
X11409762Y-16931667D01*
X11419286Y-16893571D01*
X11428809Y-16874524D01*
X11438333Y-16865000D01*
X11457381Y-16855476D01*
X11609762Y-17055476D02*
X11609762Y-16922143D01*
X11609762Y-16941190D02*
X11619286Y-16931667D01*
X11638333Y-16922143D01*
X11666905Y-16922143D01*
X11685952Y-16931667D01*
X11695476Y-16950714D01*
X11695476Y-17055476D01*
X11695476Y-16950714D02*
X11705000Y-16931667D01*
X11724048Y-16922143D01*
X11752619Y-16922143D01*
X11771667Y-16931667D01*
X11781190Y-16950714D01*
X11781190Y-17055476D01*
X11876428Y-17055476D02*
X11876428Y-16922143D01*
X11876428Y-16941190D02*
X11885952Y-16931667D01*
X11905000Y-16922143D01*
X11933571Y-16922143D01*
X11952619Y-16931667D01*
X11962143Y-16950714D01*
X11962143Y-17055476D01*
X11962143Y-16950714D02*
X11971667Y-16931667D01*
X11990714Y-16922143D01*
X12019286Y-16922143D01*
X12038333Y-16931667D01*
X12047857Y-16950714D01*
X12047857Y-17055476D01*
X12438333Y-16845952D02*
X12266905Y-17103095D01*
X12695476Y-16855476D02*
X12714524Y-16855476D01*
X12733571Y-16865000D01*
X12743095Y-16874524D01*
X12752619Y-16893571D01*
X12762143Y-16931667D01*
X12762143Y-16979286D01*
X12752619Y-17017381D01*
X12743095Y-17036429D01*
X12733571Y-17045952D01*
X12714524Y-17055476D01*
X12695476Y-17055476D01*
X12676428Y-17045952D01*
X12666905Y-17036429D01*
X12657381Y-17017381D01*
X12647857Y-16979286D01*
X12647857Y-16931667D01*
X12657381Y-16893571D01*
X12666905Y-16874524D01*
X12676428Y-16865000D01*
X12695476Y-16855476D01*
X12847857Y-17036429D02*
X12857381Y-17045952D01*
X12847857Y-17055476D01*
X12838333Y-17045952D01*
X12847857Y-17036429D01*
X12847857Y-17055476D01*
X12981190Y-16855476D02*
X13000238Y-16855476D01*
X13019286Y-16865000D01*
X13028809Y-16874524D01*
X13038333Y-16893571D01*
X13047857Y-16931667D01*
X13047857Y-16979286D01*
X13038333Y-17017381D01*
X13028809Y-17036429D01*
X13019286Y-17045952D01*
X13000238Y-17055476D01*
X12981190Y-17055476D01*
X12962143Y-17045952D01*
X12952619Y-17036429D01*
X12943095Y-17017381D01*
X12933571Y-16979286D01*
X12933571Y-16931667D01*
X12943095Y-16893571D01*
X12952619Y-16874524D01*
X12962143Y-16865000D01*
X12981190Y-16855476D01*
X13114524Y-16855476D02*
X13238333Y-16855476D01*
X13171667Y-16931667D01*
X13200238Y-16931667D01*
X13219286Y-16941190D01*
X13228809Y-16950714D01*
X13238333Y-16969762D01*
X13238333Y-17017381D01*
X13228809Y-17036429D01*
X13219286Y-17045952D01*
X13200238Y-17055476D01*
X13143095Y-17055476D01*
X13124048Y-17045952D01*
X13114524Y-17036429D01*
X13409762Y-16855476D02*
X13371667Y-16855476D01*
X13352619Y-16865000D01*
X13343095Y-16874524D01*
X13324048Y-16903095D01*
X13314524Y-16941190D01*
X13314524Y-17017381D01*
X13324048Y-17036429D01*
X13333571Y-17045952D01*
X13352619Y-17055476D01*
X13390714Y-17055476D01*
X13409762Y-17045952D01*
X13419286Y-17036429D01*
X13428809Y-17017381D01*
X13428809Y-16969762D01*
X13419286Y-16950714D01*
X13409762Y-16941190D01*
X13390714Y-16931667D01*
X13352619Y-16931667D01*
X13333571Y-16941190D01*
X13324048Y-16950714D01*
X13314524Y-16969762D01*
X13505000Y-16874524D02*
X13514524Y-16865000D01*
X13533571Y-16855476D01*
X13581190Y-16855476D01*
X13600238Y-16865000D01*
X13609762Y-16874524D01*
X13619286Y-16893571D01*
X13619286Y-16912619D01*
X13609762Y-16941190D01*
X13495476Y-17055476D01*
X13619286Y-17055476D01*
X13695476Y-16855476D02*
X13695476Y-16893571D01*
X13771667Y-16855476D02*
X13771667Y-16893571D01*
X14066905Y-17131667D02*
X14057381Y-17122143D01*
X14038333Y-17093571D01*
X14028809Y-17074524D01*
X14019286Y-17045952D01*
X14009762Y-16998333D01*
X14009762Y-16960238D01*
X14019286Y-16912619D01*
X14028809Y-16884048D01*
X14038333Y-16865000D01*
X14057381Y-16836429D01*
X14066905Y-16826905D01*
X14171667Y-16941190D02*
X14152619Y-16931667D01*
X14143095Y-16922143D01*
X14133571Y-16903095D01*
X14133571Y-16893571D01*
X14143095Y-16874524D01*
X14152619Y-16865000D01*
X14171667Y-16855476D01*
X14209762Y-16855476D01*
X14228809Y-16865000D01*
X14238333Y-16874524D01*
X14247857Y-16893571D01*
X14247857Y-16903095D01*
X14238333Y-16922143D01*
X14228809Y-16931667D01*
X14209762Y-16941190D01*
X14171667Y-16941190D01*
X14152619Y-16950714D01*
X14143095Y-16960238D01*
X14133571Y-16979286D01*
X14133571Y-17017381D01*
X14143095Y-17036429D01*
X14152619Y-17045952D01*
X14171667Y-17055476D01*
X14209762Y-17055476D01*
X14228809Y-17045952D01*
X14238333Y-17036429D01*
X14247857Y-17017381D01*
X14247857Y-16979286D01*
X14238333Y-16960238D01*
X14228809Y-16950714D01*
X14209762Y-16941190D01*
X14485952Y-17055476D02*
X14485952Y-16855476D01*
X14571667Y-17055476D02*
X14571667Y-16950714D01*
X14562143Y-16931667D01*
X14543095Y-16922143D01*
X14514524Y-16922143D01*
X14495476Y-16931667D01*
X14485952Y-16941190D01*
X14695476Y-17055476D02*
X14676428Y-17045952D01*
X14666905Y-17036429D01*
X14657381Y-17017381D01*
X14657381Y-16960238D01*
X14666905Y-16941190D01*
X14676428Y-16931667D01*
X14695476Y-16922143D01*
X14724048Y-16922143D01*
X14743095Y-16931667D01*
X14752619Y-16941190D01*
X14762143Y-16960238D01*
X14762143Y-17017381D01*
X14752619Y-17036429D01*
X14743095Y-17045952D01*
X14724048Y-17055476D01*
X14695476Y-17055476D01*
X14876428Y-17055476D02*
X14857381Y-17045952D01*
X14847857Y-17026905D01*
X14847857Y-16855476D01*
X15028809Y-17045952D02*
X15009762Y-17055476D01*
X14971667Y-17055476D01*
X14952619Y-17045952D01*
X14943095Y-17026905D01*
X14943095Y-16950714D01*
X14952619Y-16931667D01*
X14971667Y-16922143D01*
X15009762Y-16922143D01*
X15028809Y-16931667D01*
X15038333Y-16950714D01*
X15038333Y-16969762D01*
X14943095Y-16988810D01*
X15114524Y-17045952D02*
X15133571Y-17055476D01*
X15171667Y-17055476D01*
X15190714Y-17045952D01*
X15200238Y-17026905D01*
X15200238Y-17017381D01*
X15190714Y-16998333D01*
X15171667Y-16988810D01*
X15143095Y-16988810D01*
X15124048Y-16979286D01*
X15114524Y-16960238D01*
X15114524Y-16950714D01*
X15124048Y-16931667D01*
X15143095Y-16922143D01*
X15171667Y-16922143D01*
X15190714Y-16931667D01*
X15266905Y-17131667D02*
X15276428Y-17122143D01*
X15295476Y-17093571D01*
X15305000Y-17074524D01*
X15314524Y-17045952D01*
X15324048Y-16998333D01*
X15324048Y-16960238D01*
X15314524Y-16912619D01*
X15305000Y-16884048D01*
X15295476Y-16865000D01*
X15276428Y-16836429D01*
X15266905Y-16826905D01*
D18*
X10395000Y-17179000D02*
X10495000Y-17279000D01*
X10495000Y-17179000D02*
X10395000Y-17279000D01*
X10445000Y-17179000D02*
X10445000Y-17279000D01*
X10395000Y-17229000D02*
X10495000Y-17229000D01*
D11*
X10857381Y-17319476D02*
X10743095Y-17319476D01*
X10800238Y-17319476D02*
X10800238Y-17119476D01*
X10781190Y-17148048D01*
X10762143Y-17167095D01*
X10743095Y-17176619D01*
X10943095Y-17300429D02*
X10952619Y-17309952D01*
X10943095Y-17319476D01*
X10933571Y-17309952D01*
X10943095Y-17300429D01*
X10943095Y-17319476D01*
X11076429Y-17119476D02*
X11095476Y-17119476D01*
X11114524Y-17129000D01*
X11124048Y-17138524D01*
X11133571Y-17157571D01*
X11143095Y-17195667D01*
X11143095Y-17243286D01*
X11133571Y-17281381D01*
X11124048Y-17300429D01*
X11114524Y-17309952D01*
X11095476Y-17319476D01*
X11076429Y-17319476D01*
X11057381Y-17309952D01*
X11047857Y-17300429D01*
X11038333Y-17281381D01*
X11028810Y-17243286D01*
X11028810Y-17195667D01*
X11038333Y-17157571D01*
X11047857Y-17138524D01*
X11057381Y-17129000D01*
X11076429Y-17119476D01*
X11266905Y-17119476D02*
X11285952Y-17119476D01*
X11305000Y-17129000D01*
X11314524Y-17138524D01*
X11324048Y-17157571D01*
X11333571Y-17195667D01*
X11333571Y-17243286D01*
X11324048Y-17281381D01*
X11314524Y-17300429D01*
X11305000Y-17309952D01*
X11285952Y-17319476D01*
X11266905Y-17319476D01*
X11247857Y-17309952D01*
X11238333Y-17300429D01*
X11228809Y-17281381D01*
X11219286Y-17243286D01*
X11219286Y-17195667D01*
X11228809Y-17157571D01*
X11238333Y-17138524D01*
X11247857Y-17129000D01*
X11266905Y-17119476D01*
X11457381Y-17119476D02*
X11476428Y-17119476D01*
X11495476Y-17129000D01*
X11505000Y-17138524D01*
X11514524Y-17157571D01*
X11524048Y-17195667D01*
X11524048Y-17243286D01*
X11514524Y-17281381D01*
X11505000Y-17300429D01*
X11495476Y-17309952D01*
X11476428Y-17319476D01*
X11457381Y-17319476D01*
X11438333Y-17309952D01*
X11428809Y-17300429D01*
X11419286Y-17281381D01*
X11409762Y-17243286D01*
X11409762Y-17195667D01*
X11419286Y-17157571D01*
X11428809Y-17138524D01*
X11438333Y-17129000D01*
X11457381Y-17119476D01*
X11609762Y-17319476D02*
X11609762Y-17186143D01*
X11609762Y-17205190D02*
X11619286Y-17195667D01*
X11638333Y-17186143D01*
X11666905Y-17186143D01*
X11685952Y-17195667D01*
X11695476Y-17214714D01*
X11695476Y-17319476D01*
X11695476Y-17214714D02*
X11705000Y-17195667D01*
X11724048Y-17186143D01*
X11752619Y-17186143D01*
X11771667Y-17195667D01*
X11781190Y-17214714D01*
X11781190Y-17319476D01*
X11876428Y-17319476D02*
X11876428Y-17186143D01*
X11876428Y-17205190D02*
X11885952Y-17195667D01*
X11905000Y-17186143D01*
X11933571Y-17186143D01*
X11952619Y-17195667D01*
X11962143Y-17214714D01*
X11962143Y-17319476D01*
X11962143Y-17214714D02*
X11971667Y-17195667D01*
X11990714Y-17186143D01*
X12019286Y-17186143D01*
X12038333Y-17195667D01*
X12047857Y-17214714D01*
X12047857Y-17319476D01*
X12438333Y-17109952D02*
X12266905Y-17367095D01*
X12695476Y-17119476D02*
X12714524Y-17119476D01*
X12733571Y-17129000D01*
X12743095Y-17138524D01*
X12752619Y-17157571D01*
X12762143Y-17195667D01*
X12762143Y-17243286D01*
X12752619Y-17281381D01*
X12743095Y-17300429D01*
X12733571Y-17309952D01*
X12714524Y-17319476D01*
X12695476Y-17319476D01*
X12676428Y-17309952D01*
X12666905Y-17300429D01*
X12657381Y-17281381D01*
X12647857Y-17243286D01*
X12647857Y-17195667D01*
X12657381Y-17157571D01*
X12666905Y-17138524D01*
X12676428Y-17129000D01*
X12695476Y-17119476D01*
X12847857Y-17300429D02*
X12857381Y-17309952D01*
X12847857Y-17319476D01*
X12838333Y-17309952D01*
X12847857Y-17300429D01*
X12847857Y-17319476D01*
X12981190Y-17119476D02*
X13000238Y-17119476D01*
X13019286Y-17129000D01*
X13028809Y-17138524D01*
X13038333Y-17157571D01*
X13047857Y-17195667D01*
X13047857Y-17243286D01*
X13038333Y-17281381D01*
X13028809Y-17300429D01*
X13019286Y-17309952D01*
X13000238Y-17319476D01*
X12981190Y-17319476D01*
X12962143Y-17309952D01*
X12952619Y-17300429D01*
X12943095Y-17281381D01*
X12933571Y-17243286D01*
X12933571Y-17195667D01*
X12943095Y-17157571D01*
X12952619Y-17138524D01*
X12962143Y-17129000D01*
X12981190Y-17119476D01*
X13114524Y-17119476D02*
X13238333Y-17119476D01*
X13171667Y-17195667D01*
X13200238Y-17195667D01*
X13219286Y-17205190D01*
X13228809Y-17214714D01*
X13238333Y-17233762D01*
X13238333Y-17281381D01*
X13228809Y-17300429D01*
X13219286Y-17309952D01*
X13200238Y-17319476D01*
X13143095Y-17319476D01*
X13124048Y-17309952D01*
X13114524Y-17300429D01*
X13333571Y-17319476D02*
X13371667Y-17319476D01*
X13390714Y-17309952D01*
X13400238Y-17300429D01*
X13419286Y-17271857D01*
X13428809Y-17233762D01*
X13428809Y-17157571D01*
X13419286Y-17138524D01*
X13409762Y-17129000D01*
X13390714Y-17119476D01*
X13352619Y-17119476D01*
X13333571Y-17129000D01*
X13324048Y-17138524D01*
X13314524Y-17157571D01*
X13314524Y-17205190D01*
X13324048Y-17224238D01*
X13333571Y-17233762D01*
X13352619Y-17243286D01*
X13390714Y-17243286D01*
X13409762Y-17233762D01*
X13419286Y-17224238D01*
X13428809Y-17205190D01*
X13600238Y-17186143D02*
X13600238Y-17319476D01*
X13552619Y-17109952D02*
X13505000Y-17252810D01*
X13628809Y-17252810D01*
X13695476Y-17119476D02*
X13695476Y-17157571D01*
X13771667Y-17119476D02*
X13771667Y-17157571D01*
X14066905Y-17395667D02*
X14057381Y-17386143D01*
X14038333Y-17357571D01*
X14028809Y-17338524D01*
X14019286Y-17309952D01*
X14009762Y-17262333D01*
X14009762Y-17224238D01*
X14019286Y-17176619D01*
X14028809Y-17148048D01*
X14038333Y-17129000D01*
X14057381Y-17100429D01*
X14066905Y-17090905D01*
X14247857Y-17319476D02*
X14133571Y-17319476D01*
X14190714Y-17319476D02*
X14190714Y-17119476D01*
X14171667Y-17148048D01*
X14152619Y-17167095D01*
X14133571Y-17176619D01*
X14371667Y-17119476D02*
X14390714Y-17119476D01*
X14409762Y-17129000D01*
X14419286Y-17138524D01*
X14428809Y-17157571D01*
X14438333Y-17195667D01*
X14438333Y-17243286D01*
X14428809Y-17281381D01*
X14419286Y-17300429D01*
X14409762Y-17309952D01*
X14390714Y-17319476D01*
X14371667Y-17319476D01*
X14352619Y-17309952D01*
X14343095Y-17300429D01*
X14333571Y-17281381D01*
X14324048Y-17243286D01*
X14324048Y-17195667D01*
X14333571Y-17157571D01*
X14343095Y-17138524D01*
X14352619Y-17129000D01*
X14371667Y-17119476D01*
X14562143Y-17119476D02*
X14581190Y-17119476D01*
X14600238Y-17129000D01*
X14609762Y-17138524D01*
X14619286Y-17157571D01*
X14628809Y-17195667D01*
X14628809Y-17243286D01*
X14619286Y-17281381D01*
X14609762Y-17300429D01*
X14600238Y-17309952D01*
X14581190Y-17319476D01*
X14562143Y-17319476D01*
X14543095Y-17309952D01*
X14533571Y-17300429D01*
X14524048Y-17281381D01*
X14514524Y-17243286D01*
X14514524Y-17195667D01*
X14524048Y-17157571D01*
X14533571Y-17138524D01*
X14543095Y-17129000D01*
X14562143Y-17119476D01*
X14866905Y-17319476D02*
X14866905Y-17119476D01*
X14952619Y-17319476D02*
X14952619Y-17214714D01*
X14943095Y-17195667D01*
X14924048Y-17186143D01*
X14895476Y-17186143D01*
X14876428Y-17195667D01*
X14866905Y-17205190D01*
X15076428Y-17319476D02*
X15057381Y-17309952D01*
X15047857Y-17300429D01*
X15038333Y-17281381D01*
X15038333Y-17224238D01*
X15047857Y-17205190D01*
X15057381Y-17195667D01*
X15076428Y-17186143D01*
X15105000Y-17186143D01*
X15124048Y-17195667D01*
X15133571Y-17205190D01*
X15143095Y-17224238D01*
X15143095Y-17281381D01*
X15133571Y-17300429D01*
X15124048Y-17309952D01*
X15105000Y-17319476D01*
X15076428Y-17319476D01*
X15257381Y-17319476D02*
X15238333Y-17309952D01*
X15228809Y-17290905D01*
X15228809Y-17119476D01*
X15409762Y-17309952D02*
X15390714Y-17319476D01*
X15352619Y-17319476D01*
X15333571Y-17309952D01*
X15324048Y-17290905D01*
X15324048Y-17214714D01*
X15333571Y-17195667D01*
X15352619Y-17186143D01*
X15390714Y-17186143D01*
X15409762Y-17195667D01*
X15419286Y-17214714D01*
X15419286Y-17233762D01*
X15324048Y-17252810D01*
X15495476Y-17309952D02*
X15514524Y-17319476D01*
X15552619Y-17319476D01*
X15571667Y-17309952D01*
X15581190Y-17290905D01*
X15581190Y-17281381D01*
X15571667Y-17262333D01*
X15552619Y-17252810D01*
X15524048Y-17252810D01*
X15505000Y-17243286D01*
X15495476Y-17224238D01*
X15495476Y-17214714D01*
X15505000Y-17195667D01*
X15524048Y-17186143D01*
X15552619Y-17186143D01*
X15571667Y-17195667D01*
X15647857Y-17395667D02*
X15657381Y-17386143D01*
X15676428Y-17357571D01*
X15685952Y-17338524D01*
X15695476Y-17309952D01*
X15705000Y-17262333D01*
X15705000Y-17224238D01*
X15695476Y-17176619D01*
X15685952Y-17148048D01*
X15676428Y-17129000D01*
X15657381Y-17100429D01*
X15647857Y-17090905D01*
D19*
X10375000Y-17433000D02*
X10495000Y-17553000D01*
X10495000Y-17433000D02*
X10375000Y-17553000D01*
X10477427Y-17535427D02*
X10477427Y-17450573D01*
X10392573Y-17450573D01*
X10392573Y-17535427D01*
X10477427Y-17535427D01*
D11*
X10857381Y-17583476D02*
X10743095Y-17583476D01*
X10800238Y-17583476D02*
X10800238Y-17383476D01*
X10781190Y-17412048D01*
X10762143Y-17431095D01*
X10743095Y-17440619D01*
X10943095Y-17564429D02*
X10952619Y-17573952D01*
X10943095Y-17583476D01*
X10933571Y-17573952D01*
X10943095Y-17564429D01*
X10943095Y-17583476D01*
X11028810Y-17402524D02*
X11038333Y-17393000D01*
X11057381Y-17383476D01*
X11105000Y-17383476D01*
X11124048Y-17393000D01*
X11133571Y-17402524D01*
X11143095Y-17421571D01*
X11143095Y-17440619D01*
X11133571Y-17469190D01*
X11019286Y-17583476D01*
X11143095Y-17583476D01*
X11266905Y-17383476D02*
X11285952Y-17383476D01*
X11305000Y-17393000D01*
X11314524Y-17402524D01*
X11324048Y-17421571D01*
X11333571Y-17459667D01*
X11333571Y-17507286D01*
X11324048Y-17545381D01*
X11314524Y-17564429D01*
X11305000Y-17573952D01*
X11285952Y-17583476D01*
X11266905Y-17583476D01*
X11247857Y-17573952D01*
X11238333Y-17564429D01*
X11228809Y-17545381D01*
X11219286Y-17507286D01*
X11219286Y-17459667D01*
X11228809Y-17421571D01*
X11238333Y-17402524D01*
X11247857Y-17393000D01*
X11266905Y-17383476D01*
X11457381Y-17383476D02*
X11476428Y-17383476D01*
X11495476Y-17393000D01*
X11505000Y-17402524D01*
X11514524Y-17421571D01*
X11524048Y-17459667D01*
X11524048Y-17507286D01*
X11514524Y-17545381D01*
X11505000Y-17564429D01*
X11495476Y-17573952D01*
X11476428Y-17583476D01*
X11457381Y-17583476D01*
X11438333Y-17573952D01*
X11428809Y-17564429D01*
X11419286Y-17545381D01*
X11409762Y-17507286D01*
X11409762Y-17459667D01*
X11419286Y-17421571D01*
X11428809Y-17402524D01*
X11438333Y-17393000D01*
X11457381Y-17383476D01*
X11609762Y-17583476D02*
X11609762Y-17450143D01*
X11609762Y-17469190D02*
X11619286Y-17459667D01*
X11638333Y-17450143D01*
X11666905Y-17450143D01*
X11685952Y-17459667D01*
X11695476Y-17478714D01*
X11695476Y-17583476D01*
X11695476Y-17478714D02*
X11705000Y-17459667D01*
X11724048Y-17450143D01*
X11752619Y-17450143D01*
X11771667Y-17459667D01*
X11781190Y-17478714D01*
X11781190Y-17583476D01*
X11876428Y-17583476D02*
X11876428Y-17450143D01*
X11876428Y-17469190D02*
X11885952Y-17459667D01*
X11905000Y-17450143D01*
X11933571Y-17450143D01*
X11952619Y-17459667D01*
X11962143Y-17478714D01*
X11962143Y-17583476D01*
X11962143Y-17478714D02*
X11971667Y-17459667D01*
X11990714Y-17450143D01*
X12019286Y-17450143D01*
X12038333Y-17459667D01*
X12047857Y-17478714D01*
X12047857Y-17583476D01*
X12438333Y-17373952D02*
X12266905Y-17631095D01*
X12695476Y-17383476D02*
X12714524Y-17383476D01*
X12733571Y-17393000D01*
X12743095Y-17402524D01*
X12752619Y-17421571D01*
X12762143Y-17459667D01*
X12762143Y-17507286D01*
X12752619Y-17545381D01*
X12743095Y-17564429D01*
X12733571Y-17573952D01*
X12714524Y-17583476D01*
X12695476Y-17583476D01*
X12676428Y-17573952D01*
X12666905Y-17564429D01*
X12657381Y-17545381D01*
X12647857Y-17507286D01*
X12647857Y-17459667D01*
X12657381Y-17421571D01*
X12666905Y-17402524D01*
X12676428Y-17393000D01*
X12695476Y-17383476D01*
X12847857Y-17564429D02*
X12857381Y-17573952D01*
X12847857Y-17583476D01*
X12838333Y-17573952D01*
X12847857Y-17564429D01*
X12847857Y-17583476D01*
X12981190Y-17383476D02*
X13000238Y-17383476D01*
X13019286Y-17393000D01*
X13028809Y-17402524D01*
X13038333Y-17421571D01*
X13047857Y-17459667D01*
X13047857Y-17507286D01*
X13038333Y-17545381D01*
X13028809Y-17564429D01*
X13019286Y-17573952D01*
X13000238Y-17583476D01*
X12981190Y-17583476D01*
X12962143Y-17573952D01*
X12952619Y-17564429D01*
X12943095Y-17545381D01*
X12933571Y-17507286D01*
X12933571Y-17459667D01*
X12943095Y-17421571D01*
X12952619Y-17402524D01*
X12962143Y-17393000D01*
X12981190Y-17383476D01*
X13219286Y-17450143D02*
X13219286Y-17583476D01*
X13171667Y-17373952D02*
X13124048Y-17516810D01*
X13247857Y-17516810D01*
X13305000Y-17383476D02*
X13438333Y-17383476D01*
X13352619Y-17583476D01*
X13505000Y-17402524D02*
X13514524Y-17393000D01*
X13533571Y-17383476D01*
X13581190Y-17383476D01*
X13600238Y-17393000D01*
X13609762Y-17402524D01*
X13619286Y-17421571D01*
X13619286Y-17440619D01*
X13609762Y-17469190D01*
X13495476Y-17583476D01*
X13619286Y-17583476D01*
X13695476Y-17383476D02*
X13695476Y-17421571D01*
X13771667Y-17383476D02*
X13771667Y-17421571D01*
X14066905Y-17659667D02*
X14057381Y-17650143D01*
X14038333Y-17621571D01*
X14028809Y-17602524D01*
X14019286Y-17573952D01*
X14009762Y-17526333D01*
X14009762Y-17488238D01*
X14019286Y-17440619D01*
X14028809Y-17412048D01*
X14038333Y-17393000D01*
X14057381Y-17364429D01*
X14066905Y-17354905D01*
X14133571Y-17402524D02*
X14143095Y-17393000D01*
X14162143Y-17383476D01*
X14209762Y-17383476D01*
X14228809Y-17393000D01*
X14238333Y-17402524D01*
X14247857Y-17421571D01*
X14247857Y-17440619D01*
X14238333Y-17469190D01*
X14124048Y-17583476D01*
X14247857Y-17583476D01*
X14438333Y-17583476D02*
X14324048Y-17583476D01*
X14381190Y-17583476D02*
X14381190Y-17383476D01*
X14362143Y-17412048D01*
X14343095Y-17431095D01*
X14324048Y-17440619D01*
X14676428Y-17583476D02*
X14676428Y-17383476D01*
X14762143Y-17583476D02*
X14762143Y-17478714D01*
X14752619Y-17459667D01*
X14733571Y-17450143D01*
X14705000Y-17450143D01*
X14685952Y-17459667D01*
X14676428Y-17469190D01*
X14885952Y-17583476D02*
X14866905Y-17573952D01*
X14857381Y-17564429D01*
X14847857Y-17545381D01*
X14847857Y-17488238D01*
X14857381Y-17469190D01*
X14866905Y-17459667D01*
X14885952Y-17450143D01*
X14914524Y-17450143D01*
X14933571Y-17459667D01*
X14943095Y-17469190D01*
X14952619Y-17488238D01*
X14952619Y-17545381D01*
X14943095Y-17564429D01*
X14933571Y-17573952D01*
X14914524Y-17583476D01*
X14885952Y-17583476D01*
X15066905Y-17583476D02*
X15047857Y-17573952D01*
X15038333Y-17554905D01*
X15038333Y-17383476D01*
X15219286Y-17573952D02*
X15200238Y-17583476D01*
X15162143Y-17583476D01*
X15143095Y-17573952D01*
X15133571Y-17554905D01*
X15133571Y-17478714D01*
X15143095Y-17459667D01*
X15162143Y-17450143D01*
X15200238Y-17450143D01*
X15219286Y-17459667D01*
X15228809Y-17478714D01*
X15228809Y-17497762D01*
X15133571Y-17516810D01*
X15305000Y-17573952D02*
X15324048Y-17583476D01*
X15362143Y-17583476D01*
X15381190Y-17573952D01*
X15390714Y-17554905D01*
X15390714Y-17545381D01*
X15381190Y-17526333D01*
X15362143Y-17516810D01*
X15333571Y-17516810D01*
X15314524Y-17507286D01*
X15305000Y-17488238D01*
X15305000Y-17478714D01*
X15314524Y-17459667D01*
X15333571Y-17450143D01*
X15362143Y-17450143D01*
X15381190Y-17459667D01*
X15457381Y-17659667D02*
X15466905Y-17650143D01*
X15485952Y-17621571D01*
X15495476Y-17602524D01*
X15505000Y-17573952D01*
X15514524Y-17526333D01*
X15514524Y-17488238D01*
X15505000Y-17440619D01*
X15495476Y-17412048D01*
X15485952Y-17393000D01*
X15466905Y-17364429D01*
X15457381Y-17354905D01*
D20*
X10365000Y-17692000D02*
X10495000Y-17822000D01*
X10495000Y-17692000D02*
X10365000Y-17822000D01*
X10430000Y-17822000D02*
X10495000Y-17757000D01*
X10430000Y-17692000D01*
X10365000Y-17757000D01*
X10430000Y-17822000D01*
D11*
X10857381Y-17847476D02*
X10743095Y-17847476D01*
X10800238Y-17847476D02*
X10800238Y-17647476D01*
X10781190Y-17676048D01*
X10762143Y-17695095D01*
X10743095Y-17704619D01*
X10943095Y-17828429D02*
X10952619Y-17837952D01*
X10943095Y-17847476D01*
X10933571Y-17837952D01*
X10943095Y-17828429D01*
X10943095Y-17847476D01*
X11019286Y-17647476D02*
X11143095Y-17647476D01*
X11076429Y-17723667D01*
X11105000Y-17723667D01*
X11124048Y-17733190D01*
X11133571Y-17742714D01*
X11143095Y-17761762D01*
X11143095Y-17809381D01*
X11133571Y-17828429D01*
X11124048Y-17837952D01*
X11105000Y-17847476D01*
X11047857Y-17847476D01*
X11028810Y-17837952D01*
X11019286Y-17828429D01*
X11266905Y-17647476D02*
X11285952Y-17647476D01*
X11305000Y-17657000D01*
X11314524Y-17666524D01*
X11324048Y-17685571D01*
X11333571Y-17723667D01*
X11333571Y-17771286D01*
X11324048Y-17809381D01*
X11314524Y-17828429D01*
X11305000Y-17837952D01*
X11285952Y-17847476D01*
X11266905Y-17847476D01*
X11247857Y-17837952D01*
X11238333Y-17828429D01*
X11228809Y-17809381D01*
X11219286Y-17771286D01*
X11219286Y-17723667D01*
X11228809Y-17685571D01*
X11238333Y-17666524D01*
X11247857Y-17657000D01*
X11266905Y-17647476D01*
X11457381Y-17647476D02*
X11476428Y-17647476D01*
X11495476Y-17657000D01*
X11505000Y-17666524D01*
X11514524Y-17685571D01*
X11524048Y-17723667D01*
X11524048Y-17771286D01*
X11514524Y-17809381D01*
X11505000Y-17828429D01*
X11495476Y-17837952D01*
X11476428Y-17847476D01*
X11457381Y-17847476D01*
X11438333Y-17837952D01*
X11428809Y-17828429D01*
X11419286Y-17809381D01*
X11409762Y-17771286D01*
X11409762Y-17723667D01*
X11419286Y-17685571D01*
X11428809Y-17666524D01*
X11438333Y-17657000D01*
X11457381Y-17647476D01*
X11609762Y-17847476D02*
X11609762Y-17714143D01*
X11609762Y-17733190D02*
X11619286Y-17723667D01*
X11638333Y-17714143D01*
X11666905Y-17714143D01*
X11685952Y-17723667D01*
X11695476Y-17742714D01*
X11695476Y-17847476D01*
X11695476Y-17742714D02*
X11705000Y-17723667D01*
X11724048Y-17714143D01*
X11752619Y-17714143D01*
X11771667Y-17723667D01*
X11781190Y-17742714D01*
X11781190Y-17847476D01*
X11876428Y-17847476D02*
X11876428Y-17714143D01*
X11876428Y-17733190D02*
X11885952Y-17723667D01*
X11905000Y-17714143D01*
X11933571Y-17714143D01*
X11952619Y-17723667D01*
X11962143Y-17742714D01*
X11962143Y-17847476D01*
X11962143Y-17742714D02*
X11971667Y-17723667D01*
X11990714Y-17714143D01*
X12019286Y-17714143D01*
X12038333Y-17723667D01*
X12047857Y-17742714D01*
X12047857Y-17847476D01*
X12438333Y-17637952D02*
X12266905Y-17895095D01*
X12695476Y-17647476D02*
X12714524Y-17647476D01*
X12733571Y-17657000D01*
X12743095Y-17666524D01*
X12752619Y-17685571D01*
X12762143Y-17723667D01*
X12762143Y-17771286D01*
X12752619Y-17809381D01*
X12743095Y-17828429D01*
X12733571Y-17837952D01*
X12714524Y-17847476D01*
X12695476Y-17847476D01*
X12676428Y-17837952D01*
X12666905Y-17828429D01*
X12657381Y-17809381D01*
X12647857Y-17771286D01*
X12647857Y-17723667D01*
X12657381Y-17685571D01*
X12666905Y-17666524D01*
X12676428Y-17657000D01*
X12695476Y-17647476D01*
X12847857Y-17828429D02*
X12857381Y-17837952D01*
X12847857Y-17847476D01*
X12838333Y-17837952D01*
X12847857Y-17828429D01*
X12847857Y-17847476D01*
X12981190Y-17647476D02*
X13000238Y-17647476D01*
X13019286Y-17657000D01*
X13028809Y-17666524D01*
X13038333Y-17685571D01*
X13047857Y-17723667D01*
X13047857Y-17771286D01*
X13038333Y-17809381D01*
X13028809Y-17828429D01*
X13019286Y-17837952D01*
X13000238Y-17847476D01*
X12981190Y-17847476D01*
X12962143Y-17837952D01*
X12952619Y-17828429D01*
X12943095Y-17809381D01*
X12933571Y-17771286D01*
X12933571Y-17723667D01*
X12943095Y-17685571D01*
X12952619Y-17666524D01*
X12962143Y-17657000D01*
X12981190Y-17647476D01*
X13228809Y-17647476D02*
X13133571Y-17647476D01*
X13124048Y-17742714D01*
X13133571Y-17733190D01*
X13152619Y-17723667D01*
X13200238Y-17723667D01*
X13219286Y-17733190D01*
X13228809Y-17742714D01*
X13238333Y-17761762D01*
X13238333Y-17809381D01*
X13228809Y-17828429D01*
X13219286Y-17837952D01*
X13200238Y-17847476D01*
X13152619Y-17847476D01*
X13133571Y-17837952D01*
X13124048Y-17828429D01*
X13428809Y-17847476D02*
X13314524Y-17847476D01*
X13371667Y-17847476D02*
X13371667Y-17647476D01*
X13352619Y-17676048D01*
X13333571Y-17695095D01*
X13314524Y-17704619D01*
X13505000Y-17666524D02*
X13514524Y-17657000D01*
X13533571Y-17647476D01*
X13581190Y-17647476D01*
X13600238Y-17657000D01*
X13609762Y-17666524D01*
X13619286Y-17685571D01*
X13619286Y-17704619D01*
X13609762Y-17733190D01*
X13495476Y-17847476D01*
X13619286Y-17847476D01*
X13695476Y-17647476D02*
X13695476Y-17685571D01*
X13771667Y-17647476D02*
X13771667Y-17685571D01*
X14066905Y-17923667D02*
X14057381Y-17914143D01*
X14038333Y-17885571D01*
X14028809Y-17866524D01*
X14019286Y-17837952D01*
X14009762Y-17790333D01*
X14009762Y-17752238D01*
X14019286Y-17704619D01*
X14028809Y-17676048D01*
X14038333Y-17657000D01*
X14057381Y-17628429D01*
X14066905Y-17618905D01*
X14133571Y-17666524D02*
X14143095Y-17657000D01*
X14162143Y-17647476D01*
X14209762Y-17647476D01*
X14228809Y-17657000D01*
X14238333Y-17666524D01*
X14247857Y-17685571D01*
X14247857Y-17704619D01*
X14238333Y-17733190D01*
X14124048Y-17847476D01*
X14247857Y-17847476D01*
X14428809Y-17647476D02*
X14333571Y-17647476D01*
X14324048Y-17742714D01*
X14333571Y-17733190D01*
X14352619Y-17723667D01*
X14400238Y-17723667D01*
X14419286Y-17733190D01*
X14428809Y-17742714D01*
X14438333Y-17761762D01*
X14438333Y-17809381D01*
X14428809Y-17828429D01*
X14419286Y-17837952D01*
X14400238Y-17847476D01*
X14352619Y-17847476D01*
X14333571Y-17837952D01*
X14324048Y-17828429D01*
X14676428Y-17847476D02*
X14676428Y-17647476D01*
X14762143Y-17847476D02*
X14762143Y-17742714D01*
X14752619Y-17723667D01*
X14733571Y-17714143D01*
X14705000Y-17714143D01*
X14685952Y-17723667D01*
X14676428Y-17733190D01*
X14885952Y-17847476D02*
X14866905Y-17837952D01*
X14857381Y-17828429D01*
X14847857Y-17809381D01*
X14847857Y-17752238D01*
X14857381Y-17733190D01*
X14866905Y-17723667D01*
X14885952Y-17714143D01*
X14914524Y-17714143D01*
X14933571Y-17723667D01*
X14943095Y-17733190D01*
X14952619Y-17752238D01*
X14952619Y-17809381D01*
X14943095Y-17828429D01*
X14933571Y-17837952D01*
X14914524Y-17847476D01*
X14885952Y-17847476D01*
X15066905Y-17847476D02*
X15047857Y-17837952D01*
X15038333Y-17818905D01*
X15038333Y-17647476D01*
X15219286Y-17837952D02*
X15200238Y-17847476D01*
X15162143Y-17847476D01*
X15143095Y-17837952D01*
X15133571Y-17818905D01*
X15133571Y-17742714D01*
X15143095Y-17723667D01*
X15162143Y-17714143D01*
X15200238Y-17714143D01*
X15219286Y-17723667D01*
X15228809Y-17742714D01*
X15228809Y-17761762D01*
X15133571Y-17780810D01*
X15305000Y-17837952D02*
X15324048Y-17847476D01*
X15362143Y-17847476D01*
X15381190Y-17837952D01*
X15390714Y-17818905D01*
X15390714Y-17809381D01*
X15381190Y-17790333D01*
X15362143Y-17780810D01*
X15333571Y-17780810D01*
X15314524Y-17771286D01*
X15305000Y-17752238D01*
X15305000Y-17742714D01*
X15314524Y-17723667D01*
X15333571Y-17714143D01*
X15362143Y-17714143D01*
X15381190Y-17723667D01*
X15457381Y-17923667D02*
X15466905Y-17914143D01*
X15485952Y-17885571D01*
X15495476Y-17866524D01*
X15505000Y-17837952D01*
X15514524Y-17790333D01*
X15514524Y-17752238D01*
X15505000Y-17704619D01*
X15495476Y-17676048D01*
X15485952Y-17657000D01*
X15466905Y-17628429D01*
X15457381Y-17618905D01*
X10395000Y-17921000D02*
X10395000Y-18121000D01*
X10295000Y-18021000D02*
X10495000Y-18021000D01*
X10495000Y-18021000D02*
G75*
G03*
X10495000Y-18021000I-100000J0D01*
G01*
X10743095Y-17930524D02*
X10752619Y-17921000D01*
X10771667Y-17911476D01*
X10819286Y-17911476D01*
X10838333Y-17921000D01*
X10847857Y-17930524D01*
X10857381Y-17949571D01*
X10857381Y-17968619D01*
X10847857Y-17997190D01*
X10733571Y-18111476D01*
X10857381Y-18111476D01*
X10943095Y-18092429D02*
X10952619Y-18101952D01*
X10943095Y-18111476D01*
X10933571Y-18101952D01*
X10943095Y-18092429D01*
X10943095Y-18111476D01*
X11019286Y-17911476D02*
X11143095Y-17911476D01*
X11076429Y-17987667D01*
X11105000Y-17987667D01*
X11124048Y-17997190D01*
X11133571Y-18006714D01*
X11143095Y-18025762D01*
X11143095Y-18073381D01*
X11133571Y-18092429D01*
X11124048Y-18101952D01*
X11105000Y-18111476D01*
X11047857Y-18111476D01*
X11028810Y-18101952D01*
X11019286Y-18092429D01*
X11266905Y-17911476D02*
X11285952Y-17911476D01*
X11305000Y-17921000D01*
X11314524Y-17930524D01*
X11324048Y-17949571D01*
X11333571Y-17987667D01*
X11333571Y-18035286D01*
X11324048Y-18073381D01*
X11314524Y-18092429D01*
X11305000Y-18101952D01*
X11285952Y-18111476D01*
X11266905Y-18111476D01*
X11247857Y-18101952D01*
X11238333Y-18092429D01*
X11228809Y-18073381D01*
X11219286Y-18035286D01*
X11219286Y-17987667D01*
X11228809Y-17949571D01*
X11238333Y-17930524D01*
X11247857Y-17921000D01*
X11266905Y-17911476D01*
X11457381Y-17911476D02*
X11476428Y-17911476D01*
X11495476Y-17921000D01*
X11505000Y-17930524D01*
X11514524Y-17949571D01*
X11524048Y-17987667D01*
X11524048Y-18035286D01*
X11514524Y-18073381D01*
X11505000Y-18092429D01*
X11495476Y-18101952D01*
X11476428Y-18111476D01*
X11457381Y-18111476D01*
X11438333Y-18101952D01*
X11428809Y-18092429D01*
X11419286Y-18073381D01*
X11409762Y-18035286D01*
X11409762Y-17987667D01*
X11419286Y-17949571D01*
X11428809Y-17930524D01*
X11438333Y-17921000D01*
X11457381Y-17911476D01*
X11609762Y-18111476D02*
X11609762Y-17978143D01*
X11609762Y-17997190D02*
X11619286Y-17987667D01*
X11638333Y-17978143D01*
X11666905Y-17978143D01*
X11685952Y-17987667D01*
X11695476Y-18006714D01*
X11695476Y-18111476D01*
X11695476Y-18006714D02*
X11705000Y-17987667D01*
X11724048Y-17978143D01*
X11752619Y-17978143D01*
X11771667Y-17987667D01*
X11781190Y-18006714D01*
X11781190Y-18111476D01*
X11876428Y-18111476D02*
X11876428Y-17978143D01*
X11876428Y-17997190D02*
X11885952Y-17987667D01*
X11905000Y-17978143D01*
X11933571Y-17978143D01*
X11952619Y-17987667D01*
X11962143Y-18006714D01*
X11962143Y-18111476D01*
X11962143Y-18006714D02*
X11971667Y-17987667D01*
X11990714Y-17978143D01*
X12019286Y-17978143D01*
X12038333Y-17987667D01*
X12047857Y-18006714D01*
X12047857Y-18111476D01*
X12438333Y-17901952D02*
X12266905Y-18159095D01*
X12695476Y-17911476D02*
X12714524Y-17911476D01*
X12733571Y-17921000D01*
X12743095Y-17930524D01*
X12752619Y-17949571D01*
X12762143Y-17987667D01*
X12762143Y-18035286D01*
X12752619Y-18073381D01*
X12743095Y-18092429D01*
X12733571Y-18101952D01*
X12714524Y-18111476D01*
X12695476Y-18111476D01*
X12676428Y-18101952D01*
X12666905Y-18092429D01*
X12657381Y-18073381D01*
X12647857Y-18035286D01*
X12647857Y-17987667D01*
X12657381Y-17949571D01*
X12666905Y-17930524D01*
X12676428Y-17921000D01*
X12695476Y-17911476D01*
X12847857Y-18092429D02*
X12857381Y-18101952D01*
X12847857Y-18111476D01*
X12838333Y-18101952D01*
X12847857Y-18092429D01*
X12847857Y-18111476D01*
X12981190Y-17911476D02*
X13000238Y-17911476D01*
X13019286Y-17921000D01*
X13028809Y-17930524D01*
X13038333Y-17949571D01*
X13047857Y-17987667D01*
X13047857Y-18035286D01*
X13038333Y-18073381D01*
X13028809Y-18092429D01*
X13019286Y-18101952D01*
X13000238Y-18111476D01*
X12981190Y-18111476D01*
X12962143Y-18101952D01*
X12952619Y-18092429D01*
X12943095Y-18073381D01*
X12933571Y-18035286D01*
X12933571Y-17987667D01*
X12943095Y-17949571D01*
X12952619Y-17930524D01*
X12962143Y-17921000D01*
X12981190Y-17911476D01*
X13143095Y-18111476D02*
X13181190Y-18111476D01*
X13200238Y-18101952D01*
X13209762Y-18092429D01*
X13228809Y-18063857D01*
X13238333Y-18025762D01*
X13238333Y-17949571D01*
X13228809Y-17930524D01*
X13219286Y-17921000D01*
X13200238Y-17911476D01*
X13162143Y-17911476D01*
X13143095Y-17921000D01*
X13133571Y-17930524D01*
X13124048Y-17949571D01*
X13124048Y-17997190D01*
X13133571Y-18016238D01*
X13143095Y-18025762D01*
X13162143Y-18035286D01*
X13200238Y-18035286D01*
X13219286Y-18025762D01*
X13228809Y-18016238D01*
X13238333Y-17997190D01*
X13362143Y-17911476D02*
X13381190Y-17911476D01*
X13400238Y-17921000D01*
X13409762Y-17930524D01*
X13419286Y-17949571D01*
X13428809Y-17987667D01*
X13428809Y-18035286D01*
X13419286Y-18073381D01*
X13409762Y-18092429D01*
X13400238Y-18101952D01*
X13381190Y-18111476D01*
X13362143Y-18111476D01*
X13343095Y-18101952D01*
X13333571Y-18092429D01*
X13324048Y-18073381D01*
X13314524Y-18035286D01*
X13314524Y-17987667D01*
X13324048Y-17949571D01*
X13333571Y-17930524D01*
X13343095Y-17921000D01*
X13362143Y-17911476D01*
X13600238Y-17911476D02*
X13562143Y-17911476D01*
X13543095Y-17921000D01*
X13533571Y-17930524D01*
X13514524Y-17959095D01*
X13505000Y-17997190D01*
X13505000Y-18073381D01*
X13514524Y-18092429D01*
X13524048Y-18101952D01*
X13543095Y-18111476D01*
X13581190Y-18111476D01*
X13600238Y-18101952D01*
X13609762Y-18092429D01*
X13619286Y-18073381D01*
X13619286Y-18025762D01*
X13609762Y-18006714D01*
X13600238Y-17997190D01*
X13581190Y-17987667D01*
X13543095Y-17987667D01*
X13524048Y-17997190D01*
X13514524Y-18006714D01*
X13505000Y-18025762D01*
X13695476Y-17911476D02*
X13695476Y-17949571D01*
X13771667Y-17911476D02*
X13771667Y-17949571D01*
X14066905Y-18187667D02*
X14057381Y-18178143D01*
X14038333Y-18149571D01*
X14028809Y-18130524D01*
X14019286Y-18101952D01*
X14009762Y-18054333D01*
X14009762Y-18016238D01*
X14019286Y-17968619D01*
X14028809Y-17940048D01*
X14038333Y-17921000D01*
X14057381Y-17892429D01*
X14066905Y-17882905D01*
X14228809Y-17978143D02*
X14228809Y-18111476D01*
X14181190Y-17901952D02*
X14133571Y-18044810D01*
X14257381Y-18044810D01*
X14485952Y-18111476D02*
X14485952Y-17911476D01*
X14571667Y-18111476D02*
X14571667Y-18006714D01*
X14562143Y-17987667D01*
X14543095Y-17978143D01*
X14514524Y-17978143D01*
X14495476Y-17987667D01*
X14485952Y-17997190D01*
X14695476Y-18111476D02*
X14676428Y-18101952D01*
X14666905Y-18092429D01*
X14657381Y-18073381D01*
X14657381Y-18016238D01*
X14666905Y-17997190D01*
X14676428Y-17987667D01*
X14695476Y-17978143D01*
X14724048Y-17978143D01*
X14743095Y-17987667D01*
X14752619Y-17997190D01*
X14762143Y-18016238D01*
X14762143Y-18073381D01*
X14752619Y-18092429D01*
X14743095Y-18101952D01*
X14724048Y-18111476D01*
X14695476Y-18111476D01*
X14876428Y-18111476D02*
X14857381Y-18101952D01*
X14847857Y-18082905D01*
X14847857Y-17911476D01*
X15028809Y-18101952D02*
X15009762Y-18111476D01*
X14971667Y-18111476D01*
X14952619Y-18101952D01*
X14943095Y-18082905D01*
X14943095Y-18006714D01*
X14952619Y-17987667D01*
X14971667Y-17978143D01*
X15009762Y-17978143D01*
X15028809Y-17987667D01*
X15038333Y-18006714D01*
X15038333Y-18025762D01*
X14943095Y-18044810D01*
X15114524Y-18101952D02*
X15133571Y-18111476D01*
X15171667Y-18111476D01*
X15190714Y-18101952D01*
X15200238Y-18082905D01*
X15200238Y-18073381D01*
X15190714Y-18054333D01*
X15171667Y-18044810D01*
X15143095Y-18044810D01*
X15124048Y-18035286D01*
X15114524Y-18016238D01*
X15114524Y-18006714D01*
X15124048Y-17987667D01*
X15143095Y-17978143D01*
X15171667Y-17978143D01*
X15190714Y-17987667D01*
X15266905Y-18187667D02*
X15276428Y-18178143D01*
X15295476Y-18149571D01*
X15305000Y-18130524D01*
X15314524Y-18101952D01*
X15324048Y-18054333D01*
X15324048Y-18016238D01*
X15314524Y-17968619D01*
X15305000Y-17940048D01*
X15295476Y-17921000D01*
X15276428Y-17892429D01*
X15266905Y-17882905D01*
X10465711Y-18411711D02*
X10465711Y-18270289D01*
X10324289Y-18270289D01*
X10324289Y-18411711D01*
X10465711Y-18411711D01*
X10495000Y-18341000D02*
G75*
G03*
X10495000Y-18341000I-100000J0D01*
G01*
X10733571Y-18231476D02*
X10857381Y-18231476D01*
X10790714Y-18307667D01*
X10819286Y-18307667D01*
X10838333Y-18317190D01*
X10847857Y-18326714D01*
X10857381Y-18345762D01*
X10857381Y-18393381D01*
X10847857Y-18412429D01*
X10838333Y-18421952D01*
X10819286Y-18431476D01*
X10762143Y-18431476D01*
X10743095Y-18421952D01*
X10733571Y-18412429D01*
X10943095Y-18412429D02*
X10952619Y-18421952D01*
X10943095Y-18431476D01*
X10933571Y-18421952D01*
X10943095Y-18412429D01*
X10943095Y-18431476D01*
X11028810Y-18250524D02*
X11038333Y-18241000D01*
X11057381Y-18231476D01*
X11105000Y-18231476D01*
X11124048Y-18241000D01*
X11133571Y-18250524D01*
X11143095Y-18269571D01*
X11143095Y-18288619D01*
X11133571Y-18317190D01*
X11019286Y-18431476D01*
X11143095Y-18431476D01*
X11266905Y-18231476D02*
X11285952Y-18231476D01*
X11305000Y-18241000D01*
X11314524Y-18250524D01*
X11324048Y-18269571D01*
X11333571Y-18307667D01*
X11333571Y-18355286D01*
X11324048Y-18393381D01*
X11314524Y-18412429D01*
X11305000Y-18421952D01*
X11285952Y-18431476D01*
X11266905Y-18431476D01*
X11247857Y-18421952D01*
X11238333Y-18412429D01*
X11228809Y-18393381D01*
X11219286Y-18355286D01*
X11219286Y-18307667D01*
X11228809Y-18269571D01*
X11238333Y-18250524D01*
X11247857Y-18241000D01*
X11266905Y-18231476D01*
X11457381Y-18231476D02*
X11476428Y-18231476D01*
X11495476Y-18241000D01*
X11505000Y-18250524D01*
X11514524Y-18269571D01*
X11524048Y-18307667D01*
X11524048Y-18355286D01*
X11514524Y-18393381D01*
X11505000Y-18412429D01*
X11495476Y-18421952D01*
X11476428Y-18431476D01*
X11457381Y-18431476D01*
X11438333Y-18421952D01*
X11428809Y-18412429D01*
X11419286Y-18393381D01*
X11409762Y-18355286D01*
X11409762Y-18307667D01*
X11419286Y-18269571D01*
X11428809Y-18250524D01*
X11438333Y-18241000D01*
X11457381Y-18231476D01*
X11609762Y-18431476D02*
X11609762Y-18298143D01*
X11609762Y-18317190D02*
X11619286Y-18307667D01*
X11638333Y-18298143D01*
X11666905Y-18298143D01*
X11685952Y-18307667D01*
X11695476Y-18326714D01*
X11695476Y-18431476D01*
X11695476Y-18326714D02*
X11705000Y-18307667D01*
X11724048Y-18298143D01*
X11752619Y-18298143D01*
X11771667Y-18307667D01*
X11781190Y-18326714D01*
X11781190Y-18431476D01*
X11876428Y-18431476D02*
X11876428Y-18298143D01*
X11876428Y-18317190D02*
X11885952Y-18307667D01*
X11905000Y-18298143D01*
X11933571Y-18298143D01*
X11952619Y-18307667D01*
X11962143Y-18326714D01*
X11962143Y-18431476D01*
X11962143Y-18326714D02*
X11971667Y-18307667D01*
X11990714Y-18298143D01*
X12019286Y-18298143D01*
X12038333Y-18307667D01*
X12047857Y-18326714D01*
X12047857Y-18431476D01*
X12438333Y-18221952D02*
X12266905Y-18479095D01*
X12695476Y-18231476D02*
X12714524Y-18231476D01*
X12733571Y-18241000D01*
X12743095Y-18250524D01*
X12752619Y-18269571D01*
X12762143Y-18307667D01*
X12762143Y-18355286D01*
X12752619Y-18393381D01*
X12743095Y-18412429D01*
X12733571Y-18421952D01*
X12714524Y-18431476D01*
X12695476Y-18431476D01*
X12676428Y-18421952D01*
X12666905Y-18412429D01*
X12657381Y-18393381D01*
X12647857Y-18355286D01*
X12647857Y-18307667D01*
X12657381Y-18269571D01*
X12666905Y-18250524D01*
X12676428Y-18241000D01*
X12695476Y-18231476D01*
X12847857Y-18412429D02*
X12857381Y-18421952D01*
X12847857Y-18431476D01*
X12838333Y-18421952D01*
X12847857Y-18412429D01*
X12847857Y-18431476D01*
X13047857Y-18431476D02*
X12933571Y-18431476D01*
X12990714Y-18431476D02*
X12990714Y-18231476D01*
X12971667Y-18260048D01*
X12952619Y-18279095D01*
X12933571Y-18288619D01*
X13124048Y-18250524D02*
X13133571Y-18241000D01*
X13152619Y-18231476D01*
X13200238Y-18231476D01*
X13219286Y-18241000D01*
X13228809Y-18250524D01*
X13238333Y-18269571D01*
X13238333Y-18288619D01*
X13228809Y-18317190D01*
X13114524Y-18431476D01*
X13238333Y-18431476D01*
X13409762Y-18231476D02*
X13371667Y-18231476D01*
X13352619Y-18241000D01*
X13343095Y-18250524D01*
X13324048Y-18279095D01*
X13314524Y-18317190D01*
X13314524Y-18393381D01*
X13324048Y-18412429D01*
X13333571Y-18421952D01*
X13352619Y-18431476D01*
X13390714Y-18431476D01*
X13409762Y-18421952D01*
X13419286Y-18412429D01*
X13428809Y-18393381D01*
X13428809Y-18345762D01*
X13419286Y-18326714D01*
X13409762Y-18317190D01*
X13390714Y-18307667D01*
X13352619Y-18307667D01*
X13333571Y-18317190D01*
X13324048Y-18326714D01*
X13314524Y-18345762D01*
X13552619Y-18231476D02*
X13571667Y-18231476D01*
X13590714Y-18241000D01*
X13600238Y-18250524D01*
X13609762Y-18269571D01*
X13619286Y-18307667D01*
X13619286Y-18355286D01*
X13609762Y-18393381D01*
X13600238Y-18412429D01*
X13590714Y-18421952D01*
X13571667Y-18431476D01*
X13552619Y-18431476D01*
X13533571Y-18421952D01*
X13524048Y-18412429D01*
X13514524Y-18393381D01*
X13505000Y-18355286D01*
X13505000Y-18307667D01*
X13514524Y-18269571D01*
X13524048Y-18250524D01*
X13533571Y-18241000D01*
X13552619Y-18231476D01*
X13695476Y-18231476D02*
X13695476Y-18269571D01*
X13771667Y-18231476D02*
X13771667Y-18269571D01*
X14066905Y-18507667D02*
X14057381Y-18498143D01*
X14038333Y-18469571D01*
X14028809Y-18450524D01*
X14019286Y-18421952D01*
X14009762Y-18374333D01*
X14009762Y-18336238D01*
X14019286Y-18288619D01*
X14028809Y-18260048D01*
X14038333Y-18241000D01*
X14057381Y-18212429D01*
X14066905Y-18202905D01*
X14228809Y-18298143D02*
X14228809Y-18431476D01*
X14181190Y-18221952D02*
X14133571Y-18364810D01*
X14257381Y-18364810D01*
X14485952Y-18431476D02*
X14485952Y-18231476D01*
X14571667Y-18431476D02*
X14571667Y-18326714D01*
X14562143Y-18307667D01*
X14543095Y-18298143D01*
X14514524Y-18298143D01*
X14495476Y-18307667D01*
X14485952Y-18317190D01*
X14695476Y-18431476D02*
X14676428Y-18421952D01*
X14666905Y-18412429D01*
X14657381Y-18393381D01*
X14657381Y-18336238D01*
X14666905Y-18317190D01*
X14676428Y-18307667D01*
X14695476Y-18298143D01*
X14724048Y-18298143D01*
X14743095Y-18307667D01*
X14752619Y-18317190D01*
X14762143Y-18336238D01*
X14762143Y-18393381D01*
X14752619Y-18412429D01*
X14743095Y-18421952D01*
X14724048Y-18431476D01*
X14695476Y-18431476D01*
X14876428Y-18431476D02*
X14857381Y-18421952D01*
X14847857Y-18402905D01*
X14847857Y-18231476D01*
X15028809Y-18421952D02*
X15009762Y-18431476D01*
X14971667Y-18431476D01*
X14952619Y-18421952D01*
X14943095Y-18402905D01*
X14943095Y-18326714D01*
X14952619Y-18307667D01*
X14971667Y-18298143D01*
X15009762Y-18298143D01*
X15028809Y-18307667D01*
X15038333Y-18326714D01*
X15038333Y-18345762D01*
X14943095Y-18364810D01*
X15114524Y-18421952D02*
X15133571Y-18431476D01*
X15171667Y-18431476D01*
X15190714Y-18421952D01*
X15200238Y-18402905D01*
X15200238Y-18393381D01*
X15190714Y-18374333D01*
X15171667Y-18364810D01*
X15143095Y-18364810D01*
X15124048Y-18355286D01*
X15114524Y-18336238D01*
X15114524Y-18326714D01*
X15124048Y-18307667D01*
X15143095Y-18298143D01*
X15171667Y-18298143D01*
X15190714Y-18307667D01*
X15266905Y-18507667D02*
X15276428Y-18498143D01*
X15295476Y-18469571D01*
X15305000Y-18450524D01*
X15314524Y-18421952D01*
X15324048Y-18374333D01*
X15324048Y-18336238D01*
X15314524Y-18288619D01*
X15305000Y-18260048D01*
X15295476Y-18241000D01*
X15276428Y-18212429D01*
X15266905Y-18202905D01*
X10395000Y-18761000D02*
X10495000Y-18661000D01*
X10395000Y-18561000D01*
X10295000Y-18661000D01*
X10395000Y-18761000D01*
X10495000Y-18661000D02*
G75*
G03*
X10495000Y-18661000I-100000J0D01*
G01*
X10733571Y-18551476D02*
X10857381Y-18551476D01*
X10790714Y-18627667D01*
X10819286Y-18627667D01*
X10838333Y-18637190D01*
X10847857Y-18646714D01*
X10857381Y-18665762D01*
X10857381Y-18713381D01*
X10847857Y-18732429D01*
X10838333Y-18741952D01*
X10819286Y-18751476D01*
X10762143Y-18751476D01*
X10743095Y-18741952D01*
X10733571Y-18732429D01*
X10943095Y-18732429D02*
X10952619Y-18741952D01*
X10943095Y-18751476D01*
X10933571Y-18741952D01*
X10943095Y-18732429D01*
X10943095Y-18751476D01*
X11133571Y-18551476D02*
X11038333Y-18551476D01*
X11028810Y-18646714D01*
X11038333Y-18637190D01*
X11057381Y-18627667D01*
X11105000Y-18627667D01*
X11124048Y-18637190D01*
X11133571Y-18646714D01*
X11143095Y-18665762D01*
X11143095Y-18713381D01*
X11133571Y-18732429D01*
X11124048Y-18741952D01*
X11105000Y-18751476D01*
X11057381Y-18751476D01*
X11038333Y-18741952D01*
X11028810Y-18732429D01*
X11266905Y-18551476D02*
X11285952Y-18551476D01*
X11305000Y-18561000D01*
X11314524Y-18570524D01*
X11324048Y-18589571D01*
X11333571Y-18627667D01*
X11333571Y-18675286D01*
X11324048Y-18713381D01*
X11314524Y-18732429D01*
X11305000Y-18741952D01*
X11285952Y-18751476D01*
X11266905Y-18751476D01*
X11247857Y-18741952D01*
X11238333Y-18732429D01*
X11228809Y-18713381D01*
X11219286Y-18675286D01*
X11219286Y-18627667D01*
X11228809Y-18589571D01*
X11238333Y-18570524D01*
X11247857Y-18561000D01*
X11266905Y-18551476D01*
X11457381Y-18551476D02*
X11476428Y-18551476D01*
X11495476Y-18561000D01*
X11505000Y-18570524D01*
X11514524Y-18589571D01*
X11524048Y-18627667D01*
X11524048Y-18675286D01*
X11514524Y-18713381D01*
X11505000Y-18732429D01*
X11495476Y-18741952D01*
X11476428Y-18751476D01*
X11457381Y-18751476D01*
X11438333Y-18741952D01*
X11428809Y-18732429D01*
X11419286Y-18713381D01*
X11409762Y-18675286D01*
X11409762Y-18627667D01*
X11419286Y-18589571D01*
X11428809Y-18570524D01*
X11438333Y-18561000D01*
X11457381Y-18551476D01*
X11609762Y-18751476D02*
X11609762Y-18618143D01*
X11609762Y-18637190D02*
X11619286Y-18627667D01*
X11638333Y-18618143D01*
X11666905Y-18618143D01*
X11685952Y-18627667D01*
X11695476Y-18646714D01*
X11695476Y-18751476D01*
X11695476Y-18646714D02*
X11705000Y-18627667D01*
X11724048Y-18618143D01*
X11752619Y-18618143D01*
X11771667Y-18627667D01*
X11781190Y-18646714D01*
X11781190Y-18751476D01*
X11876428Y-18751476D02*
X11876428Y-18618143D01*
X11876428Y-18637190D02*
X11885952Y-18627667D01*
X11905000Y-18618143D01*
X11933571Y-18618143D01*
X11952619Y-18627667D01*
X11962143Y-18646714D01*
X11962143Y-18751476D01*
X11962143Y-18646714D02*
X11971667Y-18627667D01*
X11990714Y-18618143D01*
X12019286Y-18618143D01*
X12038333Y-18627667D01*
X12047857Y-18646714D01*
X12047857Y-18751476D01*
X12438333Y-18541952D02*
X12266905Y-18799095D01*
X12695476Y-18551476D02*
X12714524Y-18551476D01*
X12733571Y-18561000D01*
X12743095Y-18570524D01*
X12752619Y-18589571D01*
X12762143Y-18627667D01*
X12762143Y-18675286D01*
X12752619Y-18713381D01*
X12743095Y-18732429D01*
X12733571Y-18741952D01*
X12714524Y-18751476D01*
X12695476Y-18751476D01*
X12676428Y-18741952D01*
X12666905Y-18732429D01*
X12657381Y-18713381D01*
X12647857Y-18675286D01*
X12647857Y-18627667D01*
X12657381Y-18589571D01*
X12666905Y-18570524D01*
X12676428Y-18561000D01*
X12695476Y-18551476D01*
X12847857Y-18732429D02*
X12857381Y-18741952D01*
X12847857Y-18751476D01*
X12838333Y-18741952D01*
X12847857Y-18732429D01*
X12847857Y-18751476D01*
X13047857Y-18751476D02*
X12933571Y-18751476D01*
X12990714Y-18751476D02*
X12990714Y-18551476D01*
X12971667Y-18580048D01*
X12952619Y-18599095D01*
X12933571Y-18608619D01*
X13114524Y-18551476D02*
X13238333Y-18551476D01*
X13171667Y-18627667D01*
X13200238Y-18627667D01*
X13219286Y-18637190D01*
X13228809Y-18646714D01*
X13238333Y-18665762D01*
X13238333Y-18713381D01*
X13228809Y-18732429D01*
X13219286Y-18741952D01*
X13200238Y-18751476D01*
X13143095Y-18751476D01*
X13124048Y-18741952D01*
X13114524Y-18732429D01*
X13305000Y-18551476D02*
X13438333Y-18551476D01*
X13352619Y-18751476D01*
X13543095Y-18637190D02*
X13524048Y-18627667D01*
X13514524Y-18618143D01*
X13505000Y-18599095D01*
X13505000Y-18589571D01*
X13514524Y-18570524D01*
X13524048Y-18561000D01*
X13543095Y-18551476D01*
X13581190Y-18551476D01*
X13600238Y-18561000D01*
X13609762Y-18570524D01*
X13619286Y-18589571D01*
X13619286Y-18599095D01*
X13609762Y-18618143D01*
X13600238Y-18627667D01*
X13581190Y-18637190D01*
X13543095Y-18637190D01*
X13524048Y-18646714D01*
X13514524Y-18656238D01*
X13505000Y-18675286D01*
X13505000Y-18713381D01*
X13514524Y-18732429D01*
X13524048Y-18741952D01*
X13543095Y-18751476D01*
X13581190Y-18751476D01*
X13600238Y-18741952D01*
X13609762Y-18732429D01*
X13619286Y-18713381D01*
X13619286Y-18675286D01*
X13609762Y-18656238D01*
X13600238Y-18646714D01*
X13581190Y-18637190D01*
X13695476Y-18551476D02*
X13695476Y-18589571D01*
X13771667Y-18551476D02*
X13771667Y-18589571D01*
X14066905Y-18827667D02*
X14057381Y-18818143D01*
X14038333Y-18789571D01*
X14028809Y-18770524D01*
X14019286Y-18741952D01*
X14009762Y-18694333D01*
X14009762Y-18656238D01*
X14019286Y-18608619D01*
X14028809Y-18580048D01*
X14038333Y-18561000D01*
X14057381Y-18532429D01*
X14066905Y-18522905D01*
X14238333Y-18551476D02*
X14143095Y-18551476D01*
X14133571Y-18646714D01*
X14143095Y-18637190D01*
X14162143Y-18627667D01*
X14209762Y-18627667D01*
X14228809Y-18637190D01*
X14238333Y-18646714D01*
X14247857Y-18665762D01*
X14247857Y-18713381D01*
X14238333Y-18732429D01*
X14228809Y-18741952D01*
X14209762Y-18751476D01*
X14162143Y-18751476D01*
X14143095Y-18741952D01*
X14133571Y-18732429D01*
X14485952Y-18751476D02*
X14485952Y-18551476D01*
X14571667Y-18751476D02*
X14571667Y-18646714D01*
X14562143Y-18627667D01*
X14543095Y-18618143D01*
X14514524Y-18618143D01*
X14495476Y-18627667D01*
X14485952Y-18637190D01*
X14695476Y-18751476D02*
X14676428Y-18741952D01*
X14666905Y-18732429D01*
X14657381Y-18713381D01*
X14657381Y-18656238D01*
X14666905Y-18637190D01*
X14676428Y-18627667D01*
X14695476Y-18618143D01*
X14724048Y-18618143D01*
X14743095Y-18627667D01*
X14752619Y-18637190D01*
X14762143Y-18656238D01*
X14762143Y-18713381D01*
X14752619Y-18732429D01*
X14743095Y-18741952D01*
X14724048Y-18751476D01*
X14695476Y-18751476D01*
X14876428Y-18751476D02*
X14857381Y-18741952D01*
X14847857Y-18722905D01*
X14847857Y-18551476D01*
X15028809Y-18741952D02*
X15009762Y-18751476D01*
X14971667Y-18751476D01*
X14952619Y-18741952D01*
X14943095Y-18722905D01*
X14943095Y-18646714D01*
X14952619Y-18627667D01*
X14971667Y-18618143D01*
X15009762Y-18618143D01*
X15028809Y-18627667D01*
X15038333Y-18646714D01*
X15038333Y-18665762D01*
X14943095Y-18684810D01*
X15114524Y-18741952D02*
X15133571Y-18751476D01*
X15171667Y-18751476D01*
X15190714Y-18741952D01*
X15200238Y-18722905D01*
X15200238Y-18713381D01*
X15190714Y-18694333D01*
X15171667Y-18684810D01*
X15143095Y-18684810D01*
X15124048Y-18675286D01*
X15114524Y-18656238D01*
X15114524Y-18646714D01*
X15124048Y-18627667D01*
X15143095Y-18618143D01*
X15171667Y-18618143D01*
X15190714Y-18627667D01*
X15266905Y-18827667D02*
X15276428Y-18818143D01*
X15295476Y-18789571D01*
X15305000Y-18770524D01*
X15314524Y-18741952D01*
X15324048Y-18694333D01*
X15324048Y-18656238D01*
X15314524Y-18608619D01*
X15305000Y-18580048D01*
X15295476Y-18561000D01*
X15276428Y-18532429D01*
X15266905Y-18522905D01*
M02*
