G04 #@! TF.GenerationSoftware,KiCad,Pcbnew,6.0.5+dfsg-1~bpo11+1*
G04 #@! TF.ProjectId,maglock,6d61676c-6f63-46b2-9e6b-696361645f70,2.0*
G04 #@! TF.SameCoordinates,Original*
G04 #@! TF.FileFunction,Legend,Bot*
G04 #@! TF.FilePolarity,Positive*
%FSLAX46Y46*%
G04 Gerber Fmt 4.6, Leading zero omitted, Abs format (unit mm)*
%MOMM*%
%LPD*%
G01*
G04 APERTURE LIST*
%ADD10C,0.150000*%
%ADD11C,0.300000*%
%ADD12C,0.750000*%
%ADD13C,2.000000*%
%ADD14C,3.000000*%
%ADD15R,1.700000X1.700000*%
%ADD16O,1.700000X1.700000*%
%ADD17C,0.770000*%
%ADD18R,2.400000X2.400000*%
%ADD19C,2.400000*%
%ADD20C,1.440000*%
%ADD21C,0.800000*%
%ADD22C,7.000000*%
%ADD23C,0.650000*%
%ADD24O,1.000000X2.100000*%
%ADD25O,1.000000X1.600000*%
%ADD26R,1.600000X1.600000*%
%ADD27C,1.600000*%
%ADD28R,1.500000X1.500000*%
%ADD29C,1.500000*%
%ADD30C,5.500000*%
%ADD31C,1.700000*%
G04 APERTURE END LIST*
D10*
X114000000Y-81000000D02*
X138000000Y-81000000D01*
X138000000Y-81000000D02*
X138000000Y-87000000D01*
X138000000Y-87000000D02*
X114000000Y-87000000D01*
X114000000Y-87000000D02*
X114000000Y-81000000D01*
G36*
X114000000Y-81000000D02*
G01*
X138000000Y-81000000D01*
X138000000Y-87000000D01*
X114000000Y-87000000D01*
X114000000Y-81000000D01*
G37*
X114000000Y-72000000D02*
X132000000Y-72000000D01*
X132000000Y-72000000D02*
X132000000Y-78000000D01*
X132000000Y-78000000D02*
X114000000Y-78000000D01*
X114000000Y-78000000D02*
X114000000Y-72000000D01*
G36*
X114000000Y-72000000D02*
G01*
X132000000Y-72000000D01*
X132000000Y-78000000D01*
X114000000Y-78000000D01*
X114000000Y-72000000D01*
G37*
X201452380Y-64385714D02*
X201452380Y-63909523D01*
X200452380Y-63909523D01*
X200452380Y-64909523D02*
X200452380Y-65100000D01*
X200500000Y-65195238D01*
X200595238Y-65290476D01*
X200785714Y-65338095D01*
X201119047Y-65338095D01*
X201309523Y-65290476D01*
X201404761Y-65195238D01*
X201452380Y-65100000D01*
X201452380Y-64909523D01*
X201404761Y-64814285D01*
X201309523Y-64719047D01*
X201119047Y-64671428D01*
X200785714Y-64671428D01*
X200595238Y-64719047D01*
X200500000Y-64814285D01*
X200452380Y-64909523D01*
X201357142Y-66338095D02*
X201404761Y-66290476D01*
X201452380Y-66147619D01*
X201452380Y-66052380D01*
X201404761Y-65909523D01*
X201309523Y-65814285D01*
X201214285Y-65766666D01*
X201023809Y-65719047D01*
X200880952Y-65719047D01*
X200690476Y-65766666D01*
X200595238Y-65814285D01*
X200500000Y-65909523D01*
X200452380Y-66052380D01*
X200452380Y-66147619D01*
X200500000Y-66290476D01*
X200547619Y-66338095D01*
X201452380Y-66766666D02*
X200452380Y-66766666D01*
X201452380Y-67338095D02*
X200880952Y-66909523D01*
X200452380Y-67338095D02*
X201023809Y-66766666D01*
X201404761Y-119966666D02*
X201452380Y-120109523D01*
X201452380Y-120347619D01*
X201404761Y-120442857D01*
X201357142Y-120490476D01*
X201261904Y-120538095D01*
X201166666Y-120538095D01*
X201071428Y-120490476D01*
X201023809Y-120442857D01*
X200976190Y-120347619D01*
X200928571Y-120157142D01*
X200880952Y-120061904D01*
X200833333Y-120014285D01*
X200738095Y-119966666D01*
X200642857Y-119966666D01*
X200547619Y-120014285D01*
X200500000Y-120061904D01*
X200452380Y-120157142D01*
X200452380Y-120395238D01*
X200500000Y-120538095D01*
X200452380Y-120871428D02*
X201452380Y-121109523D01*
X200738095Y-121300000D01*
X201452380Y-121490476D01*
X200452380Y-121728571D01*
X200547619Y-122061904D02*
X200500000Y-122109523D01*
X200452380Y-122204761D01*
X200452380Y-122442857D01*
X200500000Y-122538095D01*
X200547619Y-122585714D01*
X200642857Y-122633333D01*
X200738095Y-122633333D01*
X200880952Y-122585714D01*
X201452380Y-122014285D01*
X201452380Y-122633333D01*
D11*
X113228809Y-62044142D02*
X111705000Y-62044142D01*
X112466904Y-62882238D02*
X112466904Y-61206047D01*
X113228809Y-65586142D02*
X111705000Y-65586142D01*
X112466904Y-66424238D02*
X112466904Y-64748047D01*
X113228809Y-69128142D02*
X111705000Y-69128142D01*
X113228809Y-72670142D02*
X111705000Y-72670142D01*
D10*
X196364404Y-110969614D02*
X195602500Y-110969614D01*
X195983452Y-111373423D02*
X195983452Y-110565804D01*
X196364404Y-114382814D02*
X195602500Y-114382814D01*
X196364404Y-119502614D02*
X195602500Y-119502614D01*
X195983452Y-119906423D02*
X195983452Y-119098804D01*
X196364404Y-122915814D02*
X195602500Y-122915814D01*
X196364404Y-128035614D02*
X195602500Y-128035614D01*
X195983452Y-128439423D02*
X195983452Y-127631804D01*
X196364404Y-131448814D02*
X195602500Y-131448814D01*
X196364404Y-136568614D02*
X195602500Y-136568614D01*
X195983452Y-136972423D02*
X195983452Y-136164804D01*
X196364404Y-139981814D02*
X195602500Y-139981814D01*
X201404761Y-136966666D02*
X201452380Y-137109523D01*
X201452380Y-137347619D01*
X201404761Y-137442857D01*
X201357142Y-137490476D01*
X201261904Y-137538095D01*
X201166666Y-137538095D01*
X201071428Y-137490476D01*
X201023809Y-137442857D01*
X200976190Y-137347619D01*
X200928571Y-137157142D01*
X200880952Y-137061904D01*
X200833333Y-137014285D01*
X200738095Y-136966666D01*
X200642857Y-136966666D01*
X200547619Y-137014285D01*
X200500000Y-137061904D01*
X200452380Y-137157142D01*
X200452380Y-137395238D01*
X200500000Y-137538095D01*
X200452380Y-137871428D02*
X201452380Y-138109523D01*
X200738095Y-138300000D01*
X201452380Y-138490476D01*
X200452380Y-138728571D01*
X200785714Y-139538095D02*
X201452380Y-139538095D01*
X200404761Y-139300000D02*
X201119047Y-139061904D01*
X201119047Y-139680952D01*
X201404761Y-111366666D02*
X201452380Y-111509523D01*
X201452380Y-111747619D01*
X201404761Y-111842857D01*
X201357142Y-111890476D01*
X201261904Y-111938095D01*
X201166666Y-111938095D01*
X201071428Y-111890476D01*
X201023809Y-111842857D01*
X200976190Y-111747619D01*
X200928571Y-111557142D01*
X200880952Y-111461904D01*
X200833333Y-111414285D01*
X200738095Y-111366666D01*
X200642857Y-111366666D01*
X200547619Y-111414285D01*
X200500000Y-111461904D01*
X200452380Y-111557142D01*
X200452380Y-111795238D01*
X200500000Y-111938095D01*
X200452380Y-112271428D02*
X201452380Y-112509523D01*
X200738095Y-112700000D01*
X201452380Y-112890476D01*
X200452380Y-113128571D01*
X201452380Y-114033333D02*
X201452380Y-113461904D01*
X201452380Y-113747619D02*
X200452380Y-113747619D01*
X200595238Y-113652380D01*
X200690476Y-113557142D01*
X200738095Y-113461904D01*
D12*
X143214285Y-85357142D02*
X143214285Y-82357142D01*
X141785714Y-85357142D02*
X141785714Y-82357142D01*
X141071428Y-82357142D01*
X140642857Y-82500000D01*
X140357142Y-82785714D01*
X140214285Y-83071428D01*
X140071428Y-83642857D01*
X140071428Y-84071428D01*
X140214285Y-84642857D01*
X140357142Y-84928571D01*
X140642857Y-85214285D01*
X141071428Y-85357142D01*
X141785714Y-85357142D01*
X138785714Y-85071428D02*
X138642857Y-85214285D01*
X138785714Y-85357142D01*
X138928571Y-85214285D01*
X138785714Y-85071428D01*
X138785714Y-85357142D01*
X138785714Y-83500000D02*
X138642857Y-83642857D01*
X138785714Y-83785714D01*
X138928571Y-83642857D01*
X138785714Y-83500000D01*
X138785714Y-83785714D01*
D10*
X118981000Y-133340595D02*
X119047666Y-133435833D01*
X119047666Y-133578690D01*
X118981000Y-133721547D01*
X118847666Y-133816785D01*
X118714333Y-133864404D01*
X118447666Y-133912023D01*
X118247666Y-133912023D01*
X117981000Y-133864404D01*
X117847666Y-133816785D01*
X117714333Y-133721547D01*
X117647666Y-133578690D01*
X117647666Y-133483452D01*
X117714333Y-133340595D01*
X117781000Y-133292976D01*
X118247666Y-133292976D01*
X118247666Y-133483452D01*
X117647666Y-132864404D02*
X119047666Y-132864404D01*
X117647666Y-132292976D01*
X119047666Y-132292976D01*
X115393666Y-133864404D02*
X116793666Y-133864404D01*
X116793666Y-133626309D01*
X116727000Y-133483452D01*
X116593666Y-133388214D01*
X116460333Y-133340595D01*
X116193666Y-133292976D01*
X115993666Y-133292976D01*
X115727000Y-133340595D01*
X115593666Y-133388214D01*
X115460333Y-133483452D01*
X115393666Y-133626309D01*
X115393666Y-133864404D01*
X115927000Y-132864404D02*
X115927000Y-132102500D01*
X115393666Y-132483452D02*
X116460333Y-132483452D01*
X113139666Y-133864404D02*
X114539666Y-133864404D01*
X114539666Y-133626309D01*
X114473000Y-133483452D01*
X114339666Y-133388214D01*
X114206333Y-133340595D01*
X113939666Y-133292976D01*
X113739666Y-133292976D01*
X113473000Y-133340595D01*
X113339666Y-133388214D01*
X113206333Y-133483452D01*
X113139666Y-133626309D01*
X113139666Y-133864404D01*
X113673000Y-132864404D02*
X113673000Y-132102500D01*
X112285666Y-134007261D02*
X110885666Y-133673928D01*
X112285666Y-133340595D01*
X110952333Y-132578690D02*
X110885666Y-132673928D01*
X110885666Y-132864404D01*
X110952333Y-132959642D01*
X111019000Y-133007261D01*
X111152333Y-133054880D01*
X111552333Y-133054880D01*
X111685666Y-133007261D01*
X111752333Y-132959642D01*
X111819000Y-132864404D01*
X111819000Y-132673928D01*
X111752333Y-132578690D01*
X196707261Y-61434559D02*
X196373928Y-62509559D01*
X196040595Y-61434559D01*
X195278690Y-62458369D02*
X195373928Y-62509559D01*
X195564404Y-62509559D01*
X195659642Y-62458369D01*
X195707261Y-62407178D01*
X195754880Y-62304797D01*
X195754880Y-61997654D01*
X195707261Y-61895273D01*
X195659642Y-61844083D01*
X195564404Y-61792892D01*
X195373928Y-61792892D01*
X195278690Y-61844083D01*
X194421547Y-62458369D02*
X194516785Y-62509559D01*
X194707261Y-62509559D01*
X194802500Y-62458369D01*
X194850119Y-62407178D01*
X194897738Y-62304797D01*
X194897738Y-61997654D01*
X194850119Y-61895273D01*
X194802500Y-61844083D01*
X194707261Y-61792892D01*
X194516785Y-61792892D01*
X194421547Y-61844083D01*
X196612023Y-65919869D02*
X196469166Y-65971059D01*
X196231071Y-65971059D01*
X196135833Y-65919869D01*
X196088214Y-65868678D01*
X196040595Y-65766297D01*
X196040595Y-65663916D01*
X196088214Y-65561535D01*
X196135833Y-65510345D01*
X196231071Y-65459154D01*
X196421547Y-65407964D01*
X196516785Y-65356773D01*
X196564404Y-65305583D01*
X196612023Y-65203202D01*
X196612023Y-65100821D01*
X196564404Y-64998440D01*
X196516785Y-64947250D01*
X196421547Y-64896059D01*
X196183452Y-64896059D01*
X196040595Y-64947250D01*
X195707261Y-64896059D02*
X195469166Y-65971059D01*
X195278690Y-65203202D01*
X195088214Y-65971059D01*
X194850119Y-64896059D01*
X196040595Y-68408750D02*
X196135833Y-68357559D01*
X196278690Y-68357559D01*
X196421547Y-68408750D01*
X196516785Y-68511130D01*
X196564404Y-68613511D01*
X196612023Y-68818273D01*
X196612023Y-68971845D01*
X196564404Y-69176607D01*
X196516785Y-69278988D01*
X196421547Y-69381369D01*
X196278690Y-69432559D01*
X196183452Y-69432559D01*
X196040595Y-69381369D01*
X195992976Y-69330178D01*
X195992976Y-68971845D01*
X196183452Y-68971845D01*
X195564404Y-69432559D02*
X195564404Y-68357559D01*
X194992976Y-69432559D01*
X194992976Y-68357559D01*
X194516785Y-69432559D02*
X194516785Y-68357559D01*
X194278690Y-68357559D01*
X194135833Y-68408750D01*
X194040595Y-68511130D01*
X193992976Y-68613511D01*
X193945357Y-68818273D01*
X193945357Y-68971845D01*
X193992976Y-69176607D01*
X194040595Y-69278988D01*
X194135833Y-69381369D01*
X194278690Y-69432559D01*
X194516785Y-69432559D01*
X196707261Y-73549809D02*
X196373928Y-74624809D01*
X196040595Y-73549809D01*
X195278690Y-74573619D02*
X195373928Y-74624809D01*
X195564404Y-74624809D01*
X195659642Y-74573619D01*
X195707261Y-74522428D01*
X195754880Y-74420047D01*
X195754880Y-74112904D01*
X195707261Y-74010523D01*
X195659642Y-73959333D01*
X195564404Y-73908142D01*
X195373928Y-73908142D01*
X195278690Y-73959333D01*
X194421547Y-74573619D02*
X194516785Y-74624809D01*
X194707261Y-74624809D01*
X194802500Y-74573619D01*
X194850119Y-74522428D01*
X194897738Y-74420047D01*
X194897738Y-74112904D01*
X194850119Y-74010523D01*
X194802500Y-73959333D01*
X194707261Y-73908142D01*
X194516785Y-73908142D01*
X194421547Y-73959333D01*
X196612023Y-78035119D02*
X196469166Y-78086309D01*
X196231071Y-78086309D01*
X196135833Y-78035119D01*
X196088214Y-77983928D01*
X196040595Y-77881547D01*
X196040595Y-77779166D01*
X196088214Y-77676785D01*
X196135833Y-77625595D01*
X196231071Y-77574404D01*
X196421547Y-77523214D01*
X196516785Y-77472023D01*
X196564404Y-77420833D01*
X196612023Y-77318452D01*
X196612023Y-77216071D01*
X196564404Y-77113690D01*
X196516785Y-77062500D01*
X196421547Y-77011309D01*
X196183452Y-77011309D01*
X196040595Y-77062500D01*
X195707261Y-77011309D02*
X195469166Y-78086309D01*
X195278690Y-77318452D01*
X195088214Y-78086309D01*
X194850119Y-77011309D01*
X196040595Y-80524000D02*
X196135833Y-80472809D01*
X196278690Y-80472809D01*
X196421547Y-80524000D01*
X196516785Y-80626380D01*
X196564404Y-80728761D01*
X196612023Y-80933523D01*
X196612023Y-81087095D01*
X196564404Y-81291857D01*
X196516785Y-81394238D01*
X196421547Y-81496619D01*
X196278690Y-81547809D01*
X196183452Y-81547809D01*
X196040595Y-81496619D01*
X195992976Y-81445428D01*
X195992976Y-81087095D01*
X196183452Y-81087095D01*
X195564404Y-81547809D02*
X195564404Y-80472809D01*
X194992976Y-81547809D01*
X194992976Y-80472809D01*
X194516785Y-81547809D02*
X194516785Y-80472809D01*
X194278690Y-80472809D01*
X194135833Y-80524000D01*
X194040595Y-80626380D01*
X193992976Y-80728761D01*
X193945357Y-80933523D01*
X193945357Y-81087095D01*
X193992976Y-81291857D01*
X194040595Y-81394238D01*
X194135833Y-81496619D01*
X194278690Y-81547809D01*
X194516785Y-81547809D01*
X196707261Y-85665059D02*
X196373928Y-86740059D01*
X196040595Y-85665059D01*
X195278690Y-86688869D02*
X195373928Y-86740059D01*
X195564404Y-86740059D01*
X195659642Y-86688869D01*
X195707261Y-86637678D01*
X195754880Y-86535297D01*
X195754880Y-86228154D01*
X195707261Y-86125773D01*
X195659642Y-86074583D01*
X195564404Y-86023392D01*
X195373928Y-86023392D01*
X195278690Y-86074583D01*
X194421547Y-86688869D02*
X194516785Y-86740059D01*
X194707261Y-86740059D01*
X194802500Y-86688869D01*
X194850119Y-86637678D01*
X194897738Y-86535297D01*
X194897738Y-86228154D01*
X194850119Y-86125773D01*
X194802500Y-86074583D01*
X194707261Y-86023392D01*
X194516785Y-86023392D01*
X194421547Y-86074583D01*
X196612023Y-90150369D02*
X196469166Y-90201559D01*
X196231071Y-90201559D01*
X196135833Y-90150369D01*
X196088214Y-90099178D01*
X196040595Y-89996797D01*
X196040595Y-89894416D01*
X196088214Y-89792035D01*
X196135833Y-89740845D01*
X196231071Y-89689654D01*
X196421547Y-89638464D01*
X196516785Y-89587273D01*
X196564404Y-89536083D01*
X196612023Y-89433702D01*
X196612023Y-89331321D01*
X196564404Y-89228940D01*
X196516785Y-89177750D01*
X196421547Y-89126559D01*
X196183452Y-89126559D01*
X196040595Y-89177750D01*
X195707261Y-89126559D02*
X195469166Y-90201559D01*
X195278690Y-89433702D01*
X195088214Y-90201559D01*
X194850119Y-89126559D01*
X196040595Y-92639250D02*
X196135833Y-92588059D01*
X196278690Y-92588059D01*
X196421547Y-92639250D01*
X196516785Y-92741630D01*
X196564404Y-92844011D01*
X196612023Y-93048773D01*
X196612023Y-93202345D01*
X196564404Y-93407107D01*
X196516785Y-93509488D01*
X196421547Y-93611869D01*
X196278690Y-93663059D01*
X196183452Y-93663059D01*
X196040595Y-93611869D01*
X195992976Y-93560678D01*
X195992976Y-93202345D01*
X196183452Y-93202345D01*
X195564404Y-93663059D02*
X195564404Y-92588059D01*
X194992976Y-93663059D01*
X194992976Y-92588059D01*
X194516785Y-93663059D02*
X194516785Y-92588059D01*
X194278690Y-92588059D01*
X194135833Y-92639250D01*
X194040595Y-92741630D01*
X193992976Y-92844011D01*
X193945357Y-93048773D01*
X193945357Y-93202345D01*
X193992976Y-93407107D01*
X194040595Y-93509488D01*
X194135833Y-93611869D01*
X194278690Y-93663059D01*
X194516785Y-93663059D01*
X201404761Y-128366666D02*
X201452380Y-128509523D01*
X201452380Y-128747619D01*
X201404761Y-128842857D01*
X201357142Y-128890476D01*
X201261904Y-128938095D01*
X201166666Y-128938095D01*
X201071428Y-128890476D01*
X201023809Y-128842857D01*
X200976190Y-128747619D01*
X200928571Y-128557142D01*
X200880952Y-128461904D01*
X200833333Y-128414285D01*
X200738095Y-128366666D01*
X200642857Y-128366666D01*
X200547619Y-128414285D01*
X200500000Y-128461904D01*
X200452380Y-128557142D01*
X200452380Y-128795238D01*
X200500000Y-128938095D01*
X200452380Y-129271428D02*
X201452380Y-129509523D01*
X200738095Y-129700000D01*
X201452380Y-129890476D01*
X200452380Y-130128571D01*
X200452380Y-130414285D02*
X200452380Y-131033333D01*
X200833333Y-130700000D01*
X200833333Y-130842857D01*
X200880952Y-130938095D01*
X200928571Y-130985714D01*
X201023809Y-131033333D01*
X201261904Y-131033333D01*
X201357142Y-130985714D01*
X201404761Y-130938095D01*
X201452380Y-130842857D01*
X201452380Y-130557142D01*
X201404761Y-130461904D01*
X201357142Y-130414285D01*
X200452380Y-75742857D02*
X200452380Y-75933333D01*
X200500000Y-76028571D01*
X200595238Y-76123809D01*
X200785714Y-76171428D01*
X201119047Y-76171428D01*
X201309523Y-76123809D01*
X201404761Y-76028571D01*
X201452380Y-75933333D01*
X201452380Y-75742857D01*
X201404761Y-75647619D01*
X201309523Y-75552380D01*
X201119047Y-75504761D01*
X200785714Y-75504761D01*
X200595238Y-75552380D01*
X200500000Y-75647619D01*
X200452380Y-75742857D01*
X200452380Y-76600000D02*
X201261904Y-76600000D01*
X201357142Y-76647619D01*
X201404761Y-76695238D01*
X201452380Y-76790476D01*
X201452380Y-76980952D01*
X201404761Y-77076190D01*
X201357142Y-77123809D01*
X201261904Y-77171428D01*
X200452380Y-77171428D01*
X200452380Y-77504761D02*
X200452380Y-78076190D01*
X201452380Y-77790476D02*
X200452380Y-77790476D01*
X200547619Y-79123809D02*
X200500000Y-79171428D01*
X200452380Y-79266666D01*
X200452380Y-79504761D01*
X200500000Y-79600000D01*
X200547619Y-79647619D01*
X200642857Y-79695238D01*
X200738095Y-79695238D01*
X200880952Y-79647619D01*
X201452380Y-79076190D01*
X201452380Y-79695238D01*
D12*
X142941071Y-76214285D02*
X142512500Y-76357142D01*
X141798214Y-76357142D01*
X141512500Y-76214285D01*
X141369642Y-76071428D01*
X141226785Y-75785714D01*
X141226785Y-75500000D01*
X141369642Y-75214285D01*
X141512500Y-75071428D01*
X141798214Y-74928571D01*
X142369642Y-74785714D01*
X142655357Y-74642857D01*
X142798214Y-74500000D01*
X142941071Y-74214285D01*
X142941071Y-73928571D01*
X142798214Y-73642857D01*
X142655357Y-73500000D01*
X142369642Y-73357142D01*
X141655357Y-73357142D01*
X141226785Y-73500000D01*
X137798214Y-73214285D02*
X140369642Y-77071428D01*
X136798214Y-76357142D02*
X136798214Y-73357142D01*
X135083928Y-76357142D01*
X135083928Y-73357142D01*
X133655357Y-76071428D02*
X133512500Y-76214285D01*
X133655357Y-76357142D01*
X133798214Y-76214285D01*
X133655357Y-76071428D01*
X133655357Y-76357142D01*
X133655357Y-74500000D02*
X133512500Y-74642857D01*
X133655357Y-74785714D01*
X133798214Y-74642857D01*
X133655357Y-74500000D01*
X133655357Y-74785714D01*
D10*
X107247619Y-72495238D02*
X106247619Y-72161904D01*
X107247619Y-71828571D01*
X106247619Y-71495238D02*
X106914285Y-71495238D01*
X107247619Y-71495238D02*
X107200000Y-71542857D01*
X107152380Y-71495238D01*
X107200000Y-71447619D01*
X107247619Y-71495238D01*
X107152380Y-71495238D01*
X106914285Y-71019047D02*
X106247619Y-71019047D01*
X106819047Y-71019047D02*
X106866666Y-70971428D01*
X106914285Y-70876190D01*
X106914285Y-70733333D01*
X106866666Y-70638095D01*
X106771428Y-70590476D01*
X106247619Y-70590476D01*
X106247619Y-68828571D02*
X106247619Y-69400000D01*
X106247619Y-69114285D02*
X107247619Y-69114285D01*
X107104761Y-69209523D01*
X107009523Y-69304761D01*
X106961904Y-69400000D01*
X107152380Y-68447619D02*
X107200000Y-68400000D01*
X107247619Y-68304761D01*
X107247619Y-68066666D01*
X107200000Y-67971428D01*
X107152380Y-67923809D01*
X107057142Y-67876190D01*
X106961904Y-67876190D01*
X106819047Y-67923809D01*
X106247619Y-68495238D01*
X106247619Y-67876190D01*
X106628571Y-67590476D02*
X106676190Y-67542857D01*
X106723809Y-67447619D01*
X106628571Y-67257142D01*
X106676190Y-67161904D01*
X106723809Y-67114285D01*
X107152380Y-66780952D02*
X107200000Y-66733333D01*
X107247619Y-66638095D01*
X107247619Y-66400000D01*
X107200000Y-66304761D01*
X107152380Y-66257142D01*
X107057142Y-66209523D01*
X106961904Y-66209523D01*
X106819047Y-66257142D01*
X106247619Y-66828571D01*
X106247619Y-66209523D01*
X106819047Y-65638095D02*
X106866666Y-65733333D01*
X106914285Y-65780952D01*
X107009523Y-65828571D01*
X107057142Y-65828571D01*
X107152380Y-65780952D01*
X107200000Y-65733333D01*
X107247619Y-65638095D01*
X107247619Y-65447619D01*
X107200000Y-65352380D01*
X107152380Y-65304761D01*
X107057142Y-65257142D01*
X107009523Y-65257142D01*
X106914285Y-65304761D01*
X106866666Y-65352380D01*
X106819047Y-65447619D01*
X106819047Y-65638095D01*
X106771428Y-65733333D01*
X106723809Y-65780952D01*
X106628571Y-65828571D01*
X106438095Y-65828571D01*
X106342857Y-65780952D01*
X106295238Y-65733333D01*
X106247619Y-65638095D01*
X106247619Y-65447619D01*
X106295238Y-65352380D01*
X106342857Y-65304761D01*
X106438095Y-65257142D01*
X106628571Y-65257142D01*
X106723809Y-65304761D01*
X106771428Y-65352380D01*
X106819047Y-65447619D01*
X107247619Y-64971428D02*
X106247619Y-64638095D01*
X107247619Y-64304761D01*
X106247619Y-63971428D02*
X107247619Y-63971428D01*
X107247619Y-63733333D01*
X107200000Y-63590476D01*
X107104761Y-63495238D01*
X107009523Y-63447619D01*
X106819047Y-63400000D01*
X106676190Y-63400000D01*
X106485714Y-63447619D01*
X106390476Y-63495238D01*
X106295238Y-63590476D01*
X106247619Y-63733333D01*
X106247619Y-63971428D01*
X106342857Y-62400000D02*
X106295238Y-62447619D01*
X106247619Y-62590476D01*
X106247619Y-62685714D01*
X106295238Y-62828571D01*
X106390476Y-62923809D01*
X106485714Y-62971428D01*
X106676190Y-63019047D01*
X106819047Y-63019047D01*
X107009523Y-62971428D01*
X107104761Y-62923809D01*
X107200000Y-62828571D01*
X107247619Y-62685714D01*
X107247619Y-62590476D01*
X107200000Y-62447619D01*
X107152380Y-62400000D01*
X200452380Y-87742857D02*
X200452380Y-87933333D01*
X200500000Y-88028571D01*
X200595238Y-88123809D01*
X200785714Y-88171428D01*
X201119047Y-88171428D01*
X201309523Y-88123809D01*
X201404761Y-88028571D01*
X201452380Y-87933333D01*
X201452380Y-87742857D01*
X201404761Y-87647619D01*
X201309523Y-87552380D01*
X201119047Y-87504761D01*
X200785714Y-87504761D01*
X200595238Y-87552380D01*
X200500000Y-87647619D01*
X200452380Y-87742857D01*
X200452380Y-88600000D02*
X201261904Y-88600000D01*
X201357142Y-88647619D01*
X201404761Y-88695238D01*
X201452380Y-88790476D01*
X201452380Y-88980952D01*
X201404761Y-89076190D01*
X201357142Y-89123809D01*
X201261904Y-89171428D01*
X200452380Y-89171428D01*
X200452380Y-89504761D02*
X200452380Y-90076190D01*
X201452380Y-89790476D02*
X200452380Y-89790476D01*
X200452380Y-91076190D02*
X200452380Y-91695238D01*
X200833333Y-91361904D01*
X200833333Y-91504761D01*
X200880952Y-91600000D01*
X200928571Y-91647619D01*
X201023809Y-91695238D01*
X201261904Y-91695238D01*
X201357142Y-91647619D01*
X201404761Y-91600000D01*
X201452380Y-91504761D01*
X201452380Y-91219047D01*
X201404761Y-91123809D01*
X201357142Y-91076190D01*
G36*
X145324562Y-123644110D02*
G01*
X145324562Y-123071178D01*
X145897494Y-123071178D01*
X148539349Y-123071178D01*
X148539349Y-120429323D01*
X145897494Y-120429323D01*
X145897494Y-123071178D01*
X145324562Y-123071178D01*
X145324562Y-119856391D01*
X149112281Y-119856391D01*
X149112281Y-123644110D01*
X145324562Y-123644110D01*
G37*
G36*
X136666918Y-116609774D02*
G01*
X136666918Y-115527569D01*
X136125815Y-115527569D01*
X136125815Y-116068671D01*
X135043609Y-116068671D01*
X135043609Y-115527569D01*
X136125815Y-115527569D01*
X136125815Y-114986466D01*
X136666918Y-114986466D01*
X136666918Y-114445363D01*
X135584712Y-114445363D01*
X135584712Y-114986466D01*
X135043609Y-114986466D01*
X135043609Y-115527569D01*
X134502507Y-115527569D01*
X134502507Y-116068671D01*
X133420301Y-116068671D01*
X133420301Y-114445363D01*
X133961404Y-114445363D01*
X134502507Y-114445363D01*
X134502507Y-113904260D01*
X133961404Y-113904260D01*
X133961404Y-114445363D01*
X133420301Y-114445363D01*
X132879198Y-114445363D01*
X132879198Y-116068671D01*
X131796993Y-116068671D01*
X131796993Y-115527569D01*
X131255890Y-115527569D01*
X131255890Y-114986466D01*
X131796993Y-114986466D01*
X132338096Y-114986466D01*
X132338096Y-114445363D01*
X131796993Y-114445363D01*
X131796993Y-114986466D01*
X131255890Y-114986466D01*
X131255890Y-114445363D01*
X131796993Y-114445363D01*
X131796993Y-113904260D01*
X133961404Y-113904260D01*
X133961404Y-112822055D01*
X134502507Y-112822055D01*
X134502507Y-113904260D01*
X135043609Y-113904260D01*
X135043609Y-113363158D01*
X136125815Y-113363158D01*
X136125815Y-113904260D01*
X137208020Y-113904260D01*
X137208020Y-116609774D01*
X136666918Y-116609774D01*
G37*
G36*
X137749123Y-120397493D02*
G01*
X137208020Y-120397493D01*
X137208020Y-119315288D01*
X137749123Y-119315288D01*
X137749123Y-120397493D01*
G37*
G36*
X131796993Y-117691980D02*
G01*
X132338096Y-117691980D01*
X132338096Y-116609774D01*
X133420301Y-116609774D01*
X133420301Y-117691980D01*
X132879198Y-117691980D01*
X132879198Y-118233082D01*
X131255890Y-118233082D01*
X131255890Y-116609774D01*
X131796993Y-116609774D01*
X131796993Y-117691980D01*
G37*
G36*
X148030075Y-111739849D02*
G01*
X147488973Y-111739849D01*
X147488973Y-110657644D01*
X146947870Y-110657644D01*
X146947870Y-110116541D01*
X148030075Y-110116541D01*
X148030075Y-111739849D01*
G37*
G36*
X138831329Y-122020802D02*
G01*
X137749123Y-122020802D01*
X137749123Y-121479699D01*
X138831329Y-121479699D01*
X138831329Y-122020802D01*
G37*
G36*
X136666918Y-106328822D02*
G01*
X137749123Y-106328822D01*
X137749123Y-106869925D01*
X137208020Y-106869925D01*
X137208020Y-107952130D01*
X136125815Y-107952130D01*
X136125815Y-107411027D01*
X135584712Y-107411027D01*
X135584712Y-105787719D01*
X136666918Y-105787719D01*
X136666918Y-106328822D01*
G37*
G36*
X143701253Y-116609774D02*
G01*
X144242356Y-116609774D01*
X144242356Y-117150877D01*
X144783459Y-117150877D01*
X144783459Y-117691980D01*
X144242356Y-117691980D01*
X144242356Y-119315288D01*
X144783459Y-119315288D01*
X144783459Y-120397493D01*
X144242356Y-120397493D01*
X144242356Y-119856391D01*
X143701253Y-119856391D01*
X143701253Y-120938596D01*
X143160151Y-120938596D01*
X143160151Y-121479699D01*
X142619048Y-121479699D01*
X142619048Y-119856391D01*
X143160151Y-119856391D01*
X143160151Y-119315288D01*
X142077945Y-119315288D01*
X142077945Y-118774185D01*
X140454637Y-118774185D01*
X140454637Y-117691980D01*
X142077945Y-117691980D01*
X142077945Y-118233082D01*
X143160151Y-118233082D01*
X143160151Y-118774185D01*
X143701253Y-118774185D01*
X143701253Y-117150877D01*
X143160151Y-117150877D01*
X143160151Y-116068671D01*
X143701253Y-116068671D01*
X143701253Y-116609774D01*
G37*
G36*
X143160151Y-123644110D02*
G01*
X142619048Y-123644110D01*
X142619048Y-123103007D01*
X143160151Y-123103007D01*
X143160151Y-123644110D01*
G37*
G36*
X145324562Y-116609774D02*
G01*
X144242356Y-116609774D01*
X144242356Y-116068671D01*
X145324562Y-116068671D01*
X145324562Y-116609774D01*
G37*
G36*
X131255890Y-109575438D02*
G01*
X131255890Y-109002506D01*
X131828822Y-109002506D01*
X134470677Y-109002506D01*
X134470677Y-106360651D01*
X131828822Y-106360651D01*
X131828822Y-109002506D01*
X131255890Y-109002506D01*
X131255890Y-105787719D01*
X135043609Y-105787719D01*
X135043609Y-109575438D01*
X131255890Y-109575438D01*
G37*
G36*
X146947870Y-116068671D02*
G01*
X146406767Y-116068671D01*
X146406767Y-116609774D01*
X145865664Y-116609774D01*
X145865664Y-116068671D01*
X145324562Y-116068671D01*
X145324562Y-115527569D01*
X146406767Y-115527569D01*
X146406767Y-114986466D01*
X146947870Y-114986466D01*
X146947870Y-116068671D01*
G37*
G36*
X133420301Y-122020802D02*
G01*
X132879198Y-122020802D01*
X132879198Y-121479699D01*
X133420301Y-121479699D01*
X133420301Y-122020802D01*
G37*
G36*
X136125815Y-112822055D02*
G01*
X135043609Y-112822055D01*
X135043609Y-112280952D01*
X136125815Y-112280952D01*
X136125815Y-112822055D01*
G37*
G36*
X145324562Y-109575438D02*
G01*
X145324562Y-109002506D01*
X145897494Y-109002506D01*
X148539349Y-109002506D01*
X148539349Y-106360651D01*
X145897494Y-106360651D01*
X145897494Y-109002506D01*
X145324562Y-109002506D01*
X145324562Y-105787719D01*
X149112281Y-105787719D01*
X149112281Y-109575438D01*
X145324562Y-109575438D01*
G37*
G36*
X133420301Y-118774185D02*
G01*
X132879198Y-118774185D01*
X132879198Y-118233082D01*
X133420301Y-118233082D01*
X133420301Y-118774185D01*
G37*
G36*
X141536842Y-123103007D02*
G01*
X141536842Y-123644110D01*
X140454637Y-123644110D01*
X140454637Y-123103007D01*
X139913534Y-123103007D01*
X139913534Y-122561904D01*
X140454637Y-122561904D01*
X140995740Y-122561904D01*
X140995740Y-121479699D01*
X140454637Y-121479699D01*
X140454637Y-122561904D01*
X139913534Y-122561904D01*
X139372431Y-122561904D01*
X139372431Y-122020802D01*
X139913534Y-122020802D01*
X139913534Y-120938596D01*
X140995740Y-120938596D01*
X140995740Y-120397493D01*
X141536842Y-120397493D01*
X141536842Y-119856391D01*
X140995740Y-119856391D01*
X140995740Y-120397493D01*
X140454637Y-120397493D01*
X140454637Y-119856391D01*
X139913534Y-119856391D01*
X139913534Y-120938596D01*
X138290226Y-120938596D01*
X138290226Y-120397493D01*
X139372431Y-120397493D01*
X139372431Y-119856391D01*
X138290226Y-119856391D01*
X138290226Y-118774185D01*
X137749123Y-118774185D01*
X137749123Y-117691980D01*
X138290226Y-117691980D01*
X138290226Y-118233082D01*
X139372431Y-118233082D01*
X139372431Y-118774185D01*
X139913534Y-118774185D01*
X139913534Y-119315288D01*
X142077945Y-119315288D01*
X142077945Y-123103007D01*
X141536842Y-123103007D01*
G37*
G36*
X133961404Y-110657644D02*
G01*
X133420301Y-110657644D01*
X133420301Y-110116541D01*
X133961404Y-110116541D01*
X133961404Y-110657644D01*
G37*
G36*
X141538560Y-115844787D02*
G01*
X141537330Y-116044799D01*
X141537251Y-116154525D01*
X141536227Y-116361812D01*
X141531932Y-116518202D01*
X141521787Y-116632553D01*
X141503211Y-116713725D01*
X141473624Y-116770575D01*
X141430448Y-116811962D01*
X141371101Y-116846745D01*
X141293005Y-116883783D01*
X141263630Y-116897746D01*
X141191401Y-116934928D01*
X141154888Y-116958241D01*
X141145385Y-116965794D01*
X141091887Y-116998597D01*
X141011654Y-117042530D01*
X140990663Y-117053608D01*
X140871249Y-117118418D01*
X140757018Y-117182630D01*
X140681198Y-117225882D01*
X140560534Y-117293849D01*
X140438722Y-117361732D01*
X140337048Y-117413885D01*
X140245735Y-117453029D01*
X140188997Y-117468311D01*
X140142588Y-117459046D01*
X140058307Y-117426498D01*
X139972331Y-117383015D01*
X139913534Y-117341854D01*
X139904061Y-117334807D01*
X139850564Y-117303085D01*
X139770301Y-117259857D01*
X139696856Y-117221675D01*
X139491987Y-117114266D01*
X139343458Y-117034750D01*
X139250735Y-116982838D01*
X139213283Y-116958241D01*
X139206037Y-116952462D01*
X139154562Y-116922956D01*
X139075166Y-116883783D01*
X138967777Y-116828407D01*
X138895296Y-116770150D01*
X138854077Y-116695580D01*
X138835595Y-116588999D01*
X138831329Y-116434711D01*
X138831209Y-116389595D01*
X138826750Y-116262340D01*
X138810444Y-116189918D01*
X138774992Y-116165437D01*
X138713092Y-116182002D01*
X138617447Y-116232720D01*
X138604119Y-116240295D01*
X138488182Y-116305239D01*
X138375296Y-116367257D01*
X138253474Y-116433234D01*
X137993341Y-116292808D01*
X137939054Y-116263604D01*
X137819282Y-116199869D01*
X137720989Y-116148482D01*
X137661392Y-116118484D01*
X137589576Y-116084586D01*
X137595325Y-115527569D01*
X139436091Y-115527569D01*
X139764412Y-115527569D01*
X139744265Y-114970551D01*
X139742097Y-114907423D01*
X139737069Y-114693229D01*
X139737755Y-114538679D01*
X139744130Y-114445029D01*
X139756166Y-114413534D01*
X139775989Y-114422149D01*
X139806016Y-114469235D01*
X139819507Y-114508351D01*
X139850672Y-114588596D01*
X139871995Y-114645059D01*
X139906328Y-114743579D01*
X139944778Y-114859148D01*
X139981264Y-114966581D01*
X140017229Y-115063508D01*
X140042356Y-115121310D01*
X140058161Y-115156178D01*
X140072682Y-115217674D01*
X140083810Y-115259884D01*
X140120323Y-115326784D01*
X140124475Y-115332502D01*
X140190105Y-115381609D01*
X140261356Y-115374171D01*
X140328103Y-115314811D01*
X140380217Y-115208150D01*
X140392840Y-115169553D01*
X140426551Y-115071518D01*
X140452571Y-115002381D01*
X140460588Y-114981596D01*
X140488595Y-114897104D01*
X140518296Y-114795488D01*
X140529030Y-114757107D01*
X140558823Y-114658191D01*
X140582697Y-114588596D01*
X140598544Y-114547155D01*
X140627857Y-114463913D01*
X140648527Y-114426662D01*
X140681621Y-114436808D01*
X140692113Y-114456092D01*
X140702417Y-114535377D01*
X140696746Y-114656980D01*
X140691280Y-114716051D01*
X140680177Y-114855287D01*
X140668581Y-115019839D01*
X140658262Y-115185401D01*
X140638572Y-115527569D01*
X140995740Y-115527569D01*
X140995740Y-113840601D01*
X140590485Y-113840601D01*
X140520676Y-114039536D01*
X140486880Y-114134048D01*
X140434619Y-114275494D01*
X140389093Y-114393906D01*
X140366838Y-114452510D01*
X140338429Y-114537970D01*
X140327319Y-114587951D01*
X140325764Y-114602060D01*
X140305225Y-114665014D01*
X140270269Y-114739362D01*
X140232980Y-114801374D01*
X140205439Y-114827318D01*
X140192853Y-114820037D01*
X140159407Y-114762958D01*
X140118596Y-114656397D01*
X140073997Y-114509022D01*
X140062707Y-114469648D01*
X140031759Y-114374423D01*
X140005921Y-114310519D01*
X139991477Y-114276095D01*
X139977193Y-114206641D01*
X139973051Y-114174279D01*
X139947448Y-114102763D01*
X139946581Y-114101140D01*
X139913520Y-114031838D01*
X139876019Y-113944047D01*
X139869667Y-113928448D01*
X139843953Y-113878493D01*
X139808227Y-113852321D01*
X139744607Y-113842251D01*
X139635213Y-113840601D01*
X139436091Y-113840601D01*
X139436091Y-115527569D01*
X137595325Y-115527569D01*
X137597733Y-115294322D01*
X137605890Y-114504057D01*
X137827692Y-114382238D01*
X137854674Y-114367232D01*
X137955594Y-114307494D01*
X138028729Y-114258471D01*
X138059775Y-114229573D01*
X138057760Y-114222120D01*
X138017901Y-114186737D01*
X137937795Y-114135532D01*
X137830016Y-114076863D01*
X137589975Y-113954997D01*
X137589975Y-113086700D01*
X137741166Y-113010508D01*
X137799507Y-112980487D01*
X137872936Y-112940463D01*
X137908271Y-112917973D01*
X137935310Y-112900097D01*
X138004921Y-112860409D01*
X138099248Y-112809654D01*
X138199467Y-112756857D01*
X138434060Y-112632081D01*
X138638521Y-112521604D01*
X138799499Y-112432616D01*
X138801254Y-112431629D01*
X138903977Y-112374942D01*
X139034687Y-112304234D01*
X139165539Y-112234571D01*
X139189409Y-112221912D01*
X139295650Y-112163642D01*
X139377400Y-112115772D01*
X139418584Y-112087635D01*
X139487096Y-112060053D01*
X139590445Y-112073095D01*
X139713631Y-112126725D01*
X139771894Y-112159439D01*
X139888278Y-112223377D01*
X140006274Y-112286912D01*
X140084310Y-112331575D01*
X140170305Y-112389124D01*
X140220111Y-112433182D01*
X140242241Y-112494234D01*
X140257190Y-112620499D01*
X140262647Y-112808719D01*
X140262932Y-112879297D01*
X140265010Y-113001224D01*
X140271674Y-113078497D01*
X140286124Y-113124348D01*
X140311563Y-113152008D01*
X140351191Y-113174708D01*
X140417463Y-113211567D01*
X140454637Y-113237288D01*
X140485922Y-113257134D01*
X140559460Y-113296301D01*
X140657927Y-113345257D01*
X140845301Y-113435760D01*
X141071711Y-113315619D01*
X141127938Y-113285712D01*
X141269944Y-113210050D01*
X141369454Y-113158988D01*
X141437389Y-113129557D01*
X141484668Y-113118786D01*
X141522212Y-113123705D01*
X141560941Y-113141345D01*
X141611775Y-113168736D01*
X141788816Y-113261625D01*
X141957736Y-113354661D01*
X142074795Y-113425534D01*
X142143486Y-113476264D01*
X142155540Y-113488207D01*
X142172828Y-113513932D01*
X142185584Y-113552768D01*
X142194489Y-113613140D01*
X142200227Y-113703472D01*
X142203480Y-113832188D01*
X142204931Y-114007713D01*
X142205263Y-114238471D01*
X142205318Y-114295810D01*
X142206010Y-114516796D01*
X142204764Y-114685463D01*
X142197979Y-114811047D01*
X142182051Y-114902780D01*
X142153380Y-114969898D01*
X142108364Y-115021634D01*
X142043400Y-115067223D01*
X141954887Y-115115899D01*
X141839223Y-115176895D01*
X141785195Y-115206492D01*
X141677668Y-115268688D01*
X141598273Y-115319179D01*
X141561202Y-115349170D01*
X141559302Y-115354196D01*
X141552432Y-115410365D01*
X141546456Y-115517540D01*
X141546135Y-115527569D01*
X141541717Y-115665691D01*
X141538560Y-115844787D01*
G37*
G36*
X140995740Y-111198747D02*
G01*
X139913534Y-111198747D01*
X139913534Y-111739849D01*
X138290226Y-111739849D01*
X138290226Y-111198747D01*
X138831329Y-111198747D01*
X138831329Y-110657644D01*
X140995740Y-110657644D01*
X140995740Y-111198747D01*
G37*
G36*
X148571178Y-118774185D02*
G01*
X148030075Y-118774185D01*
X148030075Y-118233082D01*
X148571178Y-118233082D01*
X148571178Y-118774185D01*
G37*
G36*
X147488973Y-117150877D02*
G01*
X146406767Y-117150877D01*
X146406767Y-116609774D01*
X147488973Y-116609774D01*
X147488973Y-117150877D01*
G37*
G36*
X132879198Y-123644110D02*
G01*
X132338096Y-123644110D01*
X132338096Y-123103007D01*
X132879198Y-123103007D01*
X132879198Y-123644110D01*
G37*
G36*
X144242356Y-106328822D02*
G01*
X143701253Y-106328822D01*
X143701253Y-105787719D01*
X144242356Y-105787719D01*
X144242356Y-106328822D01*
G37*
G36*
X135043609Y-112280952D02*
G01*
X133961404Y-112280952D01*
X133961404Y-112822055D01*
X133420301Y-112822055D01*
X133420301Y-112280952D01*
X132879198Y-112280952D01*
X132879198Y-111739849D01*
X135043609Y-111739849D01*
X135043609Y-112280952D01*
G37*
G36*
X144783459Y-111739849D02*
G01*
X144242356Y-111739849D01*
X144242356Y-111198747D01*
X144783459Y-111198747D01*
X144783459Y-111739849D01*
G37*
G36*
X144783459Y-122561904D02*
G01*
X144242356Y-122561904D01*
X144242356Y-123644110D01*
X143701253Y-123644110D01*
X143701253Y-123103007D01*
X143160151Y-123103007D01*
X143160151Y-122561904D01*
X143701253Y-122561904D01*
X143701253Y-121479699D01*
X144783459Y-121479699D01*
X144783459Y-122561904D01*
G37*
G36*
X136125815Y-122561904D02*
G01*
X138290226Y-122561904D01*
X138290226Y-123103007D01*
X138831329Y-123103007D01*
X138831329Y-122561904D01*
X139372431Y-122561904D01*
X139372431Y-123644110D01*
X137208020Y-123644110D01*
X137208020Y-123103007D01*
X136666918Y-123103007D01*
X136666918Y-123644110D01*
X136125815Y-123644110D01*
X136125815Y-123103007D01*
X135584712Y-123103007D01*
X135584712Y-122561904D01*
X135043609Y-122561904D01*
X135043609Y-123644110D01*
X133420301Y-123644110D01*
X133420301Y-123103007D01*
X132879198Y-123103007D01*
X132879198Y-122561904D01*
X132338096Y-122561904D01*
X132338096Y-122020802D01*
X132879198Y-122020802D01*
X132879198Y-122561904D01*
X133420301Y-122561904D01*
X133420301Y-123103007D01*
X134502507Y-123103007D01*
X134502507Y-122020802D01*
X135043609Y-122020802D01*
X135043609Y-121479699D01*
X134502507Y-121479699D01*
X134502507Y-122020802D01*
X133961404Y-122020802D01*
X133961404Y-121479699D01*
X133420301Y-121479699D01*
X133420301Y-120938596D01*
X133961404Y-120938596D01*
X135584712Y-120938596D01*
X135584712Y-119315288D01*
X133961404Y-119315288D01*
X133961404Y-120938596D01*
X133420301Y-120938596D01*
X132879198Y-120938596D01*
X132879198Y-121479699D01*
X132338096Y-121479699D01*
X132338096Y-122020802D01*
X131255890Y-122020802D01*
X131255890Y-121479699D01*
X131796993Y-121479699D01*
X131796993Y-120397493D01*
X132879198Y-120397493D01*
X132879198Y-119856391D01*
X133420301Y-119856391D01*
X133420301Y-118774185D01*
X133961404Y-118774185D01*
X133961404Y-118233082D01*
X134502507Y-118233082D01*
X134502507Y-117150877D01*
X135043609Y-117150877D01*
X135043609Y-116609774D01*
X135584712Y-116609774D01*
X135584712Y-117150877D01*
X136125815Y-117150877D01*
X136125815Y-116609774D01*
X136666918Y-116609774D01*
X136666918Y-117691980D01*
X137208020Y-117691980D01*
X137208020Y-118233082D01*
X136666918Y-118233082D01*
X136666918Y-118774185D01*
X136125815Y-118774185D01*
X136125815Y-117691980D01*
X135043609Y-117691980D01*
X135043609Y-118233082D01*
X134502507Y-118233082D01*
X134502507Y-118774185D01*
X135043609Y-118774185D01*
X135043609Y-118233082D01*
X135584712Y-118233082D01*
X135584712Y-118774185D01*
X136125815Y-118774185D01*
X136125815Y-119315288D01*
X136666918Y-119315288D01*
X136666918Y-120938596D01*
X137208020Y-120938596D01*
X137208020Y-122020802D01*
X136666918Y-122020802D01*
X136666918Y-121479699D01*
X135584712Y-121479699D01*
X135584712Y-122020802D01*
X136125815Y-122020802D01*
X136125815Y-122561904D01*
G37*
G36*
X148030075Y-122561904D02*
G01*
X146406767Y-122561904D01*
X146406767Y-120938596D01*
X148030075Y-120938596D01*
X148030075Y-122561904D01*
G37*
G36*
X148030075Y-108493233D02*
G01*
X146406767Y-108493233D01*
X146406767Y-106869925D01*
X148030075Y-106869925D01*
X148030075Y-108493233D01*
G37*
G36*
X137208020Y-112280952D02*
G01*
X136666918Y-112280952D01*
X136666918Y-111739849D01*
X137208020Y-111739849D01*
X137208020Y-112280952D01*
G37*
G36*
X144783459Y-110116541D02*
G01*
X145865664Y-110116541D01*
X145865664Y-110657644D01*
X144242356Y-110657644D01*
X144242356Y-109034336D01*
X144783459Y-109034336D01*
X144783459Y-110116541D01*
G37*
G36*
X131796993Y-123103007D02*
G01*
X131255890Y-123103007D01*
X131255890Y-122561904D01*
X131796993Y-122561904D01*
X131796993Y-123103007D01*
G37*
G36*
X149112281Y-119315288D02*
G01*
X148571178Y-119315288D01*
X148571178Y-118774185D01*
X149112281Y-118774185D01*
X149112281Y-119315288D01*
G37*
G36*
X144783459Y-114986466D02*
G01*
X144783459Y-115527569D01*
X143160151Y-115527569D01*
X143160151Y-114445363D01*
X143701253Y-114445363D01*
X145865664Y-114445363D01*
X145865664Y-113904260D01*
X145324562Y-113904260D01*
X145324562Y-113363158D01*
X144783459Y-113363158D01*
X144783459Y-112822055D01*
X144242356Y-112822055D01*
X144242356Y-113904260D01*
X143701253Y-113904260D01*
X143701253Y-114445363D01*
X143160151Y-114445363D01*
X143160151Y-113904260D01*
X143701253Y-113904260D01*
X143701253Y-111739849D01*
X144242356Y-111739849D01*
X144242356Y-112280952D01*
X145865664Y-112280952D01*
X145865664Y-112822055D01*
X145324562Y-112822055D01*
X145324562Y-113363158D01*
X146406767Y-113363158D01*
X146406767Y-112822055D01*
X147488973Y-112822055D01*
X147488973Y-113904260D01*
X146406767Y-113904260D01*
X146406767Y-114986466D01*
X144783459Y-114986466D01*
G37*
G36*
X145324562Y-113904260D02*
G01*
X145324562Y-114445363D01*
X144242356Y-114445363D01*
X144242356Y-113904260D01*
X145324562Y-113904260D01*
G37*
G36*
X135043609Y-120397493D02*
G01*
X134502507Y-120397493D01*
X134502507Y-119856391D01*
X135043609Y-119856391D01*
X135043609Y-120397493D01*
G37*
G36*
X141536842Y-109575438D02*
G01*
X140995740Y-109575438D01*
X140995740Y-109034336D01*
X141536842Y-109034336D01*
X141536842Y-109575438D01*
G37*
G36*
X143701253Y-106869925D02*
G01*
X143160151Y-106869925D01*
X143160151Y-106328822D01*
X143701253Y-106328822D01*
X143701253Y-106869925D01*
G37*
G36*
X133961404Y-108493233D02*
G01*
X132338096Y-108493233D01*
X132338096Y-106869925D01*
X133961404Y-106869925D01*
X133961404Y-108493233D01*
G37*
G36*
X142077945Y-111739849D02*
G01*
X141536842Y-111739849D01*
X141536842Y-111198747D01*
X142077945Y-111198747D01*
X142077945Y-111739849D01*
G37*
G36*
X148571178Y-114986466D02*
G01*
X147488973Y-114986466D01*
X147488973Y-114445363D01*
X148571178Y-114445363D01*
X148571178Y-114986466D01*
G37*
G36*
X131796993Y-111198747D02*
G01*
X132879198Y-111198747D01*
X132879198Y-111739849D01*
X131255890Y-111739849D01*
X131255890Y-110657644D01*
X131796993Y-110657644D01*
X131796993Y-111198747D01*
G37*
G36*
X137749123Y-110657644D02*
G01*
X137749123Y-111198747D01*
X137208020Y-111198747D01*
X137208020Y-110116541D01*
X137749123Y-110116541D01*
X137749123Y-109034336D01*
X137208020Y-109034336D01*
X137208020Y-110116541D01*
X136666918Y-110116541D01*
X136666918Y-108493233D01*
X137749123Y-108493233D01*
X137749123Y-107411027D01*
X138290226Y-107411027D01*
X138290226Y-106869925D01*
X139372431Y-106869925D01*
X139372431Y-106328822D01*
X139913534Y-106328822D01*
X139913534Y-108493233D01*
X140995740Y-108493233D01*
X140995740Y-109034336D01*
X140454637Y-109034336D01*
X140454637Y-109575438D01*
X139913534Y-109575438D01*
X139913534Y-109034336D01*
X139372431Y-109034336D01*
X139372431Y-110116541D01*
X138831329Y-110116541D01*
X138831329Y-108493233D01*
X139372431Y-108493233D01*
X139372431Y-107952130D01*
X138290226Y-107952130D01*
X138290226Y-110657644D01*
X137749123Y-110657644D01*
G37*
G36*
X145865664Y-117150877D02*
G01*
X145324562Y-117150877D01*
X145324562Y-116609774D01*
X145865664Y-116609774D01*
X145865664Y-117150877D01*
G37*
G36*
X145324562Y-119315288D02*
G01*
X145324562Y-118774185D01*
X145865664Y-118774185D01*
X145865664Y-118233082D01*
X145324562Y-118233082D01*
X145324562Y-118774185D01*
X144783459Y-118774185D01*
X144783459Y-118233082D01*
X145324562Y-118233082D01*
X145324562Y-117691980D01*
X146406767Y-117691980D01*
X146406767Y-118233082D01*
X146947870Y-118233082D01*
X146947870Y-117691980D01*
X147488973Y-117691980D01*
X147488973Y-118774185D01*
X146406767Y-118774185D01*
X146406767Y-119315288D01*
X145324562Y-119315288D01*
G37*
G36*
X141536842Y-110657644D02*
G01*
X140995740Y-110657644D01*
X140995740Y-110116541D01*
X141536842Y-110116541D01*
X141536842Y-110657644D01*
G37*
G36*
X132879198Y-113363158D02*
G01*
X132338096Y-113363158D01*
X132338096Y-112822055D01*
X132879198Y-112822055D01*
X132879198Y-113363158D01*
G37*
G36*
X149112281Y-113904260D02*
G01*
X148030075Y-113904260D01*
X148030075Y-112822055D01*
X148571178Y-112822055D01*
X148571178Y-111739849D01*
X149112281Y-111739849D01*
X149112281Y-113904260D01*
G37*
G36*
X146947870Y-112280952D02*
G01*
X145865664Y-112280952D01*
X145865664Y-111739849D01*
X145324562Y-111739849D01*
X145324562Y-111198747D01*
X145865664Y-111198747D01*
X145865664Y-110657644D01*
X146947870Y-110657644D01*
X146947870Y-112280952D01*
G37*
G36*
X136125815Y-110116541D02*
G01*
X136666918Y-110116541D01*
X136666918Y-111739849D01*
X135043609Y-111739849D01*
X135043609Y-111198747D01*
X134502507Y-111198747D01*
X134502507Y-110116541D01*
X135584712Y-110116541D01*
X135584712Y-109034336D01*
X136125815Y-109034336D01*
X136125815Y-110116541D01*
X135584712Y-110116541D01*
X135584712Y-111198747D01*
X136125815Y-111198747D01*
X136125815Y-110116541D01*
G37*
G36*
X142619048Y-106328822D02*
G01*
X142619048Y-106869925D01*
X143160151Y-106869925D01*
X143160151Y-107411027D01*
X142619048Y-107411027D01*
X142619048Y-107952130D01*
X143160151Y-107952130D01*
X143160151Y-107411027D01*
X144242356Y-107411027D01*
X144242356Y-107952130D01*
X144783459Y-107952130D01*
X144783459Y-108493233D01*
X143701253Y-108493233D01*
X143701253Y-109575438D01*
X143160151Y-109575438D01*
X143160151Y-108493233D01*
X142619048Y-108493233D01*
X142619048Y-107952130D01*
X142077945Y-107952130D01*
X142077945Y-107411027D01*
X141536842Y-107411027D01*
X141536842Y-107952130D01*
X142077945Y-107952130D01*
X142077945Y-108493233D01*
X142619048Y-108493233D01*
X142619048Y-109575438D01*
X143160151Y-109575438D01*
X143160151Y-110657644D01*
X143701253Y-110657644D01*
X143701253Y-111739849D01*
X143160151Y-111739849D01*
X143160151Y-111198747D01*
X142077945Y-111198747D01*
X142077945Y-108493233D01*
X141536842Y-108493233D01*
X141536842Y-107952130D01*
X140995740Y-107952130D01*
X140995740Y-107411027D01*
X140454637Y-107411027D01*
X140454637Y-106869925D01*
X140995740Y-106869925D01*
X140995740Y-105787719D01*
X142077945Y-105787719D01*
X142077945Y-106328822D01*
X141536842Y-106328822D01*
X141536842Y-106869925D01*
X142077945Y-106869925D01*
X142077945Y-106328822D01*
X142619048Y-106328822D01*
G37*
G36*
X139372431Y-106328822D02*
G01*
X138290226Y-106328822D01*
X138290226Y-105787719D01*
X139372431Y-105787719D01*
X139372431Y-106328822D01*
G37*
G36*
X149112281Y-116068671D02*
G01*
X148571178Y-116068671D01*
X148571178Y-117150877D01*
X149112281Y-117150877D01*
X149112281Y-117691980D01*
X148030075Y-117691980D01*
X148030075Y-115527569D01*
X148571178Y-115527569D01*
X148571178Y-114986466D01*
X149112281Y-114986466D01*
X149112281Y-116068671D01*
G37*
%LPC*%
D13*
X137550000Y-93550000D03*
X137550000Y-88550000D03*
D14*
X176870000Y-62800000D03*
X191070000Y-56800000D03*
X191070000Y-68800000D03*
X178870000Y-68800000D03*
X178870000Y-56800000D03*
D15*
X161388000Y-128527000D03*
D16*
X161388000Y-131067000D03*
X161388000Y-133607000D03*
X161388000Y-136147000D03*
D17*
X144262500Y-74900000D03*
X145562500Y-74900000D03*
X144262500Y-77500000D03*
X145562500Y-76200000D03*
X144262500Y-76200000D03*
X145562500Y-77500000D03*
D18*
X198420000Y-69130000D03*
D19*
X198420000Y-65630000D03*
X198420000Y-62130000D03*
D20*
X134200000Y-55160000D03*
X136740000Y-55160000D03*
X139280000Y-55160000D03*
D18*
X198400000Y-131500000D03*
D19*
X198400000Y-128000000D03*
D18*
X198420000Y-81130000D03*
D19*
X198420000Y-77630000D03*
X198420000Y-74130000D03*
D13*
X155800000Y-93500000D03*
X155800000Y-88500000D03*
D20*
X134262500Y-70600000D03*
X136802500Y-70600000D03*
X139342500Y-70600000D03*
D14*
X176870000Y-78800000D03*
X191070000Y-72800000D03*
X191070000Y-84800000D03*
X178870000Y-84800000D03*
X178870000Y-72800000D03*
D15*
X164400000Y-64300000D03*
D16*
X164400000Y-61760000D03*
X164400000Y-59220000D03*
D18*
X198420000Y-93130000D03*
D19*
X198420000Y-89630000D03*
X198420000Y-86130000D03*
D21*
X197143845Y-102856155D03*
X199000000Y-103625000D03*
X201625000Y-101000000D03*
X200856155Y-102856155D03*
X200856155Y-99143845D03*
X196375000Y-101000000D03*
X199000000Y-98375000D03*
D22*
X199000000Y-101000000D03*
D21*
X197143845Y-99143845D03*
D15*
X164400000Y-79755000D03*
D16*
X164400000Y-77215000D03*
X164400000Y-74675000D03*
D18*
X198400000Y-123000000D03*
D19*
X198400000Y-119500000D03*
D23*
X174410000Y-143700000D03*
X180190000Y-143700000D03*
D24*
X181620000Y-143170000D03*
X172980000Y-143170000D03*
D25*
X181620000Y-147350000D03*
X172980000Y-147350000D03*
D21*
X106375000Y-56000000D03*
X111625000Y-56000000D03*
X110856155Y-57856155D03*
X109000000Y-58625000D03*
X109000000Y-53375000D03*
X107143845Y-57856155D03*
X110856155Y-54143845D03*
D22*
X109000000Y-56000000D03*
D21*
X107143845Y-54143845D03*
D17*
X113970000Y-96850000D03*
X112670000Y-96850000D03*
X111370000Y-95550000D03*
X112670000Y-95550000D03*
X113970000Y-95550000D03*
X111370000Y-96850000D03*
D15*
X164400000Y-95105000D03*
D16*
X164400000Y-92565000D03*
X164400000Y-90025000D03*
D15*
X138528000Y-127257000D03*
D16*
X141068000Y-127257000D03*
X143608000Y-127257000D03*
X146148000Y-127257000D03*
X148688000Y-127257000D03*
X151228000Y-127257000D03*
D18*
X109400000Y-62100000D03*
D19*
X109400000Y-65600000D03*
X109400000Y-69100000D03*
X109400000Y-72600000D03*
D26*
X152168000Y-120087000D03*
D27*
X156168000Y-120087000D03*
D17*
X154800000Y-101570000D03*
X157400000Y-101570000D03*
X157400000Y-102870000D03*
X156100000Y-101570000D03*
X154800000Y-102870000D03*
X156100000Y-102870000D03*
D21*
X122625000Y-117500000D03*
X121856155Y-115643845D03*
X120000000Y-120125000D03*
X118143845Y-115643845D03*
D22*
X120000000Y-117500000D03*
D21*
X120000000Y-114875000D03*
X121856155Y-119356155D03*
X117375000Y-117500000D03*
X118143845Y-119356155D03*
D28*
X111500000Y-135220000D03*
D29*
X114000000Y-135220000D03*
X116000000Y-135220000D03*
X118500000Y-135220000D03*
X111500000Y-137840000D03*
X114000000Y-137840000D03*
X116000000Y-137840000D03*
X118500000Y-137840000D03*
D14*
X108430000Y-140550000D03*
X121570000Y-134870000D03*
X121570000Y-140550000D03*
X108430000Y-134870000D03*
X176920000Y-94800000D03*
X191120000Y-88800000D03*
X191120000Y-100800000D03*
X178920000Y-100800000D03*
X178920000Y-88800000D03*
D18*
X198400000Y-140000000D03*
D19*
X198400000Y-136500000D03*
D15*
X180700000Y-113280000D03*
D16*
X180700000Y-110740000D03*
X180700000Y-108200000D03*
X180700000Y-105660000D03*
D17*
X144250000Y-60760000D03*
X145550000Y-62060000D03*
X145550000Y-60760000D03*
X145550000Y-59460000D03*
X144250000Y-62060000D03*
X144250000Y-59460000D03*
X137850000Y-101550000D03*
X137850000Y-102850000D03*
X139150000Y-101550000D03*
X136550000Y-101550000D03*
X139150000Y-102850000D03*
X136550000Y-102850000D03*
D13*
X155800000Y-62760000D03*
X155800000Y-57760000D03*
D21*
X199000000Y-58625000D03*
X197143845Y-57856155D03*
X197143845Y-54143845D03*
X200856155Y-54143845D03*
X199000000Y-53375000D03*
X196375000Y-56000000D03*
X201625000Y-56000000D03*
D22*
X199000000Y-56000000D03*
D21*
X200856155Y-57856155D03*
D13*
X155812500Y-78200000D03*
X155812500Y-73200000D03*
D18*
X198400000Y-114500000D03*
D19*
X198400000Y-111000000D03*
D13*
X110720000Y-107100000D03*
X115720000Y-107100000D03*
D15*
X114400000Y-122680000D03*
D16*
X114400000Y-120140000D03*
X114400000Y-117600000D03*
D30*
X167272800Y-105011600D03*
X127242400Y-147023200D03*
X127242400Y-105011600D03*
X167272800Y-147048600D03*
G36*
G01*
X169850000Y-110327000D02*
X169850000Y-111177000D01*
G75*
G02*
X169425000Y-111602000I-425000J0D01*
G01*
X168575000Y-111602000D01*
G75*
G02*
X168150000Y-111177000I0J425000D01*
G01*
X168150000Y-110327000D01*
G75*
G02*
X168575000Y-109902000I425000J0D01*
G01*
X169425000Y-109902000D01*
G75*
G02*
X169850000Y-110327000I0J-425000D01*
G01*
G37*
D31*
X166460000Y-110752000D03*
X169000000Y-113292000D03*
X166460000Y-113292000D03*
X169000000Y-115832000D03*
X166460000Y-115832000D03*
X169000000Y-118372000D03*
X166460000Y-118372000D03*
X169000000Y-120912000D03*
X166460000Y-120912000D03*
X169000000Y-123452000D03*
X166460000Y-123452000D03*
X169000000Y-125992000D03*
X166460000Y-125992000D03*
X169000000Y-128532000D03*
X166460000Y-128532000D03*
X169000000Y-131072000D03*
X166460000Y-131072000D03*
X169000000Y-133612000D03*
X166460000Y-133612000D03*
X169000000Y-136152000D03*
X166460000Y-136152000D03*
X169000000Y-138692000D03*
X166460000Y-138692000D03*
X169000000Y-141232000D03*
X166460000Y-141232000D03*
G36*
G01*
X126670000Y-140807000D02*
X126670000Y-141657000D01*
G75*
G02*
X126245000Y-142082000I-425000J0D01*
G01*
X125395000Y-142082000D01*
G75*
G02*
X124970000Y-141657000I0J425000D01*
G01*
X124970000Y-140807000D01*
G75*
G02*
X125395000Y-140382000I425000J0D01*
G01*
X126245000Y-140382000D01*
G75*
G02*
X126670000Y-140807000I0J-425000D01*
G01*
G37*
X125820000Y-138692000D03*
X125820000Y-136152000D03*
X125820000Y-133612000D03*
X125820000Y-131072000D03*
X125820000Y-128532000D03*
X125820000Y-125992000D03*
X125820000Y-123452000D03*
X125820000Y-120912000D03*
X125820000Y-118372000D03*
X125820000Y-115832000D03*
X125820000Y-113292000D03*
X125820000Y-110752000D03*
G36*
G01*
X161722000Y-148427000D02*
X161722000Y-149277000D01*
G75*
G02*
X161297000Y-149702000I-425000J0D01*
G01*
X160447000Y-149702000D01*
G75*
G02*
X160022000Y-149277000I0J425000D01*
G01*
X160022000Y-148427000D01*
G75*
G02*
X160447000Y-148002000I425000J0D01*
G01*
X161297000Y-148002000D01*
G75*
G02*
X161722000Y-148427000I0J-425000D01*
G01*
G37*
X160872000Y-146312000D03*
X160872000Y-143772000D03*
D21*
X199000000Y-148625000D03*
D22*
X199000000Y-146000000D03*
D21*
X199000000Y-143375000D03*
X197143845Y-147856155D03*
X201625000Y-146000000D03*
X197143845Y-144143845D03*
X200856155Y-144143845D03*
X200856155Y-147856155D03*
X196375000Y-146000000D03*
D15*
X146150000Y-95180000D03*
D16*
X146150000Y-92640000D03*
X146150000Y-90100000D03*
D15*
X185500000Y-106000000D03*
D16*
X188040000Y-106000000D03*
X190580000Y-106000000D03*
X193120000Y-106000000D03*
M02*
