M48
; FORMAT={-:-/ absolute / metric / decimal}
; #@! TF.GenerationSoftware,Kicad,Pcbnew,6.0.5+dfsg-1~bpo11+1
; #@! TF.FileFunction,Plated,1,2,PTH
FMAT,2
METRIC
; #@! TA.AperFunction,Plated,PTH,ViaDrill
T1C0.400
; #@! TA.AperFunction,Plated,PTH,ComponentDrill
T2C0.500
; #@! TA.AperFunction,Plated,PTH,ComponentDrill
T3C0.600
; #@! TA.AperFunction,Plated,PTH,ComponentDrill
T4C0.800
; #@! TA.AperFunction,Plated,PTH,ComponentDrill
T5C0.900
; #@! TA.AperFunction,Plated,PTH,ComponentDrill
T6C0.920
; #@! TA.AperFunction,Plated,PTH,ComponentDrill
T7C1.000
; #@! TA.AperFunction,Plated,PTH,ComponentDrill
T8C1.200
; #@! TA.AperFunction,Plated,PTH,ComponentDrill
T9C1.300
; #@! TA.AperFunction,Plated,PTH,ComponentDrill
T10C2.300
; #@! TA.AperFunction,Plated,PTH,ComponentDrill
T11C3.200
; #@! TA.AperFunction,Plated,PTH,ComponentDrill
T12C3.500
%
G90
G05
T1
X107.0Y-67.0
X107.0Y-68.0
X107.0Y-69.0
X107.0Y-70.0
X107.0Y-71.0
X107.0Y-72.0
X107.0Y-73.0
X107.005Y-118.675
X107.5Y-131.1
X107.605Y-94.075
X107.605Y-94.875
X107.605Y-95.675
X108.505Y-94.075
X108.505Y-94.875
X108.505Y-95.675
X110.5Y-131.1
X110.905Y-115.575
X111.705Y-115.575
X112.0Y-67.0
X112.0Y-68.0
X112.0Y-69.0
X112.0Y-70.0
X112.0Y-71.0
X112.0Y-72.0
X112.0Y-73.0
X112.5Y-131.1
X115.3Y-131.4
X116.3Y-95.0
X116.305Y-96.475
X116.5Y-62.55
X117.1Y-95.0
X117.105Y-96.475
X118.312Y-58.45
X118.312Y-60.55
X118.6Y-95.0
X118.605Y-96.475
X118.8Y-131.4
X119.4Y-95.0
X119.405Y-96.475
X120.2Y-56.2
X120.219Y-58.181
X121.6Y-131.1
X122.877Y-95.325
X123.912Y-73.05
X123.912Y-73.85
X123.912Y-74.65
X123.912Y-75.45
X123.912Y-76.25
X124.712Y-73.05
X124.712Y-73.85
X124.712Y-74.65
X124.712Y-75.45
X124.712Y-76.25
X125.512Y-73.05
X125.512Y-73.85
X125.512Y-74.65
X125.512Y-75.45
X125.512Y-76.25
X127.05Y-91.55
X127.05Y-92.35
X127.05Y-93.95
X127.05Y-94.75
X127.05Y-96.35
X127.05Y-97.15
X128.2Y-143.4
X129.0Y-143.4
X129.95Y-98.75
X130.868Y-121.487
X131.05Y-102.55
X131.85Y-102.55
X132.287Y-60.96
X132.287Y-62.947
X132.32Y-76.315
X132.32Y-78.315
X132.668Y-127.487
X133.45Y-102.55
X134.25Y-102.55
X136.52Y-59.515
X136.52Y-74.915
X137.32Y-59.515
X137.32Y-74.915
X138.92Y-59.515
X138.92Y-74.915
X139.72Y-59.515
X139.72Y-74.915
X141.95Y-102.75
X141.95Y-103.55
X141.95Y-104.35
X142.72Y-57.115
X142.72Y-64.915
X142.72Y-65.715
X142.72Y-72.515
X142.72Y-80.315
X142.72Y-81.315
X142.95Y-102.75
X142.95Y-103.55
X142.95Y-104.35
X143.52Y-57.115
X143.52Y-64.915
X143.52Y-65.715
X143.52Y-72.515
X143.52Y-80.315
X143.52Y-81.315
X144.32Y-64.915
X144.32Y-65.715
X144.32Y-80.315
X144.32Y-81.315
X145.12Y-57.115
X145.12Y-72.515
X145.92Y-57.115
X145.92Y-72.515
X147.15Y-85.15
X147.52Y-57.115
X147.52Y-72.515
X148.32Y-57.115
X148.32Y-72.515
X149.4Y-110.3
X152.5Y-98.8
X152.5Y-99.6
X152.5Y-101.3
X152.5Y-102.1
X152.5Y-103.7
X152.5Y-104.5
X154.1Y-107.3
X154.1Y-108.1
X154.1Y-109.7
X154.1Y-110.5
X158.2Y-114.4
X158.8Y-113.8
X159.4Y-113.2
X160.2Y-102.7
X160.2Y-103.5
X160.2Y-104.3
X161.1Y-102.7
X161.1Y-103.5
X161.1Y-104.3
X163.0Y-108.1
X163.0Y-116.0
X163.035Y-112.04
X163.8Y-108.1
X163.8Y-116.0
X163.835Y-112.04
X164.635Y-112.04
X165.3Y-85.1
X165.32Y-54.315
X165.32Y-69.715
X165.435Y-112.04
X171.52Y-63.05
X171.52Y-79.05
X171.52Y-95.05
X171.8Y-106.2
X171.9Y-115.8
X172.295Y-125.575
X172.875Y-137.505
X173.895Y-141.875
X174.17Y-68.25
X174.17Y-69.05
X174.17Y-84.2
X174.17Y-85.05
X174.17Y-100.2
X174.17Y-101.05
X174.9Y-111.0
X174.9Y-111.8
X177.295Y-140.175
X180.195Y-123.375
X180.695Y-141.875
X181.705Y-137.505
X182.065Y-132.705
X182.065Y-133.417
X182.065Y-134.205
X182.095Y-131.375
X186.3Y-140.5
X186.4Y-115.0
X186.4Y-123.5
X186.4Y-132.0
X190.188Y-139.55
X190.2Y-114.05
X190.2Y-122.55
X190.2Y-131.05
X192.175Y-139.6
X192.188Y-114.15
X192.188Y-122.6
X192.188Y-131.1
T2
X106.375Y-56.0
X107.144Y-54.144
X107.144Y-57.856
X109.0Y-53.375
X109.0Y-58.625
X110.856Y-54.144
X110.856Y-57.856
X111.625Y-56.0
X117.375Y-117.5
X118.144Y-115.644
X118.144Y-119.356
X120.0Y-114.875
X120.0Y-120.125
X121.856Y-115.644
X121.856Y-119.356
X122.625Y-117.5
X196.375Y-56.0
X196.375Y-101.0
X196.375Y-146.0
X197.144Y-54.144
X197.144Y-57.856
X197.144Y-99.144
X197.144Y-102.856
X197.144Y-144.144
X197.144Y-147.856
X199.0Y-53.375
X199.0Y-58.625
X199.0Y-98.375
X199.0Y-103.625
X199.0Y-143.375
X199.0Y-148.625
X200.856Y-54.144
X200.856Y-57.856
X200.856Y-99.144
X200.856Y-102.856
X200.856Y-144.144
X200.856Y-147.856
X201.625Y-56.0
X201.625Y-101.0
X201.625Y-146.0
T4
X134.2Y-55.16
X134.262Y-70.6
X136.74Y-55.16
X136.802Y-70.6
X139.28Y-55.16
X139.343Y-70.6
T5
X151.747Y-120.087
X156.747Y-120.087
T6
X111.5Y-135.22
X111.5Y-137.84
X114.0Y-135.22
X114.0Y-137.84
X116.0Y-135.22
X116.0Y-137.84
X118.5Y-135.22
X118.5Y-137.84
T7
X111.37Y-95.55
X111.37Y-96.85
X112.67Y-96.2
X113.97Y-95.55
X113.97Y-96.85
X114.4Y-117.6
X114.4Y-120.14
X114.4Y-122.68
X125.82Y-110.752
X125.82Y-113.292
X125.82Y-115.832
X125.82Y-118.372
X125.82Y-120.912
X125.82Y-123.452
X125.82Y-125.992
X125.82Y-128.532
X125.82Y-131.072
X125.82Y-133.612
X125.82Y-136.152
X125.82Y-138.692
X125.82Y-141.232
X136.55Y-101.55
X136.55Y-102.85
X137.85Y-102.2
X138.528Y-127.257
X139.15Y-101.55
X139.15Y-102.85
X141.068Y-127.257
X143.608Y-127.257
X144.25Y-59.46
X144.25Y-62.06
X144.262Y-74.9
X144.262Y-77.5
X144.9Y-60.76
X144.912Y-76.2
X145.55Y-59.46
X145.55Y-62.06
X145.562Y-74.9
X145.562Y-77.5
X146.148Y-127.257
X146.15Y-90.1
X146.15Y-92.64
X146.15Y-95.18
X148.688Y-127.257
X151.228Y-127.257
X154.8Y-101.57
X154.8Y-102.87
X156.1Y-102.22
X157.4Y-101.57
X157.4Y-102.87
X160.872Y-143.772
X160.872Y-146.312
X160.872Y-148.852
X161.388Y-128.527
X161.388Y-131.067
X161.388Y-133.607
X161.388Y-136.147
X164.4Y-59.22
X164.4Y-61.76
X164.4Y-64.3
X164.4Y-74.675
X164.4Y-77.215
X164.4Y-79.755
X164.4Y-90.025
X164.4Y-92.565
X164.4Y-95.105
X166.46Y-110.752
X166.46Y-113.292
X166.46Y-115.832
X166.46Y-118.372
X166.46Y-120.912
X166.46Y-123.452
X166.46Y-125.992
X166.46Y-128.532
X166.46Y-131.072
X166.46Y-133.612
X166.46Y-136.152
X166.46Y-138.692
X166.46Y-141.232
X169.0Y-110.752
X169.0Y-113.292
X169.0Y-115.832
X169.0Y-118.372
X169.0Y-120.912
X169.0Y-123.452
X169.0Y-125.992
X169.0Y-128.532
X169.0Y-131.072
X169.0Y-133.612
X169.0Y-136.152
X169.0Y-138.692
X169.0Y-141.232
X180.7Y-105.66
X180.7Y-108.2
X180.7Y-110.74
X180.7Y-113.28
X185.5Y-106.0
X188.04Y-106.0
X190.58Y-106.0
X193.12Y-106.0
T8
X109.4Y-62.1
X109.4Y-65.6
X109.4Y-69.1
X109.4Y-72.6
X198.4Y-111.0
X198.4Y-114.5
X198.4Y-119.5
X198.4Y-123.0
X198.4Y-128.0
X198.4Y-131.5
X198.4Y-136.5
X198.4Y-140.0
X198.42Y-62.13
X198.42Y-65.63
X198.42Y-69.13
X198.42Y-74.13
X198.42Y-77.63
X198.42Y-81.13
X198.42Y-86.13
X198.42Y-89.63
X198.42Y-93.13
T9
X110.72Y-107.1
X115.72Y-107.1
X137.55Y-88.55
X137.55Y-93.55
X155.8Y-57.76
X155.8Y-62.76
X155.8Y-88.5
X155.8Y-93.5
X155.812Y-73.2
X155.812Y-78.2
X176.87Y-62.8
X176.87Y-78.8
X176.92Y-94.8
X178.87Y-56.8
X178.87Y-68.8
X178.87Y-72.8
X178.87Y-84.8
X178.92Y-88.8
X178.92Y-100.8
X191.07Y-56.8
X191.07Y-68.8
X191.07Y-72.8
X191.07Y-84.8
X191.12Y-88.8
X191.12Y-100.8
T10
X108.43Y-134.87
X108.43Y-140.55
X121.57Y-134.87
X121.57Y-140.55
T11
X127.242Y-105.012
X127.242Y-147.023
X167.273Y-105.012
X167.273Y-147.049
T12
X109.0Y-56.0
X120.0Y-117.5
X199.0Y-56.0
X199.0Y-101.0
X199.0Y-146.0
T3
G00X172.98Y-142.62
M15
G01X172.98Y-143.72
M16
G05
G00X172.98Y-147.05
M15
G01X172.98Y-147.65
M16
G05
G00X181.62Y-142.62
M15
G01X181.62Y-143.72
M16
G05
G00X181.62Y-147.05
M15
G01X181.62Y-147.65
M16
G05
T0
M30
