G04 #@! TF.GenerationSoftware,KiCad,Pcbnew,6.0.5+dfsg-1~bpo11+1*
G04 #@! TF.ProjectId,maglock,6d61676c-6f63-46b2-9e6b-696361645f70,2.1*
G04 #@! TF.SameCoordinates,Original*
G04 #@! TF.FileFunction,Paste,Top*
G04 #@! TF.FilePolarity,Positive*
%FSLAX46Y46*%
G04 Gerber Fmt 4.6, Leading zero omitted, Abs format (unit mm)*
%MOMM*%
%LPD*%
G01*
G04 APERTURE LIST*
%ADD10R,5.400000X2.900000*%
%ADD11R,1.200000X0.900000*%
%ADD12R,2.400000X3.100000*%
%ADD13R,2.200000X0.500000*%
%ADD14R,1.800000X2.500000*%
%ADD15R,2.500000X1.800000*%
%ADD16R,2.750000X3.050000*%
%ADD17R,1.200000X2.200000*%
%ADD18R,0.600000X1.450000*%
%ADD19R,0.300000X1.450000*%
%ADD20R,3.100000X2.400000*%
%ADD21R,0.500000X2.200000*%
%ADD22R,2.900000X5.400000*%
G04 APERTURE END LIST*
G36*
G01*
X107450000Y-119225000D02*
X106550000Y-119225000D01*
G75*
G02*
X106300000Y-118975000I0J250000D01*
G01*
X106300000Y-118450000D01*
G75*
G02*
X106550000Y-118200000I250000J0D01*
G01*
X107450000Y-118200000D01*
G75*
G02*
X107700000Y-118450000I0J-250000D01*
G01*
X107700000Y-118975000D01*
G75*
G02*
X107450000Y-119225000I-250000J0D01*
G01*
G37*
G36*
G01*
X107450000Y-117400000D02*
X106550000Y-117400000D01*
G75*
G02*
X106300000Y-117150000I0J250000D01*
G01*
X106300000Y-116625000D01*
G75*
G02*
X106550000Y-116375000I250000J0D01*
G01*
X107450000Y-116375000D01*
G75*
G02*
X107700000Y-116625000I0J-250000D01*
G01*
X107700000Y-117150000D01*
G75*
G02*
X107450000Y-117400000I-250000J0D01*
G01*
G37*
G36*
G01*
X141125000Y-94600000D02*
X133975000Y-94600000D01*
G75*
G02*
X133450000Y-94075000I0J525000D01*
G01*
X133450000Y-93025000D01*
G75*
G02*
X133975000Y-92500000I525000J0D01*
G01*
X141125000Y-92500000D01*
G75*
G02*
X141650000Y-93025000I0J-525000D01*
G01*
X141650000Y-94075000D01*
G75*
G02*
X141125000Y-94600000I-525000J0D01*
G01*
G37*
D10*
X137550000Y-96000000D03*
G36*
G01*
X141125000Y-89600000D02*
X133975000Y-89600000D01*
G75*
G02*
X133450000Y-89075000I0J525000D01*
G01*
X133450000Y-88025000D01*
G75*
G02*
X133975000Y-87500000I525000J0D01*
G01*
X141125000Y-87500000D01*
G75*
G02*
X141650000Y-88025000I0J-525000D01*
G01*
X141650000Y-89075000D01*
G75*
G02*
X141125000Y-89600000I-525000J0D01*
G01*
G37*
X137550000Y-86100000D03*
D11*
X173720000Y-87650000D03*
X173720000Y-90950000D03*
G36*
G01*
X142450000Y-53510000D02*
X143750000Y-53510000D01*
G75*
G02*
X144000000Y-53760000I0J-250000D01*
G01*
X144000000Y-54410000D01*
G75*
G02*
X143750000Y-54660000I-250000J0D01*
G01*
X142450000Y-54660000D01*
G75*
G02*
X142200000Y-54410000I0J250000D01*
G01*
X142200000Y-53760000D01*
G75*
G02*
X142450000Y-53510000I250000J0D01*
G01*
G37*
G36*
G01*
X142450000Y-56460000D02*
X143750000Y-56460000D01*
G75*
G02*
X144000000Y-56710000I0J-250000D01*
G01*
X144000000Y-57360000D01*
G75*
G02*
X143750000Y-57610000I-250000J0D01*
G01*
X142450000Y-57610000D01*
G75*
G02*
X142200000Y-57360000I0J250000D01*
G01*
X142200000Y-56710000D01*
G75*
G02*
X142450000Y-56460000I250000J0D01*
G01*
G37*
G36*
G01*
X162812500Y-72250000D02*
X162812500Y-71350000D01*
G75*
G02*
X163062500Y-71100000I250000J0D01*
G01*
X163712500Y-71100000D01*
G75*
G02*
X163962500Y-71350000I0J-250000D01*
G01*
X163962500Y-72250000D01*
G75*
G02*
X163712500Y-72500000I-250000J0D01*
G01*
X163062500Y-72500000D01*
G75*
G02*
X162812500Y-72250000I0J250000D01*
G01*
G37*
G36*
G01*
X164862500Y-72250000D02*
X164862500Y-71350000D01*
G75*
G02*
X165112500Y-71100000I250000J0D01*
G01*
X165762500Y-71100000D01*
G75*
G02*
X166012500Y-71350000I0J-250000D01*
G01*
X166012500Y-72250000D01*
G75*
G02*
X165762500Y-72500000I-250000J0D01*
G01*
X165112500Y-72500000D01*
G75*
G02*
X164862500Y-72250000I0J250000D01*
G01*
G37*
G36*
G01*
X188712500Y-136050000D02*
X188712500Y-136950000D01*
G75*
G02*
X188462500Y-137200000I-250000J0D01*
G01*
X187937500Y-137200000D01*
G75*
G02*
X187687500Y-136950000I0J250000D01*
G01*
X187687500Y-136050000D01*
G75*
G02*
X187937500Y-135800000I250000J0D01*
G01*
X188462500Y-135800000D01*
G75*
G02*
X188712500Y-136050000I0J-250000D01*
G01*
G37*
G36*
G01*
X186887500Y-136050000D02*
X186887500Y-136950000D01*
G75*
G02*
X186637500Y-137200000I-250000J0D01*
G01*
X186112500Y-137200000D01*
G75*
G02*
X185862500Y-136950000I0J250000D01*
G01*
X185862500Y-136050000D01*
G75*
G02*
X186112500Y-135800000I250000J0D01*
G01*
X186637500Y-135800000D01*
G75*
G02*
X186887500Y-136050000I0J-250000D01*
G01*
G37*
G36*
G01*
X162800000Y-87550000D02*
X162800000Y-86650000D01*
G75*
G02*
X163050000Y-86400000I250000J0D01*
G01*
X163700000Y-86400000D01*
G75*
G02*
X163950000Y-86650000I0J-250000D01*
G01*
X163950000Y-87550000D01*
G75*
G02*
X163700000Y-87800000I-250000J0D01*
G01*
X163050000Y-87800000D01*
G75*
G02*
X162800000Y-87550000I0J250000D01*
G01*
G37*
G36*
G01*
X164850000Y-87550000D02*
X164850000Y-86650000D01*
G75*
G02*
X165100000Y-86400000I250000J0D01*
G01*
X165750000Y-86400000D01*
G75*
G02*
X166000000Y-86650000I0J-250000D01*
G01*
X166000000Y-87550000D01*
G75*
G02*
X165750000Y-87800000I-250000J0D01*
G01*
X165100000Y-87800000D01*
G75*
G02*
X164850000Y-87550000I0J250000D01*
G01*
G37*
G36*
G01*
X134650000Y-58485000D02*
X134650000Y-59435000D01*
G75*
G02*
X134400000Y-59685000I-250000J0D01*
G01*
X133900000Y-59685000D01*
G75*
G02*
X133650000Y-59435000I0J250000D01*
G01*
X133650000Y-58485000D01*
G75*
G02*
X133900000Y-58235000I250000J0D01*
G01*
X134400000Y-58235000D01*
G75*
G02*
X134650000Y-58485000I0J-250000D01*
G01*
G37*
G36*
G01*
X132750000Y-58485000D02*
X132750000Y-59435000D01*
G75*
G02*
X132500000Y-59685000I-250000J0D01*
G01*
X132000000Y-59685000D01*
G75*
G02*
X131750000Y-59435000I0J250000D01*
G01*
X131750000Y-58485000D01*
G75*
G02*
X132000000Y-58235000I250000J0D01*
G01*
X132500000Y-58235000D01*
G75*
G02*
X132750000Y-58485000I0J-250000D01*
G01*
G37*
G36*
G01*
X182205000Y-137030000D02*
X182205000Y-137980000D01*
G75*
G02*
X181955000Y-138230000I-250000J0D01*
G01*
X181455000Y-138230000D01*
G75*
G02*
X181205000Y-137980000I0J250000D01*
G01*
X181205000Y-137030000D01*
G75*
G02*
X181455000Y-136780000I250000J0D01*
G01*
X181955000Y-136780000D01*
G75*
G02*
X182205000Y-137030000I0J-250000D01*
G01*
G37*
G36*
G01*
X180305000Y-137030000D02*
X180305000Y-137980000D01*
G75*
G02*
X180055000Y-138230000I-250000J0D01*
G01*
X179555000Y-138230000D01*
G75*
G02*
X179305000Y-137980000I0J250000D01*
G01*
X179305000Y-137030000D01*
G75*
G02*
X179555000Y-136780000I250000J0D01*
G01*
X180055000Y-136780000D01*
G75*
G02*
X180305000Y-137030000I0J-250000D01*
G01*
G37*
G36*
G01*
X130625000Y-96150000D02*
X130625000Y-97450000D01*
G75*
G02*
X130375000Y-97700000I-250000J0D01*
G01*
X129725000Y-97700000D01*
G75*
G02*
X129475000Y-97450000I0J250000D01*
G01*
X129475000Y-96150000D01*
G75*
G02*
X129725000Y-95900000I250000J0D01*
G01*
X130375000Y-95900000D01*
G75*
G02*
X130625000Y-96150000I0J-250000D01*
G01*
G37*
G36*
G01*
X127675000Y-96150000D02*
X127675000Y-97450000D01*
G75*
G02*
X127425000Y-97700000I-250000J0D01*
G01*
X126775000Y-97700000D01*
G75*
G02*
X126525000Y-97450000I0J250000D01*
G01*
X126525000Y-96150000D01*
G75*
G02*
X126775000Y-95900000I250000J0D01*
G01*
X127425000Y-95900000D01*
G75*
G02*
X127675000Y-96150000I0J-250000D01*
G01*
G37*
G36*
G01*
X107050000Y-128675000D02*
X107950000Y-128675000D01*
G75*
G02*
X108200000Y-128925000I0J-250000D01*
G01*
X108200000Y-129450000D01*
G75*
G02*
X107950000Y-129700000I-250000J0D01*
G01*
X107050000Y-129700000D01*
G75*
G02*
X106800000Y-129450000I0J250000D01*
G01*
X106800000Y-128925000D01*
G75*
G02*
X107050000Y-128675000I250000J0D01*
G01*
G37*
G36*
G01*
X107050000Y-130500000D02*
X107950000Y-130500000D01*
G75*
G02*
X108200000Y-130750000I0J-250000D01*
G01*
X108200000Y-131275000D01*
G75*
G02*
X107950000Y-131525000I-250000J0D01*
G01*
X107050000Y-131525000D01*
G75*
G02*
X106800000Y-131275000I0J250000D01*
G01*
X106800000Y-130750000D01*
G75*
G02*
X107050000Y-130500000I250000J0D01*
G01*
G37*
G36*
G01*
X188725000Y-112550000D02*
X188725000Y-113450000D01*
G75*
G02*
X188475000Y-113700000I-250000J0D01*
G01*
X187950000Y-113700000D01*
G75*
G02*
X187700000Y-113450000I0J250000D01*
G01*
X187700000Y-112550000D01*
G75*
G02*
X187950000Y-112300000I250000J0D01*
G01*
X188475000Y-112300000D01*
G75*
G02*
X188725000Y-112550000I0J-250000D01*
G01*
G37*
G36*
G01*
X186900000Y-112550000D02*
X186900000Y-113450000D01*
G75*
G02*
X186650000Y-113700000I-250000J0D01*
G01*
X186125000Y-113700000D01*
G75*
G02*
X185875000Y-113450000I0J250000D01*
G01*
X185875000Y-112550000D01*
G75*
G02*
X186125000Y-112300000I250000J0D01*
G01*
X186650000Y-112300000D01*
G75*
G02*
X186900000Y-112550000I0J-250000D01*
G01*
G37*
G36*
G01*
X164050000Y-116450000D02*
X162750000Y-116450000D01*
G75*
G02*
X162500000Y-116200000I0J250000D01*
G01*
X162500000Y-115550000D01*
G75*
G02*
X162750000Y-115300000I250000J0D01*
G01*
X164050000Y-115300000D01*
G75*
G02*
X164300000Y-115550000I0J-250000D01*
G01*
X164300000Y-116200000D01*
G75*
G02*
X164050000Y-116450000I-250000J0D01*
G01*
G37*
G36*
G01*
X164050000Y-113500000D02*
X162750000Y-113500000D01*
G75*
G02*
X162500000Y-113250000I0J250000D01*
G01*
X162500000Y-112600000D01*
G75*
G02*
X162750000Y-112350000I250000J0D01*
G01*
X164050000Y-112350000D01*
G75*
G02*
X164300000Y-112600000I0J-250000D01*
G01*
X164300000Y-113250000D01*
G75*
G02*
X164050000Y-113500000I-250000J0D01*
G01*
G37*
G36*
G01*
X148850000Y-102370000D02*
X148850000Y-101070000D01*
G75*
G02*
X149100000Y-100820000I250000J0D01*
G01*
X149750000Y-100820000D01*
G75*
G02*
X150000000Y-101070000I0J-250000D01*
G01*
X150000000Y-102370000D01*
G75*
G02*
X149750000Y-102620000I-250000J0D01*
G01*
X149100000Y-102620000D01*
G75*
G02*
X148850000Y-102370000I0J250000D01*
G01*
G37*
G36*
G01*
X151800000Y-102370000D02*
X151800000Y-101070000D01*
G75*
G02*
X152050000Y-100820000I250000J0D01*
G01*
X152700000Y-100820000D01*
G75*
G02*
X152950000Y-101070000I0J-250000D01*
G01*
X152950000Y-102370000D01*
G75*
G02*
X152700000Y-102620000I-250000J0D01*
G01*
X152050000Y-102620000D01*
G75*
G02*
X151800000Y-102370000I0J250000D01*
G01*
G37*
G36*
G01*
X130625000Y-93750000D02*
X130625000Y-95050000D01*
G75*
G02*
X130375000Y-95300000I-250000J0D01*
G01*
X129725000Y-95300000D01*
G75*
G02*
X129475000Y-95050000I0J250000D01*
G01*
X129475000Y-93750000D01*
G75*
G02*
X129725000Y-93500000I250000J0D01*
G01*
X130375000Y-93500000D01*
G75*
G02*
X130625000Y-93750000I0J-250000D01*
G01*
G37*
G36*
G01*
X127675000Y-93750000D02*
X127675000Y-95050000D01*
G75*
G02*
X127425000Y-95300000I-250000J0D01*
G01*
X126775000Y-95300000D01*
G75*
G02*
X126525000Y-95050000I0J250000D01*
G01*
X126525000Y-93750000D01*
G75*
G02*
X126775000Y-93500000I250000J0D01*
G01*
X127425000Y-93500000D01*
G75*
G02*
X127675000Y-93750000I0J-250000D01*
G01*
G37*
G36*
G01*
X147250000Y-53510000D02*
X148550000Y-53510000D01*
G75*
G02*
X148800000Y-53760000I0J-250000D01*
G01*
X148800000Y-54410000D01*
G75*
G02*
X148550000Y-54660000I-250000J0D01*
G01*
X147250000Y-54660000D01*
G75*
G02*
X147000000Y-54410000I0J250000D01*
G01*
X147000000Y-53760000D01*
G75*
G02*
X147250000Y-53510000I250000J0D01*
G01*
G37*
G36*
G01*
X147250000Y-56460000D02*
X148550000Y-56460000D01*
G75*
G02*
X148800000Y-56710000I0J-250000D01*
G01*
X148800000Y-57360000D01*
G75*
G02*
X148550000Y-57610000I-250000J0D01*
G01*
X147250000Y-57610000D01*
G75*
G02*
X147000000Y-57360000I0J250000D01*
G01*
X147000000Y-56710000D01*
G75*
G02*
X147250000Y-56460000I250000J0D01*
G01*
G37*
G36*
G01*
X194512500Y-136050000D02*
X194512500Y-136950000D01*
G75*
G02*
X194262500Y-137200000I-250000J0D01*
G01*
X193737500Y-137200000D01*
G75*
G02*
X193487500Y-136950000I0J250000D01*
G01*
X193487500Y-136050000D01*
G75*
G02*
X193737500Y-135800000I250000J0D01*
G01*
X194262500Y-135800000D01*
G75*
G02*
X194512500Y-136050000I0J-250000D01*
G01*
G37*
G36*
G01*
X192687500Y-136050000D02*
X192687500Y-136950000D01*
G75*
G02*
X192437500Y-137200000I-250000J0D01*
G01*
X191912500Y-137200000D01*
G75*
G02*
X191662500Y-136950000I0J250000D01*
G01*
X191662500Y-136050000D01*
G75*
G02*
X191912500Y-135800000I250000J0D01*
G01*
X192437500Y-135800000D01*
G75*
G02*
X192687500Y-136050000I0J-250000D01*
G01*
G37*
G36*
G01*
X162418000Y-122712000D02*
X161518000Y-122712000D01*
G75*
G02*
X161268000Y-122462000I0J250000D01*
G01*
X161268000Y-121937000D01*
G75*
G02*
X161518000Y-121687000I250000J0D01*
G01*
X162418000Y-121687000D01*
G75*
G02*
X162668000Y-121937000I0J-250000D01*
G01*
X162668000Y-122462000D01*
G75*
G02*
X162418000Y-122712000I-250000J0D01*
G01*
G37*
G36*
G01*
X162418000Y-120887000D02*
X161518000Y-120887000D01*
G75*
G02*
X161268000Y-120637000I0J250000D01*
G01*
X161268000Y-120112000D01*
G75*
G02*
X161518000Y-119862000I250000J0D01*
G01*
X162418000Y-119862000D01*
G75*
G02*
X162668000Y-120112000I0J-250000D01*
G01*
X162668000Y-120637000D01*
G75*
G02*
X162418000Y-120887000I-250000J0D01*
G01*
G37*
G36*
G01*
X168295000Y-99150000D02*
X168295000Y-98250000D01*
G75*
G02*
X168545000Y-98000000I250000J0D01*
G01*
X169070000Y-98000000D01*
G75*
G02*
X169320000Y-98250000I0J-250000D01*
G01*
X169320000Y-99150000D01*
G75*
G02*
X169070000Y-99400000I-250000J0D01*
G01*
X168545000Y-99400000D01*
G75*
G02*
X168295000Y-99150000I0J250000D01*
G01*
G37*
G36*
G01*
X170120000Y-99150000D02*
X170120000Y-98250000D01*
G75*
G02*
X170370000Y-98000000I250000J0D01*
G01*
X170895000Y-98000000D01*
G75*
G02*
X171145000Y-98250000I0J-250000D01*
G01*
X171145000Y-99150000D01*
G75*
G02*
X170895000Y-99400000I-250000J0D01*
G01*
X170370000Y-99400000D01*
G75*
G02*
X170120000Y-99150000I0J250000D01*
G01*
G37*
G36*
G01*
X132100000Y-106150000D02*
X130800000Y-106150000D01*
G75*
G02*
X130550000Y-105900000I0J250000D01*
G01*
X130550000Y-105250000D01*
G75*
G02*
X130800000Y-105000000I250000J0D01*
G01*
X132100000Y-105000000D01*
G75*
G02*
X132350000Y-105250000I0J-250000D01*
G01*
X132350000Y-105900000D01*
G75*
G02*
X132100000Y-106150000I-250000J0D01*
G01*
G37*
G36*
G01*
X132100000Y-103200000D02*
X130800000Y-103200000D01*
G75*
G02*
X130550000Y-102950000I0J250000D01*
G01*
X130550000Y-102300000D01*
G75*
G02*
X130800000Y-102050000I250000J0D01*
G01*
X132100000Y-102050000D01*
G75*
G02*
X132350000Y-102300000I0J-250000D01*
G01*
X132350000Y-102950000D01*
G75*
G02*
X132100000Y-103200000I-250000J0D01*
G01*
G37*
G36*
G01*
X129612500Y-53500000D02*
X129612500Y-54400000D01*
G75*
G02*
X129362500Y-54650000I-250000J0D01*
G01*
X128837500Y-54650000D01*
G75*
G02*
X128587500Y-54400000I0J250000D01*
G01*
X128587500Y-53500000D01*
G75*
G02*
X128837500Y-53250000I250000J0D01*
G01*
X129362500Y-53250000D01*
G75*
G02*
X129612500Y-53500000I0J-250000D01*
G01*
G37*
G36*
G01*
X127787500Y-53500000D02*
X127787500Y-54400000D01*
G75*
G02*
X127537500Y-54650000I-250000J0D01*
G01*
X127012500Y-54650000D01*
G75*
G02*
X126762500Y-54400000I0J250000D01*
G01*
X126762500Y-53500000D01*
G75*
G02*
X127012500Y-53250000I250000J0D01*
G01*
X127537500Y-53250000D01*
G75*
G02*
X127787500Y-53500000I0J-250000D01*
G01*
G37*
G36*
G01*
X118000000Y-131600000D02*
X117700000Y-131600000D01*
G75*
G02*
X117550000Y-131450000I0J150000D01*
G01*
X117550000Y-130425000D01*
G75*
G02*
X117700000Y-130275000I150000J0D01*
G01*
X118000000Y-130275000D01*
G75*
G02*
X118150000Y-130425000I0J-150000D01*
G01*
X118150000Y-131450000D01*
G75*
G02*
X118000000Y-131600000I-150000J0D01*
G01*
G37*
G36*
G01*
X118950000Y-131600000D02*
X118650000Y-131600000D01*
G75*
G02*
X118500000Y-131450000I0J150000D01*
G01*
X118500000Y-130425000D01*
G75*
G02*
X118650000Y-130275000I150000J0D01*
G01*
X118950000Y-130275000D01*
G75*
G02*
X119100000Y-130425000I0J-150000D01*
G01*
X119100000Y-131450000D01*
G75*
G02*
X118950000Y-131600000I-150000J0D01*
G01*
G37*
G36*
G01*
X119900000Y-131600000D02*
X119600000Y-131600000D01*
G75*
G02*
X119450000Y-131450000I0J150000D01*
G01*
X119450000Y-130425000D01*
G75*
G02*
X119600000Y-130275000I150000J0D01*
G01*
X119900000Y-130275000D01*
G75*
G02*
X120050000Y-130425000I0J-150000D01*
G01*
X120050000Y-131450000D01*
G75*
G02*
X119900000Y-131600000I-150000J0D01*
G01*
G37*
G36*
G01*
X119900000Y-129325000D02*
X119600000Y-129325000D01*
G75*
G02*
X119450000Y-129175000I0J150000D01*
G01*
X119450000Y-128150000D01*
G75*
G02*
X119600000Y-128000000I150000J0D01*
G01*
X119900000Y-128000000D01*
G75*
G02*
X120050000Y-128150000I0J-150000D01*
G01*
X120050000Y-129175000D01*
G75*
G02*
X119900000Y-129325000I-150000J0D01*
G01*
G37*
G36*
G01*
X118950000Y-129325000D02*
X118650000Y-129325000D01*
G75*
G02*
X118500000Y-129175000I0J150000D01*
G01*
X118500000Y-128150000D01*
G75*
G02*
X118650000Y-128000000I150000J0D01*
G01*
X118950000Y-128000000D01*
G75*
G02*
X119100000Y-128150000I0J-150000D01*
G01*
X119100000Y-129175000D01*
G75*
G02*
X118950000Y-129325000I-150000J0D01*
G01*
G37*
G36*
G01*
X118000000Y-129325000D02*
X117700000Y-129325000D01*
G75*
G02*
X117550000Y-129175000I0J150000D01*
G01*
X117550000Y-128150000D01*
G75*
G02*
X117700000Y-128000000I150000J0D01*
G01*
X118000000Y-128000000D01*
G75*
G02*
X118150000Y-128150000I0J-150000D01*
G01*
X118150000Y-129175000D01*
G75*
G02*
X118000000Y-129325000I-150000J0D01*
G01*
G37*
D12*
X144912500Y-76200000D03*
D13*
X147787500Y-78105000D03*
X147787500Y-76835000D03*
X147787500Y-75565000D03*
X147787500Y-74295000D03*
X142037500Y-74295000D03*
X142037500Y-75565000D03*
X142037500Y-76835000D03*
X142037500Y-78105000D03*
G36*
G01*
X110050000Y-128675000D02*
X110950000Y-128675000D01*
G75*
G02*
X111200000Y-128925000I0J-250000D01*
G01*
X111200000Y-129450000D01*
G75*
G02*
X110950000Y-129700000I-250000J0D01*
G01*
X110050000Y-129700000D01*
G75*
G02*
X109800000Y-129450000I0J250000D01*
G01*
X109800000Y-128925000D01*
G75*
G02*
X110050000Y-128675000I250000J0D01*
G01*
G37*
G36*
G01*
X110050000Y-130500000D02*
X110950000Y-130500000D01*
G75*
G02*
X111200000Y-130750000I0J-250000D01*
G01*
X111200000Y-131275000D01*
G75*
G02*
X110950000Y-131525000I-250000J0D01*
G01*
X110050000Y-131525000D01*
G75*
G02*
X109800000Y-131275000I0J250000D01*
G01*
X109800000Y-130750000D01*
G75*
G02*
X110050000Y-130500000I250000J0D01*
G01*
G37*
G36*
G01*
X162800000Y-56810000D02*
X162800000Y-55910000D01*
G75*
G02*
X163050000Y-55660000I250000J0D01*
G01*
X163700000Y-55660000D01*
G75*
G02*
X163950000Y-55910000I0J-250000D01*
G01*
X163950000Y-56810000D01*
G75*
G02*
X163700000Y-57060000I-250000J0D01*
G01*
X163050000Y-57060000D01*
G75*
G02*
X162800000Y-56810000I0J250000D01*
G01*
G37*
G36*
G01*
X164850000Y-56810000D02*
X164850000Y-55910000D01*
G75*
G02*
X165100000Y-55660000I250000J0D01*
G01*
X165750000Y-55660000D01*
G75*
G02*
X166000000Y-55910000I0J-250000D01*
G01*
X166000000Y-56810000D01*
G75*
G02*
X165750000Y-57060000I-250000J0D01*
G01*
X165100000Y-57060000D01*
G75*
G02*
X164850000Y-56810000I0J250000D01*
G01*
G37*
G36*
G01*
X130400000Y-101112500D02*
X129500000Y-101112500D01*
G75*
G02*
X129250000Y-100862500I0J250000D01*
G01*
X129250000Y-100337500D01*
G75*
G02*
X129500000Y-100087500I250000J0D01*
G01*
X130400000Y-100087500D01*
G75*
G02*
X130650000Y-100337500I0J-250000D01*
G01*
X130650000Y-100862500D01*
G75*
G02*
X130400000Y-101112500I-250000J0D01*
G01*
G37*
G36*
G01*
X130400000Y-99287500D02*
X129500000Y-99287500D01*
G75*
G02*
X129250000Y-99037500I0J250000D01*
G01*
X129250000Y-98512500D01*
G75*
G02*
X129500000Y-98262500I250000J0D01*
G01*
X130400000Y-98262500D01*
G75*
G02*
X130650000Y-98512500I0J-250000D01*
G01*
X130650000Y-99037500D01*
G75*
G02*
X130400000Y-99287500I-250000J0D01*
G01*
G37*
G36*
G01*
X171070000Y-75075000D02*
X171970000Y-75075000D01*
G75*
G02*
X172220000Y-75325000I0J-250000D01*
G01*
X172220000Y-75850000D01*
G75*
G02*
X171970000Y-76100000I-250000J0D01*
G01*
X171070000Y-76100000D01*
G75*
G02*
X170820000Y-75850000I0J250000D01*
G01*
X170820000Y-75325000D01*
G75*
G02*
X171070000Y-75075000I250000J0D01*
G01*
G37*
G36*
G01*
X171070000Y-76900000D02*
X171970000Y-76900000D01*
G75*
G02*
X172220000Y-77150000I0J-250000D01*
G01*
X172220000Y-77675000D01*
G75*
G02*
X171970000Y-77925000I-250000J0D01*
G01*
X171070000Y-77925000D01*
G75*
G02*
X170820000Y-77675000I0J250000D01*
G01*
X170820000Y-77150000D01*
G75*
G02*
X171070000Y-76900000I250000J0D01*
G01*
G37*
G36*
G01*
X171070000Y-59075000D02*
X171970000Y-59075000D01*
G75*
G02*
X172220000Y-59325000I0J-250000D01*
G01*
X172220000Y-59850000D01*
G75*
G02*
X171970000Y-60100000I-250000J0D01*
G01*
X171070000Y-60100000D01*
G75*
G02*
X170820000Y-59850000I0J250000D01*
G01*
X170820000Y-59325000D01*
G75*
G02*
X171070000Y-59075000I250000J0D01*
G01*
G37*
G36*
G01*
X171070000Y-60900000D02*
X171970000Y-60900000D01*
G75*
G02*
X172220000Y-61150000I0J-250000D01*
G01*
X172220000Y-61675000D01*
G75*
G02*
X171970000Y-61925000I-250000J0D01*
G01*
X171070000Y-61925000D01*
G75*
G02*
X170820000Y-61675000I0J250000D01*
G01*
X170820000Y-61150000D01*
G75*
G02*
X171070000Y-60900000I250000J0D01*
G01*
G37*
G36*
G01*
X137650000Y-63210000D02*
X136350000Y-63210000D01*
G75*
G02*
X136100000Y-62960000I0J250000D01*
G01*
X136100000Y-62310000D01*
G75*
G02*
X136350000Y-62060000I250000J0D01*
G01*
X137650000Y-62060000D01*
G75*
G02*
X137900000Y-62310000I0J-250000D01*
G01*
X137900000Y-62960000D01*
G75*
G02*
X137650000Y-63210000I-250000J0D01*
G01*
G37*
G36*
G01*
X137650000Y-60260000D02*
X136350000Y-60260000D01*
G75*
G02*
X136100000Y-60010000I0J250000D01*
G01*
X136100000Y-59360000D01*
G75*
G02*
X136350000Y-59110000I250000J0D01*
G01*
X137650000Y-59110000D01*
G75*
G02*
X137900000Y-59360000I0J-250000D01*
G01*
X137900000Y-60010000D01*
G75*
G02*
X137650000Y-60260000I-250000J0D01*
G01*
G37*
G36*
G01*
X194525000Y-130650000D02*
X194525000Y-131550000D01*
G75*
G02*
X194275000Y-131800000I-250000J0D01*
G01*
X193750000Y-131800000D01*
G75*
G02*
X193500000Y-131550000I0J250000D01*
G01*
X193500000Y-130650000D01*
G75*
G02*
X193750000Y-130400000I250000J0D01*
G01*
X194275000Y-130400000D01*
G75*
G02*
X194525000Y-130650000I0J-250000D01*
G01*
G37*
G36*
G01*
X192700000Y-130650000D02*
X192700000Y-131550000D01*
G75*
G02*
X192450000Y-131800000I-250000J0D01*
G01*
X191925000Y-131800000D01*
G75*
G02*
X191675000Y-131550000I0J250000D01*
G01*
X191675000Y-130650000D01*
G75*
G02*
X191925000Y-130400000I250000J0D01*
G01*
X192450000Y-130400000D01*
G75*
G02*
X192700000Y-130650000I0J-250000D01*
G01*
G37*
G36*
G01*
X160418000Y-122712000D02*
X159518000Y-122712000D01*
G75*
G02*
X159268000Y-122462000I0J250000D01*
G01*
X159268000Y-121937000D01*
G75*
G02*
X159518000Y-121687000I250000J0D01*
G01*
X160418000Y-121687000D01*
G75*
G02*
X160668000Y-121937000I0J-250000D01*
G01*
X160668000Y-122462000D01*
G75*
G02*
X160418000Y-122712000I-250000J0D01*
G01*
G37*
G36*
G01*
X160418000Y-120887000D02*
X159518000Y-120887000D01*
G75*
G02*
X159268000Y-120637000I0J250000D01*
G01*
X159268000Y-120112000D01*
G75*
G02*
X159518000Y-119862000I250000J0D01*
G01*
X160418000Y-119862000D01*
G75*
G02*
X160668000Y-120112000I0J-250000D01*
G01*
X160668000Y-120637000D01*
G75*
G02*
X160418000Y-120887000I-250000J0D01*
G01*
G37*
D14*
X108070000Y-98900000D03*
X108070000Y-94900000D03*
G36*
G01*
X107950000Y-128112500D02*
X107050000Y-128112500D01*
G75*
G02*
X106800000Y-127862500I0J250000D01*
G01*
X106800000Y-127212500D01*
G75*
G02*
X107050000Y-126962500I250000J0D01*
G01*
X107950000Y-126962500D01*
G75*
G02*
X108200000Y-127212500I0J-250000D01*
G01*
X108200000Y-127862500D01*
G75*
G02*
X107950000Y-128112500I-250000J0D01*
G01*
G37*
G36*
G01*
X107950000Y-126062500D02*
X107050000Y-126062500D01*
G75*
G02*
X106800000Y-125812500I0J250000D01*
G01*
X106800000Y-125162500D01*
G75*
G02*
X107050000Y-124912500I250000J0D01*
G01*
X107950000Y-124912500D01*
G75*
G02*
X108200000Y-125162500I0J-250000D01*
G01*
X108200000Y-125812500D01*
G75*
G02*
X107950000Y-126062500I-250000J0D01*
G01*
G37*
G36*
G01*
X171375000Y-116250000D02*
X171375000Y-115350000D01*
G75*
G02*
X171625000Y-115100000I250000J0D01*
G01*
X172150000Y-115100000D01*
G75*
G02*
X172400000Y-115350000I0J-250000D01*
G01*
X172400000Y-116250000D01*
G75*
G02*
X172150000Y-116500000I-250000J0D01*
G01*
X171625000Y-116500000D01*
G75*
G02*
X171375000Y-116250000I0J250000D01*
G01*
G37*
G36*
G01*
X173200000Y-116250000D02*
X173200000Y-115350000D01*
G75*
G02*
X173450000Y-115100000I250000J0D01*
G01*
X173975000Y-115100000D01*
G75*
G02*
X174225000Y-115350000I0J-250000D01*
G01*
X174225000Y-116250000D01*
G75*
G02*
X173975000Y-116500000I-250000J0D01*
G01*
X173450000Y-116500000D01*
G75*
G02*
X173200000Y-116250000I0J250000D01*
G01*
G37*
D11*
X173720000Y-71650000D03*
X173720000Y-74950000D03*
G36*
G01*
X117320000Y-100150000D02*
X116020000Y-100150000D01*
G75*
G02*
X115770000Y-99900000I0J250000D01*
G01*
X115770000Y-99250000D01*
G75*
G02*
X116020000Y-99000000I250000J0D01*
G01*
X117320000Y-99000000D01*
G75*
G02*
X117570000Y-99250000I0J-250000D01*
G01*
X117570000Y-99900000D01*
G75*
G02*
X117320000Y-100150000I-250000J0D01*
G01*
G37*
G36*
G01*
X117320000Y-97200000D02*
X116020000Y-97200000D01*
G75*
G02*
X115770000Y-96950000I0J250000D01*
G01*
X115770000Y-96300000D01*
G75*
G02*
X116020000Y-96050000I250000J0D01*
G01*
X117320000Y-96050000D01*
G75*
G02*
X117570000Y-96300000I0J-250000D01*
G01*
X117570000Y-96950000D01*
G75*
G02*
X117320000Y-97200000I-250000J0D01*
G01*
G37*
G36*
G01*
X110950000Y-128112500D02*
X110050000Y-128112500D01*
G75*
G02*
X109800000Y-127862500I0J250000D01*
G01*
X109800000Y-127212500D01*
G75*
G02*
X110050000Y-126962500I250000J0D01*
G01*
X110950000Y-126962500D01*
G75*
G02*
X111200000Y-127212500I0J-250000D01*
G01*
X111200000Y-127862500D01*
G75*
G02*
X110950000Y-128112500I-250000J0D01*
G01*
G37*
G36*
G01*
X110950000Y-126062500D02*
X110050000Y-126062500D01*
G75*
G02*
X109800000Y-125812500I0J250000D01*
G01*
X109800000Y-125162500D01*
G75*
G02*
X110050000Y-124912500I250000J0D01*
G01*
X110950000Y-124912500D01*
G75*
G02*
X111200000Y-125162500I0J-250000D01*
G01*
X111200000Y-125812500D01*
G75*
G02*
X110950000Y-126062500I-250000J0D01*
G01*
G37*
D10*
X155800000Y-95950000D03*
G36*
G01*
X159375000Y-94550000D02*
X152225000Y-94550000D01*
G75*
G02*
X151700000Y-94025000I0J525000D01*
G01*
X151700000Y-92975000D01*
G75*
G02*
X152225000Y-92450000I525000J0D01*
G01*
X159375000Y-92450000D01*
G75*
G02*
X159900000Y-92975000I0J-525000D01*
G01*
X159900000Y-94025000D01*
G75*
G02*
X159375000Y-94550000I-525000J0D01*
G01*
G37*
G36*
G01*
X159375000Y-89550000D02*
X152225000Y-89550000D01*
G75*
G02*
X151700000Y-89025000I0J525000D01*
G01*
X151700000Y-87975000D01*
G75*
G02*
X152225000Y-87450000I525000J0D01*
G01*
X159375000Y-87450000D01*
G75*
G02*
X159900000Y-87975000I0J-525000D01*
G01*
X159900000Y-89025000D01*
G75*
G02*
X159375000Y-89550000I-525000J0D01*
G01*
G37*
X155800000Y-86050000D03*
G36*
G01*
X151750000Y-107825000D02*
X151750000Y-108775000D01*
G75*
G02*
X151500000Y-109025000I-250000J0D01*
G01*
X151000000Y-109025000D01*
G75*
G02*
X150750000Y-108775000I0J250000D01*
G01*
X150750000Y-107825000D01*
G75*
G02*
X151000000Y-107575000I250000J0D01*
G01*
X151500000Y-107575000D01*
G75*
G02*
X151750000Y-107825000I0J-250000D01*
G01*
G37*
G36*
G01*
X149850000Y-107825000D02*
X149850000Y-108775000D01*
G75*
G02*
X149600000Y-109025000I-250000J0D01*
G01*
X149100000Y-109025000D01*
G75*
G02*
X148850000Y-108775000I0J250000D01*
G01*
X148850000Y-107825000D01*
G75*
G02*
X149100000Y-107575000I250000J0D01*
G01*
X149600000Y-107575000D01*
G75*
G02*
X149850000Y-107825000I0J-250000D01*
G01*
G37*
G36*
G01*
X188737500Y-140025000D02*
X188737500Y-140975000D01*
G75*
G02*
X188487500Y-141225000I-250000J0D01*
G01*
X187987500Y-141225000D01*
G75*
G02*
X187737500Y-140975000I0J250000D01*
G01*
X187737500Y-140025000D01*
G75*
G02*
X187987500Y-139775000I250000J0D01*
G01*
X188487500Y-139775000D01*
G75*
G02*
X188737500Y-140025000I0J-250000D01*
G01*
G37*
G36*
G01*
X186837500Y-140025000D02*
X186837500Y-140975000D01*
G75*
G02*
X186587500Y-141225000I-250000J0D01*
G01*
X186087500Y-141225000D01*
G75*
G02*
X185837500Y-140975000I0J250000D01*
G01*
X185837500Y-140025000D01*
G75*
G02*
X186087500Y-139775000I250000J0D01*
G01*
X186587500Y-139775000D01*
G75*
G02*
X186837500Y-140025000I0J-250000D01*
G01*
G37*
D11*
X173720000Y-55650000D03*
X173720000Y-58950000D03*
G36*
G01*
X123650000Y-64667500D02*
X125650000Y-64667500D01*
G75*
G02*
X125900000Y-64917500I0J-250000D01*
G01*
X125900000Y-68417500D01*
G75*
G02*
X125650000Y-68667500I-250000J0D01*
G01*
X123650000Y-68667500D01*
G75*
G02*
X123400000Y-68417500I0J250000D01*
G01*
X123400000Y-64917500D01*
G75*
G02*
X123650000Y-64667500I250000J0D01*
G01*
G37*
G36*
G01*
X123650000Y-72667500D02*
X125650000Y-72667500D01*
G75*
G02*
X125900000Y-72917500I0J-250000D01*
G01*
X125900000Y-76417500D01*
G75*
G02*
X125650000Y-76667500I-250000J0D01*
G01*
X123650000Y-76667500D01*
G75*
G02*
X123400000Y-76417500I0J250000D01*
G01*
X123400000Y-72917500D01*
G75*
G02*
X123650000Y-72667500I250000J0D01*
G01*
G37*
G36*
G01*
X142462500Y-68950000D02*
X143762500Y-68950000D01*
G75*
G02*
X144012500Y-69200000I0J-250000D01*
G01*
X144012500Y-69850000D01*
G75*
G02*
X143762500Y-70100000I-250000J0D01*
G01*
X142462500Y-70100000D01*
G75*
G02*
X142212500Y-69850000I0J250000D01*
G01*
X142212500Y-69200000D01*
G75*
G02*
X142462500Y-68950000I250000J0D01*
G01*
G37*
G36*
G01*
X142462500Y-71900000D02*
X143762500Y-71900000D01*
G75*
G02*
X144012500Y-72150000I0J-250000D01*
G01*
X144012500Y-72800000D01*
G75*
G02*
X143762500Y-73050000I-250000J0D01*
G01*
X142462500Y-73050000D01*
G75*
G02*
X142212500Y-72800000I0J250000D01*
G01*
X142212500Y-72150000D01*
G75*
G02*
X142462500Y-71900000I250000J0D01*
G01*
G37*
D15*
X154200000Y-113100000D03*
X150200000Y-113100000D03*
G36*
G01*
X171970000Y-74400000D02*
X171070000Y-74400000D01*
G75*
G02*
X170820000Y-74150000I0J250000D01*
G01*
X170820000Y-73500000D01*
G75*
G02*
X171070000Y-73250000I250000J0D01*
G01*
X171970000Y-73250000D01*
G75*
G02*
X172220000Y-73500000I0J-250000D01*
G01*
X172220000Y-74150000D01*
G75*
G02*
X171970000Y-74400000I-250000J0D01*
G01*
G37*
G36*
G01*
X171970000Y-72350000D02*
X171070000Y-72350000D01*
G75*
G02*
X170820000Y-72100000I0J250000D01*
G01*
X170820000Y-71450000D01*
G75*
G02*
X171070000Y-71200000I250000J0D01*
G01*
X171970000Y-71200000D01*
G75*
G02*
X172220000Y-71450000I0J-250000D01*
G01*
X172220000Y-72100000D01*
G75*
G02*
X171970000Y-72350000I-250000J0D01*
G01*
G37*
G36*
G01*
X144550000Y-87650000D02*
X144550000Y-86750000D01*
G75*
G02*
X144800000Y-86500000I250000J0D01*
G01*
X145450000Y-86500000D01*
G75*
G02*
X145700000Y-86750000I0J-250000D01*
G01*
X145700000Y-87650000D01*
G75*
G02*
X145450000Y-87900000I-250000J0D01*
G01*
X144800000Y-87900000D01*
G75*
G02*
X144550000Y-87650000I0J250000D01*
G01*
G37*
G36*
G01*
X146600000Y-87650000D02*
X146600000Y-86750000D01*
G75*
G02*
X146850000Y-86500000I250000J0D01*
G01*
X147500000Y-86500000D01*
G75*
G02*
X147750000Y-86750000I0J-250000D01*
G01*
X147750000Y-87650000D01*
G75*
G02*
X147500000Y-87900000I-250000J0D01*
G01*
X146850000Y-87900000D01*
G75*
G02*
X146600000Y-87650000I0J250000D01*
G01*
G37*
G36*
G01*
X194512500Y-139150000D02*
X194512500Y-140050000D01*
G75*
G02*
X194262500Y-140300000I-250000J0D01*
G01*
X193737500Y-140300000D01*
G75*
G02*
X193487500Y-140050000I0J250000D01*
G01*
X193487500Y-139150000D01*
G75*
G02*
X193737500Y-138900000I250000J0D01*
G01*
X194262500Y-138900000D01*
G75*
G02*
X194512500Y-139150000I0J-250000D01*
G01*
G37*
G36*
G01*
X192687500Y-139150000D02*
X192687500Y-140050000D01*
G75*
G02*
X192437500Y-140300000I-250000J0D01*
G01*
X191912500Y-140300000D01*
G75*
G02*
X191662500Y-140050000I0J250000D01*
G01*
X191662500Y-139150000D01*
G75*
G02*
X191912500Y-138900000I250000J0D01*
G01*
X192437500Y-138900000D01*
G75*
G02*
X192687500Y-139150000I0J-250000D01*
G01*
G37*
G36*
G01*
X188725000Y-129550000D02*
X188725000Y-130450000D01*
G75*
G02*
X188475000Y-130700000I-250000J0D01*
G01*
X187950000Y-130700000D01*
G75*
G02*
X187700000Y-130450000I0J250000D01*
G01*
X187700000Y-129550000D01*
G75*
G02*
X187950000Y-129300000I250000J0D01*
G01*
X188475000Y-129300000D01*
G75*
G02*
X188725000Y-129550000I0J-250000D01*
G01*
G37*
G36*
G01*
X186900000Y-129550000D02*
X186900000Y-130450000D01*
G75*
G02*
X186650000Y-130700000I-250000J0D01*
G01*
X186125000Y-130700000D01*
G75*
G02*
X185875000Y-130450000I0J250000D01*
G01*
X185875000Y-129550000D01*
G75*
G02*
X186125000Y-129300000I250000J0D01*
G01*
X186650000Y-129300000D01*
G75*
G02*
X186900000Y-129550000I0J-250000D01*
G01*
G37*
X140500000Y-65360000D03*
X136500000Y-65360000D03*
G36*
G01*
X171970000Y-90400000D02*
X171070000Y-90400000D01*
G75*
G02*
X170820000Y-90150000I0J250000D01*
G01*
X170820000Y-89500000D01*
G75*
G02*
X171070000Y-89250000I250000J0D01*
G01*
X171970000Y-89250000D01*
G75*
G02*
X172220000Y-89500000I0J-250000D01*
G01*
X172220000Y-90150000D01*
G75*
G02*
X171970000Y-90400000I-250000J0D01*
G01*
G37*
G36*
G01*
X171970000Y-88350000D02*
X171070000Y-88350000D01*
G75*
G02*
X170820000Y-88100000I0J250000D01*
G01*
X170820000Y-87450000D01*
G75*
G02*
X171070000Y-87200000I250000J0D01*
G01*
X171970000Y-87200000D01*
G75*
G02*
X172220000Y-87450000I0J-250000D01*
G01*
X172220000Y-88100000D01*
G75*
G02*
X171970000Y-88350000I-250000J0D01*
G01*
G37*
G36*
G01*
X172020000Y-123805000D02*
X172020000Y-122905000D01*
G75*
G02*
X172270000Y-122655000I250000J0D01*
G01*
X172920000Y-122655000D01*
G75*
G02*
X173170000Y-122905000I0J-250000D01*
G01*
X173170000Y-123805000D01*
G75*
G02*
X172920000Y-124055000I-250000J0D01*
G01*
X172270000Y-124055000D01*
G75*
G02*
X172020000Y-123805000I0J250000D01*
G01*
G37*
G36*
G01*
X174070000Y-123805000D02*
X174070000Y-122905000D01*
G75*
G02*
X174320000Y-122655000I250000J0D01*
G01*
X174970000Y-122655000D01*
G75*
G02*
X175220000Y-122905000I0J-250000D01*
G01*
X175220000Y-123805000D01*
G75*
G02*
X174970000Y-124055000I-250000J0D01*
G01*
X174320000Y-124055000D01*
G75*
G02*
X174070000Y-123805000I0J250000D01*
G01*
G37*
G36*
G01*
X171970000Y-97425000D02*
X171070000Y-97425000D01*
G75*
G02*
X170820000Y-97175000I0J250000D01*
G01*
X170820000Y-96650000D01*
G75*
G02*
X171070000Y-96400000I250000J0D01*
G01*
X171970000Y-96400000D01*
G75*
G02*
X172220000Y-96650000I0J-250000D01*
G01*
X172220000Y-97175000D01*
G75*
G02*
X171970000Y-97425000I-250000J0D01*
G01*
G37*
G36*
G01*
X171970000Y-95600000D02*
X171070000Y-95600000D01*
G75*
G02*
X170820000Y-95350000I0J250000D01*
G01*
X170820000Y-94825000D01*
G75*
G02*
X171070000Y-94575000I250000J0D01*
G01*
X171970000Y-94575000D01*
G75*
G02*
X172220000Y-94825000I0J-250000D01*
G01*
X172220000Y-95350000D01*
G75*
G02*
X171970000Y-95600000I-250000J0D01*
G01*
G37*
G36*
G01*
X107100000Y-88824999D02*
X107100000Y-87575001D01*
G75*
G02*
X107350001Y-87325000I250001J0D01*
G01*
X108274999Y-87325000D01*
G75*
G02*
X108525000Y-87575001I0J-250001D01*
G01*
X108525000Y-88824999D01*
G75*
G02*
X108274999Y-89075000I-250001J0D01*
G01*
X107350001Y-89075000D01*
G75*
G02*
X107100000Y-88824999I0J250001D01*
G01*
G37*
G36*
G01*
X110075000Y-88824999D02*
X110075000Y-87575001D01*
G75*
G02*
X110325001Y-87325000I250001J0D01*
G01*
X111249999Y-87325000D01*
G75*
G02*
X111500000Y-87575001I0J-250001D01*
G01*
X111500000Y-88824999D01*
G75*
G02*
X111249999Y-89075000I-250001J0D01*
G01*
X110325001Y-89075000D01*
G75*
G02*
X110075000Y-88824999I0J250001D01*
G01*
G37*
G36*
G01*
X144862500Y-68950000D02*
X146162500Y-68950000D01*
G75*
G02*
X146412500Y-69200000I0J-250000D01*
G01*
X146412500Y-69850000D01*
G75*
G02*
X146162500Y-70100000I-250000J0D01*
G01*
X144862500Y-70100000D01*
G75*
G02*
X144612500Y-69850000I0J250000D01*
G01*
X144612500Y-69200000D01*
G75*
G02*
X144862500Y-68950000I250000J0D01*
G01*
G37*
G36*
G01*
X144862500Y-71900000D02*
X146162500Y-71900000D01*
G75*
G02*
X146412500Y-72150000I0J-250000D01*
G01*
X146412500Y-72800000D01*
G75*
G02*
X146162500Y-73050000I-250000J0D01*
G01*
X144862500Y-73050000D01*
G75*
G02*
X144612500Y-72800000I0J250000D01*
G01*
X144612500Y-72150000D01*
G75*
G02*
X144862500Y-71900000I250000J0D01*
G01*
G37*
G36*
G01*
X114500000Y-131600000D02*
X114200000Y-131600000D01*
G75*
G02*
X114050000Y-131450000I0J150000D01*
G01*
X114050000Y-130425000D01*
G75*
G02*
X114200000Y-130275000I150000J0D01*
G01*
X114500000Y-130275000D01*
G75*
G02*
X114650000Y-130425000I0J-150000D01*
G01*
X114650000Y-131450000D01*
G75*
G02*
X114500000Y-131600000I-150000J0D01*
G01*
G37*
G36*
G01*
X115450000Y-131600000D02*
X115150000Y-131600000D01*
G75*
G02*
X115000000Y-131450000I0J150000D01*
G01*
X115000000Y-130425000D01*
G75*
G02*
X115150000Y-130275000I150000J0D01*
G01*
X115450000Y-130275000D01*
G75*
G02*
X115600000Y-130425000I0J-150000D01*
G01*
X115600000Y-131450000D01*
G75*
G02*
X115450000Y-131600000I-150000J0D01*
G01*
G37*
G36*
G01*
X116400000Y-131600000D02*
X116100000Y-131600000D01*
G75*
G02*
X115950000Y-131450000I0J150000D01*
G01*
X115950000Y-130425000D01*
G75*
G02*
X116100000Y-130275000I150000J0D01*
G01*
X116400000Y-130275000D01*
G75*
G02*
X116550000Y-130425000I0J-150000D01*
G01*
X116550000Y-131450000D01*
G75*
G02*
X116400000Y-131600000I-150000J0D01*
G01*
G37*
G36*
G01*
X116400000Y-129325000D02*
X116100000Y-129325000D01*
G75*
G02*
X115950000Y-129175000I0J150000D01*
G01*
X115950000Y-128150000D01*
G75*
G02*
X116100000Y-128000000I150000J0D01*
G01*
X116400000Y-128000000D01*
G75*
G02*
X116550000Y-128150000I0J-150000D01*
G01*
X116550000Y-129175000D01*
G75*
G02*
X116400000Y-129325000I-150000J0D01*
G01*
G37*
G36*
G01*
X115450000Y-129325000D02*
X115150000Y-129325000D01*
G75*
G02*
X115000000Y-129175000I0J150000D01*
G01*
X115000000Y-128150000D01*
G75*
G02*
X115150000Y-128000000I150000J0D01*
G01*
X115450000Y-128000000D01*
G75*
G02*
X115600000Y-128150000I0J-150000D01*
G01*
X115600000Y-129175000D01*
G75*
G02*
X115450000Y-129325000I-150000J0D01*
G01*
G37*
G36*
G01*
X114500000Y-129325000D02*
X114200000Y-129325000D01*
G75*
G02*
X114050000Y-129175000I0J150000D01*
G01*
X114050000Y-128150000D01*
G75*
G02*
X114200000Y-128000000I150000J0D01*
G01*
X114500000Y-128000000D01*
G75*
G02*
X114650000Y-128150000I0J-150000D01*
G01*
X114650000Y-129175000D01*
G75*
G02*
X114500000Y-129325000I-150000J0D01*
G01*
G37*
G36*
G01*
X172070000Y-125835000D02*
X172070000Y-125535000D01*
G75*
G02*
X172220000Y-125385000I150000J0D01*
G01*
X173870000Y-125385000D01*
G75*
G02*
X174020000Y-125535000I0J-150000D01*
G01*
X174020000Y-125835000D01*
G75*
G02*
X173870000Y-125985000I-150000J0D01*
G01*
X172220000Y-125985000D01*
G75*
G02*
X172070000Y-125835000I0J150000D01*
G01*
G37*
G36*
G01*
X172070000Y-127105000D02*
X172070000Y-126805000D01*
G75*
G02*
X172220000Y-126655000I150000J0D01*
G01*
X173870000Y-126655000D01*
G75*
G02*
X174020000Y-126805000I0J-150000D01*
G01*
X174020000Y-127105000D01*
G75*
G02*
X173870000Y-127255000I-150000J0D01*
G01*
X172220000Y-127255000D01*
G75*
G02*
X172070000Y-127105000I0J150000D01*
G01*
G37*
G36*
G01*
X172070000Y-128375000D02*
X172070000Y-128075000D01*
G75*
G02*
X172220000Y-127925000I150000J0D01*
G01*
X173870000Y-127925000D01*
G75*
G02*
X174020000Y-128075000I0J-150000D01*
G01*
X174020000Y-128375000D01*
G75*
G02*
X173870000Y-128525000I-150000J0D01*
G01*
X172220000Y-128525000D01*
G75*
G02*
X172070000Y-128375000I0J150000D01*
G01*
G37*
G36*
G01*
X172070000Y-129645000D02*
X172070000Y-129345000D01*
G75*
G02*
X172220000Y-129195000I150000J0D01*
G01*
X173870000Y-129195000D01*
G75*
G02*
X174020000Y-129345000I0J-150000D01*
G01*
X174020000Y-129645000D01*
G75*
G02*
X173870000Y-129795000I-150000J0D01*
G01*
X172220000Y-129795000D01*
G75*
G02*
X172070000Y-129645000I0J150000D01*
G01*
G37*
G36*
G01*
X172070000Y-130915000D02*
X172070000Y-130615000D01*
G75*
G02*
X172220000Y-130465000I150000J0D01*
G01*
X173870000Y-130465000D01*
G75*
G02*
X174020000Y-130615000I0J-150000D01*
G01*
X174020000Y-130915000D01*
G75*
G02*
X173870000Y-131065000I-150000J0D01*
G01*
X172220000Y-131065000D01*
G75*
G02*
X172070000Y-130915000I0J150000D01*
G01*
G37*
G36*
G01*
X172070000Y-132185000D02*
X172070000Y-131885000D01*
G75*
G02*
X172220000Y-131735000I150000J0D01*
G01*
X173870000Y-131735000D01*
G75*
G02*
X174020000Y-131885000I0J-150000D01*
G01*
X174020000Y-132185000D01*
G75*
G02*
X173870000Y-132335000I-150000J0D01*
G01*
X172220000Y-132335000D01*
G75*
G02*
X172070000Y-132185000I0J150000D01*
G01*
G37*
G36*
G01*
X172070000Y-133455000D02*
X172070000Y-133155000D01*
G75*
G02*
X172220000Y-133005000I150000J0D01*
G01*
X173870000Y-133005000D01*
G75*
G02*
X174020000Y-133155000I0J-150000D01*
G01*
X174020000Y-133455000D01*
G75*
G02*
X173870000Y-133605000I-150000J0D01*
G01*
X172220000Y-133605000D01*
G75*
G02*
X172070000Y-133455000I0J150000D01*
G01*
G37*
G36*
G01*
X172070000Y-134725000D02*
X172070000Y-134425000D01*
G75*
G02*
X172220000Y-134275000I150000J0D01*
G01*
X173870000Y-134275000D01*
G75*
G02*
X174020000Y-134425000I0J-150000D01*
G01*
X174020000Y-134725000D01*
G75*
G02*
X173870000Y-134875000I-150000J0D01*
G01*
X172220000Y-134875000D01*
G75*
G02*
X172070000Y-134725000I0J150000D01*
G01*
G37*
G36*
G01*
X177020000Y-134725000D02*
X177020000Y-134425000D01*
G75*
G02*
X177170000Y-134275000I150000J0D01*
G01*
X178820000Y-134275000D01*
G75*
G02*
X178970000Y-134425000I0J-150000D01*
G01*
X178970000Y-134725000D01*
G75*
G02*
X178820000Y-134875000I-150000J0D01*
G01*
X177170000Y-134875000D01*
G75*
G02*
X177020000Y-134725000I0J150000D01*
G01*
G37*
G36*
G01*
X177020000Y-133455000D02*
X177020000Y-133155000D01*
G75*
G02*
X177170000Y-133005000I150000J0D01*
G01*
X178820000Y-133005000D01*
G75*
G02*
X178970000Y-133155000I0J-150000D01*
G01*
X178970000Y-133455000D01*
G75*
G02*
X178820000Y-133605000I-150000J0D01*
G01*
X177170000Y-133605000D01*
G75*
G02*
X177020000Y-133455000I0J150000D01*
G01*
G37*
G36*
G01*
X177020000Y-132185000D02*
X177020000Y-131885000D01*
G75*
G02*
X177170000Y-131735000I150000J0D01*
G01*
X178820000Y-131735000D01*
G75*
G02*
X178970000Y-131885000I0J-150000D01*
G01*
X178970000Y-132185000D01*
G75*
G02*
X178820000Y-132335000I-150000J0D01*
G01*
X177170000Y-132335000D01*
G75*
G02*
X177020000Y-132185000I0J150000D01*
G01*
G37*
G36*
G01*
X177020000Y-130915000D02*
X177020000Y-130615000D01*
G75*
G02*
X177170000Y-130465000I150000J0D01*
G01*
X178820000Y-130465000D01*
G75*
G02*
X178970000Y-130615000I0J-150000D01*
G01*
X178970000Y-130915000D01*
G75*
G02*
X178820000Y-131065000I-150000J0D01*
G01*
X177170000Y-131065000D01*
G75*
G02*
X177020000Y-130915000I0J150000D01*
G01*
G37*
G36*
G01*
X177020000Y-129645000D02*
X177020000Y-129345000D01*
G75*
G02*
X177170000Y-129195000I150000J0D01*
G01*
X178820000Y-129195000D01*
G75*
G02*
X178970000Y-129345000I0J-150000D01*
G01*
X178970000Y-129645000D01*
G75*
G02*
X178820000Y-129795000I-150000J0D01*
G01*
X177170000Y-129795000D01*
G75*
G02*
X177020000Y-129645000I0J150000D01*
G01*
G37*
G36*
G01*
X177020000Y-128375000D02*
X177020000Y-128075000D01*
G75*
G02*
X177170000Y-127925000I150000J0D01*
G01*
X178820000Y-127925000D01*
G75*
G02*
X178970000Y-128075000I0J-150000D01*
G01*
X178970000Y-128375000D01*
G75*
G02*
X178820000Y-128525000I-150000J0D01*
G01*
X177170000Y-128525000D01*
G75*
G02*
X177020000Y-128375000I0J150000D01*
G01*
G37*
G36*
G01*
X177020000Y-127105000D02*
X177020000Y-126805000D01*
G75*
G02*
X177170000Y-126655000I150000J0D01*
G01*
X178820000Y-126655000D01*
G75*
G02*
X178970000Y-126805000I0J-150000D01*
G01*
X178970000Y-127105000D01*
G75*
G02*
X178820000Y-127255000I-150000J0D01*
G01*
X177170000Y-127255000D01*
G75*
G02*
X177020000Y-127105000I0J150000D01*
G01*
G37*
G36*
G01*
X177020000Y-125835000D02*
X177020000Y-125535000D01*
G75*
G02*
X177170000Y-125385000I150000J0D01*
G01*
X178820000Y-125385000D01*
G75*
G02*
X178970000Y-125535000I0J-150000D01*
G01*
X178970000Y-125835000D01*
G75*
G02*
X178820000Y-125985000I-150000J0D01*
G01*
X177170000Y-125985000D01*
G75*
G02*
X177020000Y-125835000I0J150000D01*
G01*
G37*
G36*
G01*
X175275000Y-137030000D02*
X175275000Y-137980000D01*
G75*
G02*
X175025000Y-138230000I-250000J0D01*
G01*
X174525000Y-138230000D01*
G75*
G02*
X174275000Y-137980000I0J250000D01*
G01*
X174275000Y-137030000D01*
G75*
G02*
X174525000Y-136780000I250000J0D01*
G01*
X175025000Y-136780000D01*
G75*
G02*
X175275000Y-137030000I0J-250000D01*
G01*
G37*
G36*
G01*
X173375000Y-137030000D02*
X173375000Y-137980000D01*
G75*
G02*
X173125000Y-138230000I-250000J0D01*
G01*
X172625000Y-138230000D01*
G75*
G02*
X172375000Y-137980000I0J250000D01*
G01*
X172375000Y-137030000D01*
G75*
G02*
X172625000Y-136780000I250000J0D01*
G01*
X173125000Y-136780000D01*
G75*
G02*
X173375000Y-137030000I0J-250000D01*
G01*
G37*
G36*
G01*
X118825000Y-64100000D02*
X118825000Y-65000000D01*
G75*
G02*
X118575000Y-65250000I-250000J0D01*
G01*
X118050000Y-65250000D01*
G75*
G02*
X117800000Y-65000000I0J250000D01*
G01*
X117800000Y-64100000D01*
G75*
G02*
X118050000Y-63850000I250000J0D01*
G01*
X118575000Y-63850000D01*
G75*
G02*
X118825000Y-64100000I0J-250000D01*
G01*
G37*
G36*
G01*
X117000000Y-64100000D02*
X117000000Y-65000000D01*
G75*
G02*
X116750000Y-65250000I-250000J0D01*
G01*
X116225000Y-65250000D01*
G75*
G02*
X115975000Y-65000000I0J250000D01*
G01*
X115975000Y-64100000D01*
G75*
G02*
X116225000Y-63850000I250000J0D01*
G01*
X116750000Y-63850000D01*
G75*
G02*
X117000000Y-64100000I0J-250000D01*
G01*
G37*
G36*
G01*
X188050000Y-144845000D02*
X188050000Y-144545000D01*
G75*
G02*
X188200000Y-144395000I150000J0D01*
G01*
X189850000Y-144395000D01*
G75*
G02*
X190000000Y-144545000I0J-150000D01*
G01*
X190000000Y-144845000D01*
G75*
G02*
X189850000Y-144995000I-150000J0D01*
G01*
X188200000Y-144995000D01*
G75*
G02*
X188050000Y-144845000I0J150000D01*
G01*
G37*
G36*
G01*
X188050000Y-146115000D02*
X188050000Y-145815000D01*
G75*
G02*
X188200000Y-145665000I150000J0D01*
G01*
X189850000Y-145665000D01*
G75*
G02*
X190000000Y-145815000I0J-150000D01*
G01*
X190000000Y-146115000D01*
G75*
G02*
X189850000Y-146265000I-150000J0D01*
G01*
X188200000Y-146265000D01*
G75*
G02*
X188050000Y-146115000I0J150000D01*
G01*
G37*
G36*
G01*
X188050000Y-147385000D02*
X188050000Y-147085000D01*
G75*
G02*
X188200000Y-146935000I150000J0D01*
G01*
X189850000Y-146935000D01*
G75*
G02*
X190000000Y-147085000I0J-150000D01*
G01*
X190000000Y-147385000D01*
G75*
G02*
X189850000Y-147535000I-150000J0D01*
G01*
X188200000Y-147535000D01*
G75*
G02*
X188050000Y-147385000I0J150000D01*
G01*
G37*
G36*
G01*
X188050000Y-148655000D02*
X188050000Y-148355000D01*
G75*
G02*
X188200000Y-148205000I150000J0D01*
G01*
X189850000Y-148205000D01*
G75*
G02*
X190000000Y-148355000I0J-150000D01*
G01*
X190000000Y-148655000D01*
G75*
G02*
X189850000Y-148805000I-150000J0D01*
G01*
X188200000Y-148805000D01*
G75*
G02*
X188050000Y-148655000I0J150000D01*
G01*
G37*
G36*
G01*
X193000000Y-148655000D02*
X193000000Y-148355000D01*
G75*
G02*
X193150000Y-148205000I150000J0D01*
G01*
X194800000Y-148205000D01*
G75*
G02*
X194950000Y-148355000I0J-150000D01*
G01*
X194950000Y-148655000D01*
G75*
G02*
X194800000Y-148805000I-150000J0D01*
G01*
X193150000Y-148805000D01*
G75*
G02*
X193000000Y-148655000I0J150000D01*
G01*
G37*
G36*
G01*
X193000000Y-147385000D02*
X193000000Y-147085000D01*
G75*
G02*
X193150000Y-146935000I150000J0D01*
G01*
X194800000Y-146935000D01*
G75*
G02*
X194950000Y-147085000I0J-150000D01*
G01*
X194950000Y-147385000D01*
G75*
G02*
X194800000Y-147535000I-150000J0D01*
G01*
X193150000Y-147535000D01*
G75*
G02*
X193000000Y-147385000I0J150000D01*
G01*
G37*
G36*
G01*
X193000000Y-146115000D02*
X193000000Y-145815000D01*
G75*
G02*
X193150000Y-145665000I150000J0D01*
G01*
X194800000Y-145665000D01*
G75*
G02*
X194950000Y-145815000I0J-150000D01*
G01*
X194950000Y-146115000D01*
G75*
G02*
X194800000Y-146265000I-150000J0D01*
G01*
X193150000Y-146265000D01*
G75*
G02*
X193000000Y-146115000I0J150000D01*
G01*
G37*
G36*
G01*
X193000000Y-144845000D02*
X193000000Y-144545000D01*
G75*
G02*
X193150000Y-144395000I150000J0D01*
G01*
X194800000Y-144395000D01*
G75*
G02*
X194950000Y-144545000I0J-150000D01*
G01*
X194950000Y-144845000D01*
G75*
G02*
X194800000Y-144995000I-150000J0D01*
G01*
X193150000Y-144995000D01*
G75*
G02*
X193000000Y-144845000I0J150000D01*
G01*
G37*
G36*
G01*
X137662500Y-78650000D02*
X136362500Y-78650000D01*
G75*
G02*
X136112500Y-78400000I0J250000D01*
G01*
X136112500Y-77750000D01*
G75*
G02*
X136362500Y-77500000I250000J0D01*
G01*
X137662500Y-77500000D01*
G75*
G02*
X137912500Y-77750000I0J-250000D01*
G01*
X137912500Y-78400000D01*
G75*
G02*
X137662500Y-78650000I-250000J0D01*
G01*
G37*
G36*
G01*
X137662500Y-75700000D02*
X136362500Y-75700000D01*
G75*
G02*
X136112500Y-75450000I0J250000D01*
G01*
X136112500Y-74800000D01*
G75*
G02*
X136362500Y-74550000I250000J0D01*
G01*
X137662500Y-74550000D01*
G75*
G02*
X137912500Y-74800000I0J-250000D01*
G01*
X137912500Y-75450000D01*
G75*
G02*
X137662500Y-75700000I-250000J0D01*
G01*
G37*
G36*
G01*
X107100000Y-78824999D02*
X107100000Y-77575001D01*
G75*
G02*
X107350001Y-77325000I250001J0D01*
G01*
X108274999Y-77325000D01*
G75*
G02*
X108525000Y-77575001I0J-250001D01*
G01*
X108525000Y-78824999D01*
G75*
G02*
X108274999Y-79075000I-250001J0D01*
G01*
X107350001Y-79075000D01*
G75*
G02*
X107100000Y-78824999I0J250001D01*
G01*
G37*
G36*
G01*
X110075000Y-78824999D02*
X110075000Y-77575001D01*
G75*
G02*
X110325001Y-77325000I250001J0D01*
G01*
X111249999Y-77325000D01*
G75*
G02*
X111500000Y-77575001I0J-250001D01*
G01*
X111500000Y-78824999D01*
G75*
G02*
X111249999Y-79075000I-250001J0D01*
G01*
X110325001Y-79075000D01*
G75*
G02*
X110075000Y-78824999I0J250001D01*
G01*
G37*
G36*
G01*
X107087500Y-86324999D02*
X107087500Y-85075001D01*
G75*
G02*
X107337501Y-84825000I250001J0D01*
G01*
X108262499Y-84825000D01*
G75*
G02*
X108512500Y-85075001I0J-250001D01*
G01*
X108512500Y-86324999D01*
G75*
G02*
X108262499Y-86575000I-250001J0D01*
G01*
X107337501Y-86575000D01*
G75*
G02*
X107087500Y-86324999I0J250001D01*
G01*
G37*
G36*
G01*
X110062500Y-86324999D02*
X110062500Y-85075001D01*
G75*
G02*
X110312501Y-84825000I250001J0D01*
G01*
X111237499Y-84825000D01*
G75*
G02*
X111487500Y-85075001I0J-250001D01*
G01*
X111487500Y-86324999D01*
G75*
G02*
X111237499Y-86575000I-250001J0D01*
G01*
X110312501Y-86575000D01*
G75*
G02*
X110062500Y-86324999I0J250001D01*
G01*
G37*
G36*
G01*
X172420000Y-101375000D02*
X172120000Y-101375000D01*
G75*
G02*
X171970000Y-101225000I0J150000D01*
G01*
X171970000Y-100050000D01*
G75*
G02*
X172120000Y-99900000I150000J0D01*
G01*
X172420000Y-99900000D01*
G75*
G02*
X172570000Y-100050000I0J-150000D01*
G01*
X172570000Y-101225000D01*
G75*
G02*
X172420000Y-101375000I-150000J0D01*
G01*
G37*
G36*
G01*
X174320000Y-101375000D02*
X174020000Y-101375000D01*
G75*
G02*
X173870000Y-101225000I0J150000D01*
G01*
X173870000Y-100050000D01*
G75*
G02*
X174020000Y-99900000I150000J0D01*
G01*
X174320000Y-99900000D01*
G75*
G02*
X174470000Y-100050000I0J-150000D01*
G01*
X174470000Y-101225000D01*
G75*
G02*
X174320000Y-101375000I-150000J0D01*
G01*
G37*
G36*
G01*
X173370000Y-99500000D02*
X173070000Y-99500000D01*
G75*
G02*
X172920000Y-99350000I0J150000D01*
G01*
X172920000Y-98175000D01*
G75*
G02*
X173070000Y-98025000I150000J0D01*
G01*
X173370000Y-98025000D01*
G75*
G02*
X173520000Y-98175000I0J-150000D01*
G01*
X173520000Y-99350000D01*
G75*
G02*
X173370000Y-99500000I-150000J0D01*
G01*
G37*
G36*
G01*
X130625000Y-91350000D02*
X130625000Y-92650000D01*
G75*
G02*
X130375000Y-92900000I-250000J0D01*
G01*
X129725000Y-92900000D01*
G75*
G02*
X129475000Y-92650000I0J250000D01*
G01*
X129475000Y-91350000D01*
G75*
G02*
X129725000Y-91100000I250000J0D01*
G01*
X130375000Y-91100000D01*
G75*
G02*
X130625000Y-91350000I0J-250000D01*
G01*
G37*
G36*
G01*
X127675000Y-91350000D02*
X127675000Y-92650000D01*
G75*
G02*
X127425000Y-92900000I-250000J0D01*
G01*
X126775000Y-92900000D01*
G75*
G02*
X126525000Y-92650000I0J250000D01*
G01*
X126525000Y-91350000D01*
G75*
G02*
X126775000Y-91100000I250000J0D01*
G01*
X127425000Y-91100000D01*
G75*
G02*
X127675000Y-91350000I0J-250000D01*
G01*
G37*
G36*
G01*
X134687500Y-75850000D02*
X134687500Y-76750000D01*
G75*
G02*
X134437500Y-77000000I-250000J0D01*
G01*
X133912500Y-77000000D01*
G75*
G02*
X133662500Y-76750000I0J250000D01*
G01*
X133662500Y-75850000D01*
G75*
G02*
X133912500Y-75600000I250000J0D01*
G01*
X134437500Y-75600000D01*
G75*
G02*
X134687500Y-75850000I0J-250000D01*
G01*
G37*
G36*
G01*
X132862500Y-75850000D02*
X132862500Y-76750000D01*
G75*
G02*
X132612500Y-77000000I-250000J0D01*
G01*
X132087500Y-77000000D01*
G75*
G02*
X131837500Y-76750000I0J250000D01*
G01*
X131837500Y-75850000D01*
G75*
G02*
X132087500Y-75600000I250000J0D01*
G01*
X132612500Y-75600000D01*
G75*
G02*
X132862500Y-75850000I0J-250000D01*
G01*
G37*
G36*
G01*
X140062500Y-78650000D02*
X138762500Y-78650000D01*
G75*
G02*
X138512500Y-78400000I0J250000D01*
G01*
X138512500Y-77750000D01*
G75*
G02*
X138762500Y-77500000I250000J0D01*
G01*
X140062500Y-77500000D01*
G75*
G02*
X140312500Y-77750000I0J-250000D01*
G01*
X140312500Y-78400000D01*
G75*
G02*
X140062500Y-78650000I-250000J0D01*
G01*
G37*
G36*
G01*
X140062500Y-75700000D02*
X138762500Y-75700000D01*
G75*
G02*
X138512500Y-75450000I0J250000D01*
G01*
X138512500Y-74800000D01*
G75*
G02*
X138762500Y-74550000I250000J0D01*
G01*
X140062500Y-74550000D01*
G75*
G02*
X140312500Y-74800000I0J-250000D01*
G01*
X140312500Y-75450000D01*
G75*
G02*
X140062500Y-75700000I-250000J0D01*
G01*
G37*
X147612500Y-80800000D03*
X143612500Y-80800000D03*
G36*
G01*
X131350000Y-120525000D02*
X130450000Y-120525000D01*
G75*
G02*
X130200000Y-120275000I0J250000D01*
G01*
X130200000Y-119750000D01*
G75*
G02*
X130450000Y-119500000I250000J0D01*
G01*
X131350000Y-119500000D01*
G75*
G02*
X131600000Y-119750000I0J-250000D01*
G01*
X131600000Y-120275000D01*
G75*
G02*
X131350000Y-120525000I-250000J0D01*
G01*
G37*
G36*
G01*
X131350000Y-118700000D02*
X130450000Y-118700000D01*
G75*
G02*
X130200000Y-118450000I0J250000D01*
G01*
X130200000Y-117925000D01*
G75*
G02*
X130450000Y-117675000I250000J0D01*
G01*
X131350000Y-117675000D01*
G75*
G02*
X131600000Y-117925000I0J-250000D01*
G01*
X131600000Y-118450000D01*
G75*
G02*
X131350000Y-118700000I-250000J0D01*
G01*
G37*
D14*
X142450000Y-99500000D03*
X142450000Y-103500000D03*
G36*
G01*
X171070000Y-91075000D02*
X171970000Y-91075000D01*
G75*
G02*
X172220000Y-91325000I0J-250000D01*
G01*
X172220000Y-91850000D01*
G75*
G02*
X171970000Y-92100000I-250000J0D01*
G01*
X171070000Y-92100000D01*
G75*
G02*
X170820000Y-91850000I0J250000D01*
G01*
X170820000Y-91325000D01*
G75*
G02*
X171070000Y-91075000I250000J0D01*
G01*
G37*
G36*
G01*
X171070000Y-92900000D02*
X171970000Y-92900000D01*
G75*
G02*
X172220000Y-93150000I0J-250000D01*
G01*
X172220000Y-93675000D01*
G75*
G02*
X171970000Y-93925000I-250000J0D01*
G01*
X171070000Y-93925000D01*
G75*
G02*
X170820000Y-93675000I0J250000D01*
G01*
X170820000Y-93150000D01*
G75*
G02*
X171070000Y-92900000I250000J0D01*
G01*
G37*
G36*
G01*
X186050000Y-143375000D02*
X186950000Y-143375000D01*
G75*
G02*
X187200000Y-143625000I0J-250000D01*
G01*
X187200000Y-144150000D01*
G75*
G02*
X186950000Y-144400000I-250000J0D01*
G01*
X186050000Y-144400000D01*
G75*
G02*
X185800000Y-144150000I0J250000D01*
G01*
X185800000Y-143625000D01*
G75*
G02*
X186050000Y-143375000I250000J0D01*
G01*
G37*
G36*
G01*
X186050000Y-145200000D02*
X186950000Y-145200000D01*
G75*
G02*
X187200000Y-145450000I0J-250000D01*
G01*
X187200000Y-145975000D01*
G75*
G02*
X186950000Y-146225000I-250000J0D01*
G01*
X186050000Y-146225000D01*
G75*
G02*
X185800000Y-145975000I0J250000D01*
G01*
X185800000Y-145450000D01*
G75*
G02*
X186050000Y-145200000I250000J0D01*
G01*
G37*
G36*
G01*
X108124999Y-124212500D02*
X106875001Y-124212500D01*
G75*
G02*
X106625000Y-123962499I0J250001D01*
G01*
X106625000Y-123037501D01*
G75*
G02*
X106875001Y-122787500I250001J0D01*
G01*
X108124999Y-122787500D01*
G75*
G02*
X108375000Y-123037501I0J-250001D01*
G01*
X108375000Y-123962499D01*
G75*
G02*
X108124999Y-124212500I-250001J0D01*
G01*
G37*
G36*
G01*
X108124999Y-121237500D02*
X106875001Y-121237500D01*
G75*
G02*
X106625000Y-120987499I0J250001D01*
G01*
X106625000Y-120062501D01*
G75*
G02*
X106875001Y-119812500I250001J0D01*
G01*
X108124999Y-119812500D01*
G75*
G02*
X108375000Y-120062501I0J-250001D01*
G01*
X108375000Y-120987499D01*
G75*
G02*
X108124999Y-121237500I-250001J0D01*
G01*
G37*
G36*
G01*
X162750000Y-107650000D02*
X164050000Y-107650000D01*
G75*
G02*
X164300000Y-107900000I0J-250000D01*
G01*
X164300000Y-108550000D01*
G75*
G02*
X164050000Y-108800000I-250000J0D01*
G01*
X162750000Y-108800000D01*
G75*
G02*
X162500000Y-108550000I0J250000D01*
G01*
X162500000Y-107900000D01*
G75*
G02*
X162750000Y-107650000I250000J0D01*
G01*
G37*
G36*
G01*
X162750000Y-110600000D02*
X164050000Y-110600000D01*
G75*
G02*
X164300000Y-110850000I0J-250000D01*
G01*
X164300000Y-111500000D01*
G75*
G02*
X164050000Y-111750000I-250000J0D01*
G01*
X162750000Y-111750000D01*
G75*
G02*
X162500000Y-111500000I0J250000D01*
G01*
X162500000Y-110850000D01*
G75*
G02*
X162750000Y-110600000I250000J0D01*
G01*
G37*
G36*
G01*
X188750000Y-131525000D02*
X188750000Y-132475000D01*
G75*
G02*
X188500000Y-132725000I-250000J0D01*
G01*
X188000000Y-132725000D01*
G75*
G02*
X187750000Y-132475000I0J250000D01*
G01*
X187750000Y-131525000D01*
G75*
G02*
X188000000Y-131275000I250000J0D01*
G01*
X188500000Y-131275000D01*
G75*
G02*
X188750000Y-131525000I0J-250000D01*
G01*
G37*
G36*
G01*
X186850000Y-131525000D02*
X186850000Y-132475000D01*
G75*
G02*
X186600000Y-132725000I-250000J0D01*
G01*
X186100000Y-132725000D01*
G75*
G02*
X185850000Y-132475000I0J250000D01*
G01*
X185850000Y-131525000D01*
G75*
G02*
X186100000Y-131275000I250000J0D01*
G01*
X186600000Y-131275000D01*
G75*
G02*
X186850000Y-131525000I0J-250000D01*
G01*
G37*
G36*
G01*
X171970000Y-58400000D02*
X171070000Y-58400000D01*
G75*
G02*
X170820000Y-58150000I0J250000D01*
G01*
X170820000Y-57500000D01*
G75*
G02*
X171070000Y-57250000I250000J0D01*
G01*
X171970000Y-57250000D01*
G75*
G02*
X172220000Y-57500000I0J-250000D01*
G01*
X172220000Y-58150000D01*
G75*
G02*
X171970000Y-58400000I-250000J0D01*
G01*
G37*
G36*
G01*
X171970000Y-56350000D02*
X171070000Y-56350000D01*
G75*
G02*
X170820000Y-56100000I0J250000D01*
G01*
X170820000Y-55450000D01*
G75*
G02*
X171070000Y-55200000I250000J0D01*
G01*
X171970000Y-55200000D01*
G75*
G02*
X172220000Y-55450000I0J-250000D01*
G01*
X172220000Y-56100000D01*
G75*
G02*
X171970000Y-56350000I-250000J0D01*
G01*
G37*
G36*
G01*
X171970000Y-81425000D02*
X171070000Y-81425000D01*
G75*
G02*
X170820000Y-81175000I0J250000D01*
G01*
X170820000Y-80650000D01*
G75*
G02*
X171070000Y-80400000I250000J0D01*
G01*
X171970000Y-80400000D01*
G75*
G02*
X172220000Y-80650000I0J-250000D01*
G01*
X172220000Y-81175000D01*
G75*
G02*
X171970000Y-81425000I-250000J0D01*
G01*
G37*
G36*
G01*
X171970000Y-79600000D02*
X171070000Y-79600000D01*
G75*
G02*
X170820000Y-79350000I0J250000D01*
G01*
X170820000Y-78825000D01*
G75*
G02*
X171070000Y-78575000I250000J0D01*
G01*
X171970000Y-78575000D01*
G75*
G02*
X172220000Y-78825000I0J-250000D01*
G01*
X172220000Y-79350000D01*
G75*
G02*
X171970000Y-79600000I-250000J0D01*
G01*
G37*
G36*
G01*
X194525000Y-127550000D02*
X194525000Y-128450000D01*
G75*
G02*
X194275000Y-128700000I-250000J0D01*
G01*
X193750000Y-128700000D01*
G75*
G02*
X193500000Y-128450000I0J250000D01*
G01*
X193500000Y-127550000D01*
G75*
G02*
X193750000Y-127300000I250000J0D01*
G01*
X194275000Y-127300000D01*
G75*
G02*
X194525000Y-127550000I0J-250000D01*
G01*
G37*
G36*
G01*
X192700000Y-127550000D02*
X192700000Y-128450000D01*
G75*
G02*
X192450000Y-128700000I-250000J0D01*
G01*
X191925000Y-128700000D01*
G75*
G02*
X191675000Y-128450000I0J250000D01*
G01*
X191675000Y-127550000D01*
G75*
G02*
X191925000Y-127300000I250000J0D01*
G01*
X192450000Y-127300000D01*
G75*
G02*
X192700000Y-127550000I0J-250000D01*
G01*
G37*
G36*
G01*
X165825000Y-84650000D02*
X165825000Y-85550000D01*
G75*
G02*
X165575000Y-85800000I-250000J0D01*
G01*
X165050000Y-85800000D01*
G75*
G02*
X164800000Y-85550000I0J250000D01*
G01*
X164800000Y-84650000D01*
G75*
G02*
X165050000Y-84400000I250000J0D01*
G01*
X165575000Y-84400000D01*
G75*
G02*
X165825000Y-84650000I0J-250000D01*
G01*
G37*
G36*
G01*
X164000000Y-84650000D02*
X164000000Y-85550000D01*
G75*
G02*
X163750000Y-85800000I-250000J0D01*
G01*
X163225000Y-85800000D01*
G75*
G02*
X162975000Y-85550000I0J250000D01*
G01*
X162975000Y-84650000D01*
G75*
G02*
X163225000Y-84400000I250000J0D01*
G01*
X163750000Y-84400000D01*
G75*
G02*
X164000000Y-84650000I0J-250000D01*
G01*
G37*
G36*
G01*
X175820000Y-123805000D02*
X175820000Y-122905000D01*
G75*
G02*
X176070000Y-122655000I250000J0D01*
G01*
X176720000Y-122655000D01*
G75*
G02*
X176970000Y-122905000I0J-250000D01*
G01*
X176970000Y-123805000D01*
G75*
G02*
X176720000Y-124055000I-250000J0D01*
G01*
X176070000Y-124055000D01*
G75*
G02*
X175820000Y-123805000I0J250000D01*
G01*
G37*
G36*
G01*
X177870000Y-123805000D02*
X177870000Y-122905000D01*
G75*
G02*
X178120000Y-122655000I250000J0D01*
G01*
X178770000Y-122655000D01*
G75*
G02*
X179020000Y-122905000I0J-250000D01*
G01*
X179020000Y-123805000D01*
G75*
G02*
X178770000Y-124055000I-250000J0D01*
G01*
X178120000Y-124055000D01*
G75*
G02*
X177870000Y-123805000I0J250000D01*
G01*
G37*
G36*
G01*
X188725000Y-121050000D02*
X188725000Y-121950000D01*
G75*
G02*
X188475000Y-122200000I-250000J0D01*
G01*
X187950000Y-122200000D01*
G75*
G02*
X187700000Y-121950000I0J250000D01*
G01*
X187700000Y-121050000D01*
G75*
G02*
X187950000Y-120800000I250000J0D01*
G01*
X188475000Y-120800000D01*
G75*
G02*
X188725000Y-121050000I0J-250000D01*
G01*
G37*
G36*
G01*
X186900000Y-121050000D02*
X186900000Y-121950000D01*
G75*
G02*
X186650000Y-122200000I-250000J0D01*
G01*
X186125000Y-122200000D01*
G75*
G02*
X185875000Y-121950000I0J250000D01*
G01*
X185875000Y-121050000D01*
G75*
G02*
X186125000Y-120800000I250000J0D01*
G01*
X186650000Y-120800000D01*
G75*
G02*
X186900000Y-121050000I0J-250000D01*
G01*
G37*
G36*
G01*
X129250000Y-143850000D02*
X127950000Y-143850000D01*
G75*
G02*
X127700000Y-143600000I0J250000D01*
G01*
X127700000Y-142950000D01*
G75*
G02*
X127950000Y-142700000I250000J0D01*
G01*
X129250000Y-142700000D01*
G75*
G02*
X129500000Y-142950000I0J-250000D01*
G01*
X129500000Y-143600000D01*
G75*
G02*
X129250000Y-143850000I-250000J0D01*
G01*
G37*
G36*
G01*
X129250000Y-140900000D02*
X127950000Y-140900000D01*
G75*
G02*
X127700000Y-140650000I0J250000D01*
G01*
X127700000Y-140000000D01*
G75*
G02*
X127950000Y-139750000I250000J0D01*
G01*
X129250000Y-139750000D01*
G75*
G02*
X129500000Y-140000000I0J-250000D01*
G01*
X129500000Y-140650000D01*
G75*
G02*
X129250000Y-140900000I-250000J0D01*
G01*
G37*
G36*
G01*
X151725000Y-109850000D02*
X151725000Y-110750000D01*
G75*
G02*
X151475000Y-111000000I-250000J0D01*
G01*
X150950000Y-111000000D01*
G75*
G02*
X150700000Y-110750000I0J250000D01*
G01*
X150700000Y-109850000D01*
G75*
G02*
X150950000Y-109600000I250000J0D01*
G01*
X151475000Y-109600000D01*
G75*
G02*
X151725000Y-109850000I0J-250000D01*
G01*
G37*
G36*
G01*
X149900000Y-109850000D02*
X149900000Y-110750000D01*
G75*
G02*
X149650000Y-111000000I-250000J0D01*
G01*
X149125000Y-111000000D01*
G75*
G02*
X148875000Y-110750000I0J250000D01*
G01*
X148875000Y-109850000D01*
G75*
G02*
X149125000Y-109600000I250000J0D01*
G01*
X149650000Y-109600000D01*
G75*
G02*
X149900000Y-109850000I0J-250000D01*
G01*
G37*
G36*
G01*
X130868000Y-127862000D02*
X130568000Y-127862000D01*
G75*
G02*
X130418000Y-127712000I0J150000D01*
G01*
X130418000Y-126537000D01*
G75*
G02*
X130568000Y-126387000I150000J0D01*
G01*
X130868000Y-126387000D01*
G75*
G02*
X131018000Y-126537000I0J-150000D01*
G01*
X131018000Y-127712000D01*
G75*
G02*
X130868000Y-127862000I-150000J0D01*
G01*
G37*
G36*
G01*
X132768000Y-127862000D02*
X132468000Y-127862000D01*
G75*
G02*
X132318000Y-127712000I0J150000D01*
G01*
X132318000Y-126537000D01*
G75*
G02*
X132468000Y-126387000I150000J0D01*
G01*
X132768000Y-126387000D01*
G75*
G02*
X132918000Y-126537000I0J-150000D01*
G01*
X132918000Y-127712000D01*
G75*
G02*
X132768000Y-127862000I-150000J0D01*
G01*
G37*
G36*
G01*
X131818000Y-125987000D02*
X131518000Y-125987000D01*
G75*
G02*
X131368000Y-125837000I0J150000D01*
G01*
X131368000Y-124662000D01*
G75*
G02*
X131518000Y-124512000I150000J0D01*
G01*
X131818000Y-124512000D01*
G75*
G02*
X131968000Y-124662000I0J-150000D01*
G01*
X131968000Y-125837000D01*
G75*
G02*
X131818000Y-125987000I-150000J0D01*
G01*
G37*
G36*
G01*
X134687500Y-77850000D02*
X134687500Y-78750000D01*
G75*
G02*
X134437500Y-79000000I-250000J0D01*
G01*
X133912500Y-79000000D01*
G75*
G02*
X133662500Y-78750000I0J250000D01*
G01*
X133662500Y-77850000D01*
G75*
G02*
X133912500Y-77600000I250000J0D01*
G01*
X134437500Y-77600000D01*
G75*
G02*
X134687500Y-77850000I0J-250000D01*
G01*
G37*
G36*
G01*
X132862500Y-77850000D02*
X132862500Y-78750000D01*
G75*
G02*
X132612500Y-79000000I-250000J0D01*
G01*
X132087500Y-79000000D01*
G75*
G02*
X131837500Y-78750000I0J250000D01*
G01*
X131837500Y-77850000D01*
G75*
G02*
X132087500Y-77600000I250000J0D01*
G01*
X132612500Y-77600000D01*
G75*
G02*
X132862500Y-77850000I0J-250000D01*
G01*
G37*
D16*
X124425000Y-62325000D03*
X124425000Y-58975000D03*
X121375000Y-58975000D03*
X121375000Y-62325000D03*
D17*
X125180000Y-54350000D03*
X120620000Y-54350000D03*
D14*
X160700000Y-99520000D03*
X160700000Y-103520000D03*
D18*
X174050000Y-142255000D03*
X174850000Y-142255000D03*
D19*
X176050000Y-142255000D03*
X177050000Y-142255000D03*
X177550000Y-142255000D03*
X178550000Y-142255000D03*
D18*
X179750000Y-142255000D03*
X180550000Y-142255000D03*
X180550000Y-142255000D03*
X179750000Y-142255000D03*
D19*
X179050000Y-142255000D03*
X178050000Y-142255000D03*
X176550000Y-142255000D03*
X175550000Y-142255000D03*
D18*
X174850000Y-142255000D03*
X174050000Y-142255000D03*
D15*
X115200000Y-89300000D03*
X119200000Y-89300000D03*
D20*
X112670000Y-96200000D03*
D21*
X110765000Y-99075000D03*
X112035000Y-99075000D03*
X113305000Y-99075000D03*
X114575000Y-99075000D03*
X114575000Y-93325000D03*
X113305000Y-93325000D03*
X112035000Y-93325000D03*
X110765000Y-93325000D03*
G36*
G01*
X134712500Y-73825000D02*
X134712500Y-74775000D01*
G75*
G02*
X134462500Y-75025000I-250000J0D01*
G01*
X133962500Y-75025000D01*
G75*
G02*
X133712500Y-74775000I0J250000D01*
G01*
X133712500Y-73825000D01*
G75*
G02*
X133962500Y-73575000I250000J0D01*
G01*
X134462500Y-73575000D01*
G75*
G02*
X134712500Y-73825000I0J-250000D01*
G01*
G37*
G36*
G01*
X132812500Y-73825000D02*
X132812500Y-74775000D01*
G75*
G02*
X132562500Y-75025000I-250000J0D01*
G01*
X132062500Y-75025000D01*
G75*
G02*
X131812500Y-74775000I0J250000D01*
G01*
X131812500Y-73825000D01*
G75*
G02*
X132062500Y-73575000I250000J0D01*
G01*
X132562500Y-73575000D01*
G75*
G02*
X132812500Y-73825000I0J-250000D01*
G01*
G37*
G36*
G01*
X194525000Y-119050000D02*
X194525000Y-119950000D01*
G75*
G02*
X194275000Y-120200000I-250000J0D01*
G01*
X193750000Y-120200000D01*
G75*
G02*
X193500000Y-119950000I0J250000D01*
G01*
X193500000Y-119050000D01*
G75*
G02*
X193750000Y-118800000I250000J0D01*
G01*
X194275000Y-118800000D01*
G75*
G02*
X194525000Y-119050000I0J-250000D01*
G01*
G37*
G36*
G01*
X192700000Y-119050000D02*
X192700000Y-119950000D01*
G75*
G02*
X192450000Y-120200000I-250000J0D01*
G01*
X191925000Y-120200000D01*
G75*
G02*
X191675000Y-119950000I0J250000D01*
G01*
X191675000Y-119050000D01*
G75*
G02*
X191925000Y-118800000I250000J0D01*
G01*
X192450000Y-118800000D01*
G75*
G02*
X192700000Y-119050000I0J-250000D01*
G01*
G37*
G36*
G01*
X148850000Y-99870000D02*
X148850000Y-98570000D01*
G75*
G02*
X149100000Y-98320000I250000J0D01*
G01*
X149750000Y-98320000D01*
G75*
G02*
X150000000Y-98570000I0J-250000D01*
G01*
X150000000Y-99870000D01*
G75*
G02*
X149750000Y-100120000I-250000J0D01*
G01*
X149100000Y-100120000D01*
G75*
G02*
X148850000Y-99870000I0J250000D01*
G01*
G37*
G36*
G01*
X151800000Y-99870000D02*
X151800000Y-98570000D01*
G75*
G02*
X152050000Y-98320000I250000J0D01*
G01*
X152700000Y-98320000D01*
G75*
G02*
X152950000Y-98570000I0J-250000D01*
G01*
X152950000Y-99870000D01*
G75*
G02*
X152700000Y-100120000I-250000J0D01*
G01*
X152050000Y-100120000D01*
G75*
G02*
X151800000Y-99870000I0J250000D01*
G01*
G37*
G36*
G01*
X134400000Y-101112500D02*
X133500000Y-101112500D01*
G75*
G02*
X133250000Y-100862500I0J250000D01*
G01*
X133250000Y-100337500D01*
G75*
G02*
X133500000Y-100087500I250000J0D01*
G01*
X134400000Y-100087500D01*
G75*
G02*
X134650000Y-100337500I0J-250000D01*
G01*
X134650000Y-100862500D01*
G75*
G02*
X134400000Y-101112500I-250000J0D01*
G01*
G37*
G36*
G01*
X134400000Y-99287500D02*
X133500000Y-99287500D01*
G75*
G02*
X133250000Y-99037500I0J250000D01*
G01*
X133250000Y-98512500D01*
G75*
G02*
X133500000Y-98262500I250000J0D01*
G01*
X134400000Y-98262500D01*
G75*
G02*
X134650000Y-98512500I0J-250000D01*
G01*
X134650000Y-99037500D01*
G75*
G02*
X134400000Y-99287500I-250000J0D01*
G01*
G37*
G36*
G01*
X134625000Y-60510000D02*
X134625000Y-61410000D01*
G75*
G02*
X134375000Y-61660000I-250000J0D01*
G01*
X133850000Y-61660000D01*
G75*
G02*
X133600000Y-61410000I0J250000D01*
G01*
X133600000Y-60510000D01*
G75*
G02*
X133850000Y-60260000I250000J0D01*
G01*
X134375000Y-60260000D01*
G75*
G02*
X134625000Y-60510000I0J-250000D01*
G01*
G37*
G36*
G01*
X132800000Y-60510000D02*
X132800000Y-61410000D01*
G75*
G02*
X132550000Y-61660000I-250000J0D01*
G01*
X132025000Y-61660000D01*
G75*
G02*
X131775000Y-61410000I0J250000D01*
G01*
X131775000Y-60510000D01*
G75*
G02*
X132025000Y-60260000I250000J0D01*
G01*
X132550000Y-60260000D01*
G75*
G02*
X132800000Y-60510000I0J-250000D01*
G01*
G37*
G36*
G01*
X121125000Y-128650000D02*
X122075000Y-128650000D01*
G75*
G02*
X122325000Y-128900000I0J-250000D01*
G01*
X122325000Y-129400000D01*
G75*
G02*
X122075000Y-129650000I-250000J0D01*
G01*
X121125000Y-129650000D01*
G75*
G02*
X120875000Y-129400000I0J250000D01*
G01*
X120875000Y-128900000D01*
G75*
G02*
X121125000Y-128650000I250000J0D01*
G01*
G37*
G36*
G01*
X121125000Y-130550000D02*
X122075000Y-130550000D01*
G75*
G02*
X122325000Y-130800000I0J-250000D01*
G01*
X122325000Y-131300000D01*
G75*
G02*
X122075000Y-131550000I-250000J0D01*
G01*
X121125000Y-131550000D01*
G75*
G02*
X120875000Y-131300000I0J250000D01*
G01*
X120875000Y-130800000D01*
G75*
G02*
X121125000Y-130550000I250000J0D01*
G01*
G37*
G36*
G01*
X171375000Y-106650000D02*
X171375000Y-105750000D01*
G75*
G02*
X171625000Y-105500000I250000J0D01*
G01*
X172150000Y-105500000D01*
G75*
G02*
X172400000Y-105750000I0J-250000D01*
G01*
X172400000Y-106650000D01*
G75*
G02*
X172150000Y-106900000I-250000J0D01*
G01*
X171625000Y-106900000D01*
G75*
G02*
X171375000Y-106650000I0J250000D01*
G01*
G37*
G36*
G01*
X173200000Y-106650000D02*
X173200000Y-105750000D01*
G75*
G02*
X173450000Y-105500000I250000J0D01*
G01*
X173975000Y-105500000D01*
G75*
G02*
X174225000Y-105750000I0J-250000D01*
G01*
X174225000Y-106650000D01*
G75*
G02*
X173975000Y-106900000I-250000J0D01*
G01*
X173450000Y-106900000D01*
G75*
G02*
X173200000Y-106650000I0J250000D01*
G01*
G37*
G36*
G01*
X120527500Y-97775000D02*
X120527500Y-96875000D01*
G75*
G02*
X120777500Y-96625000I250000J0D01*
G01*
X121302500Y-96625000D01*
G75*
G02*
X121552500Y-96875000I0J-250000D01*
G01*
X121552500Y-97775000D01*
G75*
G02*
X121302500Y-98025000I-250000J0D01*
G01*
X120777500Y-98025000D01*
G75*
G02*
X120527500Y-97775000I0J250000D01*
G01*
G37*
G36*
G01*
X122352500Y-97775000D02*
X122352500Y-96875000D01*
G75*
G02*
X122602500Y-96625000I250000J0D01*
G01*
X123127500Y-96625000D01*
G75*
G02*
X123377500Y-96875000I0J-250000D01*
G01*
X123377500Y-97775000D01*
G75*
G02*
X123127500Y-98025000I-250000J0D01*
G01*
X122602500Y-98025000D01*
G75*
G02*
X122352500Y-97775000I0J250000D01*
G01*
G37*
G36*
G01*
X188750000Y-114525000D02*
X188750000Y-115475000D01*
G75*
G02*
X188500000Y-115725000I-250000J0D01*
G01*
X188000000Y-115725000D01*
G75*
G02*
X187750000Y-115475000I0J250000D01*
G01*
X187750000Y-114525000D01*
G75*
G02*
X188000000Y-114275000I250000J0D01*
G01*
X188500000Y-114275000D01*
G75*
G02*
X188750000Y-114525000I0J-250000D01*
G01*
G37*
G36*
G01*
X186850000Y-114525000D02*
X186850000Y-115475000D01*
G75*
G02*
X186600000Y-115725000I-250000J0D01*
G01*
X186100000Y-115725000D01*
G75*
G02*
X185850000Y-115475000I0J250000D01*
G01*
X185850000Y-114525000D01*
G75*
G02*
X186100000Y-114275000I250000J0D01*
G01*
X186600000Y-114275000D01*
G75*
G02*
X186850000Y-114525000I0J-250000D01*
G01*
G37*
G36*
G01*
X157750000Y-107050000D02*
X157750000Y-108350000D01*
G75*
G02*
X157500000Y-108600000I-250000J0D01*
G01*
X156850000Y-108600000D01*
G75*
G02*
X156600000Y-108350000I0J250000D01*
G01*
X156600000Y-107050000D01*
G75*
G02*
X156850000Y-106800000I250000J0D01*
G01*
X157500000Y-106800000D01*
G75*
G02*
X157750000Y-107050000I0J-250000D01*
G01*
G37*
G36*
G01*
X154800000Y-107050000D02*
X154800000Y-108350000D01*
G75*
G02*
X154550000Y-108600000I-250000J0D01*
G01*
X153900000Y-108600000D01*
G75*
G02*
X153650000Y-108350000I0J250000D01*
G01*
X153650000Y-107050000D01*
G75*
G02*
X153900000Y-106800000I250000J0D01*
G01*
X154550000Y-106800000D01*
G75*
G02*
X154800000Y-107050000I0J-250000D01*
G01*
G37*
G36*
G01*
X120540000Y-95775000D02*
X120540000Y-94875000D01*
G75*
G02*
X120790000Y-94625000I250000J0D01*
G01*
X121315000Y-94625000D01*
G75*
G02*
X121565000Y-94875000I0J-250000D01*
G01*
X121565000Y-95775000D01*
G75*
G02*
X121315000Y-96025000I-250000J0D01*
G01*
X120790000Y-96025000D01*
G75*
G02*
X120540000Y-95775000I0J250000D01*
G01*
G37*
G36*
G01*
X122365000Y-95775000D02*
X122365000Y-94875000D01*
G75*
G02*
X122615000Y-94625000I250000J0D01*
G01*
X123140000Y-94625000D01*
G75*
G02*
X123390000Y-94875000I0J-250000D01*
G01*
X123390000Y-95775000D01*
G75*
G02*
X123140000Y-96025000I-250000J0D01*
G01*
X122615000Y-96025000D01*
G75*
G02*
X122365000Y-95775000I0J250000D01*
G01*
G37*
G36*
G01*
X115800000Y-67000000D02*
X115800000Y-66100000D01*
G75*
G02*
X116050000Y-65850000I250000J0D01*
G01*
X116700000Y-65850000D01*
G75*
G02*
X116950000Y-66100000I0J-250000D01*
G01*
X116950000Y-67000000D01*
G75*
G02*
X116700000Y-67250000I-250000J0D01*
G01*
X116050000Y-67250000D01*
G75*
G02*
X115800000Y-67000000I0J250000D01*
G01*
G37*
G36*
G01*
X117850000Y-67000000D02*
X117850000Y-66100000D01*
G75*
G02*
X118100000Y-65850000I250000J0D01*
G01*
X118750000Y-65850000D01*
G75*
G02*
X119000000Y-66100000I0J-250000D01*
G01*
X119000000Y-67000000D01*
G75*
G02*
X118750000Y-67250000I-250000J0D01*
G01*
X118100000Y-67250000D01*
G75*
G02*
X117850000Y-67000000I0J250000D01*
G01*
G37*
G36*
G01*
X174400000Y-113250000D02*
X174400000Y-114150000D01*
G75*
G02*
X174150000Y-114400000I-250000J0D01*
G01*
X173500000Y-114400000D01*
G75*
G02*
X173250000Y-114150000I0J250000D01*
G01*
X173250000Y-113250000D01*
G75*
G02*
X173500000Y-113000000I250000J0D01*
G01*
X174150000Y-113000000D01*
G75*
G02*
X174400000Y-113250000I0J-250000D01*
G01*
G37*
G36*
G01*
X172350000Y-113250000D02*
X172350000Y-114150000D01*
G75*
G02*
X172100000Y-114400000I-250000J0D01*
G01*
X171450000Y-114400000D01*
G75*
G02*
X171200000Y-114150000I0J250000D01*
G01*
X171200000Y-113250000D01*
G75*
G02*
X171450000Y-113000000I250000J0D01*
G01*
X172100000Y-113000000D01*
G75*
G02*
X172350000Y-113250000I0J-250000D01*
G01*
G37*
D20*
X156100000Y-102220000D03*
D21*
X158005000Y-99345000D03*
X156735000Y-99345000D03*
X155465000Y-99345000D03*
X154195000Y-99345000D03*
X154195000Y-105095000D03*
X155465000Y-105095000D03*
X156735000Y-105095000D03*
X158005000Y-105095000D03*
D11*
X190187500Y-136250000D03*
X190187500Y-139550000D03*
G36*
G01*
X179675000Y-129805000D02*
X179675000Y-128905000D01*
G75*
G02*
X179925000Y-128655000I250000J0D01*
G01*
X180450000Y-128655000D01*
G75*
G02*
X180700000Y-128905000I0J-250000D01*
G01*
X180700000Y-129805000D01*
G75*
G02*
X180450000Y-130055000I-250000J0D01*
G01*
X179925000Y-130055000D01*
G75*
G02*
X179675000Y-129805000I0J250000D01*
G01*
G37*
G36*
G01*
X181500000Y-129805000D02*
X181500000Y-128905000D01*
G75*
G02*
X181750000Y-128655000I250000J0D01*
G01*
X182275000Y-128655000D01*
G75*
G02*
X182525000Y-128905000I0J-250000D01*
G01*
X182525000Y-129805000D01*
G75*
G02*
X182275000Y-130055000I-250000J0D01*
G01*
X181750000Y-130055000D01*
G75*
G02*
X181500000Y-129805000I0J250000D01*
G01*
G37*
G36*
G01*
X175270000Y-139045000D02*
X175270000Y-139945000D01*
G75*
G02*
X175020000Y-140195000I-250000J0D01*
G01*
X174495000Y-140195000D01*
G75*
G02*
X174245000Y-139945000I0J250000D01*
G01*
X174245000Y-139045000D01*
G75*
G02*
X174495000Y-138795000I250000J0D01*
G01*
X175020000Y-138795000D01*
G75*
G02*
X175270000Y-139045000I0J-250000D01*
G01*
G37*
G36*
G01*
X173445000Y-139045000D02*
X173445000Y-139945000D01*
G75*
G02*
X173195000Y-140195000I-250000J0D01*
G01*
X172670000Y-140195000D01*
G75*
G02*
X172420000Y-139945000I0J250000D01*
G01*
X172420000Y-139045000D01*
G75*
G02*
X172670000Y-138795000I250000J0D01*
G01*
X173195000Y-138795000D01*
G75*
G02*
X173445000Y-139045000I0J-250000D01*
G01*
G37*
G36*
G01*
X147575000Y-84700000D02*
X147575000Y-85600000D01*
G75*
G02*
X147325000Y-85850000I-250000J0D01*
G01*
X146800000Y-85850000D01*
G75*
G02*
X146550000Y-85600000I0J250000D01*
G01*
X146550000Y-84700000D01*
G75*
G02*
X146800000Y-84450000I250000J0D01*
G01*
X147325000Y-84450000D01*
G75*
G02*
X147575000Y-84700000I0J-250000D01*
G01*
G37*
G36*
G01*
X145750000Y-84700000D02*
X145750000Y-85600000D01*
G75*
G02*
X145500000Y-85850000I-250000J0D01*
G01*
X144975000Y-85850000D01*
G75*
G02*
X144725000Y-85600000I0J250000D01*
G01*
X144725000Y-84700000D01*
G75*
G02*
X144975000Y-84450000I250000J0D01*
G01*
X145500000Y-84450000D01*
G75*
G02*
X145750000Y-84700000I0J-250000D01*
G01*
G37*
G36*
G01*
X188750000Y-123025000D02*
X188750000Y-123975000D01*
G75*
G02*
X188500000Y-124225000I-250000J0D01*
G01*
X188000000Y-124225000D01*
G75*
G02*
X187750000Y-123975000I0J250000D01*
G01*
X187750000Y-123025000D01*
G75*
G02*
X188000000Y-122775000I250000J0D01*
G01*
X188500000Y-122775000D01*
G75*
G02*
X188750000Y-123025000I0J-250000D01*
G01*
G37*
G36*
G01*
X186850000Y-123025000D02*
X186850000Y-123975000D01*
G75*
G02*
X186600000Y-124225000I-250000J0D01*
G01*
X186100000Y-124225000D01*
G75*
G02*
X185850000Y-123975000I0J250000D01*
G01*
X185850000Y-123025000D01*
G75*
G02*
X186100000Y-122775000I250000J0D01*
G01*
X186600000Y-122775000D01*
G75*
G02*
X186850000Y-123025000I0J-250000D01*
G01*
G37*
G36*
G01*
X161518000Y-123262000D02*
X162418000Y-123262000D01*
G75*
G02*
X162668000Y-123512000I0J-250000D01*
G01*
X162668000Y-124037000D01*
G75*
G02*
X162418000Y-124287000I-250000J0D01*
G01*
X161518000Y-124287000D01*
G75*
G02*
X161268000Y-124037000I0J250000D01*
G01*
X161268000Y-123512000D01*
G75*
G02*
X161518000Y-123262000I250000J0D01*
G01*
G37*
G36*
G01*
X161518000Y-125087000D02*
X162418000Y-125087000D01*
G75*
G02*
X162668000Y-125337000I0J-250000D01*
G01*
X162668000Y-125862000D01*
G75*
G02*
X162418000Y-126112000I-250000J0D01*
G01*
X161518000Y-126112000D01*
G75*
G02*
X161268000Y-125862000I0J250000D01*
G01*
X161268000Y-125337000D01*
G75*
G02*
X161518000Y-125087000I250000J0D01*
G01*
G37*
G36*
G01*
X118375000Y-91375000D02*
X119675000Y-91375000D01*
G75*
G02*
X119925000Y-91625000I0J-250000D01*
G01*
X119925000Y-92275000D01*
G75*
G02*
X119675000Y-92525000I-250000J0D01*
G01*
X118375000Y-92525000D01*
G75*
G02*
X118125000Y-92275000I0J250000D01*
G01*
X118125000Y-91625000D01*
G75*
G02*
X118375000Y-91375000I250000J0D01*
G01*
G37*
G36*
G01*
X118375000Y-94325000D02*
X119675000Y-94325000D01*
G75*
G02*
X119925000Y-94575000I0J-250000D01*
G01*
X119925000Y-95225000D01*
G75*
G02*
X119675000Y-95475000I-250000J0D01*
G01*
X118375000Y-95475000D01*
G75*
G02*
X118125000Y-95225000I0J250000D01*
G01*
X118125000Y-94575000D01*
G75*
G02*
X118375000Y-94325000I250000J0D01*
G01*
G37*
G36*
G01*
X122450000Y-110400000D02*
X123350000Y-110400000D01*
G75*
G02*
X123600000Y-110650000I0J-250000D01*
G01*
X123600000Y-111300000D01*
G75*
G02*
X123350000Y-111550000I-250000J0D01*
G01*
X122450000Y-111550000D01*
G75*
G02*
X122200000Y-111300000I0J250000D01*
G01*
X122200000Y-110650000D01*
G75*
G02*
X122450000Y-110400000I250000J0D01*
G01*
G37*
G36*
G01*
X122450000Y-112450000D02*
X123350000Y-112450000D01*
G75*
G02*
X123600000Y-112700000I0J-250000D01*
G01*
X123600000Y-113350000D01*
G75*
G02*
X123350000Y-113600000I-250000J0D01*
G01*
X122450000Y-113600000D01*
G75*
G02*
X122200000Y-113350000I0J250000D01*
G01*
X122200000Y-112700000D01*
G75*
G02*
X122450000Y-112450000I250000J0D01*
G01*
G37*
G36*
G01*
X194525000Y-122150000D02*
X194525000Y-123050000D01*
G75*
G02*
X194275000Y-123300000I-250000J0D01*
G01*
X193750000Y-123300000D01*
G75*
G02*
X193500000Y-123050000I0J250000D01*
G01*
X193500000Y-122150000D01*
G75*
G02*
X193750000Y-121900000I250000J0D01*
G01*
X194275000Y-121900000D01*
G75*
G02*
X194525000Y-122150000I0J-250000D01*
G01*
G37*
G36*
G01*
X192700000Y-122150000D02*
X192700000Y-123050000D01*
G75*
G02*
X192450000Y-123300000I-250000J0D01*
G01*
X191925000Y-123300000D01*
G75*
G02*
X191675000Y-123050000I0J250000D01*
G01*
X191675000Y-122150000D01*
G75*
G02*
X191925000Y-121900000I250000J0D01*
G01*
X192450000Y-121900000D01*
G75*
G02*
X192700000Y-122150000I0J-250000D01*
G01*
G37*
G36*
G01*
X182565000Y-130905000D02*
X182565000Y-131855000D01*
G75*
G02*
X182315000Y-132105000I-250000J0D01*
G01*
X181815000Y-132105000D01*
G75*
G02*
X181565000Y-131855000I0J250000D01*
G01*
X181565000Y-130905000D01*
G75*
G02*
X181815000Y-130655000I250000J0D01*
G01*
X182315000Y-130655000D01*
G75*
G02*
X182565000Y-130905000I0J-250000D01*
G01*
G37*
G36*
G01*
X180665000Y-130905000D02*
X180665000Y-131855000D01*
G75*
G02*
X180415000Y-132105000I-250000J0D01*
G01*
X179915000Y-132105000D01*
G75*
G02*
X179665000Y-131855000I0J250000D01*
G01*
X179665000Y-130905000D01*
G75*
G02*
X179915000Y-130655000I250000J0D01*
G01*
X180415000Y-130655000D01*
G75*
G02*
X180665000Y-130905000I0J-250000D01*
G01*
G37*
G36*
G01*
X116025000Y-91375000D02*
X117325000Y-91375000D01*
G75*
G02*
X117575000Y-91625000I0J-250000D01*
G01*
X117575000Y-92275000D01*
G75*
G02*
X117325000Y-92525000I-250000J0D01*
G01*
X116025000Y-92525000D01*
G75*
G02*
X115775000Y-92275000I0J250000D01*
G01*
X115775000Y-91625000D01*
G75*
G02*
X116025000Y-91375000I250000J0D01*
G01*
G37*
G36*
G01*
X116025000Y-94325000D02*
X117325000Y-94325000D01*
G75*
G02*
X117575000Y-94575000I0J-250000D01*
G01*
X117575000Y-95225000D01*
G75*
G02*
X117325000Y-95475000I-250000J0D01*
G01*
X116025000Y-95475000D01*
G75*
G02*
X115775000Y-95225000I0J250000D01*
G01*
X115775000Y-94575000D01*
G75*
G02*
X116025000Y-94325000I250000J0D01*
G01*
G37*
G36*
G01*
X118825000Y-60100000D02*
X118825000Y-61000000D01*
G75*
G02*
X118575000Y-61250000I-250000J0D01*
G01*
X118050000Y-61250000D01*
G75*
G02*
X117800000Y-61000000I0J250000D01*
G01*
X117800000Y-60100000D01*
G75*
G02*
X118050000Y-59850000I250000J0D01*
G01*
X118575000Y-59850000D01*
G75*
G02*
X118825000Y-60100000I0J-250000D01*
G01*
G37*
G36*
G01*
X117000000Y-60100000D02*
X117000000Y-61000000D01*
G75*
G02*
X116750000Y-61250000I-250000J0D01*
G01*
X116225000Y-61250000D01*
G75*
G02*
X115975000Y-61000000I0J250000D01*
G01*
X115975000Y-60100000D01*
G75*
G02*
X116225000Y-59850000I250000J0D01*
G01*
X116750000Y-59850000D01*
G75*
G02*
X117000000Y-60100000I0J-250000D01*
G01*
G37*
G36*
G01*
X148850000Y-104750000D02*
X148850000Y-103450000D01*
G75*
G02*
X149100000Y-103200000I250000J0D01*
G01*
X149750000Y-103200000D01*
G75*
G02*
X150000000Y-103450000I0J-250000D01*
G01*
X150000000Y-104750000D01*
G75*
G02*
X149750000Y-105000000I-250000J0D01*
G01*
X149100000Y-105000000D01*
G75*
G02*
X148850000Y-104750000I0J250000D01*
G01*
G37*
G36*
G01*
X151800000Y-104750000D02*
X151800000Y-103450000D01*
G75*
G02*
X152050000Y-103200000I250000J0D01*
G01*
X152700000Y-103200000D01*
G75*
G02*
X152950000Y-103450000I0J-250000D01*
G01*
X152950000Y-104750000D01*
G75*
G02*
X152700000Y-105000000I-250000J0D01*
G01*
X152050000Y-105000000D01*
G75*
G02*
X151800000Y-104750000I0J250000D01*
G01*
G37*
G36*
G01*
X168295000Y-83150000D02*
X168295000Y-82250000D01*
G75*
G02*
X168545000Y-82000000I250000J0D01*
G01*
X169070000Y-82000000D01*
G75*
G02*
X169320000Y-82250000I0J-250000D01*
G01*
X169320000Y-83150000D01*
G75*
G02*
X169070000Y-83400000I-250000J0D01*
G01*
X168545000Y-83400000D01*
G75*
G02*
X168295000Y-83150000I0J250000D01*
G01*
G37*
G36*
G01*
X170120000Y-83150000D02*
X170120000Y-82250000D01*
G75*
G02*
X170370000Y-82000000I250000J0D01*
G01*
X170895000Y-82000000D01*
G75*
G02*
X171145000Y-82250000I0J-250000D01*
G01*
X171145000Y-83150000D01*
G75*
G02*
X170895000Y-83400000I-250000J0D01*
G01*
X170370000Y-83400000D01*
G75*
G02*
X170120000Y-83150000I0J250000D01*
G01*
G37*
G36*
G01*
X131318000Y-123912000D02*
X130418000Y-123912000D01*
G75*
G02*
X130168000Y-123662000I0J250000D01*
G01*
X130168000Y-123137000D01*
G75*
G02*
X130418000Y-122887000I250000J0D01*
G01*
X131318000Y-122887000D01*
G75*
G02*
X131568000Y-123137000I0J-250000D01*
G01*
X131568000Y-123662000D01*
G75*
G02*
X131318000Y-123912000I-250000J0D01*
G01*
G37*
G36*
G01*
X131318000Y-122087000D02*
X130418000Y-122087000D01*
G75*
G02*
X130168000Y-121837000I0J250000D01*
G01*
X130168000Y-121312000D01*
G75*
G02*
X130418000Y-121062000I250000J0D01*
G01*
X131318000Y-121062000D01*
G75*
G02*
X131568000Y-121312000I0J-250000D01*
G01*
X131568000Y-121837000D01*
G75*
G02*
X131318000Y-122087000I-250000J0D01*
G01*
G37*
G36*
G01*
X107087500Y-83824999D02*
X107087500Y-82575001D01*
G75*
G02*
X107337501Y-82325000I250001J0D01*
G01*
X108262499Y-82325000D01*
G75*
G02*
X108512500Y-82575001I0J-250001D01*
G01*
X108512500Y-83824999D01*
G75*
G02*
X108262499Y-84075000I-250001J0D01*
G01*
X107337501Y-84075000D01*
G75*
G02*
X107087500Y-83824999I0J250001D01*
G01*
G37*
G36*
G01*
X110062500Y-83824999D02*
X110062500Y-82575001D01*
G75*
G02*
X110312501Y-82325000I250001J0D01*
G01*
X111237499Y-82325000D01*
G75*
G02*
X111487500Y-82575001I0J-250001D01*
G01*
X111487500Y-83824999D01*
G75*
G02*
X111237499Y-84075000I-250001J0D01*
G01*
X110312501Y-84075000D01*
G75*
G02*
X110062500Y-83824999I0J250001D01*
G01*
G37*
G36*
G01*
X134500000Y-106150000D02*
X133200000Y-106150000D01*
G75*
G02*
X132950000Y-105900000I0J250000D01*
G01*
X132950000Y-105250000D01*
G75*
G02*
X133200000Y-105000000I250000J0D01*
G01*
X134500000Y-105000000D01*
G75*
G02*
X134750000Y-105250000I0J-250000D01*
G01*
X134750000Y-105900000D01*
G75*
G02*
X134500000Y-106150000I-250000J0D01*
G01*
G37*
G36*
G01*
X134500000Y-103200000D02*
X133200000Y-103200000D01*
G75*
G02*
X132950000Y-102950000I0J250000D01*
G01*
X132950000Y-102300000D01*
G75*
G02*
X133200000Y-102050000I250000J0D01*
G01*
X134500000Y-102050000D01*
G75*
G02*
X134750000Y-102300000I0J-250000D01*
G01*
X134750000Y-102950000D01*
G75*
G02*
X134500000Y-103200000I-250000J0D01*
G01*
G37*
D12*
X144900000Y-60760000D03*
D13*
X147775000Y-62665000D03*
X147775000Y-61395000D03*
X147775000Y-60125000D03*
X147775000Y-58855000D03*
X142025000Y-58855000D03*
X142025000Y-60125000D03*
X142025000Y-61395000D03*
X142025000Y-62665000D03*
D15*
X140512500Y-80800000D03*
X136512500Y-80800000D03*
G36*
G01*
X157750000Y-109450000D02*
X157750000Y-110750000D01*
G75*
G02*
X157500000Y-111000000I-250000J0D01*
G01*
X156850000Y-111000000D01*
G75*
G02*
X156600000Y-110750000I0J250000D01*
G01*
X156600000Y-109450000D01*
G75*
G02*
X156850000Y-109200000I250000J0D01*
G01*
X157500000Y-109200000D01*
G75*
G02*
X157750000Y-109450000I0J-250000D01*
G01*
G37*
G36*
G01*
X154800000Y-109450000D02*
X154800000Y-110750000D01*
G75*
G02*
X154550000Y-111000000I-250000J0D01*
G01*
X153900000Y-111000000D01*
G75*
G02*
X153650000Y-110750000I0J250000D01*
G01*
X153650000Y-109450000D01*
G75*
G02*
X153900000Y-109200000I250000J0D01*
G01*
X154550000Y-109200000D01*
G75*
G02*
X154800000Y-109450000I0J-250000D01*
G01*
G37*
G36*
G01*
X175350000Y-110750000D02*
X175350000Y-112050000D01*
G75*
G02*
X175100000Y-112300000I-250000J0D01*
G01*
X174450000Y-112300000D01*
G75*
G02*
X174200000Y-112050000I0J250000D01*
G01*
X174200000Y-110750000D01*
G75*
G02*
X174450000Y-110500000I250000J0D01*
G01*
X175100000Y-110500000D01*
G75*
G02*
X175350000Y-110750000I0J-250000D01*
G01*
G37*
G36*
G01*
X172400000Y-110750000D02*
X172400000Y-112050000D01*
G75*
G02*
X172150000Y-112300000I-250000J0D01*
G01*
X171500000Y-112300000D01*
G75*
G02*
X171250000Y-112050000I0J250000D01*
G01*
X171250000Y-110750000D01*
G75*
G02*
X171500000Y-110500000I250000J0D01*
G01*
X172150000Y-110500000D01*
G75*
G02*
X172400000Y-110750000I0J-250000D01*
G01*
G37*
D11*
X190200000Y-119250000D03*
X190200000Y-122550000D03*
G36*
G01*
X119000000Y-56000000D02*
X119000000Y-56900000D01*
G75*
G02*
X118750000Y-57150000I-250000J0D01*
G01*
X118100000Y-57150000D01*
G75*
G02*
X117850000Y-56900000I0J250000D01*
G01*
X117850000Y-56000000D01*
G75*
G02*
X118100000Y-55750000I250000J0D01*
G01*
X118750000Y-55750000D01*
G75*
G02*
X119000000Y-56000000I0J-250000D01*
G01*
G37*
G36*
G01*
X116950000Y-56000000D02*
X116950000Y-56900000D01*
G75*
G02*
X116700000Y-57150000I-250000J0D01*
G01*
X116050000Y-57150000D01*
G75*
G02*
X115800000Y-56900000I0J250000D01*
G01*
X115800000Y-56000000D01*
G75*
G02*
X116050000Y-55750000I250000J0D01*
G01*
X116700000Y-55750000D01*
G75*
G02*
X116950000Y-56000000I0J-250000D01*
G01*
G37*
G36*
G01*
X165825000Y-53910000D02*
X165825000Y-54810000D01*
G75*
G02*
X165575000Y-55060000I-250000J0D01*
G01*
X165050000Y-55060000D01*
G75*
G02*
X164800000Y-54810000I0J250000D01*
G01*
X164800000Y-53910000D01*
G75*
G02*
X165050000Y-53660000I250000J0D01*
G01*
X165575000Y-53660000D01*
G75*
G02*
X165825000Y-53910000I0J-250000D01*
G01*
G37*
G36*
G01*
X164000000Y-53910000D02*
X164000000Y-54810000D01*
G75*
G02*
X163750000Y-55060000I-250000J0D01*
G01*
X163225000Y-55060000D01*
G75*
G02*
X162975000Y-54810000I0J250000D01*
G01*
X162975000Y-53910000D01*
G75*
G02*
X163225000Y-53660000I250000J0D01*
G01*
X163750000Y-53660000D01*
G75*
G02*
X164000000Y-53910000I0J-250000D01*
G01*
G37*
G36*
G01*
X181915000Y-132680000D02*
X182215000Y-132680000D01*
G75*
G02*
X182365000Y-132830000I0J-150000D01*
G01*
X182365000Y-134005000D01*
G75*
G02*
X182215000Y-134155000I-150000J0D01*
G01*
X181915000Y-134155000D01*
G75*
G02*
X181765000Y-134005000I0J150000D01*
G01*
X181765000Y-132830000D01*
G75*
G02*
X181915000Y-132680000I150000J0D01*
G01*
G37*
G36*
G01*
X180015000Y-132680000D02*
X180315000Y-132680000D01*
G75*
G02*
X180465000Y-132830000I0J-150000D01*
G01*
X180465000Y-134005000D01*
G75*
G02*
X180315000Y-134155000I-150000J0D01*
G01*
X180015000Y-134155000D01*
G75*
G02*
X179865000Y-134005000I0J150000D01*
G01*
X179865000Y-132830000D01*
G75*
G02*
X180015000Y-132680000I150000J0D01*
G01*
G37*
G36*
G01*
X180965000Y-134555000D02*
X181265000Y-134555000D01*
G75*
G02*
X181415000Y-134705000I0J-150000D01*
G01*
X181415000Y-135880000D01*
G75*
G02*
X181265000Y-136030000I-150000J0D01*
G01*
X180965000Y-136030000D01*
G75*
G02*
X180815000Y-135880000I0J150000D01*
G01*
X180815000Y-134705000D01*
G75*
G02*
X180965000Y-134555000I150000J0D01*
G01*
G37*
D14*
X130850000Y-110675000D03*
X130850000Y-114675000D03*
G36*
G01*
X188725000Y-110550000D02*
X188725000Y-111450000D01*
G75*
G02*
X188475000Y-111700000I-250000J0D01*
G01*
X187950000Y-111700000D01*
G75*
G02*
X187700000Y-111450000I0J250000D01*
G01*
X187700000Y-110550000D01*
G75*
G02*
X187950000Y-110300000I250000J0D01*
G01*
X188475000Y-110300000D01*
G75*
G02*
X188725000Y-110550000I0J-250000D01*
G01*
G37*
G36*
G01*
X186900000Y-110550000D02*
X186900000Y-111450000D01*
G75*
G02*
X186650000Y-111700000I-250000J0D01*
G01*
X186125000Y-111700000D01*
G75*
G02*
X185875000Y-111450000I0J250000D01*
G01*
X185875000Y-110550000D01*
G75*
G02*
X186125000Y-110300000I250000J0D01*
G01*
X186650000Y-110300000D01*
G75*
G02*
X186900000Y-110550000I0J-250000D01*
G01*
G37*
G36*
G01*
X108550000Y-116000000D02*
X109450000Y-116000000D01*
G75*
G02*
X109700000Y-116250000I0J-250000D01*
G01*
X109700000Y-116900000D01*
G75*
G02*
X109450000Y-117150000I-250000J0D01*
G01*
X108550000Y-117150000D01*
G75*
G02*
X108300000Y-116900000I0J250000D01*
G01*
X108300000Y-116250000D01*
G75*
G02*
X108550000Y-116000000I250000J0D01*
G01*
G37*
G36*
G01*
X108550000Y-118050000D02*
X109450000Y-118050000D01*
G75*
G02*
X109700000Y-118300000I0J-250000D01*
G01*
X109700000Y-118950000D01*
G75*
G02*
X109450000Y-119200000I-250000J0D01*
G01*
X108550000Y-119200000D01*
G75*
G02*
X108300000Y-118950000I0J250000D01*
G01*
X108300000Y-118300000D01*
G75*
G02*
X108550000Y-118050000I250000J0D01*
G01*
G37*
G36*
G01*
X165837500Y-69350000D02*
X165837500Y-70250000D01*
G75*
G02*
X165587500Y-70500000I-250000J0D01*
G01*
X165062500Y-70500000D01*
G75*
G02*
X164812500Y-70250000I0J250000D01*
G01*
X164812500Y-69350000D01*
G75*
G02*
X165062500Y-69100000I250000J0D01*
G01*
X165587500Y-69100000D01*
G75*
G02*
X165837500Y-69350000I0J-250000D01*
G01*
G37*
G36*
G01*
X164012500Y-69350000D02*
X164012500Y-70250000D01*
G75*
G02*
X163762500Y-70500000I-250000J0D01*
G01*
X163237500Y-70500000D01*
G75*
G02*
X162987500Y-70250000I0J250000D01*
G01*
X162987500Y-69350000D01*
G75*
G02*
X163237500Y-69100000I250000J0D01*
G01*
X163762500Y-69100000D01*
G75*
G02*
X164012500Y-69350000I0J-250000D01*
G01*
G37*
G36*
G01*
X114500000Y-54674999D02*
X114500000Y-53425001D01*
G75*
G02*
X114750001Y-53175000I250001J0D01*
G01*
X115674999Y-53175000D01*
G75*
G02*
X115925000Y-53425001I0J-250001D01*
G01*
X115925000Y-54674999D01*
G75*
G02*
X115674999Y-54925000I-250001J0D01*
G01*
X114750001Y-54925000D01*
G75*
G02*
X114500000Y-54674999I0J250001D01*
G01*
G37*
G36*
G01*
X117475000Y-54674999D02*
X117475000Y-53425001D01*
G75*
G02*
X117725001Y-53175000I250001J0D01*
G01*
X118649999Y-53175000D01*
G75*
G02*
X118900000Y-53425001I0J-250001D01*
G01*
X118900000Y-54674999D01*
G75*
G02*
X118649999Y-54925000I-250001J0D01*
G01*
X117725001Y-54925000D01*
G75*
G02*
X117475000Y-54674999I0J250001D01*
G01*
G37*
G36*
G01*
X134625000Y-62510000D02*
X134625000Y-63410000D01*
G75*
G02*
X134375000Y-63660000I-250000J0D01*
G01*
X133850000Y-63660000D01*
G75*
G02*
X133600000Y-63410000I0J250000D01*
G01*
X133600000Y-62510000D01*
G75*
G02*
X133850000Y-62260000I250000J0D01*
G01*
X134375000Y-62260000D01*
G75*
G02*
X134625000Y-62510000I0J-250000D01*
G01*
G37*
G36*
G01*
X132800000Y-62510000D02*
X132800000Y-63410000D01*
G75*
G02*
X132550000Y-63660000I-250000J0D01*
G01*
X132025000Y-63660000D01*
G75*
G02*
X131775000Y-63410000I0J250000D01*
G01*
X131775000Y-62510000D01*
G75*
G02*
X132025000Y-62260000I250000J0D01*
G01*
X132550000Y-62260000D01*
G75*
G02*
X132800000Y-62510000I0J-250000D01*
G01*
G37*
D20*
X137850000Y-102200000D03*
D21*
X139755000Y-99325000D03*
X138485000Y-99325000D03*
X137215000Y-99325000D03*
X135945000Y-99325000D03*
X135945000Y-105075000D03*
X137215000Y-105075000D03*
X138485000Y-105075000D03*
X139755000Y-105075000D03*
G36*
G01*
X119680000Y-100150000D02*
X118380000Y-100150000D01*
G75*
G02*
X118130000Y-99900000I0J250000D01*
G01*
X118130000Y-99250000D01*
G75*
G02*
X118380000Y-99000000I250000J0D01*
G01*
X119680000Y-99000000D01*
G75*
G02*
X119930000Y-99250000I0J-250000D01*
G01*
X119930000Y-99900000D01*
G75*
G02*
X119680000Y-100150000I-250000J0D01*
G01*
G37*
G36*
G01*
X119680000Y-97200000D02*
X118380000Y-97200000D01*
G75*
G02*
X118130000Y-96950000I0J250000D01*
G01*
X118130000Y-96300000D01*
G75*
G02*
X118380000Y-96050000I250000J0D01*
G01*
X119680000Y-96050000D01*
G75*
G02*
X119930000Y-96300000I0J-250000D01*
G01*
X119930000Y-96950000D01*
G75*
G02*
X119680000Y-97200000I-250000J0D01*
G01*
G37*
G36*
G01*
X174400000Y-107850000D02*
X174400000Y-108750000D01*
G75*
G02*
X174150000Y-109000000I-250000J0D01*
G01*
X173500000Y-109000000D01*
G75*
G02*
X173250000Y-108750000I0J250000D01*
G01*
X173250000Y-107850000D01*
G75*
G02*
X173500000Y-107600000I250000J0D01*
G01*
X174150000Y-107600000D01*
G75*
G02*
X174400000Y-107850000I0J-250000D01*
G01*
G37*
G36*
G01*
X172350000Y-107850000D02*
X172350000Y-108750000D01*
G75*
G02*
X172100000Y-109000000I-250000J0D01*
G01*
X171450000Y-109000000D01*
G75*
G02*
X171200000Y-108750000I0J250000D01*
G01*
X171200000Y-107850000D01*
G75*
G02*
X171450000Y-107600000I250000J0D01*
G01*
X172100000Y-107600000D01*
G75*
G02*
X172350000Y-107850000I0J-250000D01*
G01*
G37*
G36*
G01*
X176495000Y-140375000D02*
X176195000Y-140375000D01*
G75*
G02*
X176045000Y-140225000I0J150000D01*
G01*
X176045000Y-139200000D01*
G75*
G02*
X176195000Y-139050000I150000J0D01*
G01*
X176495000Y-139050000D01*
G75*
G02*
X176645000Y-139200000I0J-150000D01*
G01*
X176645000Y-140225000D01*
G75*
G02*
X176495000Y-140375000I-150000J0D01*
G01*
G37*
G36*
G01*
X177445000Y-140375000D02*
X177145000Y-140375000D01*
G75*
G02*
X176995000Y-140225000I0J150000D01*
G01*
X176995000Y-139200000D01*
G75*
G02*
X177145000Y-139050000I150000J0D01*
G01*
X177445000Y-139050000D01*
G75*
G02*
X177595000Y-139200000I0J-150000D01*
G01*
X177595000Y-140225000D01*
G75*
G02*
X177445000Y-140375000I-150000J0D01*
G01*
G37*
G36*
G01*
X178395000Y-140375000D02*
X178095000Y-140375000D01*
G75*
G02*
X177945000Y-140225000I0J150000D01*
G01*
X177945000Y-139200000D01*
G75*
G02*
X178095000Y-139050000I150000J0D01*
G01*
X178395000Y-139050000D01*
G75*
G02*
X178545000Y-139200000I0J-150000D01*
G01*
X178545000Y-140225000D01*
G75*
G02*
X178395000Y-140375000I-150000J0D01*
G01*
G37*
G36*
G01*
X178395000Y-138100000D02*
X178095000Y-138100000D01*
G75*
G02*
X177945000Y-137950000I0J150000D01*
G01*
X177945000Y-136925000D01*
G75*
G02*
X178095000Y-136775000I150000J0D01*
G01*
X178395000Y-136775000D01*
G75*
G02*
X178545000Y-136925000I0J-150000D01*
G01*
X178545000Y-137950000D01*
G75*
G02*
X178395000Y-138100000I-150000J0D01*
G01*
G37*
G36*
G01*
X177445000Y-138100000D02*
X177145000Y-138100000D01*
G75*
G02*
X176995000Y-137950000I0J150000D01*
G01*
X176995000Y-136925000D01*
G75*
G02*
X177145000Y-136775000I150000J0D01*
G01*
X177445000Y-136775000D01*
G75*
G02*
X177595000Y-136925000I0J-150000D01*
G01*
X177595000Y-137950000D01*
G75*
G02*
X177445000Y-138100000I-150000J0D01*
G01*
G37*
G36*
G01*
X176495000Y-138100000D02*
X176195000Y-138100000D01*
G75*
G02*
X176045000Y-137950000I0J150000D01*
G01*
X176045000Y-136925000D01*
G75*
G02*
X176195000Y-136775000I150000J0D01*
G01*
X176495000Y-136775000D01*
G75*
G02*
X176645000Y-136925000I0J-150000D01*
G01*
X176645000Y-137950000D01*
G75*
G02*
X176495000Y-138100000I-150000J0D01*
G01*
G37*
G36*
G01*
X171970000Y-65425000D02*
X171070000Y-65425000D01*
G75*
G02*
X170820000Y-65175000I0J250000D01*
G01*
X170820000Y-64650000D01*
G75*
G02*
X171070000Y-64400000I250000J0D01*
G01*
X171970000Y-64400000D01*
G75*
G02*
X172220000Y-64650000I0J-250000D01*
G01*
X172220000Y-65175000D01*
G75*
G02*
X171970000Y-65425000I-250000J0D01*
G01*
G37*
G36*
G01*
X171970000Y-63600000D02*
X171070000Y-63600000D01*
G75*
G02*
X170820000Y-63350000I0J250000D01*
G01*
X170820000Y-62825000D01*
G75*
G02*
X171070000Y-62575000I250000J0D01*
G01*
X171970000Y-62575000D01*
G75*
G02*
X172220000Y-62825000I0J-250000D01*
G01*
X172220000Y-63350000D01*
G75*
G02*
X171970000Y-63600000I-250000J0D01*
G01*
G37*
G36*
G01*
X147262500Y-68950000D02*
X148562500Y-68950000D01*
G75*
G02*
X148812500Y-69200000I0J-250000D01*
G01*
X148812500Y-69850000D01*
G75*
G02*
X148562500Y-70100000I-250000J0D01*
G01*
X147262500Y-70100000D01*
G75*
G02*
X147012500Y-69850000I0J250000D01*
G01*
X147012500Y-69200000D01*
G75*
G02*
X147262500Y-68950000I250000J0D01*
G01*
G37*
G36*
G01*
X147262500Y-71900000D02*
X148562500Y-71900000D01*
G75*
G02*
X148812500Y-72150000I0J-250000D01*
G01*
X148812500Y-72800000D01*
G75*
G02*
X148562500Y-73050000I-250000J0D01*
G01*
X147262500Y-73050000D01*
G75*
G02*
X147012500Y-72800000I0J250000D01*
G01*
X147012500Y-72150000D01*
G75*
G02*
X147262500Y-71900000I250000J0D01*
G01*
G37*
D11*
X127700000Y-61100000D03*
X127700000Y-57800000D03*
G36*
G01*
X126750000Y-56425000D02*
X126750000Y-55475000D01*
G75*
G02*
X127000000Y-55225000I250000J0D01*
G01*
X127500000Y-55225000D01*
G75*
G02*
X127750000Y-55475000I0J-250000D01*
G01*
X127750000Y-56425000D01*
G75*
G02*
X127500000Y-56675000I-250000J0D01*
G01*
X127000000Y-56675000D01*
G75*
G02*
X126750000Y-56425000I0J250000D01*
G01*
G37*
G36*
G01*
X128650000Y-56425000D02*
X128650000Y-55475000D01*
G75*
G02*
X128900000Y-55225000I250000J0D01*
G01*
X129400000Y-55225000D01*
G75*
G02*
X129650000Y-55475000I0J-250000D01*
G01*
X129650000Y-56425000D01*
G75*
G02*
X129400000Y-56675000I-250000J0D01*
G01*
X128900000Y-56675000D01*
G75*
G02*
X128650000Y-56425000I0J250000D01*
G01*
G37*
G36*
G01*
X159375000Y-63810000D02*
X152225000Y-63810000D01*
G75*
G02*
X151700000Y-63285000I0J525000D01*
G01*
X151700000Y-62235000D01*
G75*
G02*
X152225000Y-61710000I525000J0D01*
G01*
X159375000Y-61710000D01*
G75*
G02*
X159900000Y-62235000I0J-525000D01*
G01*
X159900000Y-63285000D01*
G75*
G02*
X159375000Y-63810000I-525000J0D01*
G01*
G37*
D10*
X155800000Y-65210000D03*
X155800000Y-55310000D03*
G36*
G01*
X159375000Y-58810000D02*
X152225000Y-58810000D01*
G75*
G02*
X151700000Y-58285000I0J525000D01*
G01*
X151700000Y-57235000D01*
G75*
G02*
X152225000Y-56710000I525000J0D01*
G01*
X159375000Y-56710000D01*
G75*
G02*
X159900000Y-57235000I0J-525000D01*
G01*
X159900000Y-58285000D01*
G75*
G02*
X159375000Y-58810000I-525000J0D01*
G01*
G37*
G36*
G01*
X179675000Y-127805000D02*
X179675000Y-126905000D01*
G75*
G02*
X179925000Y-126655000I250000J0D01*
G01*
X180450000Y-126655000D01*
G75*
G02*
X180700000Y-126905000I0J-250000D01*
G01*
X180700000Y-127805000D01*
G75*
G02*
X180450000Y-128055000I-250000J0D01*
G01*
X179925000Y-128055000D01*
G75*
G02*
X179675000Y-127805000I0J250000D01*
G01*
G37*
G36*
G01*
X181500000Y-127805000D02*
X181500000Y-126905000D01*
G75*
G02*
X181750000Y-126655000I250000J0D01*
G01*
X182275000Y-126655000D01*
G75*
G02*
X182525000Y-126905000I0J-250000D01*
G01*
X182525000Y-127805000D01*
G75*
G02*
X182275000Y-128055000I-250000J0D01*
G01*
X181750000Y-128055000D01*
G75*
G02*
X181500000Y-127805000I0J250000D01*
G01*
G37*
G36*
G01*
X144850000Y-53510000D02*
X146150000Y-53510000D01*
G75*
G02*
X146400000Y-53760000I0J-250000D01*
G01*
X146400000Y-54410000D01*
G75*
G02*
X146150000Y-54660000I-250000J0D01*
G01*
X144850000Y-54660000D01*
G75*
G02*
X144600000Y-54410000I0J250000D01*
G01*
X144600000Y-53760000D01*
G75*
G02*
X144850000Y-53510000I250000J0D01*
G01*
G37*
G36*
G01*
X144850000Y-56460000D02*
X146150000Y-56460000D01*
G75*
G02*
X146400000Y-56710000I0J-250000D01*
G01*
X146400000Y-57360000D01*
G75*
G02*
X146150000Y-57610000I-250000J0D01*
G01*
X144850000Y-57610000D01*
G75*
G02*
X144600000Y-57360000I0J250000D01*
G01*
X144600000Y-56710000D01*
G75*
G02*
X144850000Y-56460000I250000J0D01*
G01*
G37*
G36*
G01*
X107100000Y-81324999D02*
X107100000Y-80075001D01*
G75*
G02*
X107350001Y-79825000I250001J0D01*
G01*
X108274999Y-79825000D01*
G75*
G02*
X108525000Y-80075001I0J-250001D01*
G01*
X108525000Y-81324999D01*
G75*
G02*
X108274999Y-81575000I-250001J0D01*
G01*
X107350001Y-81575000D01*
G75*
G02*
X107100000Y-81324999I0J250001D01*
G01*
G37*
G36*
G01*
X110075000Y-81324999D02*
X110075000Y-80075001D01*
G75*
G02*
X110325001Y-79825000I250001J0D01*
G01*
X111249999Y-79825000D01*
G75*
G02*
X111500000Y-80075001I0J-250001D01*
G01*
X111500000Y-81324999D01*
G75*
G02*
X111249999Y-81575000I-250001J0D01*
G01*
X110325001Y-81575000D01*
G75*
G02*
X110075000Y-81324999I0J250001D01*
G01*
G37*
G36*
G01*
X159387500Y-79250000D02*
X152237500Y-79250000D01*
G75*
G02*
X151712500Y-78725000I0J525000D01*
G01*
X151712500Y-77675000D01*
G75*
G02*
X152237500Y-77150000I525000J0D01*
G01*
X159387500Y-77150000D01*
G75*
G02*
X159912500Y-77675000I0J-525000D01*
G01*
X159912500Y-78725000D01*
G75*
G02*
X159387500Y-79250000I-525000J0D01*
G01*
G37*
X155812500Y-80650000D03*
X155812500Y-70750000D03*
G36*
G01*
X159387500Y-74250000D02*
X152237500Y-74250000D01*
G75*
G02*
X151712500Y-73725000I0J525000D01*
G01*
X151712500Y-72675000D01*
G75*
G02*
X152237500Y-72150000I525000J0D01*
G01*
X159387500Y-72150000D01*
G75*
G02*
X159912500Y-72675000I0J-525000D01*
G01*
X159912500Y-73725000D01*
G75*
G02*
X159387500Y-74250000I-525000J0D01*
G01*
G37*
G36*
G01*
X112025000Y-128650000D02*
X112975000Y-128650000D01*
G75*
G02*
X113225000Y-128900000I0J-250000D01*
G01*
X113225000Y-129400000D01*
G75*
G02*
X112975000Y-129650000I-250000J0D01*
G01*
X112025000Y-129650000D01*
G75*
G02*
X111775000Y-129400000I0J250000D01*
G01*
X111775000Y-128900000D01*
G75*
G02*
X112025000Y-128650000I250000J0D01*
G01*
G37*
G36*
G01*
X112025000Y-130550000D02*
X112975000Y-130550000D01*
G75*
G02*
X113225000Y-130800000I0J-250000D01*
G01*
X113225000Y-131300000D01*
G75*
G02*
X112975000Y-131550000I-250000J0D01*
G01*
X112025000Y-131550000D01*
G75*
G02*
X111775000Y-131300000I0J250000D01*
G01*
X111775000Y-130800000D01*
G75*
G02*
X112025000Y-130550000I250000J0D01*
G01*
G37*
G36*
G01*
X111124999Y-124212500D02*
X109875001Y-124212500D01*
G75*
G02*
X109625000Y-123962499I0J250001D01*
G01*
X109625000Y-123037501D01*
G75*
G02*
X109875001Y-122787500I250001J0D01*
G01*
X111124999Y-122787500D01*
G75*
G02*
X111375000Y-123037501I0J-250001D01*
G01*
X111375000Y-123962499D01*
G75*
G02*
X111124999Y-124212500I-250001J0D01*
G01*
G37*
G36*
G01*
X111124999Y-121237500D02*
X109875001Y-121237500D01*
G75*
G02*
X109625000Y-120987499I0J250001D01*
G01*
X109625000Y-120062501D01*
G75*
G02*
X109875001Y-119812500I250001J0D01*
G01*
X111124999Y-119812500D01*
G75*
G02*
X111375000Y-120062501I0J-250001D01*
G01*
X111375000Y-120987499D01*
G75*
G02*
X111124999Y-121237500I-250001J0D01*
G01*
G37*
G36*
G01*
X109670000Y-110675000D02*
X109670000Y-103525000D01*
G75*
G02*
X110195000Y-103000000I525000J0D01*
G01*
X111245000Y-103000000D01*
G75*
G02*
X111770000Y-103525000I0J-525000D01*
G01*
X111770000Y-110675000D01*
G75*
G02*
X111245000Y-111200000I-525000J0D01*
G01*
X110195000Y-111200000D01*
G75*
G02*
X109670000Y-110675000I0J525000D01*
G01*
G37*
D22*
X108270000Y-107100000D03*
X118170000Y-107100000D03*
G36*
G01*
X114670000Y-110675000D02*
X114670000Y-103525000D01*
G75*
G02*
X115195000Y-103000000I525000J0D01*
G01*
X116245000Y-103000000D01*
G75*
G02*
X116770000Y-103525000I0J-525000D01*
G01*
X116770000Y-110675000D01*
G75*
G02*
X116245000Y-111200000I-525000J0D01*
G01*
X115195000Y-111200000D01*
G75*
G02*
X114670000Y-110675000I0J525000D01*
G01*
G37*
G36*
G01*
X194525000Y-113700000D02*
X194525000Y-114600000D01*
G75*
G02*
X194275000Y-114850000I-250000J0D01*
G01*
X193750000Y-114850000D01*
G75*
G02*
X193500000Y-114600000I0J250000D01*
G01*
X193500000Y-113700000D01*
G75*
G02*
X193750000Y-113450000I250000J0D01*
G01*
X194275000Y-113450000D01*
G75*
G02*
X194525000Y-113700000I0J-250000D01*
G01*
G37*
G36*
G01*
X192700000Y-113700000D02*
X192700000Y-114600000D01*
G75*
G02*
X192450000Y-114850000I-250000J0D01*
G01*
X191925000Y-114850000D01*
G75*
G02*
X191675000Y-114600000I0J250000D01*
G01*
X191675000Y-113700000D01*
G75*
G02*
X191925000Y-113450000I250000J0D01*
G01*
X192450000Y-113450000D01*
G75*
G02*
X192700000Y-113700000I0J-250000D01*
G01*
G37*
G36*
G01*
X179310000Y-139945000D02*
X179310000Y-139045000D01*
G75*
G02*
X179560000Y-138795000I250000J0D01*
G01*
X180085000Y-138795000D01*
G75*
G02*
X180335000Y-139045000I0J-250000D01*
G01*
X180335000Y-139945000D01*
G75*
G02*
X180085000Y-140195000I-250000J0D01*
G01*
X179560000Y-140195000D01*
G75*
G02*
X179310000Y-139945000I0J250000D01*
G01*
G37*
G36*
G01*
X181135000Y-139945000D02*
X181135000Y-139045000D01*
G75*
G02*
X181385000Y-138795000I250000J0D01*
G01*
X181910000Y-138795000D01*
G75*
G02*
X182160000Y-139045000I0J-250000D01*
G01*
X182160000Y-139945000D01*
G75*
G02*
X181910000Y-140195000I-250000J0D01*
G01*
X181385000Y-140195000D01*
G75*
G02*
X181135000Y-139945000I0J250000D01*
G01*
G37*
G36*
G01*
X168295000Y-67150000D02*
X168295000Y-66250000D01*
G75*
G02*
X168545000Y-66000000I250000J0D01*
G01*
X169070000Y-66000000D01*
G75*
G02*
X169320000Y-66250000I0J-250000D01*
G01*
X169320000Y-67150000D01*
G75*
G02*
X169070000Y-67400000I-250000J0D01*
G01*
X168545000Y-67400000D01*
G75*
G02*
X168295000Y-67150000I0J250000D01*
G01*
G37*
G36*
G01*
X170120000Y-67150000D02*
X170120000Y-66250000D01*
G75*
G02*
X170370000Y-66000000I250000J0D01*
G01*
X170895000Y-66000000D01*
G75*
G02*
X171145000Y-66250000I0J-250000D01*
G01*
X171145000Y-67150000D01*
G75*
G02*
X170895000Y-67400000I-250000J0D01*
G01*
X170370000Y-67400000D01*
G75*
G02*
X170120000Y-67150000I0J250000D01*
G01*
G37*
G36*
G01*
X118825000Y-58000000D02*
X118825000Y-58900000D01*
G75*
G02*
X118575000Y-59150000I-250000J0D01*
G01*
X118050000Y-59150000D01*
G75*
G02*
X117800000Y-58900000I0J250000D01*
G01*
X117800000Y-58000000D01*
G75*
G02*
X118050000Y-57750000I250000J0D01*
G01*
X118575000Y-57750000D01*
G75*
G02*
X118825000Y-58000000I0J-250000D01*
G01*
G37*
G36*
G01*
X117000000Y-58000000D02*
X117000000Y-58900000D01*
G75*
G02*
X116750000Y-59150000I-250000J0D01*
G01*
X116225000Y-59150000D01*
G75*
G02*
X115975000Y-58900000I0J250000D01*
G01*
X115975000Y-58000000D01*
G75*
G02*
X116225000Y-57750000I250000J0D01*
G01*
X116750000Y-57750000D01*
G75*
G02*
X117000000Y-58000000I0J-250000D01*
G01*
G37*
G36*
G01*
X132425000Y-101137500D02*
X131475000Y-101137500D01*
G75*
G02*
X131225000Y-100887500I0J250000D01*
G01*
X131225000Y-100387500D01*
G75*
G02*
X131475000Y-100137500I250000J0D01*
G01*
X132425000Y-100137500D01*
G75*
G02*
X132675000Y-100387500I0J-250000D01*
G01*
X132675000Y-100887500D01*
G75*
G02*
X132425000Y-101137500I-250000J0D01*
G01*
G37*
G36*
G01*
X132425000Y-99237500D02*
X131475000Y-99237500D01*
G75*
G02*
X131225000Y-98987500I0J250000D01*
G01*
X131225000Y-98487500D01*
G75*
G02*
X131475000Y-98237500I250000J0D01*
G01*
X132425000Y-98237500D01*
G75*
G02*
X132675000Y-98487500I0J-250000D01*
G01*
X132675000Y-98987500D01*
G75*
G02*
X132425000Y-99237500I-250000J0D01*
G01*
G37*
G36*
G01*
X188725000Y-127550000D02*
X188725000Y-128450000D01*
G75*
G02*
X188475000Y-128700000I-250000J0D01*
G01*
X187950000Y-128700000D01*
G75*
G02*
X187700000Y-128450000I0J250000D01*
G01*
X187700000Y-127550000D01*
G75*
G02*
X187950000Y-127300000I250000J0D01*
G01*
X188475000Y-127300000D01*
G75*
G02*
X188725000Y-127550000I0J-250000D01*
G01*
G37*
G36*
G01*
X186900000Y-127550000D02*
X186900000Y-128450000D01*
G75*
G02*
X186650000Y-128700000I-250000J0D01*
G01*
X186125000Y-128700000D01*
G75*
G02*
X185875000Y-128450000I0J250000D01*
G01*
X185875000Y-127550000D01*
G75*
G02*
X186125000Y-127300000I250000J0D01*
G01*
X186650000Y-127300000D01*
G75*
G02*
X186900000Y-127550000I0J-250000D01*
G01*
G37*
G36*
G01*
X172420000Y-69375000D02*
X172120000Y-69375000D01*
G75*
G02*
X171970000Y-69225000I0J150000D01*
G01*
X171970000Y-68050000D01*
G75*
G02*
X172120000Y-67900000I150000J0D01*
G01*
X172420000Y-67900000D01*
G75*
G02*
X172570000Y-68050000I0J-150000D01*
G01*
X172570000Y-69225000D01*
G75*
G02*
X172420000Y-69375000I-150000J0D01*
G01*
G37*
G36*
G01*
X174320000Y-69375000D02*
X174020000Y-69375000D01*
G75*
G02*
X173870000Y-69225000I0J150000D01*
G01*
X173870000Y-68050000D01*
G75*
G02*
X174020000Y-67900000I150000J0D01*
G01*
X174320000Y-67900000D01*
G75*
G02*
X174470000Y-68050000I0J-150000D01*
G01*
X174470000Y-69225000D01*
G75*
G02*
X174320000Y-69375000I-150000J0D01*
G01*
G37*
G36*
G01*
X173370000Y-67500000D02*
X173070000Y-67500000D01*
G75*
G02*
X172920000Y-67350000I0J150000D01*
G01*
X172920000Y-66175000D01*
G75*
G02*
X173070000Y-66025000I150000J0D01*
G01*
X173370000Y-66025000D01*
G75*
G02*
X173520000Y-66175000I0J-150000D01*
G01*
X173520000Y-67350000D01*
G75*
G02*
X173370000Y-67500000I-150000J0D01*
G01*
G37*
G36*
G01*
X179600000Y-123805000D02*
X179600000Y-122905000D01*
G75*
G02*
X179850000Y-122655000I250000J0D01*
G01*
X180500000Y-122655000D01*
G75*
G02*
X180750000Y-122905000I0J-250000D01*
G01*
X180750000Y-123805000D01*
G75*
G02*
X180500000Y-124055000I-250000J0D01*
G01*
X179850000Y-124055000D01*
G75*
G02*
X179600000Y-123805000I0J250000D01*
G01*
G37*
G36*
G01*
X181650000Y-123805000D02*
X181650000Y-122905000D01*
G75*
G02*
X181900000Y-122655000I250000J0D01*
G01*
X182550000Y-122655000D01*
G75*
G02*
X182800000Y-122905000I0J-250000D01*
G01*
X182800000Y-123805000D01*
G75*
G02*
X182550000Y-124055000I-250000J0D01*
G01*
X181900000Y-124055000D01*
G75*
G02*
X181650000Y-123805000I0J250000D01*
G01*
G37*
G36*
G01*
X188712500Y-138050000D02*
X188712500Y-138950000D01*
G75*
G02*
X188462500Y-139200000I-250000J0D01*
G01*
X187937500Y-139200000D01*
G75*
G02*
X187687500Y-138950000I0J250000D01*
G01*
X187687500Y-138050000D01*
G75*
G02*
X187937500Y-137800000I250000J0D01*
G01*
X188462500Y-137800000D01*
G75*
G02*
X188712500Y-138050000I0J-250000D01*
G01*
G37*
G36*
G01*
X186887500Y-138050000D02*
X186887500Y-138950000D01*
G75*
G02*
X186637500Y-139200000I-250000J0D01*
G01*
X186112500Y-139200000D01*
G75*
G02*
X185862500Y-138950000I0J250000D01*
G01*
X185862500Y-138050000D01*
G75*
G02*
X186112500Y-137800000I250000J0D01*
G01*
X186637500Y-137800000D01*
G75*
G02*
X186887500Y-138050000I0J-250000D01*
G01*
G37*
G36*
G01*
X194525000Y-110550000D02*
X194525000Y-111450000D01*
G75*
G02*
X194275000Y-111700000I-250000J0D01*
G01*
X193750000Y-111700000D01*
G75*
G02*
X193500000Y-111450000I0J250000D01*
G01*
X193500000Y-110550000D01*
G75*
G02*
X193750000Y-110300000I250000J0D01*
G01*
X194275000Y-110300000D01*
G75*
G02*
X194525000Y-110550000I0J-250000D01*
G01*
G37*
G36*
G01*
X192700000Y-110550000D02*
X192700000Y-111450000D01*
G75*
G02*
X192450000Y-111700000I-250000J0D01*
G01*
X191925000Y-111700000D01*
G75*
G02*
X191675000Y-111450000I0J250000D01*
G01*
X191675000Y-110550000D01*
G75*
G02*
X191925000Y-110300000I250000J0D01*
G01*
X192450000Y-110300000D01*
G75*
G02*
X192700000Y-110550000I0J-250000D01*
G01*
G37*
D11*
X190200000Y-127750000D03*
X190200000Y-131050000D03*
D15*
X147600000Y-65360000D03*
X143600000Y-65360000D03*
G36*
G01*
X188725000Y-119050000D02*
X188725000Y-119950000D01*
G75*
G02*
X188475000Y-120200000I-250000J0D01*
G01*
X187950000Y-120200000D01*
G75*
G02*
X187700000Y-119950000I0J250000D01*
G01*
X187700000Y-119050000D01*
G75*
G02*
X187950000Y-118800000I250000J0D01*
G01*
X188475000Y-118800000D01*
G75*
G02*
X188725000Y-119050000I0J-250000D01*
G01*
G37*
G36*
G01*
X186900000Y-119050000D02*
X186900000Y-119950000D01*
G75*
G02*
X186650000Y-120200000I-250000J0D01*
G01*
X186125000Y-120200000D01*
G75*
G02*
X185875000Y-119950000I0J250000D01*
G01*
X185875000Y-119050000D01*
G75*
G02*
X186125000Y-118800000I250000J0D01*
G01*
X186650000Y-118800000D01*
G75*
G02*
X186900000Y-119050000I0J-250000D01*
G01*
G37*
G36*
G01*
X182525000Y-124905000D02*
X182525000Y-125805000D01*
G75*
G02*
X182275000Y-126055000I-250000J0D01*
G01*
X181750000Y-126055000D01*
G75*
G02*
X181500000Y-125805000I0J250000D01*
G01*
X181500000Y-124905000D01*
G75*
G02*
X181750000Y-124655000I250000J0D01*
G01*
X182275000Y-124655000D01*
G75*
G02*
X182525000Y-124905000I0J-250000D01*
G01*
G37*
G36*
G01*
X180700000Y-124905000D02*
X180700000Y-125805000D01*
G75*
G02*
X180450000Y-126055000I-250000J0D01*
G01*
X179925000Y-126055000D01*
G75*
G02*
X179675000Y-125805000I0J250000D01*
G01*
X179675000Y-124905000D01*
G75*
G02*
X179925000Y-124655000I250000J0D01*
G01*
X180450000Y-124655000D01*
G75*
G02*
X180700000Y-124905000I0J-250000D01*
G01*
G37*
G36*
G01*
X172420000Y-85375000D02*
X172120000Y-85375000D01*
G75*
G02*
X171970000Y-85225000I0J150000D01*
G01*
X171970000Y-84050000D01*
G75*
G02*
X172120000Y-83900000I150000J0D01*
G01*
X172420000Y-83900000D01*
G75*
G02*
X172570000Y-84050000I0J-150000D01*
G01*
X172570000Y-85225000D01*
G75*
G02*
X172420000Y-85375000I-150000J0D01*
G01*
G37*
G36*
G01*
X174320000Y-85375000D02*
X174020000Y-85375000D01*
G75*
G02*
X173870000Y-85225000I0J150000D01*
G01*
X173870000Y-84050000D01*
G75*
G02*
X174020000Y-83900000I150000J0D01*
G01*
X174320000Y-83900000D01*
G75*
G02*
X174470000Y-84050000I0J-150000D01*
G01*
X174470000Y-85225000D01*
G75*
G02*
X174320000Y-85375000I-150000J0D01*
G01*
G37*
G36*
G01*
X173370000Y-83500000D02*
X173070000Y-83500000D01*
G75*
G02*
X172920000Y-83350000I0J150000D01*
G01*
X172920000Y-82175000D01*
G75*
G02*
X173070000Y-82025000I150000J0D01*
G01*
X173370000Y-82025000D01*
G75*
G02*
X173520000Y-82175000I0J-150000D01*
G01*
X173520000Y-83350000D01*
G75*
G02*
X173370000Y-83500000I-150000J0D01*
G01*
G37*
G36*
G01*
X120515000Y-99850000D02*
X120515000Y-98900000D01*
G75*
G02*
X120765000Y-98650000I250000J0D01*
G01*
X121265000Y-98650000D01*
G75*
G02*
X121515000Y-98900000I0J-250000D01*
G01*
X121515000Y-99850000D01*
G75*
G02*
X121265000Y-100100000I-250000J0D01*
G01*
X120765000Y-100100000D01*
G75*
G02*
X120515000Y-99850000I0J250000D01*
G01*
G37*
G36*
G01*
X122415000Y-99850000D02*
X122415000Y-98900000D01*
G75*
G02*
X122665000Y-98650000I250000J0D01*
G01*
X123165000Y-98650000D01*
G75*
G02*
X123415000Y-98900000I0J-250000D01*
G01*
X123415000Y-99850000D01*
G75*
G02*
X123165000Y-100100000I-250000J0D01*
G01*
X122665000Y-100100000D01*
G75*
G02*
X122415000Y-99850000I0J250000D01*
G01*
G37*
G36*
G01*
X151725000Y-105850000D02*
X151725000Y-106750000D01*
G75*
G02*
X151475000Y-107000000I-250000J0D01*
G01*
X150950000Y-107000000D01*
G75*
G02*
X150700000Y-106750000I0J250000D01*
G01*
X150700000Y-105850000D01*
G75*
G02*
X150950000Y-105600000I250000J0D01*
G01*
X151475000Y-105600000D01*
G75*
G02*
X151725000Y-105850000I0J-250000D01*
G01*
G37*
G36*
G01*
X149900000Y-105850000D02*
X149900000Y-106750000D01*
G75*
G02*
X149650000Y-107000000I-250000J0D01*
G01*
X149125000Y-107000000D01*
G75*
G02*
X148875000Y-106750000I0J250000D01*
G01*
X148875000Y-105850000D01*
G75*
G02*
X149125000Y-105600000I250000J0D01*
G01*
X149650000Y-105600000D01*
G75*
G02*
X149900000Y-105850000I0J-250000D01*
G01*
G37*
D11*
X190200000Y-110750000D03*
X190200000Y-114050000D03*
G36*
G01*
X115975000Y-63000000D02*
X115975000Y-62100000D01*
G75*
G02*
X116225000Y-61850000I250000J0D01*
G01*
X116750000Y-61850000D01*
G75*
G02*
X117000000Y-62100000I0J-250000D01*
G01*
X117000000Y-63000000D01*
G75*
G02*
X116750000Y-63250000I-250000J0D01*
G01*
X116225000Y-63250000D01*
G75*
G02*
X115975000Y-63000000I0J250000D01*
G01*
G37*
G36*
G01*
X117800000Y-63000000D02*
X117800000Y-62100000D01*
G75*
G02*
X118050000Y-61850000I250000J0D01*
G01*
X118575000Y-61850000D01*
G75*
G02*
X118825000Y-62100000I0J-250000D01*
G01*
X118825000Y-63000000D01*
G75*
G02*
X118575000Y-63250000I-250000J0D01*
G01*
X118050000Y-63250000D01*
G75*
G02*
X117800000Y-63000000I0J250000D01*
G01*
G37*
G36*
G01*
X140050000Y-63210000D02*
X138750000Y-63210000D01*
G75*
G02*
X138500000Y-62960000I0J250000D01*
G01*
X138500000Y-62310000D01*
G75*
G02*
X138750000Y-62060000I250000J0D01*
G01*
X140050000Y-62060000D01*
G75*
G02*
X140300000Y-62310000I0J-250000D01*
G01*
X140300000Y-62960000D01*
G75*
G02*
X140050000Y-63210000I-250000J0D01*
G01*
G37*
G36*
G01*
X140050000Y-60260000D02*
X138750000Y-60260000D01*
G75*
G02*
X138500000Y-60010000I0J250000D01*
G01*
X138500000Y-59360000D01*
G75*
G02*
X138750000Y-59110000I250000J0D01*
G01*
X140050000Y-59110000D01*
G75*
G02*
X140300000Y-59360000I0J-250000D01*
G01*
X140300000Y-60010000D01*
G75*
G02*
X140050000Y-60260000I-250000J0D01*
G01*
G37*
G36*
G01*
X111950000Y-119150000D02*
X110650000Y-119150000D01*
G75*
G02*
X110400000Y-118900000I0J250000D01*
G01*
X110400000Y-118250000D01*
G75*
G02*
X110650000Y-118000000I250000J0D01*
G01*
X111950000Y-118000000D01*
G75*
G02*
X112200000Y-118250000I0J-250000D01*
G01*
X112200000Y-118900000D01*
G75*
G02*
X111950000Y-119150000I-250000J0D01*
G01*
G37*
G36*
G01*
X111950000Y-116200000D02*
X110650000Y-116200000D01*
G75*
G02*
X110400000Y-115950000I0J250000D01*
G01*
X110400000Y-115300000D01*
G75*
G02*
X110650000Y-115050000I250000J0D01*
G01*
X111950000Y-115050000D01*
G75*
G02*
X112200000Y-115300000I0J-250000D01*
G01*
X112200000Y-115950000D01*
G75*
G02*
X111950000Y-116200000I-250000J0D01*
G01*
G37*
M02*
